<?xml version="1.0" encoding="us-ascii" standalone="no"?><svg xmlns="http://www.w3.org/2000/svg" xmlns:xlink="http://www.w3.org/1999/xlink" contentStyleType="text/css" height="427px" preserveAspectRatio="none" style="width:626px;height:427px;background:#FFFFFF;" version="1.1" viewBox="0 0 626 427" width="626px" zoomAndPan="magnify"><defs/><g><ellipse cx="330.5" cy="20" fill="#222222" rx="10" ry="10" style="stroke:#222222;stroke-width:1.0;"/><rect fill="#F1F1F1" height="34.1328" rx="12.5" ry="12.5" style="stroke:#181818;stroke-width:0.5;" width="162" x="249.5" y="50"/><text fill="#000000" font-family="sans-serif" font-size="12" lengthAdjust="spacing" textLength="142" x="259.5" y="71.6016">Retrieve book ID from UI</text><rect fill="#F1F1F1" height="34.1328" rx="12.5" ry="12.5" style="stroke:#181818;stroke-width:0.5;" width="162" x="249.5" y="104.1328"/><text fill="#000000" font-family="sans-serif" font-size="12" lengthAdjust="spacing" textLength="142" x="259.5" y="125.7344">Parse book ID as integer</text><polygon fill="#F1F1F1" points="261,158.2656,400,158.2656,412,170.2656,400,182.2656,261,182.2656,249,170.2656,261,158.2656" style="stroke:#181818;stroke-width:0.5;"/><text fill="#000000" font-family="sans-serif" font-size="11" lengthAdjust="spacing" textLength="139" x="261" y="174.4229">Delete ManageBook entry?</text><text fill="#000000" font-family="sans-serif" font-size="11" lengthAdjust="spacing" textLength="19" x="230" y="167.9453">Yes</text><text fill="#000000" font-family="sans-serif" font-size="11" lengthAdjust="spacing" textLength="15" x="412" y="167.9453">No</text><polygon fill="#F1F1F1" points="115,192.2656,213,192.2656,225,204.2656,213,216.2656,115,216.2656,103,204.2656,115,192.2656" style="stroke:#181818;stroke-width:0.5;"/><text fill="#000000" font-family="sans-serif" font-size="11" lengthAdjust="spacing" textLength="98" x="115" y="208.4229">Delete Book entry?</text><text fill="#000000" font-family="sans-serif" font-size="11" lengthAdjust="spacing" textLength="19" x="84" y="201.9453">Yes</text><text fill="#000000" font-family="sans-serif" font-size="11" lengthAdjust="spacing" textLength="15" x="225" y="201.9453">No</text><rect fill="#F1F1F1" height="34.1328" rx="12.5" ry="12.5" style="stroke:#181818;stroke-width:0.5;" width="127" x="11" y="226.2656"/><text fill="#000000" font-family="sans-serif" font-size="12" lengthAdjust="spacing" textLength="107" x="21" y="247.8672">Show success alert</text><rect fill="#F1F1F1" height="34.1328" rx="12.5" ry="12.5" style="stroke:#181818;stroke-width:0.5;" width="191" x="158" y="226.2656"/><text fill="#000000" font-family="sans-serif" font-size="12" lengthAdjust="spacing" textLength="171" x="168" y="247.8672">Show Book delete failure alert</text><polygon fill="#F1F1F1" points="164,266.3984,176,278.3984,164,290.3984,152,278.3984,164,266.3984" style="stroke:#181818;stroke-width:0.5;"/><rect fill="#F1F1F1" height="34.1328" rx="12.5" ry="12.5" style="stroke:#181818;stroke-width:0.5;" width="236" x="379" y="192.2656"/><text fill="#000000" font-family="sans-serif" font-size="12" lengthAdjust="spacing" textLength="216" x="389" y="213.8672">Show ManageBook delete failure alert</text><polygon fill="#F1F1F1" points="330.5,296.3984,342.5,308.3984,330.5,320.3984,318.5,308.3984,330.5,296.3984" style="stroke:#181818;stroke-width:0.5;"/><rect fill="#F1F1F1" height="34.1328" rx="12.5" ry="12.5" style="stroke:#181818;stroke-width:0.5;" width="109" x="276" y="340.3984"/><text fill="#000000" font-family="sans-serif" font-size="12" lengthAdjust="spacing" textLength="89" x="286" y="362">Refresh UI data</text><ellipse cx="330.5" cy="405.5313" fill="none" rx="11" ry="11" style="stroke:#222222;stroke-width:1.0;"/><ellipse cx="330.5" cy="405.5313" fill="#222222" rx="6" ry="6" style="stroke:#222222;stroke-width:1.0;"/><line style="stroke:#181818;stroke-width:1.0;" x1="330.5" x2="330.5" y1="30" y2="50"/><polygon fill="#181818" points="326.5,40,330.5,50,334.5,40,330.5,44" style="stroke:#181818;stroke-width:1.0;"/><line style="stroke:#181818;stroke-width:1.0;" x1="330.5" x2="330.5" y1="84.1328" y2="104.1328"/><polygon fill="#181818" points="326.5,94.1328,330.5,104.1328,334.5,94.1328,330.5,98.1328" style="stroke:#181818;stroke-width:1.0;"/><line style="stroke:#181818;stroke-width:1.0;" x1="103" x2="74.5" y1="204.2656" y2="204.2656"/><line style="stroke:#181818;stroke-width:1.0;" x1="74.5" x2="74.5" y1="204.2656" y2="226.2656"/><polygon fill="#181818" points="70.5,216.2656,74.5,226.2656,78.5,216.2656,74.5,220.2656" style="stroke:#181818;stroke-width:1.0;"/><line style="stroke:#181818;stroke-width:1.0;" x1="225" x2="253.5" y1="204.2656" y2="204.2656"/><line style="stroke:#181818;stroke-width:1.0;" x1="253.5" x2="253.5" y1="204.2656" y2="226.2656"/><polygon fill="#181818" points="249.5,216.2656,253.5,226.2656,257.5,216.2656,253.5,220.2656" style="stroke:#181818;stroke-width:1.0;"/><line style="stroke:#181818;stroke-width:1.0;" x1="74.5" x2="74.5" y1="260.3984" y2="278.3984"/><line style="stroke:#181818;stroke-width:1.0;" x1="74.5" x2="152" y1="278.3984" y2="278.3984"/><polygon fill="#181818" points="142,274.3984,152,278.3984,142,282.3984,146,278.3984" style="stroke:#181818;stroke-width:1.0;"/><line style="stroke:#181818;stroke-width:1.0;" x1="253.5" x2="253.5" y1="260.3984" y2="278.3984"/><line style="stroke:#181818;stroke-width:1.0;" x1="253.5" x2="176" y1="278.3984" y2="278.3984"/><polygon fill="#181818" points="186,274.3984,176,278.3984,186,282.3984,182,278.3984" style="stroke:#181818;stroke-width:1.0;"/><line style="stroke:#181818;stroke-width:1.0;" x1="249" x2="164" y1="170.2656" y2="170.2656"/><line style="stroke:#181818;stroke-width:1.0;" x1="164" x2="164" y1="170.2656" y2="192.2656"/><polygon fill="#181818" points="160,182.2656,164,192.2656,168,182.2656,164,186.2656" style="stroke:#181818;stroke-width:1.0;"/><line style="stroke:#181818;stroke-width:1.0;" x1="412" x2="497" y1="170.2656" y2="170.2656"/><line style="stroke:#181818;stroke-width:1.0;" x1="497" x2="497" y1="170.2656" y2="192.2656"/><polygon fill="#181818" points="493,182.2656,497,192.2656,501,182.2656,497,186.2656" style="stroke:#181818;stroke-width:1.0;"/><line style="stroke:#181818;stroke-width:1.0;" x1="164" x2="164" y1="290.3984" y2="308.3984"/><line style="stroke:#181818;stroke-width:1.0;" x1="164" x2="318.5" y1="308.3984" y2="308.3984"/><polygon fill="#181818" points="308.5,304.3984,318.5,308.3984,308.5,312.3984,312.5,308.3984" style="stroke:#181818;stroke-width:1.0;"/><line style="stroke:#181818;stroke-width:1.0;" x1="497" x2="497" y1="226.3984" y2="308.3984"/><line style="stroke:#181818;stroke-width:1.0;" x1="497" x2="342.5" y1="308.3984" y2="308.3984"/><polygon fill="#181818" points="352.5,304.3984,342.5,308.3984,352.5,312.3984,348.5,308.3984" style="stroke:#181818;stroke-width:1.0;"/><line style="stroke:#181818;stroke-width:1.0;" x1="330.5" x2="330.5" y1="138.2656" y2="158.2656"/><polygon fill="#181818" points="326.5,148.2656,330.5,158.2656,334.5,148.2656,330.5,152.2656" style="stroke:#181818;stroke-width:1.0;"/><line style="stroke:#181818;stroke-width:1.0;" x1="330.5" x2="330.5" y1="320.3984" y2="340.3984"/><polygon fill="#181818" points="326.5,330.3984,330.5,340.3984,334.5,330.3984,330.5,334.3984" style="stroke:#181818;stroke-width:1.0;"/><line style="stroke:#181818;stroke-width:1.0;" x1="330.5" x2="330.5" y1="374.5313" y2="394.5313"/><polygon fill="#181818" points="326.5,384.5313,330.5,394.5313,334.5,384.5313,330.5,388.5313" style="stroke:#181818;stroke-width:1.0;"/><!--SRC=[VP2n3i9034Ft-ugCxI-q0nBgmW1280R6G7tqHBb3IGhYxodjG448ZucVPLcDnLonWKd03NH8wKoBYhoa2-qMfIlMBFg-irA8XXEaTC5JLg65WPOS-OJvouHeyfZbP0qYPNjexgZNnFpFzbAnRTATj3iUeKhSGgmSdcZx9jagVLk7m7eCznpQJl21nJfuzmcFuAJsRtn4-tcyG9j-4AhPk7HgwVe4]--></g></svg>