<?xml version="1.0" encoding="us-ascii" standalone="no"?><svg xmlns="http://www.w3.org/2000/svg" xmlns:xlink="http://www.w3.org/1999/xlink" contentStyleType="text/css" height="527px" preserveAspectRatio="none" style="width:564px;height:527px;background:#FFFFFF;" version="1.1" viewBox="0 0 564 527" width="564px" zoomAndPan="magnify"><defs/><g><rect fill="none" height="230.4844" style="stroke:#000000;stroke-width:1.5;" width="548" x="10" y="170.1094"/><rect fill="none" height="169.8633" style="stroke:#000000;stroke-width:1.5;" width="528" x="20" y="223.7305"/><rect fill="none" height="77.9316" style="stroke:#000000;stroke-width:1.5;" width="327.5" x="30" y="277.3516"/><line style="stroke:#181818;stroke-width:0.5;stroke-dasharray:5.0,5.0;" x1="58" x2="58" y1="81.4883" y2="446.9043"/><line style="stroke:#181818;stroke-width:0.5;stroke-dasharray:5.0,5.0;" x1="316.5" x2="316.5" y1="81.4883" y2="446.9043"/><line style="stroke:#181818;stroke-width:0.5;stroke-dasharray:5.0,5.0;" x1="499" x2="499" y1="81.4883" y2="446.9043"/><text fill="#000000" font-family="sans-serif" font-size="14" lengthAdjust="spacing" textLength="31" x="40" y="78.5352">User</text><ellipse cx="58.5" cy="13.5" fill="#E2E2F0" rx="8" ry="8" style="stroke:#181818;stroke-width:0.5;"/><path d="M58.5,21.5 L58.5,48.5 M45.5,29.5 L71.5,29.5 M58.5,48.5 L45.5,63.5 M58.5,48.5 L71.5,63.5 " fill="none" style="stroke:#181818;stroke-width:0.5;"/><text fill="#000000" font-family="sans-serif" font-size="14" lengthAdjust="spacing" textLength="31" x="40" y="459.4395">User</text><ellipse cx="58.5" cy="470.8926" fill="#E2E2F0" rx="8" ry="8" style="stroke:#181818;stroke-width:0.5;"/><path d="M58.5,478.8926 L58.5,505.8926 M45.5,486.8926 L71.5,486.8926 M58.5,505.8926 L45.5,520.8926 M58.5,505.8926 L71.5,520.8926 " fill="none" style="stroke:#181818;stroke-width:0.5;"/><rect fill="#E2E2F0" height="30.4883" rx="2.5" ry="2.5" style="stroke:#181818;stroke-width:0.5;" width="62" x="285.5" y="50"/><text fill="#000000" font-family="sans-serif" font-size="14" lengthAdjust="spacing" textLength="48" x="292.5" y="70.5352">System</text><rect fill="#E2E2F0" height="30.4883" rx="2.5" ry="2.5" style="stroke:#181818;stroke-width:0.5;" width="62" x="285.5" y="445.9043"/><text fill="#000000" font-family="sans-serif" font-size="14" lengthAdjust="spacing" textLength="48" x="292.5" y="466.4395">System</text><rect fill="#E2E2F0" height="30.4883" rx="2.5" ry="2.5" style="stroke:#181818;stroke-width:0.5;" width="77" x="461" y="50"/><text fill="#000000" font-family="sans-serif" font-size="14" lengthAdjust="spacing" textLength="63" x="468" y="70.5352">Database</text><rect fill="#E2E2F0" height="30.4883" rx="2.5" ry="2.5" style="stroke:#181818;stroke-width:0.5;" width="77" x="461" y="445.9043"/><text fill="#000000" font-family="sans-serif" font-size="14" lengthAdjust="spacing" textLength="63" x="468" y="466.4395">Database</text><polygon fill="#181818" points="304.5,108.7988,314.5,112.7988,304.5,116.7988,308.5,112.7988" style="stroke:#181818;stroke-width:1.0;"/><line style="stroke:#181818;stroke-width:1.0;" x1="58.5" x2="310.5" y1="112.7988" y2="112.7988"/><text fill="#000000" font-family="sans-serif" font-size="13" lengthAdjust="spacing" textLength="155" x="65.5" y="108.0566">Retrieve book ID from UI</text><line style="stroke:#181818;stroke-width:1.0;" x1="316.5" x2="358.5" y1="142.1094" y2="142.1094"/><line style="stroke:#181818;stroke-width:1.0;" x1="358.5" x2="358.5" y1="142.1094" y2="155.1094"/><line style="stroke:#181818;stroke-width:1.0;" x1="317.5" x2="358.5" y1="155.1094" y2="155.1094"/><polygon fill="#181818" points="327.5,151.1094,317.5,155.1094,327.5,159.1094,323.5,155.1094" style="stroke:#181818;stroke-width:1.0;"/><text fill="#000000" font-family="sans-serif" font-size="13" lengthAdjust="spacing" textLength="153" x="323.5" y="137.3672">Parse book ID as integer</text><path d="M10,170.1094 L72,170.1094 L72,177.4199 L62,187.4199 L10,187.4199 L10,170.1094 " fill="#EEEEEE" style="stroke:#000000;stroke-width:1.5;"/><rect fill="none" height="230.4844" style="stroke:#000000;stroke-width:1.5;" width="548" x="10" y="170.1094"/><text fill="#000000" font-family="sans-serif" font-size="13" font-weight="bold" lengthAdjust="spacing" textLength="17" x="25" y="183.6777">alt</text><text fill="#000000" font-family="sans-serif" font-size="11" font-weight="bold" lengthAdjust="spacing" textLength="149" x="87" y="182.7441">[Delete ManageBook entry]</text><polygon fill="#181818" points="487.5,204.7305,497.5,208.7305,487.5,212.7305,491.5,208.7305" style="stroke:#181818;stroke-width:1.0;"/><line style="stroke:#181818;stroke-width:1.0;" x1="316.5" x2="493.5" y1="208.7305" y2="208.7305"/><text fill="#000000" font-family="sans-serif" font-size="13" lengthAdjust="spacing" textLength="159" x="323.5" y="203.9883">Delete ManageBook entry</text><path d="M20,223.7305 L82,223.7305 L82,231.041 L72,241.041 L20,241.041 L20,223.7305 " fill="#EEEEEE" style="stroke:#000000;stroke-width:1.5;"/><rect fill="none" height="169.8633" style="stroke:#000000;stroke-width:1.5;" width="528" x="20" y="223.7305"/><text fill="#000000" font-family="sans-serif" font-size="13" font-weight="bold" lengthAdjust="spacing" textLength="17" x="35" y="237.2988">alt</text><text fill="#000000" font-family="sans-serif" font-size="11" font-weight="bold" lengthAdjust="spacing" textLength="106" x="97" y="236.3652">[Delete successful]</text><polygon fill="#181818" points="487.5,258.3516,497.5,262.3516,487.5,266.3516,491.5,262.3516" style="stroke:#181818;stroke-width:1.0;"/><line style="stroke:#181818;stroke-width:1.0;" x1="316.5" x2="493.5" y1="262.3516" y2="262.3516"/><text fill="#000000" font-family="sans-serif" font-size="13" lengthAdjust="spacing" textLength="111" x="323.5" y="257.6094">Delete Book entry</text><path d="M30,277.3516 L92,277.3516 L92,284.6621 L82,294.6621 L30,294.6621 L30,277.3516 " fill="#EEEEEE" style="stroke:#000000;stroke-width:1.5;"/><rect fill="none" height="77.9316" style="stroke:#000000;stroke-width:1.5;" width="327.5" x="30" y="277.3516"/><text fill="#000000" font-family="sans-serif" font-size="13" font-weight="bold" lengthAdjust="spacing" textLength="17" x="45" y="290.9199">alt</text><text fill="#000000" font-family="sans-serif" font-size="11" font-weight="bold" lengthAdjust="spacing" textLength="106" x="107" y="289.9863">[Delete successful]</text><polygon fill="#181818" points="69.5,311.9727,59.5,315.9727,69.5,319.9727,65.5,315.9727" style="stroke:#181818;stroke-width:1.0;"/><line style="stroke:#181818;stroke-width:1.0;" x1="63.5" x2="315.5" y1="315.9727" y2="315.9727"/><text fill="#000000" font-family="sans-serif" font-size="13" lengthAdjust="spacing" textLength="119" x="75.5" y="311.2305">Show success alert</text><line style="stroke:#000000;stroke-width:1.0;stroke-dasharray:2.0,2.0;" x1="30" x2="357.5" y1="324.9727" y2="324.9727"/><polygon fill="#181818" points="69.5,343.2832,59.5,347.2832,69.5,351.2832,65.5,347.2832" style="stroke:#181818;stroke-width:1.0;"/><line style="stroke:#181818;stroke-width:1.0;" x1="63.5" x2="315.5" y1="347.2832" y2="347.2832"/><text fill="#000000" font-family="sans-serif" font-size="13" lengthAdjust="spacing" textLength="186" x="75.5" y="342.541">Show Book delete failure alert</text><line style="stroke:#000000;stroke-width:1.0;stroke-dasharray:2.0,2.0;" x1="20" x2="548" y1="363.2832" y2="363.2832"/><polygon fill="#181818" points="69.5,381.5938,59.5,385.5938,69.5,389.5938,65.5,385.5938" style="stroke:#181818;stroke-width:1.0;"/><line style="stroke:#181818;stroke-width:1.0;" x1="63.5" x2="315.5" y1="385.5938" y2="385.5938"/><text fill="#000000" font-family="sans-serif" font-size="13" lengthAdjust="spacing" textLength="234" x="75.5" y="380.8516">Show ManageBook delete failure alert</text><polygon fill="#181818" points="69.5,424.9043,59.5,428.9043,69.5,432.9043,65.5,428.9043" style="stroke:#181818;stroke-width:1.0;"/><line style="stroke:#181818;stroke-width:1.0;" x1="63.5" x2="315.5" y1="428.9043" y2="428.9043"/><text fill="#000000" font-family="sans-serif" font-size="13" lengthAdjust="spacing" textLength="95" x="75.5" y="424.1621">Refresh UI data</text><!--SRC=[VP4nRiCm34LtdOB8tWjuw61uoL2WI903CFPt8bIH0f9kaTjNibj4AHeF0WJf_KSIvDwIq44XxifYllTNZaQR_KqDbmsnqd9z_ExO-CYA6UXQvug1Nbv_u8PsCF7u11rJ-g1jHwEa2nssRW5gz9r5xrps-MWuvOOS1wCE0GPwuyWdj0L2DBavehkfQviLhhBerFTG7QUGtvyO7h9hwJfVnczeVqvVlrGEGcm64HHhYRdYiDGOsOT9KAVZu2h7luPgwYUUOYd7_StlC0hqd5T3GrxgDm00]--></g></svg>