<?xml version="1.0" encoding="us-ascii" standalone="no"?><svg xmlns="http://www.w3.org/2000/svg" xmlns:xlink="http://www.w3.org/1999/xlink" contentStyleType="text/css" height="668px" preserveAspectRatio="none" style="width:1008px;height:668px;background:#FFFFFF;" version="1.1" viewBox="0 0 1008 668" width="1008px" zoomAndPan="magnify"><defs/><g><ellipse cx="528.5" cy="20" fill="#222222" rx="10" ry="10" style="stroke:#222222;stroke-width:1.0;"/><rect fill="#F1F1F1" height="34.1328" rx="12.5" ry="12.5" style="stroke:#181818;stroke-width:0.5;" width="143" x="457" y="50"/><text fill="#000000" font-family="sans-serif" font-size="12" lengthAdjust="spacing" textLength="123" x="467" y="71.6016">Retrieve data from UI</text><polygon fill="#F1F1F1" points="483.5,104.1328,573.5,104.1328,585.5,116.1328,573.5,128.1328,483.5,128.1328,471.5,116.1328,483.5,104.1328" style="stroke:#181818;stroke-width:0.5;"/><text fill="#000000" font-family="sans-serif" font-size="11" lengthAdjust="spacing" textLength="90" x="483.5" y="120.29">bookId is empty?</text><text fill="#000000" font-family="sans-serif" font-size="11" lengthAdjust="spacing" textLength="19" x="452.5" y="113.8125">Yes</text><text fill="#000000" font-family="sans-serif" font-size="11" lengthAdjust="spacing" textLength="15" x="585.5" y="113.8125">No</text><rect fill="#F1F1F1" height="34.1328" rx="12.5" ry="12.5" style="stroke:#181818;stroke-width:0.5;" width="219" x="160" y="138.1328"/><text fill="#000000" font-family="sans-serif" font-size="12" lengthAdjust="spacing" textLength="199" x="170" y="159.7344">Validate book name for duplicates</text><polygon fill="#F1F1F1" points="230.5,192.2656,308.5,192.2656,320.5,204.2656,308.5,216.2656,230.5,216.2656,218.5,204.2656,230.5,192.2656" style="stroke:#181818;stroke-width:0.5;"/><text fill="#000000" font-family="sans-serif" font-size="11" lengthAdjust="spacing" textLength="78" x="230.5" y="208.4229">No duplicates?</text><text fill="#000000" font-family="sans-serif" font-size="11" lengthAdjust="spacing" textLength="19" x="199.5" y="201.9453">Yes</text><text fill="#000000" font-family="sans-serif" font-size="11" lengthAdjust="spacing" textLength="15" x="320.5" y="201.9453">No</text><rect fill="#F1F1F1" height="34.1328" rx="12.5" ry="12.5" style="stroke:#181818;stroke-width:0.5;" width="150" x="71" y="226.2656"/><text fill="#000000" font-family="sans-serif" font-size="12" lengthAdjust="spacing" textLength="130" x="81" y="247.8672">Add book to database</text><rect fill="#F1F1F1" height="34.1328" rx="12.5" ry="12.5" style="stroke:#181818;stroke-width:0.5;" width="143" x="74.5" y="280.3984"/><text fill="#000000" font-family="sans-serif" font-size="12" lengthAdjust="spacing" textLength="123" x="84.5" y="302">Retrieve new book ID</text><rect fill="#F1F1F1" height="34.1328" rx="12.5" ry="12.5" style="stroke:#181818;stroke-width:0.5;" width="168" x="62" y="334.5313"/><text fill="#000000" font-family="sans-serif" font-size="12" lengthAdjust="spacing" textLength="148" x="72" y="356.1328">Create ManageBook entry</text><polygon fill="#F1F1F1" points="122,403.6641,170,403.6641,182,415.6641,170,427.6641,122,427.6641,110,415.6641,122,403.6641" style="stroke:#181818;stroke-width:0.5;"/><text fill="#000000" font-family="sans-serif" font-size="11" lengthAdjust="spacing" textLength="48" x="122" y="419.8213">Success?</text><text fill="#000000" font-family="sans-serif" font-size="11" lengthAdjust="spacing" textLength="19" x="91" y="413.3438">Yes</text><text fill="#000000" font-family="sans-serif" font-size="11" lengthAdjust="spacing" textLength="15" x="182" y="413.3438">No</text><rect fill="#F1F1F1" height="34.1328" rx="12.5" ry="12.5" style="stroke:#181818;stroke-width:0.5;" width="127" x="11" y="437.6641"/><text fill="#000000" font-family="sans-serif" font-size="12" lengthAdjust="spacing" textLength="107" x="21" y="459.2656">Show success alert</text><rect fill="#F1F1F1" height="34.1328" rx="12.5" ry="12.5" style="stroke:#181818;stroke-width:0.5;" width="119" x="158" y="437.6641"/><text fill="#000000" font-family="sans-serif" font-size="12" lengthAdjust="spacing" textLength="99" x="168" y="459.2656">Show failure alert</text><polygon fill="#F1F1F1" points="146,477.7969,158,489.7969,146,501.7969,134,489.7969,146,477.7969" style="stroke:#181818;stroke-width:0.5;"/><rect fill="#F1F1F1" height="34.1328" rx="12.5" ry="12.5" style="stroke:#181818;stroke-width:0.5;" width="172" x="307" y="226.2656"/><text fill="#000000" font-family="sans-serif" font-size="12" lengthAdjust="spacing" textLength="152" x="317" y="247.8672">Show duplicate book error</text><polygon fill="#F1F1F1" points="269.5,507.7969,281.5,519.7969,269.5,531.7969,257.5,519.7969,269.5,507.7969" style="stroke:#181818;stroke-width:0.5;"/><rect fill="#F1F1F1" height="34.1328" rx="12.5" ry="12.5" style="stroke:#181818;stroke-width:0.5;" width="200" x="687.5" y="138.1328"/><text fill="#000000" font-family="sans-serif" font-size="12" lengthAdjust="spacing" textLength="180" x="697.5" y="159.7344">Validate book name if changed</text><polygon fill="#F1F1F1" points="748.5,192.2656,826.5,192.2656,838.5,204.2656,826.5,216.2656,748.5,216.2656,736.5,204.2656,748.5,192.2656" style="stroke:#181818;stroke-width:0.5;"/><text fill="#000000" font-family="sans-serif" font-size="11" lengthAdjust="spacing" textLength="78" x="748.5" y="208.4229">No duplicates?</text><text fill="#000000" font-family="sans-serif" font-size="11" lengthAdjust="spacing" textLength="19" x="717.5" y="201.9453">Yes</text><text fill="#000000" font-family="sans-serif" font-size="11" lengthAdjust="spacing" textLength="15" x="838.5" y="201.9453">No</text><rect fill="#F1F1F1" height="34.1328" rx="12.5" ry="12.5" style="stroke:#181818;stroke-width:0.5;" width="137" x="595.5" y="226.2656"/><text fill="#000000" font-family="sans-serif" font-size="12" lengthAdjust="spacing" textLength="117" x="605.5" y="247.8672">Update book details</text><rect fill="#F1F1F1" height="34.1328" rx="12.5" ry="12.5" style="stroke:#181818;stroke-width:0.5;" width="172" x="578" y="280.3984"/><text fill="#000000" font-family="sans-serif" font-size="12" lengthAdjust="spacing" textLength="152" x="588" y="302">Update ManageBook entry</text><polygon fill="#F1F1F1" points="640,334.5313,688,334.5313,700,346.5313,688,358.5313,640,358.5313,628,346.5313,640,334.5313" style="stroke:#181818;stroke-width:0.5;"/><text fill="#000000" font-family="sans-serif" font-size="11" lengthAdjust="spacing" textLength="48" x="640" y="350.6885">Success?</text><text fill="#000000" font-family="sans-serif" font-size="11" lengthAdjust="spacing" textLength="19" x="609" y="344.2109">Yes</text><text fill="#000000" font-family="sans-serif" font-size="11" lengthAdjust="spacing" textLength="15" x="700" y="344.2109">No</text><rect fill="#F1F1F1" height="34.1328" rx="12.5" ry="12.5" style="stroke:#181818;stroke-width:0.5;" width="127" x="529" y="368.5313"/><text fill="#000000" font-family="sans-serif" font-size="12" lengthAdjust="spacing" textLength="107" x="539" y="390.1328">Show success alert</text><rect fill="#F1F1F1" height="34.1328" rx="12.5" ry="12.5" style="stroke:#181818;stroke-width:0.5;" width="119" x="676" y="368.5313"/><text fill="#000000" font-family="sans-serif" font-size="12" lengthAdjust="spacing" textLength="99" x="686" y="390.1328">Show failure alert</text><polygon fill="#F1F1F1" points="664,408.6641,676,420.6641,664,432.6641,652,420.6641,664,408.6641" style="stroke:#181818;stroke-width:0.5;"/><rect fill="#F1F1F1" height="34.1328" rx="12.5" ry="12.5" style="stroke:#181818;stroke-width:0.5;" width="172" x="825" y="226.2656"/><text fill="#000000" font-family="sans-serif" font-size="12" lengthAdjust="spacing" textLength="152" x="835" y="247.8672">Show duplicate book error</text><polygon fill="#F1F1F1" points="787.5,438.6641,799.5,450.6641,787.5,462.6641,775.5,450.6641,787.5,438.6641" style="stroke:#181818;stroke-width:0.5;"/><polygon fill="#F1F1F1" points="528.5,537.7969,540.5,549.7969,528.5,561.7969,516.5,549.7969,528.5,537.7969" style="stroke:#181818;stroke-width:0.5;"/><rect fill="#F1F1F1" height="34.1328" rx="12.5" ry="12.5" style="stroke:#181818;stroke-width:0.5;" width="123" x="467" y="581.7969"/><text fill="#000000" font-family="sans-serif" font-size="12" lengthAdjust="spacing" textLength="103" x="477" y="603.3984">Refresh data in UI</text><ellipse cx="528.5" cy="646.9297" fill="none" rx="11" ry="11" style="stroke:#222222;stroke-width:1.0;"/><ellipse cx="528.5" cy="646.9297" fill="#222222" rx="6" ry="6" style="stroke:#222222;stroke-width:1.0;"/><line style="stroke:#181818;stroke-width:1.0;" x1="528.5" x2="528.5" y1="30" y2="50"/><polygon fill="#181818" points="524.5,40,528.5,50,532.5,40,528.5,44" style="stroke:#181818;stroke-width:1.0;"/><line style="stroke:#181818;stroke-width:1.0;" x1="146" x2="146" y1="260.3984" y2="280.3984"/><polygon fill="#181818" points="142,270.3984,146,280.3984,150,270.3984,146,274.3984" style="stroke:#181818;stroke-width:1.0;"/><line style="stroke:#181818;stroke-width:1.0;" x1="146" x2="146" y1="314.5313" y2="334.5313"/><polygon fill="#181818" points="142,324.5313,146,334.5313,150,324.5313,146,328.5313" style="stroke:#181818;stroke-width:1.0;"/><line style="stroke:#181818;stroke-width:1.0;" x1="110" x2="74.5" y1="415.6641" y2="415.6641"/><line style="stroke:#181818;stroke-width:1.0;" x1="74.5" x2="74.5" y1="415.6641" y2="437.6641"/><polygon fill="#181818" points="70.5,427.6641,74.5,437.6641,78.5,427.6641,74.5,431.6641" style="stroke:#181818;stroke-width:1.0;"/><line style="stroke:#181818;stroke-width:1.0;" x1="182" x2="217.5" y1="415.6641" y2="415.6641"/><line style="stroke:#181818;stroke-width:1.0;" x1="217.5" x2="217.5" y1="415.6641" y2="437.6641"/><polygon fill="#181818" points="213.5,427.6641,217.5,437.6641,221.5,427.6641,217.5,431.6641" style="stroke:#181818;stroke-width:1.0;"/><line style="stroke:#181818;stroke-width:1.0;" x1="74.5" x2="74.5" y1="471.7969" y2="489.7969"/><line style="stroke:#181818;stroke-width:1.0;" x1="74.5" x2="134" y1="489.7969" y2="489.7969"/><polygon fill="#181818" points="124,485.7969,134,489.7969,124,493.7969,128,489.7969" style="stroke:#181818;stroke-width:1.0;"/><line style="stroke:#181818;stroke-width:1.0;" x1="217.5" x2="217.5" y1="471.7969" y2="489.7969"/><line style="stroke:#181818;stroke-width:1.0;" x1="217.5" x2="158" y1="489.7969" y2="489.7969"/><polygon fill="#181818" points="168,485.7969,158,489.7969,168,493.7969,164,489.7969" style="stroke:#181818;stroke-width:1.0;"/><line style="stroke:#181818;stroke-width:1.0;" x1="146" x2="146" y1="368.6641" y2="403.6641"/><polygon fill="#181818" points="142,393.6641,146,403.6641,150,393.6641,146,397.6641" style="stroke:#181818;stroke-width:1.0;"/><line style="stroke:#181818;stroke-width:1.0;" x1="218.5" x2="146" y1="204.2656" y2="204.2656"/><line style="stroke:#181818;stroke-width:1.0;" x1="146" x2="146" y1="204.2656" y2="226.2656"/><polygon fill="#181818" points="142,216.2656,146,226.2656,150,216.2656,146,220.2656" style="stroke:#181818;stroke-width:1.0;"/><line style="stroke:#181818;stroke-width:1.0;" x1="320.5" x2="393" y1="204.2656" y2="204.2656"/><line style="stroke:#181818;stroke-width:1.0;" x1="393" x2="393" y1="204.2656" y2="226.2656"/><polygon fill="#181818" points="389,216.2656,393,226.2656,397,216.2656,393,220.2656" style="stroke:#181818;stroke-width:1.0;"/><line style="stroke:#181818;stroke-width:1.0;" x1="146" x2="146" y1="501.7969" y2="519.7969"/><line style="stroke:#181818;stroke-width:1.0;" x1="146" x2="257.5" y1="519.7969" y2="519.7969"/><polygon fill="#181818" points="247.5,515.7969,257.5,519.7969,247.5,523.7969,251.5,519.7969" style="stroke:#181818;stroke-width:1.0;"/><line style="stroke:#181818;stroke-width:1.0;" x1="393" x2="393" y1="260.3984" y2="519.7969"/><line style="stroke:#181818;stroke-width:1.0;" x1="393" x2="281.5" y1="519.7969" y2="519.7969"/><polygon fill="#181818" points="291.5,515.7969,281.5,519.7969,291.5,523.7969,287.5,519.7969" style="stroke:#181818;stroke-width:1.0;"/><line style="stroke:#181818;stroke-width:1.0;" x1="269.5" x2="269.5" y1="172.2656" y2="192.2656"/><polygon fill="#181818" points="265.5,182.2656,269.5,192.2656,273.5,182.2656,269.5,186.2656" style="stroke:#181818;stroke-width:1.0;"/><line style="stroke:#181818;stroke-width:1.0;" x1="664" x2="664" y1="260.3984" y2="280.3984"/><polygon fill="#181818" points="660,270.3984,664,280.3984,668,270.3984,664,274.3984" style="stroke:#181818;stroke-width:1.0;"/><line style="stroke:#181818;stroke-width:1.0;" x1="628" x2="592.5" y1="346.5313" y2="346.5313"/><line style="stroke:#181818;stroke-width:1.0;" x1="592.5" x2="592.5" y1="346.5313" y2="368.5313"/><polygon fill="#181818" points="588.5,358.5313,592.5,368.5313,596.5,358.5313,592.5,362.5313" style="stroke:#181818;stroke-width:1.0;"/><line style="stroke:#181818;stroke-width:1.0;" x1="700" x2="735.5" y1="346.5313" y2="346.5313"/><line style="stroke:#181818;stroke-width:1.0;" x1="735.5" x2="735.5" y1="346.5313" y2="368.5313"/><polygon fill="#181818" points="731.5,358.5313,735.5,368.5313,739.5,358.5313,735.5,362.5313" style="stroke:#181818;stroke-width:1.0;"/><line style="stroke:#181818;stroke-width:1.0;" x1="592.5" x2="592.5" y1="402.6641" y2="420.6641"/><line style="stroke:#181818;stroke-width:1.0;" x1="592.5" x2="652" y1="420.6641" y2="420.6641"/><polygon fill="#181818" points="642,416.6641,652,420.6641,642,424.6641,646,420.6641" style="stroke:#181818;stroke-width:1.0;"/><line style="stroke:#181818;stroke-width:1.0;" x1="735.5" x2="735.5" y1="402.6641" y2="420.6641"/><line style="stroke:#181818;stroke-width:1.0;" x1="735.5" x2="676" y1="420.6641" y2="420.6641"/><polygon fill="#181818" points="686,416.6641,676,420.6641,686,424.6641,682,420.6641" style="stroke:#181818;stroke-width:1.0;"/><line style="stroke:#181818;stroke-width:1.0;" x1="664" x2="664" y1="314.5313" y2="334.5313"/><polygon fill="#181818" points="660,324.5313,664,334.5313,668,324.5313,664,328.5313" style="stroke:#181818;stroke-width:1.0;"/><line style="stroke:#181818;stroke-width:1.0;" x1="736.5" x2="664" y1="204.2656" y2="204.2656"/><line style="stroke:#181818;stroke-width:1.0;" x1="664" x2="664" y1="204.2656" y2="226.2656"/><polygon fill="#181818" points="660,216.2656,664,226.2656,668,216.2656,664,220.2656" style="stroke:#181818;stroke-width:1.0;"/><line style="stroke:#181818;stroke-width:1.0;" x1="838.5" x2="911" y1="204.2656" y2="204.2656"/><line style="stroke:#181818;stroke-width:1.0;" x1="911" x2="911" y1="204.2656" y2="226.2656"/><polygon fill="#181818" points="907,216.2656,911,226.2656,915,216.2656,911,220.2656" style="stroke:#181818;stroke-width:1.0;"/><line style="stroke:#181818;stroke-width:1.0;" x1="664" x2="664" y1="432.6641" y2="450.6641"/><line style="stroke:#181818;stroke-width:1.0;" x1="664" x2="775.5" y1="450.6641" y2="450.6641"/><polygon fill="#181818" points="765.5,446.6641,775.5,450.6641,765.5,454.6641,769.5,450.6641" style="stroke:#181818;stroke-width:1.0;"/><line style="stroke:#181818;stroke-width:1.0;" x1="911" x2="911" y1="260.3984" y2="450.6641"/><line style="stroke:#181818;stroke-width:1.0;" x1="911" x2="799.5" y1="450.6641" y2="450.6641"/><polygon fill="#181818" points="809.5,446.6641,799.5,450.6641,809.5,454.6641,805.5,450.6641" style="stroke:#181818;stroke-width:1.0;"/><line style="stroke:#181818;stroke-width:1.0;" x1="787.5" x2="787.5" y1="172.2656" y2="192.2656"/><polygon fill="#181818" points="783.5,182.2656,787.5,192.2656,791.5,182.2656,787.5,186.2656" style="stroke:#181818;stroke-width:1.0;"/><line style="stroke:#181818;stroke-width:1.0;" x1="471.5" x2="269.5" y1="116.1328" y2="116.1328"/><line style="stroke:#181818;stroke-width:1.0;" x1="269.5" x2="269.5" y1="116.1328" y2="138.1328"/><polygon fill="#181818" points="265.5,128.1328,269.5,138.1328,273.5,128.1328,269.5,132.1328" style="stroke:#181818;stroke-width:1.0;"/><line style="stroke:#181818;stroke-width:1.0;" x1="585.5" x2="787.5" y1="116.1328" y2="116.1328"/><line style="stroke:#181818;stroke-width:1.0;" x1="787.5" x2="787.5" y1="116.1328" y2="138.1328"/><polygon fill="#181818" points="783.5,128.1328,787.5,138.1328,791.5,128.1328,787.5,132.1328" style="stroke:#181818;stroke-width:1.0;"/><line style="stroke:#181818;stroke-width:1.0;" x1="269.5" x2="269.5" y1="531.7969" y2="549.7969"/><line style="stroke:#181818;stroke-width:1.0;" x1="269.5" x2="516.5" y1="549.7969" y2="549.7969"/><polygon fill="#181818" points="506.5,545.7969,516.5,549.7969,506.5,553.7969,510.5,549.7969" style="stroke:#181818;stroke-width:1.0;"/><line style="stroke:#181818;stroke-width:1.0;" x1="787.5" x2="787.5" y1="462.6641" y2="549.7969"/><line style="stroke:#181818;stroke-width:1.0;" x1="787.5" x2="540.5" y1="549.7969" y2="549.7969"/><polygon fill="#181818" points="550.5,545.7969,540.5,549.7969,550.5,553.7969,546.5,549.7969" style="stroke:#181818;stroke-width:1.0;"/><line style="stroke:#181818;stroke-width:1.0;" x1="528.5" x2="528.5" y1="84.1328" y2="104.1328"/><polygon fill="#181818" points="524.5,94.1328,528.5,104.1328,532.5,94.1328,528.5,98.1328" style="stroke:#181818;stroke-width:1.0;"/><line style="stroke:#181818;stroke-width:1.0;" x1="528.5" x2="528.5" y1="561.7969" y2="581.7969"/><polygon fill="#181818" points="524.5,571.7969,528.5,581.7969,532.5,571.7969,528.5,575.7969" style="stroke:#181818;stroke-width:1.0;"/><line style="stroke:#181818;stroke-width:1.0;" x1="528.5" x2="528.5" y1="615.9297" y2="635.9297"/><polygon fill="#181818" points="524.5,625.9297,528.5,635.9297,532.5,625.9297,528.5,629.9297" style="stroke:#181818;stroke-width:1.0;"/><!--SRC=[tLAxRiCm3Dpz5HoJNuY78cqN3-tG80KwCXOL2xKbWwGRvE-h1n2di3jqhGODl0UE1ueYQxLx8sL7NmG65S5o6E3Or9Mpi3c5yDaOS08qZ7fzs89sv67pGRAj8BxTE_OkwWWI5JmE13Omc6diNHldKcTUCdiDT-EbLRRR6rESDEGu9nIgP_WMrTEby9hdE_Y9AKLvGOzdUammUUNhp4Wn3bFRalmI8DiSkd01AJJ0dbXd1-g5qYfh4ekkdvWM4c-ShTR5HNYhfUn4p86BlcX_wjOwZukr7VepcR_rVHnd8qCQ5v1wWVw_FlCVhyaoILVktlbyzQ9X_0O0]--></g></svg>