<?xml version="1.0" encoding="us-ascii" standalone="no"?><svg xmlns="http://www.w3.org/2000/svg" xmlns:xlink="http://www.w3.org/1999/xlink" contentStyleType="text/css" height="788px" preserveAspectRatio="none" style="width:552px;height:788px;background:#FFFFFF;" version="1.1" viewBox="0 0 552 788" width="552px" zoomAndPan="magnify"><defs/><g><rect fill="none" height="533.5898" style="stroke:#000000;stroke-width:1.5;" width="535" x="10" y="127.7988"/><rect fill="none" height="228.4844" style="stroke:#000000;stroke-width:1.5;" width="515" x="20" y="181.4199"/><rect fill="none" height="77.9316" style="stroke:#000000;stroke-width:1.5;" width="258.5" x="30" y="293.6621"/><rect fill="none" height="199.1738" style="stroke:#000000;stroke-width:1.5;" width="515" x="20" y="455.2148"/><rect fill="none" height="77.9316" style="stroke:#000000;stroke-width:1.5;" width="258.5" x="30" y="538.1465"/><line style="stroke:#181818;stroke-width:0.5;stroke-dasharray:5.0,5.0;" x1="58" x2="58" y1="81.4883" y2="707.6992"/><line style="stroke:#181818;stroke-width:0.5;stroke-dasharray:5.0,5.0;" x1="247.5" x2="247.5" y1="81.4883" y2="707.6992"/><line style="stroke:#181818;stroke-width:0.5;stroke-dasharray:5.0,5.0;" x1="486" x2="486" y1="81.4883" y2="707.6992"/><text fill="#000000" font-family="sans-serif" font-size="14" lengthAdjust="spacing" textLength="31" x="40" y="78.5352">User</text><ellipse cx="58.5" cy="13.5" fill="#E2E2F0" rx="8" ry="8" style="stroke:#181818;stroke-width:0.5;"/><path d="M58.5,21.5 L58.5,48.5 M45.5,29.5 L71.5,29.5 M58.5,48.5 L45.5,63.5 M58.5,48.5 L71.5,63.5 " fill="none" style="stroke:#181818;stroke-width:0.5;"/><text fill="#000000" font-family="sans-serif" font-size="14" lengthAdjust="spacing" textLength="31" x="40" y="720.2344">User</text><ellipse cx="58.5" cy="731.6875" fill="#E2E2F0" rx="8" ry="8" style="stroke:#181818;stroke-width:0.5;"/><path d="M58.5,739.6875 L58.5,766.6875 M45.5,747.6875 L71.5,747.6875 M58.5,766.6875 L45.5,781.6875 M58.5,766.6875 L71.5,781.6875 " fill="none" style="stroke:#181818;stroke-width:0.5;"/><rect fill="#E2E2F0" height="30.4883" rx="2.5" ry="2.5" style="stroke:#181818;stroke-width:0.5;" width="62" x="216.5" y="50"/><text fill="#000000" font-family="sans-serif" font-size="14" lengthAdjust="spacing" textLength="48" x="223.5" y="70.5352">System</text><rect fill="#E2E2F0" height="30.4883" rx="2.5" ry="2.5" style="stroke:#181818;stroke-width:0.5;" width="62" x="216.5" y="706.6992"/><text fill="#000000" font-family="sans-serif" font-size="14" lengthAdjust="spacing" textLength="48" x="223.5" y="727.2344">System</text><rect fill="#E2E2F0" height="30.4883" rx="2.5" ry="2.5" style="stroke:#181818;stroke-width:0.5;" width="77" x="448" y="50"/><text fill="#000000" font-family="sans-serif" font-size="14" lengthAdjust="spacing" textLength="63" x="455" y="70.5352">Database</text><rect fill="#E2E2F0" height="30.4883" rx="2.5" ry="2.5" style="stroke:#181818;stroke-width:0.5;" width="77" x="448" y="706.6992"/><text fill="#000000" font-family="sans-serif" font-size="14" lengthAdjust="spacing" textLength="63" x="455" y="727.2344">Database</text><polygon fill="#181818" points="235.5,108.7988,245.5,112.7988,235.5,116.7988,239.5,112.7988" style="stroke:#181818;stroke-width:1.0;"/><line style="stroke:#181818;stroke-width:1.0;" x1="58.5" x2="241.5" y1="112.7988" y2="112.7988"/><text fill="#000000" font-family="sans-serif" font-size="13" lengthAdjust="spacing" textLength="132" x="65.5" y="108.0566">Retrieve data from UI</text><path d="M10,127.7988 L72,127.7988 L72,135.1094 L62,145.1094 L10,145.1094 L10,127.7988 " fill="#EEEEEE" style="stroke:#000000;stroke-width:1.5;"/><rect fill="none" height="533.5898" style="stroke:#000000;stroke-width:1.5;" width="535" x="10" y="127.7988"/><text fill="#000000" font-family="sans-serif" font-size="13" font-weight="bold" lengthAdjust="spacing" textLength="17" x="25" y="141.3672">alt</text><text fill="#000000" font-family="sans-serif" font-size="11" font-weight="bold" lengthAdjust="spacing" textLength="99" x="87" y="140.4336">[bookId is empty]</text><polygon fill="#181818" points="474.5,162.4199,484.5,166.4199,474.5,170.4199,478.5,166.4199" style="stroke:#181818;stroke-width:1.0;"/><line style="stroke:#181818;stroke-width:1.0;" x1="247.5" x2="480.5" y1="166.4199" y2="166.4199"/><text fill="#000000" font-family="sans-serif" font-size="13" lengthAdjust="spacing" textLength="215" x="254.5" y="161.6777">Validate book name for duplicates</text><path d="M20,181.4199 L82,181.4199 L82,188.7305 L72,198.7305 L20,198.7305 L20,181.4199 " fill="#EEEEEE" style="stroke:#000000;stroke-width:1.5;"/><rect fill="none" height="228.4844" style="stroke:#000000;stroke-width:1.5;" width="515" x="20" y="181.4199"/><text fill="#000000" font-family="sans-serif" font-size="13" font-weight="bold" lengthAdjust="spacing" textLength="17" x="35" y="194.9883">alt</text><text fill="#000000" font-family="sans-serif" font-size="11" font-weight="bold" lengthAdjust="spacing" textLength="84" x="97" y="194.0547">[No duplicates]</text><polygon fill="#181818" points="474.5,216.041,484.5,220.041,474.5,224.041,478.5,220.041" style="stroke:#181818;stroke-width:1.0;"/><line style="stroke:#181818;stroke-width:1.0;" x1="247.5" x2="480.5" y1="220.041" y2="220.041"/><text fill="#000000" font-family="sans-serif" font-size="13" lengthAdjust="spacing" textLength="138" x="254.5" y="215.2988">Add book to database</text><polygon fill="#181818" points="474.5,245.3516,484.5,249.3516,474.5,253.3516,478.5,249.3516" style="stroke:#181818;stroke-width:1.0;"/><line style="stroke:#181818;stroke-width:1.0;" x1="247.5" x2="480.5" y1="249.3516" y2="249.3516"/><text fill="#000000" font-family="sans-serif" font-size="13" lengthAdjust="spacing" textLength="133" x="254.5" y="244.6094">Retrieve new book ID</text><polygon fill="#181818" points="474.5,274.6621,484.5,278.6621,474.5,282.6621,478.5,278.6621" style="stroke:#181818;stroke-width:1.0;"/><line style="stroke:#181818;stroke-width:1.0;" x1="247.5" x2="480.5" y1="278.6621" y2="278.6621"/><text fill="#000000" font-family="sans-serif" font-size="13" lengthAdjust="spacing" textLength="159" x="254.5" y="273.9199">Create ManageBook entry</text><path d="M30,293.6621 L92,293.6621 L92,300.9727 L82,310.9727 L30,310.9727 L30,293.6621 " fill="#EEEEEE" style="stroke:#000000;stroke-width:1.5;"/><rect fill="none" height="77.9316" style="stroke:#000000;stroke-width:1.5;" width="258.5" x="30" y="293.6621"/><text fill="#000000" font-family="sans-serif" font-size="13" font-weight="bold" lengthAdjust="spacing" textLength="17" x="45" y="307.2305">alt</text><text fill="#000000" font-family="sans-serif" font-size="11" font-weight="bold" lengthAdjust="spacing" textLength="51" x="107" y="306.2969">[Success]</text><polygon fill="#181818" points="69.5,328.2832,59.5,332.2832,69.5,336.2832,65.5,332.2832" style="stroke:#181818;stroke-width:1.0;"/><line style="stroke:#181818;stroke-width:1.0;" x1="63.5" x2="246.5" y1="332.2832" y2="332.2832"/><text fill="#000000" font-family="sans-serif" font-size="13" lengthAdjust="spacing" textLength="119" x="75.5" y="327.541">Show success alert</text><line style="stroke:#000000;stroke-width:1.0;stroke-dasharray:2.0,2.0;" x1="30" x2="288.5" y1="341.2832" y2="341.2832"/><polygon fill="#181818" points="69.5,359.5938,59.5,363.5938,69.5,367.5938,65.5,363.5938" style="stroke:#181818;stroke-width:1.0;"/><line style="stroke:#181818;stroke-width:1.0;" x1="63.5" x2="246.5" y1="363.5938" y2="363.5938"/><text fill="#000000" font-family="sans-serif" font-size="13" lengthAdjust="spacing" textLength="109" x="75.5" y="358.8516">Show failure alert</text><line style="stroke:#000000;stroke-width:1.0;stroke-dasharray:2.0,2.0;" x1="20" x2="535" y1="379.5938" y2="379.5938"/><polygon fill="#181818" points="69.5,397.9043,59.5,401.9043,69.5,405.9043,65.5,401.9043" style="stroke:#181818;stroke-width:1.0;"/><line style="stroke:#181818;stroke-width:1.0;" x1="63.5" x2="246.5" y1="401.9043" y2="401.9043"/><text fill="#000000" font-family="sans-serif" font-size="13" lengthAdjust="spacing" textLength="165" x="75.5" y="397.1621">Show duplicate book error</text><line style="stroke:#000000;stroke-width:1.0;stroke-dasharray:2.0,2.0;" x1="10" x2="545" y1="417.9043" y2="417.9043"/><polygon fill="#181818" points="474.5,436.2148,484.5,440.2148,474.5,444.2148,478.5,440.2148" style="stroke:#181818;stroke-width:1.0;"/><line style="stroke:#181818;stroke-width:1.0;" x1="247.5" x2="480.5" y1="440.2148" y2="440.2148"/><text fill="#000000" font-family="sans-serif" font-size="13" lengthAdjust="spacing" textLength="194" x="254.5" y="435.4727">Validate book name if changed</text><path d="M20,455.2148 L82,455.2148 L82,462.5254 L72,472.5254 L20,472.5254 L20,455.2148 " fill="#EEEEEE" style="stroke:#000000;stroke-width:1.5;"/><rect fill="none" height="199.1738" style="stroke:#000000;stroke-width:1.5;" width="515" x="20" y="455.2148"/><text fill="#000000" font-family="sans-serif" font-size="13" font-weight="bold" lengthAdjust="spacing" textLength="17" x="35" y="468.7832">alt</text><text fill="#000000" font-family="sans-serif" font-size="11" font-weight="bold" lengthAdjust="spacing" textLength="84" x="97" y="467.8496">[No duplicates]</text><polygon fill="#181818" points="474.5,489.8359,484.5,493.8359,474.5,497.8359,478.5,493.8359" style="stroke:#181818;stroke-width:1.0;"/><line style="stroke:#181818;stroke-width:1.0;" x1="247.5" x2="480.5" y1="493.8359" y2="493.8359"/><text fill="#000000" font-family="sans-serif" font-size="13" lengthAdjust="spacing" textLength="126" x="254.5" y="489.0938">Update book details</text><polygon fill="#181818" points="474.5,519.1465,484.5,523.1465,474.5,527.1465,478.5,523.1465" style="stroke:#181818;stroke-width:1.0;"/><line style="stroke:#181818;stroke-width:1.0;" x1="247.5" x2="480.5" y1="523.1465" y2="523.1465"/><text fill="#000000" font-family="sans-serif" font-size="13" lengthAdjust="spacing" textLength="163" x="254.5" y="518.4043">Update ManageBook entry</text><path d="M30,538.1465 L92,538.1465 L92,545.457 L82,555.457 L30,555.457 L30,538.1465 " fill="#EEEEEE" style="stroke:#000000;stroke-width:1.5;"/><rect fill="none" height="77.9316" style="stroke:#000000;stroke-width:1.5;" width="258.5" x="30" y="538.1465"/><text fill="#000000" font-family="sans-serif" font-size="13" font-weight="bold" lengthAdjust="spacing" textLength="17" x="45" y="551.7148">alt</text><text fill="#000000" font-family="sans-serif" font-size="11" font-weight="bold" lengthAdjust="spacing" textLength="51" x="107" y="550.7813">[Success]</text><polygon fill="#181818" points="69.5,572.7676,59.5,576.7676,69.5,580.7676,65.5,576.7676" style="stroke:#181818;stroke-width:1.0;"/><line style="stroke:#181818;stroke-width:1.0;" x1="63.5" x2="246.5" y1="576.7676" y2="576.7676"/><text fill="#000000" font-family="sans-serif" font-size="13" lengthAdjust="spacing" textLength="119" x="75.5" y="572.0254">Show success alert</text><line style="stroke:#000000;stroke-width:1.0;stroke-dasharray:2.0,2.0;" x1="30" x2="288.5" y1="585.7676" y2="585.7676"/><polygon fill="#181818" points="69.5,604.0781,59.5,608.0781,69.5,612.0781,65.5,608.0781" style="stroke:#181818;stroke-width:1.0;"/><line style="stroke:#181818;stroke-width:1.0;" x1="63.5" x2="246.5" y1="608.0781" y2="608.0781"/><text fill="#000000" font-family="sans-serif" font-size="13" lengthAdjust="spacing" textLength="109" x="75.5" y="603.3359">Show failure alert</text><line style="stroke:#000000;stroke-width:1.0;stroke-dasharray:2.0,2.0;" x1="20" x2="535" y1="624.0781" y2="624.0781"/><polygon fill="#181818" points="69.5,642.3887,59.5,646.3887,69.5,650.3887,65.5,646.3887" style="stroke:#181818;stroke-width:1.0;"/><line style="stroke:#181818;stroke-width:1.0;" x1="63.5" x2="246.5" y1="646.3887" y2="646.3887"/><text fill="#000000" font-family="sans-serif" font-size="13" lengthAdjust="spacing" textLength="165" x="75.5" y="641.6465">Show duplicate book error</text><polygon fill="#181818" points="69.5,685.6992,59.5,689.6992,69.5,693.6992,65.5,689.6992" style="stroke:#181818;stroke-width:1.0;"/><line style="stroke:#181818;stroke-width:1.0;" x1="63.5" x2="246.5" y1="689.6992" y2="689.6992"/><text fill="#000000" font-family="sans-serif" font-size="13" lengthAdjust="spacing" textLength="111" x="75.5" y="684.957">Refresh data in UI</text><!--SRC=[rPAxReGm44LxVyLe-_m0HQGG6egaM4JwMJmiLi16uo4h_ZusHXjsHHvj2YHaphcwN1aRSGor9rOZifZ6Z6W53jNiXOO3e8VqUlkvGC4JUbg08bSg9i33umfdS2HXGny4Ef3GiXkWBfN2Nk3at7kfmNYWOPHPmIf5lSWpUCFU18iM42mE16tegAUnDqquzy68EQ_kzkm-vqdh525kQH7xxc3NffOkYI-B7UoPANPwGOjdoYD6LdXUoDYccfg6VEgnTUCm6LITku1FIC29PG6fNojzOxHe-ebfQrYjDjwkTLqb_GunErP9NSLV1pSjD1tQC-a_ZbsFNmcQ9FJ-WVhl8uP7tKj7Qfbyb-wxiU6sVm80]--></g></svg>