<?xml version="1.0" encoding="us-ascii" standalone="no"?><svg xmlns="http://www.w3.org/2000/svg" xmlns:xlink="http://www.w3.org/1999/xlink" contentStyleType="text/css" height="719px" preserveAspectRatio="none" style="width:691px;height:719px;background:#FFFFFF;" version="1.1" viewBox="0 0 691 719" width="691px" zoomAndPan="magnify"><defs/><g><rect fill="none" height="464.3477" style="stroke:#000000;stroke-width:1.5;" width="674" x="10" y="157.1094"/><rect fill="none" height="225.1738" style="stroke:#000000;stroke-width:1.5;" width="654" x="20" y="210.7305"/><rect fill="none" height="133.2422" style="stroke:#000000;stroke-width:1.5;" width="380.5" x="283.5" y="295.6621"/><rect fill="none" height="133.2422" style="stroke:#000000;stroke-width:1.5;" width="380.5" x="283.5" y="481.2148"/><line style="stroke:#181818;stroke-width:0.5;stroke-dasharray:5.0,5.0;" x1="48" x2="48" y1="81.4883" y2="638.457"/><line style="stroke:#181818;stroke-width:0.5;stroke-dasharray:5.0,5.0;" x1="324.5" x2="324.5" y1="81.4883" y2="638.457"/><line style="stroke:#181818;stroke-width:0.5;stroke-dasharray:5.0,5.0;" x1="615" x2="615" y1="81.4883" y2="638.457"/><text fill="#000000" font-family="sans-serif" font-size="14" lengthAdjust="spacing" textLength="31" x="30" y="78.5352">User</text><ellipse cx="48.5" cy="13.5" fill="#E2E2F0" rx="8" ry="8" style="stroke:#181818;stroke-width:0.5;"/><path d="M48.5,21.5 L48.5,48.5 M35.5,29.5 L61.5,29.5 M48.5,48.5 L35.5,63.5 M48.5,48.5 L61.5,63.5 " fill="none" style="stroke:#181818;stroke-width:0.5;"/><text fill="#000000" font-family="sans-serif" font-size="14" lengthAdjust="spacing" textLength="31" x="30" y="650.9922">User</text><ellipse cx="48.5" cy="662.4453" fill="#E2E2F0" rx="8" ry="8" style="stroke:#181818;stroke-width:0.5;"/><path d="M48.5,670.4453 L48.5,697.4453 M35.5,678.4453 L61.5,678.4453 M48.5,697.4453 L35.5,712.4453 M48.5,697.4453 L61.5,712.4453 " fill="none" style="stroke:#181818;stroke-width:0.5;"/><rect fill="#E2E2F0" height="30.4883" rx="2.5" ry="2.5" style="stroke:#181818;stroke-width:0.5;" width="62" x="293.5" y="50"/><text fill="#000000" font-family="sans-serif" font-size="14" lengthAdjust="spacing" textLength="48" x="300.5" y="70.5352">System</text><rect fill="#E2E2F0" height="30.4883" rx="2.5" ry="2.5" style="stroke:#181818;stroke-width:0.5;" width="62" x="293.5" y="637.457"/><text fill="#000000" font-family="sans-serif" font-size="14" lengthAdjust="spacing" textLength="48" x="300.5" y="657.9922">System</text><rect fill="#E2E2F0" height="30.4883" rx="2.5" ry="2.5" style="stroke:#181818;stroke-width:0.5;" width="77" x="577" y="50"/><text fill="#000000" font-family="sans-serif" font-size="14" lengthAdjust="spacing" textLength="63" x="584" y="70.5352">Database</text><rect fill="#E2E2F0" height="30.4883" rx="2.5" ry="2.5" style="stroke:#181818;stroke-width:0.5;" width="77" x="577" y="637.457"/><text fill="#000000" font-family="sans-serif" font-size="14" lengthAdjust="spacing" textLength="63" x="584" y="657.9922">Database</text><polygon fill="#181818" points="312.5,108.7988,322.5,112.7988,312.5,116.7988,316.5,112.7988" style="stroke:#181818;stroke-width:1.0;"/><line style="stroke:#181818;stroke-width:1.0;" x1="48.5" x2="318.5" y1="112.7988" y2="112.7988"/><text fill="#000000" font-family="sans-serif" font-size="13" lengthAdjust="spacing" textLength="183" x="55.5" y="108.0566">Fetch current account details</text><polygon fill="#181818" points="312.5,138.1094,322.5,142.1094,312.5,146.1094,316.5,142.1094" style="stroke:#181818;stroke-width:1.0;"/><line style="stroke:#181818;stroke-width:1.0;" x1="48.5" x2="318.5" y1="142.1094" y2="142.1094"/><text fill="#000000" font-family="sans-serif" font-size="13" lengthAdjust="spacing" textLength="205" x="55.5" y="137.3672">Get updated information from UI</text><path d="M10,157.1094 L72,157.1094 L72,164.4199 L62,174.4199 L10,174.4199 L10,157.1094 " fill="#EEEEEE" style="stroke:#000000;stroke-width:1.5;"/><rect fill="none" height="464.3477" style="stroke:#000000;stroke-width:1.5;" width="674" x="10" y="157.1094"/><text fill="#000000" font-family="sans-serif" font-size="13" font-weight="bold" lengthAdjust="spacing" textLength="17" x="25" y="170.6777">alt</text><text fill="#000000" font-family="sans-serif" font-size="11" font-weight="bold" lengthAdjust="spacing" textLength="113" x="87" y="169.7441">[Username changed]</text><polygon fill="#181818" points="603.5,191.7305,613.5,195.7305,603.5,199.7305,607.5,195.7305" style="stroke:#181818;stroke-width:1.0;"/><line style="stroke:#181818;stroke-width:1.0;" x1="324.5" x2="609.5" y1="195.7305" y2="195.7305"/><text fill="#000000" font-family="sans-serif" font-size="13" lengthAdjust="spacing" textLength="188" x="331.5" y="190.9883">Check if new username exists</text><path d="M20,210.7305 L82,210.7305 L82,218.041 L72,228.041 L20,228.041 L20,210.7305 " fill="#EEEEEE" style="stroke:#000000;stroke-width:1.5;"/><rect fill="none" height="225.1738" style="stroke:#000000;stroke-width:1.5;" width="654" x="20" y="210.7305"/><text fill="#000000" font-family="sans-serif" font-size="13" font-weight="bold" lengthAdjust="spacing" textLength="17" x="35" y="224.2988">alt</text><text fill="#000000" font-family="sans-serif" font-size="11" font-weight="bold" lengthAdjust="spacing" textLength="125" x="97" y="223.3652">[New username exists]</text><polygon fill="#181818" points="59.5,245.3516,49.5,249.3516,59.5,253.3516,55.5,249.3516" style="stroke:#181818;stroke-width:1.0;"/><line style="stroke:#181818;stroke-width:1.0;" x1="53.5" x2="323.5" y1="249.3516" y2="249.3516"/><text fill="#000000" font-family="sans-serif" font-size="13" lengthAdjust="spacing" textLength="252" x="65.5" y="244.6094">Show error message: "Username exists!"</text><line style="stroke:#000000;stroke-width:1.0;stroke-dasharray:2.0,2.0;" x1="20" x2="674" y1="258.3516" y2="258.3516"/><polygon fill="#181818" points="59.5,276.6621,49.5,280.6621,59.5,284.6621,55.5,280.6621" style="stroke:#181818;stroke-width:1.0;"/><line style="stroke:#181818;stroke-width:1.0;" x1="53.5" x2="323.5" y1="280.6621" y2="280.6621"/><text fill="#000000" font-family="sans-serif" font-size="13" lengthAdjust="spacing" textLength="194" x="65.5" y="275.9199">Prompt password confirmation</text><path d="M283.5,295.6621 L345.5,295.6621 L345.5,302.9727 L335.5,312.9727 L283.5,312.9727 L283.5,295.6621 " fill="#EEEEEE" style="stroke:#000000;stroke-width:1.5;"/><rect fill="none" height="133.2422" style="stroke:#000000;stroke-width:1.5;" width="380.5" x="283.5" y="295.6621"/><text fill="#000000" font-family="sans-serif" font-size="13" font-weight="bold" lengthAdjust="spacing" textLength="17" x="298.5" y="309.2305">alt</text><text fill="#000000" font-family="sans-serif" font-size="11" font-weight="bold" lengthAdjust="spacing" textLength="123" x="360.5" y="308.2969">[Password confirmed]</text><polygon fill="#181818" points="603.5,330.2832,613.5,334.2832,603.5,338.2832,607.5,334.2832" style="stroke:#181818;stroke-width:1.0;"/><line style="stroke:#181818;stroke-width:1.0;" x1="324.5" x2="609.5" y1="334.2832" y2="334.2832"/><text fill="#000000" font-family="sans-serif" font-size="13" lengthAdjust="spacing" textLength="98" x="331.5" y="329.541">Update account</text><line style="stroke:#181818;stroke-width:1.0;" x1="324.5" x2="366.5" y1="363.5938" y2="363.5938"/><line style="stroke:#181818;stroke-width:1.0;" x1="366.5" x2="366.5" y1="363.5938" y2="376.5938"/><line style="stroke:#181818;stroke-width:1.0;" x1="325.5" x2="366.5" y1="376.5938" y2="376.5938"/><polygon fill="#181818" points="335.5,372.5938,325.5,376.5938,335.5,380.5938,331.5,376.5938" style="stroke:#181818;stroke-width:1.0;"/><text fill="#000000" font-family="sans-serif" font-size="13" lengthAdjust="spacing" textLength="277" x="331.5" y="358.8516">Update session and switch to customer info</text><line style="stroke:#000000;stroke-width:1.0;stroke-dasharray:2.0,2.0;" x1="283.5" x2="664" y1="385.5938" y2="385.5938"/><line style="stroke:#181818;stroke-width:1.0;" x1="324.5" x2="366.5" y1="407.9043" y2="407.9043"/><line style="stroke:#181818;stroke-width:1.0;" x1="366.5" x2="366.5" y1="407.9043" y2="420.9043"/><line style="stroke:#181818;stroke-width:1.0;" x1="325.5" x2="366.5" y1="420.9043" y2="420.9043"/><polygon fill="#181818" points="335.5,416.9043,325.5,420.9043,335.5,424.9043,331.5,420.9043" style="stroke:#181818;stroke-width:1.0;"/><text fill="#000000" font-family="sans-serif" font-size="13" lengthAdjust="spacing" textLength="106" x="331.5" y="403.1621">Cancel operation</text><line style="stroke:#000000;stroke-width:1.0;stroke-dasharray:2.0,2.0;" x1="10" x2="684" y1="443.9043" y2="443.9043"/><polygon fill="#181818" points="59.5,462.2148,49.5,466.2148,59.5,470.2148,55.5,466.2148" style="stroke:#181818;stroke-width:1.0;"/><line style="stroke:#181818;stroke-width:1.0;" x1="53.5" x2="323.5" y1="466.2148" y2="466.2148"/><text fill="#000000" font-family="sans-serif" font-size="13" lengthAdjust="spacing" textLength="194" x="65.5" y="461.4727">Prompt password confirmation</text><path d="M283.5,481.2148 L345.5,481.2148 L345.5,488.5254 L335.5,498.5254 L283.5,498.5254 L283.5,481.2148 " fill="#EEEEEE" style="stroke:#000000;stroke-width:1.5;"/><rect fill="none" height="133.2422" style="stroke:#000000;stroke-width:1.5;" width="380.5" x="283.5" y="481.2148"/><text fill="#000000" font-family="sans-serif" font-size="13" font-weight="bold" lengthAdjust="spacing" textLength="17" x="298.5" y="494.7832">alt</text><text fill="#000000" font-family="sans-serif" font-size="11" font-weight="bold" lengthAdjust="spacing" textLength="123" x="360.5" y="493.8496">[Password confirmed]</text><polygon fill="#181818" points="603.5,515.8359,613.5,519.8359,603.5,523.8359,607.5,519.8359" style="stroke:#181818;stroke-width:1.0;"/><line style="stroke:#181818;stroke-width:1.0;" x1="324.5" x2="609.5" y1="519.8359" y2="519.8359"/><text fill="#000000" font-family="sans-serif" font-size="13" lengthAdjust="spacing" textLength="98" x="331.5" y="515.0938">Update account</text><line style="stroke:#181818;stroke-width:1.0;" x1="324.5" x2="366.5" y1="549.1465" y2="549.1465"/><line style="stroke:#181818;stroke-width:1.0;" x1="366.5" x2="366.5" y1="549.1465" y2="562.1465"/><line style="stroke:#181818;stroke-width:1.0;" x1="325.5" x2="366.5" y1="562.1465" y2="562.1465"/><polygon fill="#181818" points="335.5,558.1465,325.5,562.1465,335.5,566.1465,331.5,562.1465" style="stroke:#181818;stroke-width:1.0;"/><text fill="#000000" font-family="sans-serif" font-size="13" lengthAdjust="spacing" textLength="277" x="331.5" y="544.4043">Update session and switch to customer info</text><line style="stroke:#000000;stroke-width:1.0;stroke-dasharray:2.0,2.0;" x1="283.5" x2="664" y1="571.1465" y2="571.1465"/><line style="stroke:#181818;stroke-width:1.0;" x1="324.5" x2="366.5" y1="593.457" y2="593.457"/><line style="stroke:#181818;stroke-width:1.0;" x1="366.5" x2="366.5" y1="593.457" y2="606.457"/><line style="stroke:#181818;stroke-width:1.0;" x1="325.5" x2="366.5" y1="606.457" y2="606.457"/><polygon fill="#181818" points="335.5,602.457,325.5,606.457,335.5,610.457,331.5,606.457" style="stroke:#181818;stroke-width:1.0;"/><text fill="#000000" font-family="sans-serif" font-size="13" lengthAdjust="spacing" textLength="106" x="331.5" y="588.7148">Cancel operation</text><!--SRC=[fL7BJiCm4BpdAvRS-O4SEBGHY0kgLEK35dlJMCGFUJSA_3ssIO3Ig0XniItjp7Xc5fNu21rJh096CSe4T0BryOs5R0t8yF4y7xSe-8nC1T3kgYehmEtT0cxWdaGDeAOOAU5HAJ-bMvEW6Va2_K02Kz0efC6utaUBOho3FdeBtMDLuIZ5f4DBe0Pq9z8LBFoirEuQs0-aNi3qu6Y6QKNJgs7X1CuQJvkJxqBvbmQEWv-1OapTM6B64pLGT-V4cpfHQMJQL3Wawq4W8FFiemRbNM-MN8MGxHn-J4keSxKSh2lLh2rUGDOM5nWdmxayT1fuDdaFujCgMBnDjUT-YyIdzIsjFJf58_X0ySiokUmldmltZw6lHFury3_ZRkpfIjGIqUbt]--></g></svg>