<?xml version="1.0" encoding="us-ascii" standalone="no"?><svg xmlns="http://www.w3.org/2000/svg" xmlns:xlink="http://www.w3.org/1999/xlink" contentStyleType="text/css" height="575px" preserveAspectRatio="none" style="width:1168px;height:575px;background:#FFFFFF;" version="1.1" viewBox="0 0 1168 575" width="1168px" zoomAndPan="magnify"><defs/><g><ellipse cx="663.8125" cy="20" fill="#222222" rx="10" ry="10" style="stroke:#222222;stroke-width:1.0;"/><rect fill="#F1F1F1" height="34.1328" rx="12.5" ry="12.5" style="stroke:#181818;stroke-width:0.5;" width="185" x="571.3125" y="50"/><text fill="#000000" font-family="sans-serif" font-size="12" lengthAdjust="spacing" textLength="165" x="581.3125" y="71.6016">Fetch current account details</text><rect fill="#F1F1F1" height="34.1328" rx="12.5" ry="12.5" style="stroke:#181818;stroke-width:0.5;" width="208" x="559.8125" y="104.1328"/><text fill="#000000" font-family="sans-serif" font-size="12" lengthAdjust="spacing" textLength="188" x="569.8125" y="125.7344">Get updated information from UI</text><polygon fill="#F1F1F1" points="609.8125,158.2656,717.8125,158.2656,729.8125,170.2656,717.8125,182.2656,609.8125,182.2656,597.8125,170.2656,609.8125,158.2656" style="stroke:#181818;stroke-width:0.5;"/><text fill="#000000" font-family="sans-serif" font-size="11" lengthAdjust="spacing" textLength="108" x="609.8125" y="174.4229">Username changed?</text><text fill="#000000" font-family="sans-serif" font-size="11" lengthAdjust="spacing" textLength="19" x="578.8125" y="167.9453">Yes</text><text fill="#000000" font-family="sans-serif" font-size="11" lengthAdjust="spacing" textLength="15" x="729.8125" y="167.9453">No</text><polygon fill="#F1F1F1" points="276.875,192.2656,394.875,192.2656,406.875,204.2656,394.875,216.2656,276.875,216.2656,264.875,204.2656,276.875,192.2656" style="stroke:#181818;stroke-width:0.5;"/><text fill="#000000" font-family="sans-serif" font-size="11" lengthAdjust="spacing" textLength="118" x="276.875" y="208.4229">New username exists?</text><text fill="#000000" font-family="sans-serif" font-size="11" lengthAdjust="spacing" textLength="19" x="245.875" y="201.9453">Yes</text><text fill="#000000" font-family="sans-serif" font-size="11" lengthAdjust="spacing" textLength="15" x="406.875" y="201.9453">No</text><rect fill="#F1F1F1" height="34.1328" rx="12.5" ry="12.5" style="stroke:#181818;stroke-width:0.5;" width="252" x="11" y="226.2656"/><text fill="#000000" font-family="sans-serif" font-size="12" lengthAdjust="spacing" textLength="232" x="21" y="247.8672">Show error message: "Username exists!"</text><rect fill="#F1F1F1" height="34.1328" rx="12.5" ry="12.5" style="stroke:#181818;stroke-width:0.5;" width="197" x="436.25" y="226.2656"/><text fill="#000000" font-family="sans-serif" font-size="12" lengthAdjust="spacing" textLength="177" x="446.25" y="247.8672">Prompt password confirmation</text><polygon fill="#F1F1F1" points="477.75,295.3984,591.75,295.3984,603.75,307.3984,591.75,319.3984,477.75,319.3984,465.75,307.3984,477.75,295.3984" style="stroke:#181818;stroke-width:0.5;"/><text fill="#000000" font-family="sans-serif" font-size="11" lengthAdjust="spacing" textLength="114" x="477.75" y="311.5557">Password confirmed?</text><text fill="#000000" font-family="sans-serif" font-size="11" lengthAdjust="spacing" textLength="19" x="446.75" y="305.0781">Yes</text><text fill="#000000" font-family="sans-serif" font-size="11" lengthAdjust="spacing" textLength="15" x="603.75" y="305.0781">No</text><rect fill="#F1F1F1" height="34.1328" rx="12.5" ry="12.5" style="stroke:#181818;stroke-width:0.5;" width="110" x="373" y="329.3984"/><text fill="#000000" font-family="sans-serif" font-size="12" lengthAdjust="spacing" textLength="90" x="383" y="351">Update account</text><rect fill="#F1F1F1" height="34.1328" rx="12.5" ry="12.5" style="stroke:#181818;stroke-width:0.5;" width="270" x="293" y="398.5313"/><text fill="#000000" font-family="sans-serif" font-size="12" lengthAdjust="spacing" textLength="250" x="303" y="420.1328">Update session and switch to customer info</text><rect fill="#F1F1F1" height="34.1328" rx="12.5" ry="12.5" style="stroke:#181818;stroke-width:0.5;" width="117" x="583" y="329.3984"/><text fill="#000000" font-family="sans-serif" font-size="12" lengthAdjust="spacing" textLength="97" x="593" y="351">Cancel operation</text><polygon fill="#F1F1F1" points="534.75,438.6641,546.75,450.6641,534.75,462.6641,522.75,450.6641,534.75,438.6641" style="stroke:#181818;stroke-width:0.5;"/><polygon fill="#F1F1F1" points="335.875,468.6641,347.875,480.6641,335.875,492.6641,323.875,480.6641,335.875,468.6641" style="stroke:#181818;stroke-width:0.5;"/><rect fill="#F1F1F1" height="34.1328" rx="12.5" ry="12.5" style="stroke:#181818;stroke-width:0.5;" width="197" x="893.25" y="192.2656"/><text fill="#000000" font-family="sans-serif" font-size="12" lengthAdjust="spacing" textLength="177" x="903.25" y="213.8672">Prompt password confirmation</text><polygon fill="#F1F1F1" points="934.75,261.3984,1048.75,261.3984,1060.75,273.3984,1048.75,285.3984,934.75,285.3984,922.75,273.3984,934.75,261.3984" style="stroke:#181818;stroke-width:0.5;"/><text fill="#000000" font-family="sans-serif" font-size="11" lengthAdjust="spacing" textLength="114" x="934.75" y="277.5557">Password confirmed?</text><text fill="#000000" font-family="sans-serif" font-size="11" lengthAdjust="spacing" textLength="19" x="903.75" y="271.0781">Yes</text><text fill="#000000" font-family="sans-serif" font-size="11" lengthAdjust="spacing" textLength="15" x="1060.75" y="271.0781">No</text><rect fill="#F1F1F1" height="34.1328" rx="12.5" ry="12.5" style="stroke:#181818;stroke-width:0.5;" width="110" x="830" y="295.3984"/><text fill="#000000" font-family="sans-serif" font-size="12" lengthAdjust="spacing" textLength="90" x="840" y="317">Update account</text><rect fill="#F1F1F1" height="34.1328" rx="12.5" ry="12.5" style="stroke:#181818;stroke-width:0.5;" width="270" x="750" y="364.5313"/><text fill="#000000" font-family="sans-serif" font-size="12" lengthAdjust="spacing" textLength="250" x="760" y="386.1328">Update session and switch to customer info</text><rect fill="#F1F1F1" height="34.1328" rx="12.5" ry="12.5" style="stroke:#181818;stroke-width:0.5;" width="117" x="1040" y="295.3984"/><text fill="#000000" font-family="sans-serif" font-size="12" lengthAdjust="spacing" textLength="97" x="1050" y="317">Cancel operation</text><polygon fill="#F1F1F1" points="991.75,404.6641,1003.75,416.6641,991.75,428.6641,979.75,416.6641,991.75,404.6641" style="stroke:#181818;stroke-width:0.5;"/><polygon fill="#F1F1F1" points="663.8125,498.6641,675.8125,510.6641,663.8125,522.6641,651.8125,510.6641,663.8125,498.6641" style="stroke:#181818;stroke-width:0.5;"/><ellipse cx="663.8125" cy="553.6641" fill="none" rx="11" ry="11" style="stroke:#222222;stroke-width:1.0;"/><ellipse cx="663.8125" cy="553.6641" fill="#222222" rx="6" ry="6" style="stroke:#222222;stroke-width:1.0;"/><line style="stroke:#181818;stroke-width:1.0;" x1="663.8125" x2="663.8125" y1="30" y2="50"/><polygon fill="#181818" points="659.8125,40,663.8125,50,667.8125,40,663.8125,44" style="stroke:#181818;stroke-width:1.0;"/><line style="stroke:#181818;stroke-width:1.0;" x1="663.8125" x2="663.8125" y1="84.1328" y2="104.1328"/><polygon fill="#181818" points="659.8125,94.1328,663.8125,104.1328,667.8125,94.1328,663.8125,98.1328" style="stroke:#181818;stroke-width:1.0;"/><line style="stroke:#181818;stroke-width:1.0;" x1="428" x2="428" y1="363.5313" y2="398.5313"/><polygon fill="#181818" points="424,388.5313,428,398.5313,432,388.5313,428,392.5313" style="stroke:#181818;stroke-width:1.0;"/><line style="stroke:#181818;stroke-width:1.0;" x1="465.75" x2="428" y1="307.3984" y2="307.3984"/><line style="stroke:#181818;stroke-width:1.0;" x1="428" x2="428" y1="307.3984" y2="329.3984"/><polygon fill="#181818" points="424,319.3984,428,329.3984,432,319.3984,428,323.3984" style="stroke:#181818;stroke-width:1.0;"/><line style="stroke:#181818;stroke-width:1.0;" x1="603.75" x2="641.5" y1="307.3984" y2="307.3984"/><line style="stroke:#181818;stroke-width:1.0;" x1="641.5" x2="641.5" y1="307.3984" y2="329.3984"/><polygon fill="#181818" points="637.5,319.3984,641.5,329.3984,645.5,319.3984,641.5,323.3984" style="stroke:#181818;stroke-width:1.0;"/><line style="stroke:#181818;stroke-width:1.0;" x1="428" x2="428" y1="432.6641" y2="450.6641"/><line style="stroke:#181818;stroke-width:1.0;" x1="428" x2="522.75" y1="450.6641" y2="450.6641"/><polygon fill="#181818" points="512.75,446.6641,522.75,450.6641,512.75,454.6641,516.75,450.6641" style="stroke:#181818;stroke-width:1.0;"/><line style="stroke:#181818;stroke-width:1.0;" x1="641.5" x2="641.5" y1="363.5313" y2="450.6641"/><line style="stroke:#181818;stroke-width:1.0;" x1="641.5" x2="546.75" y1="450.6641" y2="450.6641"/><polygon fill="#181818" points="556.75,446.6641,546.75,450.6641,556.75,454.6641,552.75,450.6641" style="stroke:#181818;stroke-width:1.0;"/><line style="stroke:#181818;stroke-width:1.0;" x1="534.75" x2="534.75" y1="260.3984" y2="295.3984"/><polygon fill="#181818" points="530.75,285.3984,534.75,295.3984,538.75,285.3984,534.75,289.3984" style="stroke:#181818;stroke-width:1.0;"/><line style="stroke:#181818;stroke-width:1.0;" x1="264.875" x2="137" y1="204.2656" y2="204.2656"/><line style="stroke:#181818;stroke-width:1.0;" x1="137" x2="137" y1="204.2656" y2="226.2656"/><polygon fill="#181818" points="133,216.2656,137,226.2656,141,216.2656,137,220.2656" style="stroke:#181818;stroke-width:1.0;"/><line style="stroke:#181818;stroke-width:1.0;" x1="406.875" x2="534.75" y1="204.2656" y2="204.2656"/><line style="stroke:#181818;stroke-width:1.0;" x1="534.75" x2="534.75" y1="204.2656" y2="226.2656"/><polygon fill="#181818" points="530.75,216.2656,534.75,226.2656,538.75,216.2656,534.75,220.2656" style="stroke:#181818;stroke-width:1.0;"/><line style="stroke:#181818;stroke-width:1.0;" x1="137" x2="137" y1="260.3984" y2="480.6641"/><line style="stroke:#181818;stroke-width:1.0;" x1="137" x2="323.875" y1="480.6641" y2="480.6641"/><polygon fill="#181818" points="313.875,476.6641,323.875,480.6641,313.875,484.6641,317.875,480.6641" style="stroke:#181818;stroke-width:1.0;"/><line style="stroke:#181818;stroke-width:1.0;" x1="534.75" x2="534.75" y1="462.6641" y2="480.6641"/><line style="stroke:#181818;stroke-width:1.0;" x1="534.75" x2="347.875" y1="480.6641" y2="480.6641"/><polygon fill="#181818" points="357.875,476.6641,347.875,480.6641,357.875,484.6641,353.875,480.6641" style="stroke:#181818;stroke-width:1.0;"/><line style="stroke:#181818;stroke-width:1.0;" x1="885" x2="885" y1="329.5313" y2="364.5313"/><polygon fill="#181818" points="881,354.5313,885,364.5313,889,354.5313,885,358.5313" style="stroke:#181818;stroke-width:1.0;"/><line style="stroke:#181818;stroke-width:1.0;" x1="922.75" x2="885" y1="273.3984" y2="273.3984"/><line style="stroke:#181818;stroke-width:1.0;" x1="885" x2="885" y1="273.3984" y2="295.3984"/><polygon fill="#181818" points="881,285.3984,885,295.3984,889,285.3984,885,289.3984" style="stroke:#181818;stroke-width:1.0;"/><line style="stroke:#181818;stroke-width:1.0;" x1="1060.75" x2="1098.5" y1="273.3984" y2="273.3984"/><line style="stroke:#181818;stroke-width:1.0;" x1="1098.5" x2="1098.5" y1="273.3984" y2="295.3984"/><polygon fill="#181818" points="1094.5,285.3984,1098.5,295.3984,1102.5,285.3984,1098.5,289.3984" style="stroke:#181818;stroke-width:1.0;"/><line style="stroke:#181818;stroke-width:1.0;" x1="885" x2="885" y1="398.6641" y2="416.6641"/><line style="stroke:#181818;stroke-width:1.0;" x1="885" x2="979.75" y1="416.6641" y2="416.6641"/><polygon fill="#181818" points="969.75,412.6641,979.75,416.6641,969.75,420.6641,973.75,416.6641" style="stroke:#181818;stroke-width:1.0;"/><line style="stroke:#181818;stroke-width:1.0;" x1="1098.5" x2="1098.5" y1="329.5313" y2="416.6641"/><line style="stroke:#181818;stroke-width:1.0;" x1="1098.5" x2="1003.75" y1="416.6641" y2="416.6641"/><polygon fill="#181818" points="1013.75,412.6641,1003.75,416.6641,1013.75,420.6641,1009.75,416.6641" style="stroke:#181818;stroke-width:1.0;"/><line style="stroke:#181818;stroke-width:1.0;" x1="991.75" x2="991.75" y1="226.3984" y2="261.3984"/><polygon fill="#181818" points="987.75,251.3984,991.75,261.3984,995.75,251.3984,991.75,255.3984" style="stroke:#181818;stroke-width:1.0;"/><line style="stroke:#181818;stroke-width:1.0;" x1="597.8125" x2="335.875" y1="170.2656" y2="170.2656"/><line style="stroke:#181818;stroke-width:1.0;" x1="335.875" x2="335.875" y1="170.2656" y2="192.2656"/><polygon fill="#181818" points="331.875,182.2656,335.875,192.2656,339.875,182.2656,335.875,186.2656" style="stroke:#181818;stroke-width:1.0;"/><line style="stroke:#181818;stroke-width:1.0;" x1="729.8125" x2="991.75" y1="170.2656" y2="170.2656"/><line style="stroke:#181818;stroke-width:1.0;" x1="991.75" x2="991.75" y1="170.2656" y2="192.2656"/><polygon fill="#181818" points="987.75,182.2656,991.75,192.2656,995.75,182.2656,991.75,186.2656" style="stroke:#181818;stroke-width:1.0;"/><line style="stroke:#181818;stroke-width:1.0;" x1="335.875" x2="335.875" y1="492.6641" y2="510.6641"/><line style="stroke:#181818;stroke-width:1.0;" x1="335.875" x2="651.8125" y1="510.6641" y2="510.6641"/><polygon fill="#181818" points="641.8125,506.6641,651.8125,510.6641,641.8125,514.6641,645.8125,510.6641" style="stroke:#181818;stroke-width:1.0;"/><line style="stroke:#181818;stroke-width:1.0;" x1="991.75" x2="991.75" y1="428.6641" y2="510.6641"/><line style="stroke:#181818;stroke-width:1.0;" x1="991.75" x2="675.8125" y1="510.6641" y2="510.6641"/><polygon fill="#181818" points="685.8125,506.6641,675.8125,510.6641,685.8125,514.6641,681.8125,510.6641" style="stroke:#181818;stroke-width:1.0;"/><line style="stroke:#181818;stroke-width:1.0;" x1="663.8125" x2="663.8125" y1="138.2656" y2="158.2656"/><polygon fill="#181818" points="659.8125,148.2656,663.8125,158.2656,667.8125,148.2656,663.8125,152.2656" style="stroke:#181818;stroke-width:1.0;"/><line style="stroke:#181818;stroke-width:1.0;" x1="663.8125" x2="663.8125" y1="522.6641" y2="542.6641"/><polygon fill="#181818" points="659.8125,532.6641,663.8125,542.6641,667.8125,532.6641,663.8125,536.6641" style="stroke:#181818;stroke-width:1.0;"/><!--SRC=[bL7BQiCm4BphAxOv9RzW7NeejFHI0iM77XTf7GjihTbTutv-PPD7axZGx45QqCmmCr93CLUzaeKMmYX2sG13uB7SaGnJfzvLRsGm3X6D8gJSiFHeYJCqmZtKxzwvrC2sLfACFK5eCHyeFk_0Migm_IBTEIWpepveWl64fE-aflV0UQhFbYSW4HReIHKFLC6clgO-RVn2e4wfQFCl-hwO6mm6L9rO8WJEJJewzsVOR6b_0rcpVfQjbnvE9VdLHorsvtumHz0fpUKQbtxLk2TPAhmGxwqlKY-O0tN00ycDPSenDUwoNGly8_SZcV_C-t3MbIzQptXCjPn5PVW1]--></g></svg>