<?xml version="1.0" encoding="us-ascii" standalone="no"?><svg xmlns="http://www.w3.org/2000/svg" xmlns:xlink="http://www.w3.org/1999/xlink" contentStyleType="text/css" height="771px" preserveAspectRatio="none" style="width:1481px;height:771px;background:#FFFFFF;" version="1.1" viewBox="0 0 1481 771" width="1481px" zoomAndPan="magnify"><defs/><g><ellipse cx="780.625" cy="20" fill="#222222" rx="10" ry="10" style="stroke:#222222;stroke-width:1.0;"/><rect fill="#F1F1F1" height="34.1328" rx="12.5" ry="12.5" style="stroke:#181818;stroke-width:0.5;" width="139" x="711.125" y="50"/><text fill="#000000" font-family="sans-serif" font-size="12" lengthAdjust="spacing" textLength="119" x="721.125" y="71.6016">Format the full name</text><rect fill="#F1F1F1" height="34.1328" rx="12.5" ry="12.5" style="stroke:#181818;stroke-width:0.5;" width="743" x="409.125" y="104.1328"/><text fill="#000000" font-family="sans-serif" font-size="12" lengthAdjust="spacing" textLength="723" x="419.125" y="125.7344">Read all input fields: UID, password, username, full name, gender, role, email, date of birth, mobile, and avatar image name</text><rect fill="#F1F1F1" height="34.1328" rx="12.5" ry="12.5" style="stroke:#181818;stroke-width:0.5;" width="208" x="676.625" y="158.2656"/><text fill="#000000" font-family="sans-serif" font-size="12" lengthAdjust="spacing" textLength="188" x="686.625" y="179.8672">Prepare a message box for later</text><polygon fill="#F1F1F1" points="744.625,212.3984,816.625,212.3984,828.625,224.3984,816.625,236.3984,744.625,236.3984,732.625,224.3984,744.625,212.3984" style="stroke:#181818;stroke-width:0.5;"/><text fill="#000000" font-family="sans-serif" font-size="11" lengthAdjust="spacing" textLength="72" x="744.625" y="228.5557">UID is empty?</text><text fill="#000000" font-family="sans-serif" font-size="11" lengthAdjust="spacing" textLength="19" x="713.625" y="222.0781">Yes</text><text fill="#000000" font-family="sans-serif" font-size="11" lengthAdjust="spacing" textLength="15" x="828.625" y="222.0781">No</text><polygon fill="#F1F1F1" points="295.25,246.3984,431.25,246.3984,443.25,258.3984,431.25,270.3984,295.25,270.3984,283.25,258.3984,295.25,246.3984" style="stroke:#181818;stroke-width:0.5;"/><text fill="#000000" font-family="sans-serif" font-size="11" lengthAdjust="spacing" textLength="136" x="295.25" y="262.5557">Username already exists?</text><text fill="#000000" font-family="sans-serif" font-size="11" lengthAdjust="spacing" textLength="19" x="264.25" y="256.0781">Yes</text><text fill="#000000" font-family="sans-serif" font-size="11" lengthAdjust="spacing" textLength="15" x="443.25" y="256.0781">No</text><rect fill="#F1F1F1" height="34.1328" rx="12.5" ry="12.5" style="stroke:#181818;stroke-width:0.5;" width="257" x="11" y="280.3984"/><text fill="#000000" font-family="sans-serif" font-size="12" lengthAdjust="spacing" textLength="237" x="21" y="302">Show a message: "This username exists!"</text><ellipse cx="139.5" cy="360.5313" fill="none" rx="11" ry="11" style="stroke:#222222;stroke-width:1.0;"/><ellipse cx="139.5" cy="360.5313" fill="#222222" rx="6" ry="6" style="stroke:#222222;stroke-width:1.0;"/><rect fill="#F1F1F1" height="34.1328" rx="12.5" ry="12.5" style="stroke:#181818;stroke-width:0.5;" width="135" x="519.5" y="280.3984"/><text fill="#000000" font-family="sans-serif" font-size="12" lengthAdjust="spacing" textLength="115" x="529.5" y="302">Generate a new UID</text><rect fill="#F1F1F1" height="34.1328" rx="12.5" ry="12.5" style="stroke:#181818;stroke-width:0.5;" width="268" x="453" y="349.5313"/><text fill="#000000" font-family="sans-serif" font-size="12" lengthAdjust="spacing" textLength="248" x="463" y="371.1328">Create a new account with the input details</text><polygon fill="#F1F1F1" points="503.5,418.6641,670.5,418.6641,682.5,430.6641,670.5,442.6641,503.5,442.6641,491.5,430.6641,503.5,418.6641" style="stroke:#181818;stroke-width:0.5;"/><text fill="#000000" font-family="sans-serif" font-size="11" lengthAdjust="spacing" textLength="167" x="503.5" y="434.8213">Account is added successfully?</text><text fill="#000000" font-family="sans-serif" font-size="11" lengthAdjust="spacing" textLength="19" x="472.5" y="428.3438">Yes</text><text fill="#000000" font-family="sans-serif" font-size="11" lengthAdjust="spacing" textLength="15" x="682.5" y="428.3438">No</text><rect fill="#F1F1F1" height="34.1328" rx="12.5" ry="12.5" style="stroke:#181818;stroke-width:0.5;" width="293" x="298" y="452.6641"/><text fill="#000000" font-family="sans-serif" font-size="12" lengthAdjust="spacing" textLength="273" x="308" y="474.2656">Show a success message: "Added Successfully!"</text><rect fill="#F1F1F1" height="34.1328" rx="12.5" ry="12.5" style="stroke:#181818;stroke-width:0.5;" width="237" x="611" y="452.6641"/><text fill="#000000" font-family="sans-serif" font-size="12" lengthAdjust="spacing" textLength="217" x="621" y="474.2656">Show an error message: "Added Fail!"</text><polygon fill="#F1F1F1" points="587,492.7969,599,504.7969,587,516.7969,575,504.7969,587,492.7969" style="stroke:#181818;stroke-width:0.5;"/><rect fill="#F1F1F1" height="34.1328" rx="12.5" ry="12.5" style="stroke:#181818;stroke-width:0.5;" width="227" x="1084.5" y="246.3984"/><text fill="#000000" font-family="sans-serif" font-size="12" lengthAdjust="spacing" textLength="207" x="1094.5" y="268">Retrieve the existing account by UID</text><rect fill="#F1F1F1" height="34.1328" rx="12.5" ry="12.5" style="stroke:#181818;stroke-width:0.5;" width="250" x="1073" y="315.5313"/><text fill="#000000" font-family="sans-serif" font-size="12" lengthAdjust="spacing" textLength="230" x="1083" y="337.1328">Update the account with the new details</text><polygon fill="#F1F1F1" points="1109,384.6641,1287,384.6641,1299,396.6641,1287,408.6641,1109,408.6641,1097,396.6641,1109,384.6641" style="stroke:#181818;stroke-width:0.5;"/><text fill="#000000" font-family="sans-serif" font-size="11" lengthAdjust="spacing" textLength="178" x="1109" y="400.8213">Account is updated successfully?</text><text fill="#000000" font-family="sans-serif" font-size="11" lengthAdjust="spacing" textLength="19" x="1078" y="394.3438">Yes</text><text fill="#000000" font-family="sans-serif" font-size="11" lengthAdjust="spacing" textLength="15" x="1299" y="394.3438">No</text><rect fill="#F1F1F1" height="34.1328" rx="12.5" ry="12.5" style="stroke:#181818;stroke-width:0.5;" width="191" x="954.5" y="467.1416"/><text fill="#000000" font-family="sans-serif" font-size="12" lengthAdjust="spacing" textLength="171" x="964.5" y="488.7432">Update the session username</text><polygon fill="#F1F1F1" points="942,418.6641,1158,418.6641,1170,430.6641,1158,442.6641,942,442.6641,930,430.6641,942,418.6641" style="stroke:#181818;stroke-width:0.5;"/><text fill="#000000" font-family="sans-serif" font-size="11" lengthAdjust="spacing" textLength="19" x="1054" y="453.2988">Yes</text><text fill="#000000" font-family="sans-serif" font-size="11" lengthAdjust="spacing" textLength="216" x="942" y="434.8213">UID matches the updated account's UID?</text><polygon fill="#F1F1F1" points="1050,525.752,1062,537.752,1050,549.752,1038,537.752,1050,525.752" style="stroke:#181818;stroke-width:0.5;"/><rect fill="#F1F1F1" height="34.1328" rx="12.5" ry="12.5" style="stroke:#181818;stroke-width:0.5;" width="304" x="898" y="569.752"/><text fill="#000000" font-family="sans-serif" font-size="12" lengthAdjust="spacing" textLength="284" x="908" y="591.3535">Show a success message: "Updated Successfully!"</text><rect fill="#F1F1F1" height="34.1328" rx="12.5" ry="12.5" style="stroke:#181818;stroke-width:0.5;" width="248" x="1222" y="418.6641"/><text fill="#000000" font-family="sans-serif" font-size="12" lengthAdjust="spacing" textLength="228" x="1232" y="440.2656">Show an error message: "Updated Fail!"</text><polygon fill="#F1F1F1" points="1198,609.8848,1210,621.8848,1198,633.8848,1186,621.8848,1198,609.8848" style="stroke:#181818;stroke-width:0.5;"/><polygon fill="#F1F1F1" points="780.625,639.8848,792.625,651.8848,780.625,663.8848,768.625,651.8848,780.625,639.8848" style="stroke:#181818;stroke-width:0.5;"/><rect fill="#F1F1F1" height="34.1328" rx="12.5" ry="12.5" style="stroke:#181818;stroke-width:0.5;" width="167" x="697.125" y="683.8848"/><text fill="#000000" font-family="sans-serif" font-size="12" lengthAdjust="spacing" textLength="147" x="707.125" y="705.4863">Refresh data on the page</text><ellipse cx="780.625" cy="749.0176" fill="none" rx="11" ry="11" style="stroke:#222222;stroke-width:1.0;"/><ellipse cx="780.625" cy="749.0176" fill="#222222" rx="6" ry="6" style="stroke:#222222;stroke-width:1.0;"/><line style="stroke:#181818;stroke-width:1.0;" x1="780.625" x2="780.625" y1="30" y2="50"/><polygon fill="#181818" points="776.625,40,780.625,50,784.625,40,780.625,44" style="stroke:#181818;stroke-width:1.0;"/><line style="stroke:#181818;stroke-width:1.0;" x1="780.625" x2="780.625" y1="84.1328" y2="104.1328"/><polygon fill="#181818" points="776.625,94.1328,780.625,104.1328,784.625,94.1328,780.625,98.1328" style="stroke:#181818;stroke-width:1.0;"/><line style="stroke:#181818;stroke-width:1.0;" x1="780.625" x2="780.625" y1="138.2656" y2="158.2656"/><polygon fill="#181818" points="776.625,148.2656,780.625,158.2656,784.625,148.2656,780.625,152.2656" style="stroke:#181818;stroke-width:1.0;"/><line style="stroke:#181818;stroke-width:1.0;" x1="139.5" x2="139.5" y1="314.5313" y2="349.5313"/><polygon fill="#181818" points="135.5,339.5313,139.5,349.5313,143.5,339.5313,139.5,343.5313" style="stroke:#181818;stroke-width:1.0;"/><line style="stroke:#181818;stroke-width:1.0;" x1="587" x2="587" y1="314.5313" y2="349.5313"/><polygon fill="#181818" points="583,339.5313,587,349.5313,591,339.5313,587,343.5313" style="stroke:#181818;stroke-width:1.0;"/><line style="stroke:#181818;stroke-width:1.0;" x1="491.5" x2="444.5" y1="430.6641" y2="430.6641"/><line style="stroke:#181818;stroke-width:1.0;" x1="444.5" x2="444.5" y1="430.6641" y2="452.6641"/><polygon fill="#181818" points="440.5,442.6641,444.5,452.6641,448.5,442.6641,444.5,446.6641" style="stroke:#181818;stroke-width:1.0;"/><line style="stroke:#181818;stroke-width:1.0;" x1="682.5" x2="729.5" y1="430.6641" y2="430.6641"/><line style="stroke:#181818;stroke-width:1.0;" x1="729.5" x2="729.5" y1="430.6641" y2="452.6641"/><polygon fill="#181818" points="725.5,442.6641,729.5,452.6641,733.5,442.6641,729.5,446.6641" style="stroke:#181818;stroke-width:1.0;"/><line style="stroke:#181818;stroke-width:1.0;" x1="444.5" x2="444.5" y1="486.7969" y2="504.7969"/><line style="stroke:#181818;stroke-width:1.0;" x1="444.5" x2="575" y1="504.7969" y2="504.7969"/><polygon fill="#181818" points="565,500.7969,575,504.7969,565,508.7969,569,504.7969" style="stroke:#181818;stroke-width:1.0;"/><line style="stroke:#181818;stroke-width:1.0;" x1="729.5" x2="729.5" y1="486.7969" y2="504.7969"/><line style="stroke:#181818;stroke-width:1.0;" x1="729.5" x2="599" y1="504.7969" y2="504.7969"/><polygon fill="#181818" points="609,500.7969,599,504.7969,609,508.7969,605,504.7969" style="stroke:#181818;stroke-width:1.0;"/><line style="stroke:#181818;stroke-width:1.0;" x1="587" x2="587" y1="383.6641" y2="418.6641"/><polygon fill="#181818" points="583,408.6641,587,418.6641,591,408.6641,587,412.6641" style="stroke:#181818;stroke-width:1.0;"/><line style="stroke:#181818;stroke-width:1.0;" x1="283.25" x2="139.5" y1="258.3984" y2="258.3984"/><line style="stroke:#181818;stroke-width:1.0;" x1="139.5" x2="139.5" y1="258.3984" y2="280.3984"/><polygon fill="#181818" points="135.5,270.3984,139.5,280.3984,143.5,270.3984,139.5,274.3984" style="stroke:#181818;stroke-width:1.0;"/><line style="stroke:#181818;stroke-width:1.0;" x1="443.25" x2="587" y1="258.3984" y2="258.3984"/><line style="stroke:#181818;stroke-width:1.0;" x1="587" x2="587" y1="258.3984" y2="280.3984"/><polygon fill="#181818" points="583,270.3984,587,280.3984,591,270.3984,587,274.3984" style="stroke:#181818;stroke-width:1.0;"/><line style="stroke:#181818;stroke-width:1.0;" x1="587" x2="587" y1="516.7969" y2="651.8848"/><line style="stroke:#181818;stroke-width:1.0;" x1="587" x2="768.625" y1="651.8848" y2="651.8848"/><polygon fill="#181818" points="758.625,647.8848,768.625,651.8848,758.625,655.8848,762.625,651.8848" style="stroke:#181818;stroke-width:1.0;"/><line style="stroke:#181818;stroke-width:1.0;" x1="1198" x2="1198" y1="280.5313" y2="315.5313"/><polygon fill="#181818" points="1194,305.5313,1198,315.5313,1202,305.5313,1198,309.5313" style="stroke:#181818;stroke-width:1.0;"/><line style="stroke:#181818;stroke-width:1.0;" x1="1050" x2="1050" y1="442.6641" y2="467.1416"/><polygon fill="#181818" points="1046,457.1416,1050,467.1416,1054,457.1416,1050,461.1416" style="stroke:#181818;stroke-width:1.0;"/><line style="stroke:#181818;stroke-width:1.0;" x1="1170" x2="1182" y1="430.6641" y2="430.6641"/><polygon fill="#181818" points="1178,474.208,1182,484.208,1186,474.208,1182,478.208" style="stroke:#181818;stroke-width:1.0;"/><line style="stroke:#181818;stroke-width:1.0;" x1="1182" x2="1182" y1="430.6641" y2="537.752"/><line style="stroke:#181818;stroke-width:1.0;" x1="1182" x2="1062" y1="537.752" y2="537.752"/><polygon fill="#181818" points="1072,533.752,1062,537.752,1072,541.752,1068,537.752" style="stroke:#181818;stroke-width:1.0;"/><line style="stroke:#181818;stroke-width:1.0;" x1="1050" x2="1050" y1="501.2744" y2="525.752"/><polygon fill="#181818" points="1046,515.752,1050,525.752,1054,515.752,1050,519.752" style="stroke:#181818;stroke-width:1.0;"/><line style="stroke:#181818;stroke-width:1.0;" x1="1050" x2="1050" y1="549.752" y2="569.752"/><polygon fill="#181818" points="1046,559.752,1050,569.752,1054,559.752,1050,563.752" style="stroke:#181818;stroke-width:1.0;"/><line style="stroke:#181818;stroke-width:1.0;" x1="1097" x2="1050" y1="396.6641" y2="396.6641"/><line style="stroke:#181818;stroke-width:1.0;" x1="1050" x2="1050" y1="396.6641" y2="418.6641"/><polygon fill="#181818" points="1046,408.6641,1050,418.6641,1054,408.6641,1050,412.6641" style="stroke:#181818;stroke-width:1.0;"/><line style="stroke:#181818;stroke-width:1.0;" x1="1299" x2="1346" y1="396.6641" y2="396.6641"/><line style="stroke:#181818;stroke-width:1.0;" x1="1346" x2="1346" y1="396.6641" y2="418.6641"/><polygon fill="#181818" points="1342,408.6641,1346,418.6641,1350,408.6641,1346,412.6641" style="stroke:#181818;stroke-width:1.0;"/><line style="stroke:#181818;stroke-width:1.0;" x1="1050" x2="1050" y1="603.8848" y2="621.8848"/><line style="stroke:#181818;stroke-width:1.0;" x1="1050" x2="1186" y1="621.8848" y2="621.8848"/><polygon fill="#181818" points="1176,617.8848,1186,621.8848,1176,625.8848,1180,621.8848" style="stroke:#181818;stroke-width:1.0;"/><line style="stroke:#181818;stroke-width:1.0;" x1="1346" x2="1346" y1="452.7969" y2="621.8848"/><line style="stroke:#181818;stroke-width:1.0;" x1="1346" x2="1210" y1="621.8848" y2="621.8848"/><polygon fill="#181818" points="1220,617.8848,1210,621.8848,1220,625.8848,1216,621.8848" style="stroke:#181818;stroke-width:1.0;"/><line style="stroke:#181818;stroke-width:1.0;" x1="1198" x2="1198" y1="349.6641" y2="384.6641"/><polygon fill="#181818" points="1194,374.6641,1198,384.6641,1202,374.6641,1198,378.6641" style="stroke:#181818;stroke-width:1.0;"/><line style="stroke:#181818;stroke-width:1.0;" x1="732.625" x2="363.25" y1="224.3984" y2="224.3984"/><line style="stroke:#181818;stroke-width:1.0;" x1="363.25" x2="363.25" y1="224.3984" y2="246.3984"/><polygon fill="#181818" points="359.25,236.3984,363.25,246.3984,367.25,236.3984,363.25,240.3984" style="stroke:#181818;stroke-width:1.0;"/><line style="stroke:#181818;stroke-width:1.0;" x1="828.625" x2="1198" y1="224.3984" y2="224.3984"/><line style="stroke:#181818;stroke-width:1.0;" x1="1198" x2="1198" y1="224.3984" y2="246.3984"/><polygon fill="#181818" points="1194,236.3984,1198,246.3984,1202,236.3984,1198,240.3984" style="stroke:#181818;stroke-width:1.0;"/><line style="stroke:#181818;stroke-width:1.0;" x1="1198" x2="1198" y1="633.8848" y2="651.8848"/><line style="stroke:#181818;stroke-width:1.0;" x1="1198" x2="792.625" y1="651.8848" y2="651.8848"/><polygon fill="#181818" points="802.625,647.8848,792.625,651.8848,802.625,655.8848,798.625,651.8848" style="stroke:#181818;stroke-width:1.0;"/><line style="stroke:#181818;stroke-width:1.0;" x1="780.625" x2="780.625" y1="192.3984" y2="212.3984"/><polygon fill="#181818" points="776.625,202.3984,780.625,212.3984,784.625,202.3984,780.625,206.3984" style="stroke:#181818;stroke-width:1.0;"/><line style="stroke:#181818;stroke-width:1.0;" x1="780.625" x2="780.625" y1="663.8848" y2="683.8848"/><polygon fill="#181818" points="776.625,673.8848,780.625,683.8848,784.625,673.8848,780.625,677.8848" style="stroke:#181818;stroke-width:1.0;"/><line style="stroke:#181818;stroke-width:1.0;" x1="780.625" x2="780.625" y1="718.0176" y2="738.0176"/><polygon fill="#181818" points="776.625,728.0176,780.625,738.0176,784.625,728.0176,780.625,732.0176" style="stroke:#181818;stroke-width:1.0;"/><!--SRC=[ZLF1JiCm3BttAymk3AbVq1qG0e6u80JimD5ht3LIcrHsojZVuuHsxTX0z30jYj_pUy-E1EIG5VUUMmmGQeAgRnfmsD8gAru83Q2UhUlw09MbnaW1wyUx73eKsNasEVH2707vXCrXIyuGvy2-qHErQ9iS30O2Ny76SgXpQFt6nbjqskK3LGhO5hSqjdzcwf0945eIYHSR_mcLPsYKY5TPPYjOgXgmeYswiB- -YXuSBDz9hZBGBrKC0jKAgwCzqAUL8AV5yIjUQx-RMXQmUAkLVZGvO2yMgmD2Wk_IWHeXM3xv6Ta3EUBe6i7HBYOtuOfRLNEumhBqlGkmiw5EW_ZEt53Gw6H2HKCtGwtgGcF8WFHbgNfZ_llpjkRMXkgPnPl4yZfZcHiyzJLZSq3CEfAVPFSg-uZ46LjbqxzZKbsrm9O-A5bF6LktFOIosK_H5UikxL4iF0aj9daKsO-u-eJzJs3ZQkcxA6kIn3wYXxQN4bNzaVTCgMWtwzrXZyu5y_UCraFpSrCwitc_JMUacSzdc4ZwZQ- -Of8wlbO4bHpbTmfUPN7Jlm00]--></g></svg>