<?xml version="1.0" encoding="us-ascii" standalone="no"?><svg xmlns="http://www.w3.org/2000/svg" xmlns:xlink="http://www.w3.org/1999/xlink" contentStyleType="text/css" height="825px" preserveAspectRatio="none" style="width:1219px;height:825px;background:#FFFFFF;" version="1.1" viewBox="0 0 1219 825" width="1219px" zoomAndPan="magnify"><defs/><g><rect fill="none" height="498.9688" style="stroke:#000000;stroke-width:1.5;" width="1202" x="10" y="199.4199"/><rect fill="none" height="212.1738" style="stroke:#000000;stroke-width:1.5;" width="1182" x="20" y="253.041"/><rect fill="none" height="77.9316" style="stroke:#000000;stroke-width:1.5;" width="868.5" x="30" y="380.2832"/><rect fill="none" height="151.5527" style="stroke:#000000;stroke-width:1.5;" width="1107.5" x="30" y="539.8359"/><rect fill="none" height="59.6211" style="stroke:#000000;stroke-width:1.5;" width="311" x="816.5" y="564.1465"/><line style="stroke:#181818;stroke-width:0.5;stroke-dasharray:5.0,5.0;" x1="58" x2="58" y1="81.4883" y2="744.6992"/><line style="stroke:#181818;stroke-width:0.5;stroke-dasharray:5.0,5.0;" x1="857.5" x2="857.5" y1="81.4883" y2="744.6992"/><line style="stroke:#181818;stroke-width:0.5;stroke-dasharray:5.0,5.0;" x1="1153" x2="1153" y1="81.4883" y2="744.6992"/><text fill="#000000" font-family="sans-serif" font-size="14" lengthAdjust="spacing" textLength="31" x="40" y="78.5352">User</text><ellipse cx="58.5" cy="13.5" fill="#E2E2F0" rx="8" ry="8" style="stroke:#181818;stroke-width:0.5;"/><path d="M58.5,21.5 L58.5,48.5 M45.5,29.5 L71.5,29.5 M58.5,48.5 L45.5,63.5 M58.5,48.5 L71.5,63.5 " fill="none" style="stroke:#181818;stroke-width:0.5;"/><text fill="#000000" font-family="sans-serif" font-size="14" lengthAdjust="spacing" textLength="31" x="40" y="757.2344">User</text><ellipse cx="58.5" cy="768.6875" fill="#E2E2F0" rx="8" ry="8" style="stroke:#181818;stroke-width:0.5;"/><path d="M58.5,776.6875 L58.5,803.6875 M45.5,784.6875 L71.5,784.6875 M58.5,803.6875 L45.5,818.6875 M58.5,803.6875 L71.5,818.6875 " fill="none" style="stroke:#181818;stroke-width:0.5;"/><rect fill="#E2E2F0" height="30.4883" rx="2.5" ry="2.5" style="stroke:#181818;stroke-width:0.5;" width="62" x="826.5" y="50"/><text fill="#000000" font-family="sans-serif" font-size="14" lengthAdjust="spacing" textLength="48" x="833.5" y="70.5352">System</text><rect fill="#E2E2F0" height="30.4883" rx="2.5" ry="2.5" style="stroke:#181818;stroke-width:0.5;" width="62" x="826.5" y="743.6992"/><text fill="#000000" font-family="sans-serif" font-size="14" lengthAdjust="spacing" textLength="48" x="833.5" y="764.2344">System</text><rect fill="#E2E2F0" height="30.4883" rx="2.5" ry="2.5" style="stroke:#181818;stroke-width:0.5;" width="77" x="1115" y="50"/><text fill="#000000" font-family="sans-serif" font-size="14" lengthAdjust="spacing" textLength="63" x="1122" y="70.5352">Database</text><rect fill="#E2E2F0" height="30.4883" rx="2.5" ry="2.5" style="stroke:#181818;stroke-width:0.5;" width="77" x="1115" y="743.6992"/><text fill="#000000" font-family="sans-serif" font-size="14" lengthAdjust="spacing" textLength="63" x="1122" y="764.2344">Database</text><polygon fill="#181818" points="845.5,108.7988,855.5,112.7988,845.5,116.7988,849.5,112.7988" style="stroke:#181818;stroke-width:1.0;"/><line style="stroke:#181818;stroke-width:1.0;" x1="58.5" x2="851.5" y1="112.7988" y2="112.7988"/><text fill="#000000" font-family="sans-serif" font-size="13" lengthAdjust="spacing" textLength="131" x="65.5" y="108.0566">Format the full name</text><polygon fill="#181818" points="845.5,138.1094,855.5,142.1094,845.5,146.1094,849.5,142.1094" style="stroke:#181818;stroke-width:1.0;"/><line style="stroke:#181818;stroke-width:1.0;" x1="58.5" x2="851.5" y1="142.1094" y2="142.1094"/><text fill="#000000" font-family="sans-serif" font-size="13" lengthAdjust="spacing" textLength="775" x="65.5" y="137.3672">Read all input fields: UID, password, username, full name, gender, role, email, date of birth, mobile, and avatar image name</text><line style="stroke:#181818;stroke-width:1.0;" x1="857.5" x2="899.5" y1="171.4199" y2="171.4199"/><line style="stroke:#181818;stroke-width:1.0;" x1="899.5" x2="899.5" y1="171.4199" y2="184.4199"/><line style="stroke:#181818;stroke-width:1.0;" x1="858.5" x2="899.5" y1="184.4199" y2="184.4199"/><polygon fill="#181818" points="868.5,180.4199,858.5,184.4199,868.5,188.4199,864.5,184.4199" style="stroke:#181818;stroke-width:1.0;"/><text fill="#000000" font-family="sans-serif" font-size="13" lengthAdjust="spacing" textLength="198" x="864.5" y="166.6777">Prepare a message box for later</text><path d="M10,199.4199 L72,199.4199 L72,206.7305 L62,216.7305 L10,216.7305 L10,199.4199 " fill="#EEEEEE" style="stroke:#000000;stroke-width:1.5;"/><rect fill="none" height="498.9688" style="stroke:#000000;stroke-width:1.5;" width="1202" x="10" y="199.4199"/><text fill="#000000" font-family="sans-serif" font-size="13" font-weight="bold" lengthAdjust="spacing" textLength="17" x="25" y="212.9883">alt</text><text fill="#000000" font-family="sans-serif" font-size="11" font-weight="bold" lengthAdjust="spacing" textLength="81" x="87" y="212.0547">[UID is empty]</text><polygon fill="#181818" points="1141.5,234.041,1151.5,238.041,1141.5,242.041,1145.5,238.041" style="stroke:#181818;stroke-width:1.0;"/><line style="stroke:#181818;stroke-width:1.0;" x1="857.5" x2="1147.5" y1="238.041" y2="238.041"/><text fill="#000000" font-family="sans-serif" font-size="13" lengthAdjust="spacing" textLength="209" x="864.5" y="233.2988">Check if Username already exists</text><path d="M20,253.041 L82,253.041 L82,260.3516 L72,270.3516 L20,270.3516 L20,253.041 " fill="#EEEEEE" style="stroke:#000000;stroke-width:1.5;"/><rect fill="none" height="212.1738" style="stroke:#000000;stroke-width:1.5;" width="1182" x="20" y="253.041"/><text fill="#000000" font-family="sans-serif" font-size="13" font-weight="bold" lengthAdjust="spacing" textLength="17" x="35" y="266.6094">alt</text><text fill="#000000" font-family="sans-serif" font-size="11" font-weight="bold" lengthAdjust="spacing" textLength="99" x="97" y="265.6758">[Username exists]</text><polygon fill="#181818" points="69.5,287.6621,59.5,291.6621,69.5,295.6621,65.5,291.6621" style="stroke:#181818;stroke-width:1.0;"/><line style="stroke:#181818;stroke-width:1.0;" x1="63.5" x2="856.5" y1="291.6621" y2="291.6621"/><text fill="#000000" font-family="sans-serif" font-size="13" lengthAdjust="spacing" textLength="259" x="75.5" y="286.9199">Show a message: "This username exists!"</text><line style="stroke:#000000;stroke-width:1.0;stroke-dasharray:2.0,2.0;" x1="20" x2="1202" y1="300.6621" y2="300.6621"/><line style="stroke:#181818;stroke-width:1.0;" x1="857.5" x2="899.5" y1="322.9727" y2="322.9727"/><line style="stroke:#181818;stroke-width:1.0;" x1="899.5" x2="899.5" y1="322.9727" y2="335.9727"/><line style="stroke:#181818;stroke-width:1.0;" x1="858.5" x2="899.5" y1="335.9727" y2="335.9727"/><polygon fill="#181818" points="868.5,331.9727,858.5,335.9727,868.5,339.9727,864.5,335.9727" style="stroke:#181818;stroke-width:1.0;"/><text fill="#000000" font-family="sans-serif" font-size="13" lengthAdjust="spacing" textLength="122" x="864.5" y="318.2305">Generate a new UID</text><polygon fill="#181818" points="1141.5,361.2832,1151.5,365.2832,1141.5,369.2832,1145.5,365.2832" style="stroke:#181818;stroke-width:1.0;"/><line style="stroke:#181818;stroke-width:1.0;" x1="857.5" x2="1147.5" y1="365.2832" y2="365.2832"/><text fill="#000000" font-family="sans-serif" font-size="13" lengthAdjust="spacing" textLength="272" x="864.5" y="360.541">Create a new account with the input details</text><path d="M30,380.2832 L92,380.2832 L92,387.5938 L82,397.5938 L30,397.5938 L30,380.2832 " fill="#EEEEEE" style="stroke:#000000;stroke-width:1.5;"/><rect fill="none" height="77.9316" style="stroke:#000000;stroke-width:1.5;" width="868.5" x="30" y="380.2832"/><text fill="#000000" font-family="sans-serif" font-size="13" font-weight="bold" lengthAdjust="spacing" textLength="17" x="45" y="393.8516">alt</text><text fill="#000000" font-family="sans-serif" font-size="11" font-weight="bold" lengthAdjust="spacing" textLength="163" x="107" y="392.918">[Account added successfully]</text><polygon fill="#181818" points="69.5,414.9043,59.5,418.9043,69.5,422.9043,65.5,418.9043" style="stroke:#181818;stroke-width:1.0;"/><line style="stroke:#181818;stroke-width:1.0;" x1="63.5" x2="856.5" y1="418.9043" y2="418.9043"/><text fill="#000000" font-family="sans-serif" font-size="13" lengthAdjust="spacing" textLength="301" x="75.5" y="414.1621">Show a success message: "Added Successfully!"</text><line style="stroke:#000000;stroke-width:1.0;stroke-dasharray:2.0,2.0;" x1="30" x2="898.5" y1="427.9043" y2="427.9043"/><polygon fill="#181818" points="69.5,446.2148,59.5,450.2148,69.5,454.2148,65.5,450.2148" style="stroke:#181818;stroke-width:1.0;"/><line style="stroke:#181818;stroke-width:1.0;" x1="63.5" x2="856.5" y1="450.2148" y2="450.2148"/><text fill="#000000" font-family="sans-serif" font-size="13" lengthAdjust="spacing" textLength="233" x="75.5" y="445.4727">Show an error message: "Added Fail!"</text><line style="stroke:#000000;stroke-width:1.0;stroke-dasharray:2.0,2.0;" x1="10" x2="1212" y1="473.2148" y2="473.2148"/><polygon fill="#181818" points="1141.5,491.5254,1151.5,495.5254,1141.5,499.5254,1145.5,495.5254" style="stroke:#181818;stroke-width:1.0;"/><line style="stroke:#181818;stroke-width:1.0;" x1="857.5" x2="1147.5" y1="495.5254" y2="495.5254"/><text fill="#000000" font-family="sans-serif" font-size="13" lengthAdjust="spacing" textLength="229" x="864.5" y="490.7832">Retrieve the existing account by UID</text><polygon fill="#181818" points="1141.5,520.8359,1151.5,524.8359,1141.5,528.8359,1145.5,524.8359" style="stroke:#181818;stroke-width:1.0;"/><line style="stroke:#181818;stroke-width:1.0;" x1="857.5" x2="1147.5" y1="524.8359" y2="524.8359"/><text fill="#000000" font-family="sans-serif" font-size="13" lengthAdjust="spacing" textLength="252" x="864.5" y="520.0938">Update the account with the new details</text><path d="M30,539.8359 L92,539.8359 L92,547.1465 L82,557.1465 L30,557.1465 L30,539.8359 " fill="#EEEEEE" style="stroke:#000000;stroke-width:1.5;"/><rect fill="none" height="151.5527" style="stroke:#000000;stroke-width:1.5;" width="1107.5" x="30" y="539.8359"/><text fill="#000000" font-family="sans-serif" font-size="13" font-weight="bold" lengthAdjust="spacing" textLength="17" x="45" y="553.4043">alt</text><text fill="#000000" font-family="sans-serif" font-size="11" font-weight="bold" lengthAdjust="spacing" textLength="174" x="107" y="552.4707">[Account updated successfully]</text><path d="M816.5,564.1465 L878.5,564.1465 L878.5,571.457 L868.5,581.457 L816.5,581.457 L816.5,564.1465 " fill="#EEEEEE" style="stroke:#000000;stroke-width:1.5;"/><rect fill="none" height="59.6211" style="stroke:#000000;stroke-width:1.5;" width="311" x="816.5" y="564.1465"/><text fill="#000000" font-family="sans-serif" font-size="13" font-weight="bold" lengthAdjust="spacing" textLength="17" x="831.5" y="577.7148">alt</text><text fill="#000000" font-family="sans-serif" font-size="11" font-weight="bold" lengthAdjust="spacing" textLength="229" x="893.5" y="576.7813">[UID matches the updated account's UID]</text><line style="stroke:#181818;stroke-width:1.0;" x1="857.5" x2="899.5" y1="602.7676" y2="602.7676"/><line style="stroke:#181818;stroke-width:1.0;" x1="899.5" x2="899.5" y1="602.7676" y2="615.7676"/><line style="stroke:#181818;stroke-width:1.0;" x1="858.5" x2="899.5" y1="615.7676" y2="615.7676"/><polygon fill="#181818" points="868.5,611.7676,858.5,615.7676,868.5,619.7676,864.5,615.7676" style="stroke:#181818;stroke-width:1.0;"/><text fill="#000000" font-family="sans-serif" font-size="13" lengthAdjust="spacing" textLength="185" x="864.5" y="598.0254">Update the session username</text><polygon fill="#181818" points="69.5,648.0781,59.5,652.0781,69.5,656.0781,65.5,652.0781" style="stroke:#181818;stroke-width:1.0;"/><line style="stroke:#181818;stroke-width:1.0;" x1="63.5" x2="856.5" y1="652.0781" y2="652.0781"/><text fill="#000000" font-family="sans-serif" font-size="13" lengthAdjust="spacing" textLength="313" x="75.5" y="647.3359">Show a success message: "Updated Successfully!"</text><line style="stroke:#000000;stroke-width:1.0;stroke-dasharray:2.0,2.0;" x1="30" x2="1137.5" y1="661.0781" y2="661.0781"/><polygon fill="#181818" points="69.5,679.3887,59.5,683.3887,69.5,687.3887,65.5,683.3887" style="stroke:#181818;stroke-width:1.0;"/><line style="stroke:#181818;stroke-width:1.0;" x1="63.5" x2="856.5" y1="683.3887" y2="683.3887"/><text fill="#000000" font-family="sans-serif" font-size="13" lengthAdjust="spacing" textLength="245" x="75.5" y="678.6465">Show an error message: "Updated Fail!"</text><polygon fill="#181818" points="69.5,722.6992,59.5,726.6992,69.5,730.6992,65.5,726.6992" style="stroke:#181818;stroke-width:1.0;"/><line style="stroke:#181818;stroke-width:1.0;" x1="63.5" x2="856.5" y1="726.6992" y2="726.6992"/><text fill="#000000" font-family="sans-serif" font-size="13" lengthAdjust="spacing" textLength="156" x="75.5" y="721.957">Refresh data on the page</text><!--SRC=[bLFBRjim4BphAwQ-zAB-W0u5aXefSYli-0FMuieYAf42ISNHtsT9FIm_Kg076vOvEpiFYifW7GwUNTQH2xhK7Pc0pNxmWTiDo6FyUNsyfK17yfm0s-SiYmpuyNC25tYnhgM0K3EglcbWgEKxq8v9WUHKcwuFg3GtoXSul6vpTEJzsJgLevUfE9vVc7ASs2XsEPnjv8bRqaqEHO5XAnor2tMErXvrF2KZMzv5iODkwSIZc574MiuVnsAIGMZP-mWysWzKaayZn2xBg0bH7BINZLqOCk32idqkyAlcyYzqbGADMyIT4vC3-4Fxu6KWSSodoxzhedXQO5_RyqL9WSrRBMlxwybl6vdbnlCDnUpeDnjsCHI2uNFKVWDCeaNX0g6ojBqqVDQXJksDrIWEal2eD3fucc2a52lulYn5PwndI90lxKp8bQsdnB1VCIHJArjVaHcmSrBEBTUBA9qvZCh6xudjslcEWzFypibeIbIRqnB1SPW2knuwTEcQnP6xi6A2bwZMGVLfwa5KyvsIjwMisIUQ6JpnV_TBSuzANWdoGgsjMQx9AeJ_gEGmhRyhvS5D-tSXCzDIIQf2FjajmuuhnxwEhp1174GtdP1y0W00]--></g></svg>