<?xml version="1.0" encoding="us-ascii" standalone="no"?><svg xmlns="http://www.w3.org/2000/svg" xmlns:xlink="http://www.w3.org/1999/xlink" contentStyleType="text/css" height="2043.75px" preserveAspectRatio="none" style="width:1975px;height:2043px;background:#FFFFFF;" version="1.1" viewBox="0 0 1975 2043" width="1975px" zoomAndPan="magnify"><defs/><g><!--class ROLES--><g id="elem_ROLES"><rect codeLine="4" fill="#F1F1F1" height="168.7012" id="ROLES" rx="5.2083" ry="5.2083" style="stroke:#181818;stroke-width:1.0416666666666667;" width="156.25" x="225.5833" y="1860.6875"/><ellipse cx="256.8333" cy="1894.0208" fill="#ADD1B2" rx="22.9167" ry="22.9167" style="stroke:#181818;stroke-width:2.0833333333333335;"/><path d="M265.4047,1906.5208 L249.3219,1906.5208 L249.3219,1880.7019 L265.4047,1880.7019 L265.4047,1885.1982 L254.4235,1885.1982 L254.4235,1890.7666 L264.3671,1890.7666 L264.3671,1895.2629 L254.4235,1895.2629 L254.4235,1902.0246 L265.4047,1902.0246 Z " fill="#000000"/><text fill="#000000" font-family="sans-serif" font-size="29.1667" lengthAdjust="spacing" textLength="89.5833" x="286" y="1905.0438">ROLES</text><line style="stroke:#181818;stroke-width:1.0416666666666667;" x1="227.6667" x2="379.75" y1="1927.3542" y2="1927.3542"/><text fill="#000000" font-family="sans-serif" font-size="29.1667" lengthAdjust="spacing" textLength="112.5" x="238.0833" y="1963.8857">id &#171;key&#187;</text><text fill="#000000" font-family="sans-serif" font-size="29.1667" lengthAdjust="spacing" textLength="79.1667" x="238.0833" y="1998.2363">name</text><line style="stroke:#181818;stroke-width:1.0416666666666667;" x1="227.6667" x2="379.75" y1="2012.722" y2="2012.722"/></g><!--class ACCOUNTS--><g id="elem_ACCOUNTS"><rect codeLine="9" fill="#F1F1F1" height="580.9082" id="ACCOUNTS" rx="5.2083" ry="5.2083" style="stroke:#181818;stroke-width:1.0416666666666667;" width="229.1667" x="189.125" y="1119.375"/><ellipse cx="220.375" cy="1152.7083" fill="#ADD1B2" rx="22.9167" ry="22.9167" style="stroke:#181818;stroke-width:2.0833333333333335;"/><path d="M228.9464,1165.2083 L212.8636,1165.2083 L212.8636,1139.3894 L228.9464,1139.3894 L228.9464,1143.8857 L217.9651,1143.8857 L217.9651,1149.4541 L227.9088,1149.4541 L227.9088,1153.9504 L217.9651,1153.9504 L217.9651,1160.7121 L228.9464,1160.7121 Z " fill="#000000"/><text fill="#000000" font-family="sans-serif" font-size="29.1667" lengthAdjust="spacing" textLength="162.5" x="249.5417" y="1163.7313">ACCOUNTS</text><line style="stroke:#181818;stroke-width:1.0416666666666667;" x1="191.2083" x2="416.2083" y1="1186.0417" y2="1186.0417"/><text fill="#000000" font-family="sans-serif" font-size="29.1667" lengthAdjust="spacing" textLength="112.5" x="201.625" y="1222.5732">id &#171;key&#187;</text><text fill="#000000" font-family="sans-serif" font-size="29.1667" lengthAdjust="spacing" textLength="50" x="201.625" y="1256.9238">UID</text><text fill="#000000" font-family="sans-serif" font-size="29.1667" lengthAdjust="spacing" textLength="87.5" x="201.625" y="1291.2744">avatar</text><text fill="#000000" font-family="sans-serif" font-size="29.1667" lengthAdjust="spacing" textLength="141.6667" x="201.625" y="1325.625">username</text><text fill="#000000" font-family="sans-serif" font-size="29.1667" lengthAdjust="spacing" textLength="137.5" x="201.625" y="1359.9756">password</text><text fill="#000000" font-family="sans-serif" font-size="29.1667" lengthAdjust="spacing" textLength="139.5833" x="201.625" y="1394.3262">full_name</text><text fill="#000000" font-family="sans-serif" font-size="29.1667" lengthAdjust="spacing" textLength="102.0833" x="201.625" y="1428.6768">gender</text><text fill="#000000" font-family="sans-serif" font-size="29.1667" lengthAdjust="spacing" textLength="77.0833" x="201.625" y="1463.0273">email</text><text fill="#000000" font-family="sans-serif" font-size="29.1667" lengthAdjust="spacing" textLength="56.25" x="201.625" y="1497.3779">dob</text><text fill="#000000" font-family="sans-serif" font-size="29.1667" lengthAdjust="spacing" textLength="97.9167" x="201.625" y="1531.7285">mobile</text><text fill="#000000" font-family="sans-serif" font-size="29.1667" lengthAdjust="spacing" textLength="85.4167" x="201.625" y="1566.0791">status</text><text fill="#000000" font-family="sans-serif" font-size="29.1667" lengthAdjust="spacing" textLength="83.3333" x="201.625" y="1600.4297">roleId</text><text fill="#000000" font-family="sans-serif" font-size="29.1667" lengthAdjust="spacing" textLength="137.5" x="201.625" y="1634.7803">createdAt</text><text fill="#000000" font-family="sans-serif" font-size="29.1667" lengthAdjust="spacing" textLength="150" x="201.625" y="1669.1309">updatedAt</text><line style="stroke:#181818;stroke-width:1.0416666666666667;" x1="191.2083" x2="416.2083" y1="1683.6165" y2="1683.6165"/></g><!--class CATEGORIES--><g id="elem_CATEGORIES"><rect codeLine="26" fill="#F1F1F1" height="237.4023" id="CATEGORIES" rx="5.2083" ry="5.2083" style="stroke:#181818;stroke-width:1.0416666666666667;" width="247.9167" x="1108.9167" y="670.0208"/><ellipse cx="1140.1667" cy="703.3542" fill="#ADD1B2" rx="22.9167" ry="22.9167" style="stroke:#181818;stroke-width:2.0833333333333335;"/><path d="M1148.738,715.8542 L1132.6553,715.8542 L1132.6553,690.0353 L1148.738,690.0353 L1148.738,694.5315 L1137.7568,694.5315 L1137.7568,700.1 L1147.7004,700.1 L1147.7004,704.5962 L1137.7568,704.5962 L1137.7568,711.3579 L1148.738,711.3579 Z " fill="#000000"/><text fill="#000000" font-family="sans-serif" font-size="29.1667" lengthAdjust="spacing" textLength="181.25" x="1169.3333" y="714.3771">CATEGORIES</text><line style="stroke:#181818;stroke-width:1.0416666666666667;" x1="1111" x2="1354.75" y1="736.6875" y2="736.6875"/><text fill="#000000" font-family="sans-serif" font-size="29.1667" lengthAdjust="spacing" textLength="112.5" x="1121.4167" y="773.2191">id &#171;key&#187;</text><text fill="#000000" font-family="sans-serif" font-size="29.1667" lengthAdjust="spacing" textLength="79.1667" x="1121.4167" y="807.5697">name</text><text fill="#000000" font-family="sans-serif" font-size="29.1667" lengthAdjust="spacing" textLength="137.5" x="1121.4167" y="841.9202">createdAt</text><text fill="#000000" font-family="sans-serif" font-size="29.1667" lengthAdjust="spacing" textLength="150" x="1121.4167" y="876.2708">updatedAt</text><line style="stroke:#181818;stroke-width:1.0416666666666667;" x1="1111" x2="1354.75" y1="890.7565" y2="890.7565"/></g><!--class AUTHORS--><g id="elem_AUTHORS"><rect codeLine="33" fill="#F1F1F1" height="306.1035" id="AUTHORS" rx="5.2083" ry="5.2083" style="stroke:#181818;stroke-width:1.0416666666666667;" width="206.25" x="1429.75" y="635.6667"/><ellipse cx="1461" cy="669" fill="#ADD1B2" rx="22.9167" ry="22.9167" style="stroke:#181818;stroke-width:2.0833333333333335;"/><path d="M1469.5714,681.5 L1453.4886,681.5 L1453.4886,655.6811 L1469.5714,655.6811 L1469.5714,660.1774 L1458.5901,660.1774 L1458.5901,665.7458 L1468.5338,665.7458 L1468.5338,670.2421 L1458.5901,670.2421 L1458.5901,677.0037 L1469.5714,677.0037 Z " fill="#000000"/><text fill="#000000" font-family="sans-serif" font-size="29.1667" lengthAdjust="spacing" textLength="139.5833" x="1490.1667" y="680.0229">AUTHORS</text><line style="stroke:#181818;stroke-width:1.0416666666666667;" x1="1431.8333" x2="1633.9167" y1="702.3333" y2="702.3333"/><text fill="#000000" font-family="sans-serif" font-size="29.1667" lengthAdjust="spacing" textLength="112.5" x="1442.25" y="738.8649">id &#171;key&#187;</text><text fill="#000000" font-family="sans-serif" font-size="29.1667" lengthAdjust="spacing" textLength="79.1667" x="1442.25" y="773.2155">name</text><text fill="#000000" font-family="sans-serif" font-size="29.1667" lengthAdjust="spacing" textLength="56.25" x="1442.25" y="807.5661">dob</text><text fill="#000000" font-family="sans-serif" font-size="29.1667" lengthAdjust="spacing" textLength="154.1667" x="1442.25" y="841.9167">sign_name</text><text fill="#000000" font-family="sans-serif" font-size="29.1667" lengthAdjust="spacing" textLength="137.5" x="1442.25" y="876.2673">createdAt</text><text fill="#000000" font-family="sans-serif" font-size="29.1667" lengthAdjust="spacing" textLength="150" x="1442.25" y="910.6178">updatedAt</text><line style="stroke:#181818;stroke-width:1.0416666666666667;" x1="1431.8333" x2="1633.9167" y1="925.1035" y2="925.1035"/></g><!--class PUBLISHING--><g id="elem_PUBLISHING"><rect codeLine="42" fill="#F1F1F1" height="306.1035" id="PUBLISHING" rx="5.2083" ry="5.2083" style="stroke:#181818;stroke-width:1.0416666666666667;" width="231.25" x="1708.9167" y="635.6667"/><ellipse cx="1740.1667" cy="669" fill="#ADD1B2" rx="22.9167" ry="22.9167" style="stroke:#181818;stroke-width:2.0833333333333335;"/><path d="M1748.738,681.5 L1732.6553,681.5 L1732.6553,655.6811 L1748.738,655.6811 L1748.738,660.1774 L1737.7568,660.1774 L1737.7568,665.7458 L1747.7004,665.7458 L1747.7004,670.2421 L1737.7568,670.2421 L1737.7568,677.0037 L1748.738,677.0037 Z " fill="#000000"/><text fill="#000000" font-family="sans-serif" font-size="29.1667" lengthAdjust="spacing" textLength="164.5833" x="1769.3333" y="680.0229">PUBLISHING</text><line style="stroke:#181818;stroke-width:1.0416666666666667;" x1="1711" x2="1938.0833" y1="702.3333" y2="702.3333"/><text fill="#000000" font-family="sans-serif" font-size="29.1667" lengthAdjust="spacing" textLength="112.5" x="1721.4167" y="738.8649">id &#171;key&#187;</text><text fill="#000000" font-family="sans-serif" font-size="29.1667" lengthAdjust="spacing" textLength="79.1667" x="1721.4167" y="773.2155">name</text><text fill="#000000" font-family="sans-serif" font-size="29.1667" lengthAdjust="spacing" textLength="112.5" x="1721.4167" y="807.5661">address</text><text fill="#000000" font-family="sans-serif" font-size="29.1667" lengthAdjust="spacing" textLength="108.3333" x="1721.4167" y="841.9167">co_year</text><text fill="#000000" font-family="sans-serif" font-size="29.1667" lengthAdjust="spacing" textLength="137.5" x="1721.4167" y="876.2673">createdAt</text><text fill="#000000" font-family="sans-serif" font-size="29.1667" lengthAdjust="spacing" textLength="150" x="1721.4167" y="910.6178">updatedAt</text><line style="stroke:#181818;stroke-width:1.0416666666666667;" x1="1711" x2="1938.0833" y1="925.1035" y2="925.1035"/></g><!--class BOOKS--><g id="elem_BOOKS"><rect codeLine="51" fill="#F1F1F1" height="443.5059" id="BOOKS" rx="5.2083" ry="5.2083" style="stroke:#181818;stroke-width:1.0416666666666667;" width="185.4167" x="1440.1667" y="14.5833"/><ellipse cx="1480.7917" cy="47.9167" fill="#ADD1B2" rx="22.9167" ry="22.9167" style="stroke:#181818;stroke-width:2.0833333333333335;"/><path d="M1489.363,60.4167 L1473.2803,60.4167 L1473.2803,34.5978 L1489.363,34.5978 L1489.363,39.094 L1478.3818,39.094 L1478.3818,44.6625 L1488.3254,44.6625 L1488.3254,49.1587 L1478.3818,49.1587 L1478.3818,55.9204 L1489.363,55.9204 Z " fill="#000000"/><text fill="#000000" font-family="sans-serif" font-size="29.1667" lengthAdjust="spacing" textLength="97.9167" x="1512.0417" y="58.9396">BOOKS</text><line style="stroke:#181818;stroke-width:1.0416666666666667;" x1="1442.25" x2="1623.5" y1="81.25" y2="81.25"/><text fill="#000000" font-family="sans-serif" font-size="29.1667" lengthAdjust="spacing" textLength="112.5" x="1452.6667" y="117.7816">id &#171;key&#187;</text><text fill="#000000" font-family="sans-serif" font-size="29.1667" lengthAdjust="spacing" textLength="79.1667" x="1452.6667" y="152.1322">name</text><text fill="#000000" font-family="sans-serif" font-size="29.1667" lengthAdjust="spacing" textLength="87.5" x="1452.6667" y="186.4827">image</text><text fill="#000000" font-family="sans-serif" font-size="29.1667" lengthAdjust="spacing" textLength="108.3333" x="1452.6667" y="220.8333">co_year</text><text fill="#000000" font-family="sans-serif" font-size="29.1667" lengthAdjust="spacing" textLength="70.8333" x="1452.6667" y="255.1839">price</text><text fill="#000000" font-family="sans-serif" font-size="29.1667" lengthAdjust="spacing" textLength="116.6667" x="1452.6667" y="289.5345">quantity</text><text fill="#000000" font-family="sans-serif" font-size="29.1667" lengthAdjust="spacing" textLength="160.4167" x="1452.6667" y="323.8851">description</text><text fill="#000000" font-family="sans-serif" font-size="29.1667" lengthAdjust="spacing" textLength="150" x="1452.6667" y="358.2357">categoryId</text><text fill="#000000" font-family="sans-serif" font-size="29.1667" lengthAdjust="spacing" textLength="122.9167" x="1452.6667" y="392.5863">authorId</text><text fill="#000000" font-family="sans-serif" font-size="29.1667" lengthAdjust="spacing" textLength="133.3333" x="1452.6667" y="426.9368">publishId</text><line style="stroke:#181818;stroke-width:1.0416666666666667;" x1="1442.25" x2="1623.5" y1="441.4225" y2="441.4225"/></g><!--class STATUS_MANAGE--><g id="elem_STATUS_MANAGE"><rect codeLine="64" fill="#F1F1F1" height="168.7012" id="STATUS_MANAGE" rx="5.2083" ry="5.2083" style="stroke:#181818;stroke-width:1.0416666666666667;" width="318.75" x="731.8333" y="1325.4792"/><ellipse cx="763.0833" cy="1358.8125" fill="#ADD1B2" rx="22.9167" ry="22.9167" style="stroke:#181818;stroke-width:2.0833333333333335;"/><path d="M771.6547,1371.3125 L755.5719,1371.3125 L755.5719,1345.4936 L771.6547,1345.4936 L771.6547,1349.9899 L760.6735,1349.9899 L760.6735,1355.5583 L770.6171,1355.5583 L770.6171,1360.0546 L760.6735,1360.0546 L760.6735,1366.8162 L771.6547,1366.8162 Z " fill="#000000"/><text fill="#000000" font-family="sans-serif" font-size="29.1667" lengthAdjust="spacing" textLength="252.0833" x="792.25" y="1369.8354">STATUS_MANAGE</text><line style="stroke:#181818;stroke-width:1.0416666666666667;" x1="733.9167" x2="1048.5" y1="1392.1458" y2="1392.1458"/><text fill="#000000" font-family="sans-serif" font-size="29.1667" lengthAdjust="spacing" textLength="112.5" x="744.3333" y="1428.6774">id &#171;key&#187;</text><text fill="#000000" font-family="sans-serif" font-size="29.1667" lengthAdjust="spacing" textLength="79.1667" x="744.3333" y="1463.028">name</text><line style="stroke:#181818;stroke-width:1.0416666666666667;" x1="733.9167" x2="1048.5" y1="1477.5137" y2="1477.5137"/></g><!--class STATUS_BORROW--><g id="elem_STATUS_BORROW"><rect codeLine="69" fill="#F1F1F1" height="168.7012" id="STATUS_BORROW" rx="5.2083" ry="5.2083" style="stroke:#181818;stroke-width:1.0416666666666667;" width="318.75" x="354.75" y="704.375"/><ellipse cx="386" cy="737.7083" fill="#ADD1B2" rx="22.9167" ry="22.9167" style="stroke:#181818;stroke-width:2.0833333333333335;"/><path d="M394.5714,750.2083 L378.4886,750.2083 L378.4886,724.3894 L394.5714,724.3894 L394.5714,728.8857 L383.5901,728.8857 L383.5901,734.4541 L393.5338,734.4541 L393.5338,738.9504 L383.5901,738.9504 L383.5901,745.7121 L394.5714,745.7121 Z " fill="#000000"/><text fill="#000000" font-family="sans-serif" font-size="29.1667" lengthAdjust="spacing" textLength="252.0833" x="415.1667" y="748.7313">STATUS_BORROW</text><line style="stroke:#181818;stroke-width:1.0416666666666667;" x1="356.8333" x2="671.4167" y1="771.0417" y2="771.0417"/><text fill="#000000" font-family="sans-serif" font-size="29.1667" lengthAdjust="spacing" textLength="112.5" x="367.25" y="807.5732">id &#171;key&#187;</text><text fill="#000000" font-family="sans-serif" font-size="29.1667" lengthAdjust="spacing" textLength="79.1667" x="367.25" y="841.9238">name</text><line style="stroke:#181818;stroke-width:1.0416666666666667;" x1="356.8333" x2="671.4167" y1="856.4095" y2="856.4095"/></g><!--class MANAGE_BOOK--><g id="elem_MANAGE_BOOK"><rect codeLine="74" fill="#F1F1F1" height="340.4541" id="MANAGE_BOOK" rx="5.2083" ry="5.2083" style="stroke:#181818;stroke-width:1.0416666666666667;" width="287.5" x="747.4583" y="618.5"/><ellipse cx="778.7083" cy="651.8333" fill="#ADD1B2" rx="22.9167" ry="22.9167" style="stroke:#181818;stroke-width:2.0833333333333335;"/><path d="M787.2797,664.3333 L771.1969,664.3333 L771.1969,638.5144 L787.2797,638.5144 L787.2797,643.0107 L776.2985,643.0107 L776.2985,648.5791 L786.2421,648.5791 L786.2421,653.0754 L776.2985,653.0754 L776.2985,659.8371 L787.2797,659.8371 Z " fill="#000000"/><text fill="#000000" font-family="sans-serif" font-size="29.1667" lengthAdjust="spacing" textLength="220.8333" x="807.875" y="662.8563">MANAGE_BOOK</text><line style="stroke:#181818;stroke-width:1.0416666666666667;" x1="749.5417" x2="1032.875" y1="685.1667" y2="685.1667"/><text fill="#000000" font-family="sans-serif" font-size="29.1667" lengthAdjust="spacing" textLength="112.5" x="759.9583" y="721.6982">id &#171;key&#187;</text><text fill="#000000" font-family="sans-serif" font-size="29.1667" lengthAdjust="spacing" textLength="220.8333" x="759.9583" y="756.0488">price_per_book</text><text fill="#000000" font-family="sans-serif" font-size="29.1667" lengthAdjust="spacing" textLength="139.5833" x="759.9583" y="790.3994">accountId</text><text fill="#000000" font-family="sans-serif" font-size="29.1667" lengthAdjust="spacing" textLength="100" x="759.9583" y="824.75">bookId</text><text fill="#000000" font-family="sans-serif" font-size="29.1667" lengthAdjust="spacing" textLength="112.5" x="759.9583" y="859.1006">statusId</text><text fill="#000000" font-family="sans-serif" font-size="29.1667" lengthAdjust="spacing" textLength="137.5" x="759.9583" y="893.4512">createdAt</text><text fill="#000000" font-family="sans-serif" font-size="29.1667" lengthAdjust="spacing" textLength="150" x="759.9583" y="927.8018">updatedAt</text><line style="stroke:#181818;stroke-width:1.0416666666666667;" x1="749.5417" x2="1032.875" y1="942.2874" y2="942.2874"/></g><!--class BORROW--><g id="elem_BORROW"><rect codeLine="84" fill="#F1F1F1" height="340.4541" id="BORROW" rx="5.2083" ry="5.2083" style="stroke:#181818;stroke-width:1.0416666666666667;" width="243.75" x="392.25" y="66.1042"/><ellipse cx="446.9375" cy="99.4375" fill="#ADD1B2" rx="22.9167" ry="22.9167" style="stroke:#181818;stroke-width:2.0833333333333335;"/><path d="M455.5089,111.9375 L439.4261,111.9375 L439.4261,86.1186 L455.5089,86.1186 L455.5089,90.6149 L444.5276,90.6149 L444.5276,96.1833 L454.4713,96.1833 L454.4713,100.6796 L444.5276,100.6796 L444.5276,107.4412 L455.5089,107.4412 Z " fill="#000000"/><text fill="#000000" font-family="sans-serif" font-size="29.1667" lengthAdjust="spacing" textLength="125" x="481.3125" y="110.4604">BORROW</text><line style="stroke:#181818;stroke-width:1.0416666666666667;" x1="394.3333" x2="633.9167" y1="132.7708" y2="132.7708"/><text fill="#000000" font-family="sans-serif" font-size="29.1667" lengthAdjust="spacing" textLength="112.5" x="404.75" y="169.3024">id &#171;key&#187;</text><text fill="#000000" font-family="sans-serif" font-size="29.1667" lengthAdjust="spacing" textLength="135.4167" x="404.75" y="203.653">borrowAt</text><text fill="#000000" font-family="sans-serif" font-size="29.1667" lengthAdjust="spacing" textLength="127.0833" x="404.75" y="238.0036">refundAt</text><text fill="#000000" font-family="sans-serif" font-size="29.1667" lengthAdjust="spacing" textLength="218.75" x="404.75" y="272.3542">amount_of_pay</text><text fill="#000000" font-family="sans-serif" font-size="29.1667" lengthAdjust="spacing" textLength="141.6667" x="404.75" y="306.7048">manageId</text><text fill="#000000" font-family="sans-serif" font-size="29.1667" lengthAdjust="spacing" textLength="112.5" x="404.75" y="341.0553">statusId</text><text fill="#000000" font-family="sans-serif" font-size="29.1667" lengthAdjust="spacing" textLength="139.5833" x="404.75" y="375.4059">accountId</text><line style="stroke:#181818;stroke-width:1.0416666666666667;" x1="394.3333" x2="633.9167" y1="389.8916" y2="389.8916"/></g><!--link ACCOUNTS to ROLES--><g id="link_ACCOUNTS_ROLES"><path codeLine="94" d="M303.7083,1700.75 C303.7083,1759.125 303.7083,1778.5 303.7083,1822.4583 " fill="none" id="ACCOUNTS-to-ROLES" style="stroke:#181818;stroke-width:2.0833333333333335;"/><polygon fill="none" points="303.7083,1859.9583,316.2083,1822.4583,291.2083,1822.4583,303.7083,1859.9583" style="stroke:#181818;stroke-width:2.0833333333333335;"/><text fill="#000000" font-family="sans-serif" font-size="27.0833" lengthAdjust="spacing" textLength="135.4167" x="305.7917" y="1791.0382">HAS_ROLE</text></g><!--link BOOKS to CATEGORIES--><g id="link_BOOKS_CATEGORIES"><path codeLine="95" d="M1439.625,330.875 C1392.1042,382.7083 1337.0417,450.8333 1301.625,520.5833 C1278.2083,566.75 1270.3894,584.9473 1259.8061,632.8014 " fill="none" id="BOOKS-to-CATEGORIES" style="stroke:#181818;stroke-width:2.0833333333333335;"/><polygon fill="none" points="1251.7083,669.4167,1272.0112,635.5007,1247.601,630.1022,1251.7083,669.4167" style="stroke:#181818;stroke-width:2.0833333333333335;"/><text fill="#000000" font-family="sans-serif" font-size="27.0833" lengthAdjust="spacing" textLength="210.4167" x="1303.7083" y="548.8507">HAS_CATEGORY</text></g><!--link BOOKS to AUTHORS--><g id="link_BOOKS_AUTHORS"><path codeLine="96" d="M1532.875,459.0208 C1532.875,518.2292 1532.875,543.4167 1532.875,597.9167 " fill="none" id="BOOKS-to-AUTHORS" style="stroke:#181818;stroke-width:2.0833333333333335;"/><polygon fill="none" points="1532.875,635.4167,1545.375,597.9167,1520.375,597.9167,1532.875,635.4167" style="stroke:#181818;stroke-width:2.0833333333333335;"/><text fill="#000000" font-family="sans-serif" font-size="27.0833" lengthAdjust="spacing" textLength="181.25" x="1534.9583" y="548.8507">HAS_AUTHOR</text></g><!--link BOOKS to PUBLISHING--><g id="link_BOOKS_PUBLISHING"><path codeLine="97" d="M1626.1458,352.1667 C1663.5833,401.7292 1704.8958,461.8542 1734.9583,520.5833 C1753.2917,556.375 1757.0196,561.2297 1770.0405,599.4797 " fill="none" id="BOOKS-to-PUBLISHING" style="stroke:#181818;stroke-width:2.0833333333333335;"/><polygon fill="none" points="1782.125,634.9792,1781.8736,595.4515,1758.2073,603.5078,1782.125,634.9792" style="stroke:#181818;stroke-width:2.0833333333333335;"/><text fill="#000000" font-family="sans-serif" font-size="27.0833" lengthAdjust="spacing" textLength="206.25" x="1753.375" y="548.8507">HAS_PUBLISHER</text></g><!--link MANAGE_BOOK to ACCOUNTS--><g id="link_MANAGE_BOOK_ACCOUNTS"><path codeLine="98" d="M746.5833,928.3958 C715.5833,958.6875 683.2708,990.8542 653.7083,1021.4583 C573.5417,1104.4375 511.3442,1172.5678 444.0734,1248.172 " fill="none" id="MANAGE_BOOK-to-ACCOUNTS" style="stroke:#181818;stroke-width:2.0833333333333335;"/><polygon fill="none" points="419.1458,1276.1875,453.4119,1256.4812,434.7349,1239.8628,419.1458,1276.1875" style="stroke:#181818;stroke-width:2.0833333333333335;"/><text fill="#000000" font-family="sans-serif" font-size="27.0833" lengthAdjust="spacing" textLength="216.6667" x="655.7917" y="1049.7257">MANAGES_BOOK</text></g><!--link MANAGE_BOOK to STATUS_MANAGE--><g id="link_MANAGE_BOOK_STATUS_MANAGE"><path codeLine="99" d="M891.2083,959.3958 C891.2083,1078.1875 891.2083,1194.6042 891.2083,1287.7083 " fill="none" id="MANAGE_BOOK-to-STATUS_MANAGE" style="stroke:#181818;stroke-width:2.0833333333333335;"/><polygon fill="none" points="891.2083,1325.2083,903.7083,1287.7083,878.7083,1287.7083,891.2083,1325.2083" style="stroke:#181818;stroke-width:2.0833333333333335;"/><text fill="#000000" font-family="sans-serif" font-size="27.0833" lengthAdjust="spacing" textLength="216.6667" x="893.2917" y="1049.7257">MANAGES_BOOK</text></g><!--link BORROW to MANAGE_BOOK--><g id="link_BORROW_MANAGE_BOOK"><path codeLine="100" d="M636.8125,373.8958 C675,419.0208 715.8958,470.5625 749.5417,520.5833 C770,550.9792 771.7966,551.7798 789.8591,584.6548 " fill="none" id="BORROW-to-MANAGE_BOOK" style="stroke:#181818;stroke-width:2.0833333333333335;"/><polygon fill="none" points="807.9167,617.5208,800.8144,578.6356,778.9038,590.674,807.9167,617.5208" style="stroke:#181818;stroke-width:2.0833333333333335;"/><text fill="#000000" font-family="sans-serif" font-size="27.0833" lengthAdjust="spacing" textLength="214.5833" x="773.7708" y="548.8507">BORROWS_BOOK</text></g><!--link BORROW to STATUS_BORROW--><g id="link_BORROW_STATUS_BORROW"><path codeLine="101" d="M514.125,407.375 C514.125,505.8542 514.125,588.1667 514.125,666.4167 " fill="none" id="BORROW-to-STATUS_BORROW" style="stroke:#181818;stroke-width:2.0833333333333335;"/><polygon fill="none" points="514.125,703.9167,526.625,666.4167,501.625,666.4167,514.125,703.9167" style="stroke:#181818;stroke-width:2.0833333333333335;"/><text fill="#000000" font-family="sans-serif" font-size="27.0833" lengthAdjust="spacing" textLength="214.5833" x="516.2083" y="548.8507">BORROWS_BOOK</text></g><!--link BORROW to ACCOUNTS--><g id="link_BORROW_ACCOUNTS"><path codeLine="102" d="M392.0625,309.6667 C292.4792,375.5417 158.9167,483.5417 99.5417,618.5 C12.5,816.3958 84.5129,1025.9629 170.8879,1189.5671 " fill="none" id="BORROW-to-ACCOUNTS" style="stroke:#181818;stroke-width:2.0833333333333335;"/><polygon fill="none" points="188.3958,1222.7292,181.9419,1183.7311,159.8339,1195.4031,188.3958,1222.7292" style="stroke:#181818;stroke-width:2.0833333333333335;"/><text fill="#000000" font-family="sans-serif" font-size="27.0833" lengthAdjust="spacing" textLength="214.5833" x="101.625" y="799.2882">BORROWS_BOOK</text></g><!--SRC=[ZLDDJ-Cm4BtdL_Z24QdBiKALqcxLHWiDoeVGdYmdTbEhYMri1rGj_7VyHPi2sN9nnZDlthoPZDMUCe4awi2Eq6QdmQ_9v2fIHoyM5DnC9b54cARw0BBqRfc3Vn4058FRspqvp6Rcmb17ehSZAbuiqd9JV0Ciaz_cHCz88scCNX7fSW4GIAaNBh4njttRmk1k2CF4Gac7Q6k-c5Vcx7X5MnjN6kbU6KFobYGskvO4QO9ZRVa53lP9t28kbgiqIqRxk4mHbyKwpSRplKP56mP_oFXGpk-IV9riLgEa26D9b6srvl10tFmkqSxJzC-uJDgXXfpn2KbhwtdgaIEmlH1LIoeqvSn2JOc6ouERDEhrZajdYhvggTeP-rGyB-AYpE5zl8bNouix4z3pDClInujeJmfjVr-nhWieY8GLvtihjAvvpxHJQbtEy9lpevKP4rLnAVcBIvDaspFFW3fR3F8j5CXEi4FCpFbppPCcK-VuOAwlNsVXaKt1EiwXjIF_6rriiBqU41n_Xw2F_VG8Vnl61zlc8S6npABXO3tNXxHf67hkWb-1vx_x4pfCq067cTCmsszWvmln7-10uHdc7G00]--></g></svg>