<?xml version="1.0" encoding="us-ascii" standalone="no"?><svg xmlns="http://www.w3.org/2000/svg" xmlns:xlink="http://www.w3.org/1999/xlink" contentStyleType="text/css" height="2077.0833px" preserveAspectRatio="none" style="width:1304px;height:2077px;background:#FFFFFF;" version="1.1" viewBox="0 0 1304 2077" width="1304.1667px" zoomAndPan="magnify"><defs/><g><!--class ROLES--><g id="elem_ROLES"><rect codeLine="4" fill="#F1F1F1" height="168.7012" id="ROLES" rx="5.2083" ry="5.2083" style="stroke:#181818;stroke-width:1.0416666666666667;" width="156.25" x="92.375" y="1826.3542"/><ellipse cx="123.625" cy="1859.6875" fill="#ADD1B2" rx="22.9167" ry="22.9167" style="stroke:#181818;stroke-width:2.0833333333333335;"/><path d="M132.1964,1872.1875 L116.1136,1872.1875 L116.1136,1846.3686 L132.1964,1846.3686 L132.1964,1850.8649 L121.2151,1850.8649 L121.2151,1856.4333 L131.1588,1856.4333 L131.1588,1860.9296 L121.2151,1860.9296 L121.2151,1867.6912 L132.1964,1867.6912 Z " fill="#000000"/><text fill="#000000" font-family="sans-serif" font-size="29.1667" lengthAdjust="spacing" textLength="89.5833" x="152.7917" y="1870.7104">ROLES</text><line style="stroke:#181818;stroke-width:1.0416666666666667;" x1="94.4583" x2="246.5417" y1="1893.0208" y2="1893.0208"/><text fill="#000000" font-family="sans-serif" font-size="29.1667" lengthAdjust="spacing" textLength="112.5" x="104.875" y="1929.5524">id &#171;key&#187;</text><text fill="#000000" font-family="sans-serif" font-size="29.1667" lengthAdjust="spacing" textLength="79.1667" x="104.875" y="1963.903">name</text><line style="stroke:#181818;stroke-width:1.0416666666666667;" x1="94.4583" x2="246.5417" y1="1978.3887" y2="1978.3887"/></g><!--class ACCOUNTS--><g id="elem_ACCOUNTS"><rect codeLine="9" fill="#F1F1F1" height="580.9082" id="ACCOUNTS" rx="5.2083" ry="5.2083" style="stroke:#181818;stroke-width:1.0416666666666667;" width="229.1667" x="55.9167" y="1016.3125"/><ellipse cx="87.1667" cy="1049.6458" fill="#ADD1B2" rx="22.9167" ry="22.9167" style="stroke:#181818;stroke-width:2.0833333333333335;"/><path d="M95.738,1062.1458 L79.6553,1062.1458 L79.6553,1036.3269 L95.738,1036.3269 L95.738,1040.8232 L84.7568,1040.8232 L84.7568,1046.3916 L94.7004,1046.3916 L94.7004,1050.8879 L84.7568,1050.8879 L84.7568,1057.6496 L95.738,1057.6496 Z " fill="#000000"/><text fill="#000000" font-family="sans-serif" font-size="29.1667" lengthAdjust="spacing" textLength="162.5" x="116.3333" y="1060.6688">ACCOUNTS</text><line style="stroke:#181818;stroke-width:1.0416666666666667;" x1="58" x2="283" y1="1082.9792" y2="1082.9792"/><text fill="#000000" font-family="sans-serif" font-size="29.1667" lengthAdjust="spacing" textLength="112.5" x="68.4167" y="1119.5107">id &#171;key&#187;</text><text fill="#000000" font-family="sans-serif" font-size="29.1667" lengthAdjust="spacing" textLength="50" x="68.4167" y="1153.8613">UID</text><text fill="#000000" font-family="sans-serif" font-size="29.1667" lengthAdjust="spacing" textLength="87.5" x="68.4167" y="1188.2119">avatar</text><text fill="#000000" font-family="sans-serif" font-size="29.1667" lengthAdjust="spacing" textLength="141.6667" x="68.4167" y="1222.5625">username</text><text fill="#000000" font-family="sans-serif" font-size="29.1667" lengthAdjust="spacing" textLength="137.5" x="68.4167" y="1256.9131">password</text><text fill="#000000" font-family="sans-serif" font-size="29.1667" lengthAdjust="spacing" textLength="139.5833" x="68.4167" y="1291.2637">full_name</text><text fill="#000000" font-family="sans-serif" font-size="29.1667" lengthAdjust="spacing" textLength="102.0833" x="68.4167" y="1325.6143">gender</text><text fill="#000000" font-family="sans-serif" font-size="29.1667" lengthAdjust="spacing" textLength="77.0833" x="68.4167" y="1359.9648">email</text><text fill="#000000" font-family="sans-serif" font-size="29.1667" lengthAdjust="spacing" textLength="56.25" x="68.4167" y="1394.3154">dob</text><text fill="#000000" font-family="sans-serif" font-size="29.1667" lengthAdjust="spacing" textLength="97.9167" x="68.4167" y="1428.666">mobile</text><text fill="#000000" font-family="sans-serif" font-size="29.1667" lengthAdjust="spacing" textLength="85.4167" x="68.4167" y="1463.0166">status</text><text fill="#000000" font-family="sans-serif" font-size="29.1667" lengthAdjust="spacing" textLength="83.3333" x="68.4167" y="1497.3672">roleId</text><text fill="#000000" font-family="sans-serif" font-size="29.1667" lengthAdjust="spacing" textLength="137.5" x="68.4167" y="1531.7178">createdAt</text><text fill="#000000" font-family="sans-serif" font-size="29.1667" lengthAdjust="spacing" textLength="150" x="68.4167" y="1566.0684">updatedAt</text><line style="stroke:#181818;stroke-width:1.0416666666666667;" x1="58" x2="283" y1="1580.554" y2="1580.554"/></g><!--class CATEGORIES--><g id="elem_CATEGORIES"><rect codeLine="26" fill="#F1F1F1" height="237.4023" id="CATEGORIES" rx="5.2083" ry="5.2083" style="stroke:#181818;stroke-width:1.0416666666666667;" width="247.9167" x="381.9583" y="1792"/><ellipse cx="413.2083" cy="1825.3333" fill="#ADD1B2" rx="22.9167" ry="22.9167" style="stroke:#181818;stroke-width:2.0833333333333335;"/><path d="M421.7797,1837.8333 L405.6969,1837.8333 L405.6969,1812.0144 L421.7797,1812.0144 L421.7797,1816.5107 L410.7985,1816.5107 L410.7985,1822.0791 L420.7421,1822.0791 L420.7421,1826.5754 L410.7985,1826.5754 L410.7985,1833.3371 L421.7797,1833.3371 Z " fill="#000000"/><text fill="#000000" font-family="sans-serif" font-size="29.1667" lengthAdjust="spacing" textLength="181.25" x="442.375" y="1836.3563">CATEGORIES</text><line style="stroke:#181818;stroke-width:1.0416666666666667;" x1="384.0417" x2="627.7917" y1="1858.6667" y2="1858.6667"/><text fill="#000000" font-family="sans-serif" font-size="29.1667" lengthAdjust="spacing" textLength="112.5" x="394.4583" y="1895.1982">id &#171;key&#187;</text><text fill="#000000" font-family="sans-serif" font-size="29.1667" lengthAdjust="spacing" textLength="79.1667" x="394.4583" y="1929.5488">name</text><text fill="#000000" font-family="sans-serif" font-size="29.1667" lengthAdjust="spacing" textLength="137.5" x="394.4583" y="1963.8994">createdAt</text><text fill="#000000" font-family="sans-serif" font-size="29.1667" lengthAdjust="spacing" textLength="150" x="394.4583" y="1998.25">updatedAt</text><line style="stroke:#181818;stroke-width:1.0416666666666667;" x1="384.0417" x2="627.7917" y1="2012.7357" y2="2012.7357"/></g><!--class AUTHORS--><g id="elem_AUTHORS"><rect codeLine="33" fill="#F1F1F1" height="306.1035" id="AUTHORS" rx="5.2083" ry="5.2083" style="stroke:#181818;stroke-width:1.0416666666666667;" width="206.25" x="702.7917" y="1757.6458"/><ellipse cx="734.0417" cy="1790.9792" fill="#ADD1B2" rx="22.9167" ry="22.9167" style="stroke:#181818;stroke-width:2.0833333333333335;"/><path d="M742.613,1803.4792 L726.5303,1803.4792 L726.5303,1777.6603 L742.613,1777.6603 L742.613,1782.1565 L731.6318,1782.1565 L731.6318,1787.725 L741.5754,1787.725 L741.5754,1792.2212 L731.6318,1792.2212 L731.6318,1798.9829 L742.613,1798.9829 Z " fill="#000000"/><text fill="#000000" font-family="sans-serif" font-size="29.1667" lengthAdjust="spacing" textLength="139.5833" x="763.2083" y="1802.0021">AUTHORS</text><line style="stroke:#181818;stroke-width:1.0416666666666667;" x1="704.875" x2="906.9583" y1="1824.3125" y2="1824.3125"/><text fill="#000000" font-family="sans-serif" font-size="29.1667" lengthAdjust="spacing" textLength="112.5" x="715.2917" y="1860.8441">id &#171;key&#187;</text><text fill="#000000" font-family="sans-serif" font-size="29.1667" lengthAdjust="spacing" textLength="79.1667" x="715.2917" y="1895.1947">name</text><text fill="#000000" font-family="sans-serif" font-size="29.1667" lengthAdjust="spacing" textLength="56.25" x="715.2917" y="1929.5452">dob</text><text fill="#000000" font-family="sans-serif" font-size="29.1667" lengthAdjust="spacing" textLength="154.1667" x="715.2917" y="1963.8958">sign_name</text><text fill="#000000" font-family="sans-serif" font-size="29.1667" lengthAdjust="spacing" textLength="137.5" x="715.2917" y="1998.2464">createdAt</text><text fill="#000000" font-family="sans-serif" font-size="29.1667" lengthAdjust="spacing" textLength="150" x="715.2917" y="2032.597">updatedAt</text><line style="stroke:#181818;stroke-width:1.0416666666666667;" x1="704.875" x2="906.9583" y1="2047.0827" y2="2047.0827"/></g><!--class PUBLISHING--><g id="elem_PUBLISHING"><rect codeLine="42" fill="#F1F1F1" height="306.1035" id="PUBLISHING" rx="5.2083" ry="5.2083" style="stroke:#181818;stroke-width:1.0416666666666667;" width="231.25" x="981.9583" y="1757.6458"/><ellipse cx="1013.2083" cy="1790.9792" fill="#ADD1B2" rx="22.9167" ry="22.9167" style="stroke:#181818;stroke-width:2.0833333333333335;"/><path d="M1021.7797,1803.4792 L1005.6969,1803.4792 L1005.6969,1777.6603 L1021.7797,1777.6603 L1021.7797,1782.1565 L1010.7985,1782.1565 L1010.7985,1787.725 L1020.7421,1787.725 L1020.7421,1792.2212 L1010.7985,1792.2212 L1010.7985,1798.9829 L1021.7797,1798.9829 Z " fill="#000000"/><text fill="#000000" font-family="sans-serif" font-size="29.1667" lengthAdjust="spacing" textLength="164.5833" x="1042.375" y="1802.0021">PUBLISHING</text><line style="stroke:#181818;stroke-width:1.0416666666666667;" x1="984.0417" x2="1211.125" y1="1824.3125" y2="1824.3125"/><text fill="#000000" font-family="sans-serif" font-size="29.1667" lengthAdjust="spacing" textLength="112.5" x="994.4583" y="1860.8441">id &#171;key&#187;</text><text fill="#000000" font-family="sans-serif" font-size="29.1667" lengthAdjust="spacing" textLength="79.1667" x="994.4583" y="1895.1947">name</text><text fill="#000000" font-family="sans-serif" font-size="29.1667" lengthAdjust="spacing" textLength="112.5" x="994.4583" y="1929.5452">address</text><text fill="#000000" font-family="sans-serif" font-size="29.1667" lengthAdjust="spacing" textLength="108.3333" x="994.4583" y="1963.8958">co_year</text><text fill="#000000" font-family="sans-serif" font-size="29.1667" lengthAdjust="spacing" textLength="137.5" x="994.4583" y="1998.2464">createdAt</text><text fill="#000000" font-family="sans-serif" font-size="29.1667" lengthAdjust="spacing" textLength="150" x="994.4583" y="2032.597">updatedAt</text><line style="stroke:#181818;stroke-width:1.0416666666666667;" x1="984.0417" x2="1211.125" y1="2047.0827" y2="2047.0827"/></g><!--class BOOKS--><g id="elem_BOOKS"><rect codeLine="51" fill="#F1F1F1" height="443.5059" id="BOOKS" rx="5.2083" ry="5.2083" style="stroke:#181818;stroke-width:1.0416666666666667;" width="185.4167" x="713.2083" y="1085.0208"/><ellipse cx="753.8333" cy="1118.3542" fill="#ADD1B2" rx="22.9167" ry="22.9167" style="stroke:#181818;stroke-width:2.0833333333333335;"/><path d="M762.4047,1130.8542 L746.3219,1130.8542 L746.3219,1105.0353 L762.4047,1105.0353 L762.4047,1109.5315 L751.4235,1109.5315 L751.4235,1115.1 L761.3671,1115.1 L761.3671,1119.5962 L751.4235,1119.5962 L751.4235,1126.3579 L762.4047,1126.3579 Z " fill="#000000"/><text fill="#000000" font-family="sans-serif" font-size="29.1667" lengthAdjust="spacing" textLength="97.9167" x="785.0833" y="1129.3771">BOOKS</text><line style="stroke:#181818;stroke-width:1.0416666666666667;" x1="715.2917" x2="896.5417" y1="1151.6875" y2="1151.6875"/><text fill="#000000" font-family="sans-serif" font-size="29.1667" lengthAdjust="spacing" textLength="112.5" x="725.7083" y="1188.2191">id &#171;key&#187;</text><text fill="#000000" font-family="sans-serif" font-size="29.1667" lengthAdjust="spacing" textLength="79.1667" x="725.7083" y="1222.5697">name</text><text fill="#000000" font-family="sans-serif" font-size="29.1667" lengthAdjust="spacing" textLength="87.5" x="725.7083" y="1256.9202">image</text><text fill="#000000" font-family="sans-serif" font-size="29.1667" lengthAdjust="spacing" textLength="108.3333" x="725.7083" y="1291.2708">co_year</text><text fill="#000000" font-family="sans-serif" font-size="29.1667" lengthAdjust="spacing" textLength="70.8333" x="725.7083" y="1325.6214">price</text><text fill="#000000" font-family="sans-serif" font-size="29.1667" lengthAdjust="spacing" textLength="116.6667" x="725.7083" y="1359.972">quantity</text><text fill="#000000" font-family="sans-serif" font-size="29.1667" lengthAdjust="spacing" textLength="160.4167" x="725.7083" y="1394.3226">description</text><text fill="#000000" font-family="sans-serif" font-size="29.1667" lengthAdjust="spacing" textLength="150" x="725.7083" y="1428.6732">categoryId</text><text fill="#000000" font-family="sans-serif" font-size="29.1667" lengthAdjust="spacing" textLength="122.9167" x="725.7083" y="1463.0238">authorId</text><text fill="#000000" font-family="sans-serif" font-size="29.1667" lengthAdjust="spacing" textLength="133.3333" x="725.7083" y="1497.3743">publishId</text><line style="stroke:#181818;stroke-width:1.0416666666666667;" x1="715.2917" x2="896.5417" y1="1511.86" y2="1511.86"/></g><!--class STATUS_MANAGE--><g id="elem_STATUS_MANAGE"><rect codeLine="64" fill="#F1F1F1" height="168.7012" id="STATUS_MANAGE" rx="5.2083" ry="5.2083" style="stroke:#181818;stroke-width:1.0416666666666667;" width="318.75" x="971.5417" y="1222.4167"/><ellipse cx="1002.7917" cy="1255.75" fill="#ADD1B2" rx="22.9167" ry="22.9167" style="stroke:#181818;stroke-width:2.0833333333333335;"/><path d="M1011.363,1268.25 L995.2803,1268.25 L995.2803,1242.4311 L1011.363,1242.4311 L1011.363,1246.9274 L1000.3818,1246.9274 L1000.3818,1252.4958 L1010.3254,1252.4958 L1010.3254,1256.9921 L1000.3818,1256.9921 L1000.3818,1263.7537 L1011.363,1263.7537 Z " fill="#000000"/><text fill="#000000" font-family="sans-serif" font-size="29.1667" lengthAdjust="spacing" textLength="252.0833" x="1031.9583" y="1266.7729">STATUS_MANAGE</text><line style="stroke:#181818;stroke-width:1.0416666666666667;" x1="973.625" x2="1288.2083" y1="1289.0833" y2="1289.0833"/><text fill="#000000" font-family="sans-serif" font-size="29.1667" lengthAdjust="spacing" textLength="112.5" x="984.0417" y="1325.6149">id &#171;key&#187;</text><text fill="#000000" font-family="sans-serif" font-size="29.1667" lengthAdjust="spacing" textLength="79.1667" x="984.0417" y="1359.9655">name</text><line style="stroke:#181818;stroke-width:1.0416666666666667;" x1="973.625" x2="1288.2083" y1="1374.4512" y2="1374.4512"/></g><!--class STATUS_BORROW--><g id="elem_STATUS_BORROW"><rect codeLine="69" fill="#F1F1F1" height="168.7012" id="STATUS_BORROW" rx="5.2083" ry="5.2083" style="stroke:#181818;stroke-width:1.0416666666666667;" width="318.75" x="342.375" y="601.3333"/><ellipse cx="373.625" cy="634.6667" fill="#ADD1B2" rx="22.9167" ry="22.9167" style="stroke:#181818;stroke-width:2.0833333333333335;"/><path d="M382.1964,647.1667 L366.1136,647.1667 L366.1136,621.3478 L382.1964,621.3478 L382.1964,625.844 L371.2151,625.844 L371.2151,631.4125 L381.1588,631.4125 L381.1588,635.9087 L371.2151,635.9087 L371.2151,642.6704 L382.1964,642.6704 Z " fill="#000000"/><text fill="#000000" font-family="sans-serif" font-size="29.1667" lengthAdjust="spacing" textLength="252.0833" x="402.7917" y="645.6896">STATUS_BORROW</text><line style="stroke:#181818;stroke-width:1.0416666666666667;" x1="344.4583" x2="659.0417" y1="668" y2="668"/><text fill="#000000" font-family="sans-serif" font-size="29.1667" lengthAdjust="spacing" textLength="112.5" x="354.875" y="704.5316">id &#171;key&#187;</text><text fill="#000000" font-family="sans-serif" font-size="29.1667" lengthAdjust="spacing" textLength="79.1667" x="354.875" y="738.8822">name</text><line style="stroke:#181818;stroke-width:1.0416666666666667;" x1="344.4583" x2="659.0417" y1="753.3678" y2="753.3678"/></g><!--class MANAGE_BOOK--><g id="elem_MANAGE_BOOK"><rect codeLine="74" fill="#F1F1F1" height="340.4541" id="MANAGE_BOOK" rx="5.2083" ry="5.2083" style="stroke:#181818;stroke-width:1.0416666666666667;" width="287.5" x="735.0833" y="515.4583"/><ellipse cx="766.3333" cy="548.7917" fill="#ADD1B2" rx="22.9167" ry="22.9167" style="stroke:#181818;stroke-width:2.0833333333333335;"/><path d="M774.9047,561.2917 L758.8219,561.2917 L758.8219,535.4728 L774.9047,535.4728 L774.9047,539.969 L763.9235,539.969 L763.9235,545.5375 L773.8671,545.5375 L773.8671,550.0337 L763.9235,550.0337 L763.9235,556.7954 L774.9047,556.7954 Z " fill="#000000"/><text fill="#000000" font-family="sans-serif" font-size="29.1667" lengthAdjust="spacing" textLength="220.8333" x="795.5" y="559.8146">MANAGE_BOOK</text><line style="stroke:#181818;stroke-width:1.0416666666666667;" x1="737.1667" x2="1020.5" y1="582.125" y2="582.125"/><text fill="#000000" font-family="sans-serif" font-size="29.1667" lengthAdjust="spacing" textLength="112.5" x="747.5833" y="618.6566">id &#171;key&#187;</text><text fill="#000000" font-family="sans-serif" font-size="29.1667" lengthAdjust="spacing" textLength="220.8333" x="747.5833" y="653.0072">price_per_book</text><text fill="#000000" font-family="sans-serif" font-size="29.1667" lengthAdjust="spacing" textLength="139.5833" x="747.5833" y="687.3577">accountId</text><text fill="#000000" font-family="sans-serif" font-size="29.1667" lengthAdjust="spacing" textLength="100" x="747.5833" y="721.7083">bookId</text><text fill="#000000" font-family="sans-serif" font-size="29.1667" lengthAdjust="spacing" textLength="112.5" x="747.5833" y="756.0589">statusId</text><text fill="#000000" font-family="sans-serif" font-size="29.1667" lengthAdjust="spacing" textLength="137.5" x="747.5833" y="790.4095">createdAt</text><text fill="#000000" font-family="sans-serif" font-size="29.1667" lengthAdjust="spacing" textLength="150" x="747.5833" y="824.7601">updatedAt</text><line style="stroke:#181818;stroke-width:1.0416666666666667;" x1="737.1667" x2="1020.5" y1="839.2458" y2="839.2458"/></g><!--class BORROW--><g id="elem_BORROW"><rect codeLine="84" fill="#F1F1F1" height="340.4541" id="BORROW" rx="5.2083" ry="5.2083" style="stroke:#181818;stroke-width:1.0416666666666667;" width="243.75" x="379.875" y="14.5833"/><ellipse cx="434.5625" cy="47.9167" fill="#ADD1B2" rx="22.9167" ry="22.9167" style="stroke:#181818;stroke-width:2.0833333333333335;"/><path d="M443.1339,60.4167 L427.0511,60.4167 L427.0511,34.5978 L443.1339,34.5978 L443.1339,39.094 L432.1526,39.094 L432.1526,44.6625 L442.0963,44.6625 L442.0963,49.1587 L432.1526,49.1587 L432.1526,55.9204 L443.1339,55.9204 Z " fill="#000000"/><text fill="#000000" font-family="sans-serif" font-size="29.1667" lengthAdjust="spacing" textLength="125" x="468.9375" y="58.9396">BORROW</text><line style="stroke:#181818;stroke-width:1.0416666666666667;" x1="381.9583" x2="621.5417" y1="81.25" y2="81.25"/><text fill="#000000" font-family="sans-serif" font-size="29.1667" lengthAdjust="spacing" textLength="112.5" x="392.375" y="117.7816">id &#171;key&#187;</text><text fill="#000000" font-family="sans-serif" font-size="29.1667" lengthAdjust="spacing" textLength="135.4167" x="392.375" y="152.1322">borrowAt</text><text fill="#000000" font-family="sans-serif" font-size="29.1667" lengthAdjust="spacing" textLength="127.0833" x="392.375" y="186.4827">refundAt</text><text fill="#000000" font-family="sans-serif" font-size="29.1667" lengthAdjust="spacing" textLength="218.75" x="392.375" y="220.8333">amount_of_pay</text><text fill="#000000" font-family="sans-serif" font-size="29.1667" lengthAdjust="spacing" textLength="141.6667" x="392.375" y="255.1839">manageId</text><text fill="#000000" font-family="sans-serif" font-size="29.1667" lengthAdjust="spacing" textLength="112.5" x="392.375" y="289.5345">statusId</text><text fill="#000000" font-family="sans-serif" font-size="29.1667" lengthAdjust="spacing" textLength="139.5833" x="392.375" y="323.8851">accountId</text><line style="stroke:#181818;stroke-width:1.0416666666666667;" x1="381.9583" x2="621.5417" y1="338.3708" y2="338.3708"/></g><!--link ACCOUNTS to ROLES--><g id="link_ACCOUNTS_ROLES"><path codeLine="94" d="M170.5,1598.1875 C170.5,1681.4792 170.5,1728.3333 170.5,1788.0417 " fill="none" id="ACCOUNTS-to-ROLES" style="stroke:#181818;stroke-width:2.0833333333333335;"/><polygon fill="none" points="170.5,1825.5417,183,1788.0417,158,1788.0417,170.5,1825.5417" style="stroke:#181818;stroke-width:2.0833333333333335;"/><text fill="#000000" font-family="sans-serif" font-size="27.0833" lengthAdjust="spacing" textLength="135.4167" x="172.5833" y="1687.9966">HAS_ROLE</text></g><!--link BOOKS to CATEGORIES--><g id="link_BOOKS_CATEGORIES"><path codeLine="95" d="M712.4167,1430 C665.7083,1495.1875 611.4583,1578.6875 574.6667,1659.7292 C555.8542,1701.1667 550.4795,1712.5289 539.5836,1755.0289 " fill="none" id="BOOKS-to-CATEGORIES" style="stroke:#181818;stroke-width:2.0833333333333335;"/><polygon fill="none" points="530.2708,1791.3542,551.692,1758.1332,527.4752,1751.9247,530.2708,1791.3542" style="stroke:#181818;stroke-width:2.0833333333333335;"/><text fill="#000000" font-family="sans-serif" font-size="27.0833" lengthAdjust="spacing" textLength="210.4167" x="576.75" y="1687.9966">HAS_CATEGORY</text></g><!--link BOOKS to AUTHORS--><g id="link_BOOKS_AUTHORS"><path codeLine="96" d="M805.9167,1528.7708 C805.9167,1604.6667 805.9167,1650.4375 805.9167,1719.6042 " fill="none" id="BOOKS-to-AUTHORS" style="stroke:#181818;stroke-width:2.0833333333333335;"/><polygon fill="none" points="805.9167,1757.1042,818.4167,1719.6042,793.4167,1719.6042,805.9167,1757.1042" style="stroke:#181818;stroke-width:2.0833333333333335;"/><text fill="#000000" font-family="sans-serif" font-size="27.0833" lengthAdjust="spacing" textLength="181.25" x="808" y="1687.9966">HAS_AUTHOR</text></g><!--link BOOKS to PUBLISHING--><g id="link_BOOKS_PUBLISHING"><path codeLine="97" d="M891.9583,1528.8333 C904.9375,1552.8125 919.3333,1576.125 935.0833,1597.2292 C960.625,1631.4167 983.7708,1624.6042 1008,1659.7292 C1028.2083,1689.0208 1031.1218,1688.3238 1043.8718,1722.0113 " fill="none" id="BOOKS-to-PUBLISHING" style="stroke:#181818;stroke-width:2.0833333333333335;"/><polygon fill="none" points="1057.1458,1757.0833,1055.5625,1717.5866,1032.1811,1726.4359,1057.1458,1757.0833" style="stroke:#181818;stroke-width:2.0833333333333335;"/><text fill="#000000" font-family="sans-serif" font-size="27.0833" lengthAdjust="spacing" textLength="206.25" x="1028.8125" y="1687.9966">HAS_PUBLISHER</text></g><!--link MANAGE_BOOK to ACCOUNTS--><g id="link_MANAGE_BOOK_ACCOUNTS"><path codeLine="98" d="M734.2292,827.9167 C722.1458,837.7708 709.8542,847.2292 697.5833,855.8958 C648.9167,890.375 627.3333,883.7083 578.8333,918.3958 C471.2917,995.3542 389.2786,1072.1072 311.3411,1152.6905 " fill="none" id="MANAGE_BOOK-to-ACCOUNTS" style="stroke:#181818;stroke-width:2.0833333333333335;"/><polygon fill="none" points="285.2708,1179.6458,320.3262,1161.3806,302.356,1144.0004,285.2708,1179.6458" style="stroke:#181818;stroke-width:2.0833333333333335;"/><text fill="#000000" font-family="sans-serif" font-size="27.0833" lengthAdjust="spacing" textLength="216.6667" x="580.9167" y="946.6632">MANAGES_BOOK</text></g><!--link MANAGE_BOOK to STATUS_MANAGE--><g id="link_MANAGE_BOOK_STATUS_MANAGE"><path codeLine="99" d="M1016.125,856.5417 C1028.7292,876.6667 1040.2708,897.5 1049.6667,918.3958 C1094.0625,1017.1667 1110.3307,1103.911 1119.5598,1184.3693 " fill="none" id="MANAGE_BOOK-to-STATUS_MANAGE" style="stroke:#181818;stroke-width:2.0833333333333335;"/><polygon fill="none" points="1123.8333,1221.625,1131.9784,1182.9448,1107.1413,1185.7938,1123.8333,1221.625" style="stroke:#181818;stroke-width:2.0833333333333335;"/><text fill="#000000" font-family="sans-serif" font-size="27.0833" lengthAdjust="spacing" textLength="216.6667" x="1064.0417" y="946.6632">MANAGES_BOOK</text></g><!--link MANAGE_BOOK to BOOKS--><g id="link_MANAGE_BOOK_BOOKS"><path codeLine="100" d="M831.875,856.375 C827.375,877.125 823.4167,898.1667 820.5,918.3958 C812.8125,971.875 810.0832,992.4492 807.8123,1046.9076 " fill="none" id="MANAGE_BOOK-to-BOOKS" style="stroke:#181818;stroke-width:2.0833333333333335;"/><polygon fill="none" points="806.25,1084.375,820.3015,1047.4283,795.3232,1046.3868,806.25,1084.375" style="stroke:#181818;stroke-width:2.0833333333333335;"/><text fill="#000000" font-family="sans-serif" font-size="27.0833" lengthAdjust="spacing" textLength="216.6667" x="822.5833" y="946.6632">MANAGES_BOOK</text></g><!--link BORROW to MANAGE_BOOK--><g id="link_BORROW_MANAGE_BOOK"><path codeLine="101" d="M624.1042,293.0208 C662.9167,330.125 704.25,373.5625 737.1667,417.5417 C759.5833,447.5 762.3474,448.6678 780.8891,482.0845 " fill="none" id="BORROW-to-MANAGE_BOOK" style="stroke:#181818;stroke-width:2.0833333333333335;"/><polygon fill="none" points="799.0833,514.875,791.8193,476.0197,769.9589,488.1492,799.0833,514.875" style="stroke:#181818;stroke-width:2.0833333333333335;"/><text fill="#000000" font-family="sans-serif" font-size="27.0833" lengthAdjust="spacing" textLength="214.5833" x="762.7292" y="445.8091">BORROWS_BOOK</text></g><!--link BORROW to STATUS_BORROW--><g id="link_BORROW_STATUS_BORROW"><path codeLine="102" d="M501.75,355.75 C501.75,438.4375 501.75,496.75 501.75,563.375 " fill="none" id="BORROW-to-STATUS_BORROW" style="stroke:#181818;stroke-width:2.0833333333333335;"/><polygon fill="none" points="501.75,600.875,514.25,563.375,489.25,563.375,501.75,600.875" style="stroke:#181818;stroke-width:2.0833333333333335;"/><text fill="#000000" font-family="sans-serif" font-size="27.0833" lengthAdjust="spacing" textLength="214.5833" x="503.8333" y="445.8091">BORROWS_BOOK</text></g><!--link BORROW to ACCOUNTS--><g id="link_BORROW_ACCOUNTS"><path codeLine="103" d="M379.2083,244.8958 C280.0417,299.3333 147.3333,391.0208 87.1667,515.4583 C12.5,669.8958 21.2901,824.3365 59.1443,979.7115 " fill="none" id="BORROW-to-ACCOUNTS" style="stroke:#181818;stroke-width:2.0833333333333335;"/><polygon fill="none" points="68.0208,1016.1458,71.2891,976.7527,46.9995,982.6704,68.0208,1016.1458" style="stroke:#181818;stroke-width:2.0833333333333335;"/><text fill="#000000" font-family="sans-serif" font-size="27.0833" lengthAdjust="spacing" textLength="214.5833" x="89.25" y="696.2466">BORROWS_BOOK</text></g><!--SRC=[ZPDBRwCm4CVlV0fVzbWfkyUeYaIoKOAs3HKFhVPa6UmGAs2xjcaLRVlTrwycf2rBBp2CV_EVXmTrf4mWYJfm8BGvQF1zDliMgRCN2mf-p6PHH9Yc-WIoz6wTWxyH01I3sziZEIqMveEXZaIlPofUhT9oLtm2bibFyqHFI2DfZ5uHwM8144YfPownCVTzsyBWRWZ3nAAaGxGrRymhy-nuHLjxhZJIlJA6v2r9R7Gj2T84nzhg2npiIt6hk5XlqYmPxMDQ8YwBRPgDn_iQ5MqO_ABYGxcyI_9jijkCYYAC9L6srPh34t7pcv9TfkclyJ9fXnfofISahQtdiKTEmFP2L2sfq9GpYveK3PSdDsdKwmENpXHzrL9rCFObULx4HPd3-tWNRzQJEnFePPfbwUz9sej2szz7rdK11P6mulne2wrhtZFjAhKkP_ZD-TBAZ1LLSIdvimkJPDyphu0wcmpoFHJ8Jh13pCpvVSvBJIRF-OUvkNbPX9zi3hPn3gqT-MjqPuFjzK1m_1b2R_lf2VyrF1zicqU2Ovr5my5whRVIvc7ekJly25vVznJjgtb7XJaxO1Wn3pVm2NQzDly11trSCVy0]--></g></svg>