<?xml version="1.0" encoding="us-ascii" standalone="no"?><svg xmlns="http://www.w3.org/2000/svg" xmlns:xlink="http://www.w3.org/1999/xlink" contentStyleType="text/css" height="826px" preserveAspectRatio="none" style="width:1388px;height:826px;background:#FFFFFF;" version="1.1" viewBox="0 0 1388 826" width="1388px" zoomAndPan="magnify"><defs/><g><ellipse cx="871.25" cy="20" fill="#222222" rx="10" ry="10" style="stroke:#222222;stroke-width:1.0;"/><rect fill="#F1F1F1" height="34.1328" rx="12.5" ry="12.5" style="stroke:#181818;stroke-width:0.5;" width="247" x="747.75" y="50"/><text fill="#000000" font-family="sans-serif" font-size="12" lengthAdjust="spacing" textLength="227" x="757.75" y="71.6016">Read the username that the user typed</text><rect fill="#F1F1F1" height="34.1328" rx="12.5" ry="12.5" style="stroke:#181818;stroke-width:0.5;" width="576" x="583.25" y="104.1328"/><text fill="#000000" font-family="sans-serif" font-size="12" lengthAdjust="spacing" textLength="556" x="593.25" y="125.7344">Read the password. Check if the hidden password box has more characters than the visible one</text><polygon fill="#F1F1F1" points="786.25,158.2656,956.25,158.2656,968.25,170.2656,956.25,182.2656,786.25,182.2656,774.25,170.2656,786.25,158.2656" style="stroke:#181818;stroke-width:0.5;"/><text fill="#000000" font-family="sans-serif" font-size="11" lengthAdjust="spacing" textLength="170" x="786.25" y="174.4229">The hidden password is longer?</text><text fill="#000000" font-family="sans-serif" font-size="11" lengthAdjust="spacing" textLength="19" x="755.25" y="167.9453">Yes</text><text fill="#000000" font-family="sans-serif" font-size="11" lengthAdjust="spacing" textLength="15" x="968.25" y="167.9453">No</text><rect fill="#F1F1F1" height="34.1328" rx="12.5" ry="12.5" style="stroke:#181818;stroke-width:0.5;" width="167" x="680.75" y="192.2656"/><text fill="#000000" font-family="sans-serif" font-size="12" lengthAdjust="spacing" textLength="147" x="690.75" y="213.8672">Use the hidden password</text><rect fill="#F1F1F1" height="34.1328" rx="12.5" ry="12.5" style="stroke:#181818;stroke-width:0.5;" width="163" x="896.75" y="192.2656"/><text fill="#000000" font-family="sans-serif" font-size="12" lengthAdjust="spacing" textLength="143" x="906.75" y="213.8672">Use the visible password</text><polygon fill="#F1F1F1" points="871.25,232.3984,883.25,244.3984,871.25,256.3984,859.25,244.3984,871.25,232.3984" style="stroke:#181818;stroke-width:0.5;"/><rect fill="#F1F1F1" height="34.1328" rx="12.5" ry="12.5" style="stroke:#181818;stroke-width:0.5;" width="208" x="767.25" y="276.3984"/><text fill="#000000" font-family="sans-serif" font-size="12" lengthAdjust="spacing" textLength="188" x="777.25" y="298">Prepare a message box for later</text><rect fill="#F1F1F1" height="34.1328" rx="12.5" ry="12.5" style="stroke:#181818;stroke-width:0.5;" width="275" x="733.75" y="330.5313"/><text fill="#000000" font-family="sans-serif" font-size="12" lengthAdjust="spacing" textLength="255" x="743.75" y="352.1328">Find the account that matches the username</text><polygon fill="#F1F1F1" points="814.75,384.6641,927.75,384.6641,939.75,396.6641,927.75,408.6641,814.75,408.6641,802.75,396.6641,814.75,384.6641" style="stroke:#181818;stroke-width:0.5;"/><text fill="#000000" font-family="sans-serif" font-size="11" lengthAdjust="spacing" textLength="113" x="814.75" y="400.8213">An account is found?</text><text fill="#000000" font-family="sans-serif" font-size="11" lengthAdjust="spacing" textLength="19" x="783.75" y="394.3438">Yes</text><text fill="#000000" font-family="sans-serif" font-size="11" lengthAdjust="spacing" textLength="15" x="939.75" y="394.3438">No</text><rect fill="#F1F1F1" height="34.1328" rx="12.5" ry="12.5" style="stroke:#181818;stroke-width:0.5;" width="300" x="398.5" y="418.6641"/><text fill="#000000" font-family="sans-serif" font-size="12" lengthAdjust="spacing" textLength="280" x="408.5" y="440.2656">Get the stored password and role of the account</text><polygon fill="#F1F1F1" points="422,472.7969,675,472.7969,687,484.7969,675,496.7969,422,496.7969,410,484.7969,422,472.7969" style="stroke:#181818;stroke-width:0.5;"/><text fill="#000000" font-family="sans-serif" font-size="11" lengthAdjust="spacing" textLength="253" x="422" y="488.9541">The entered password matches the stored one?</text><text fill="#000000" font-family="sans-serif" font-size="11" lengthAdjust="spacing" textLength="19" x="391" y="482.4766">Yes</text><text fill="#000000" font-family="sans-serif" font-size="11" lengthAdjust="spacing" textLength="15" x="687" y="482.4766">No</text><rect fill="#F1F1F1" height="34.1328" rx="12.5" ry="12.5" style="stroke:#181818;stroke-width:0.5;" width="218" x="190" y="506.7969"/><text fill="#000000" font-family="sans-serif" font-size="12" lengthAdjust="spacing" textLength="198" x="200" y="528.3984">Remember this user has logged in</text><polygon fill="#F1F1F1" points="240,560.9297,358,560.9297,370,572.9297,358,584.9297,240,584.9297,228,572.9297,240,560.9297" style="stroke:#181818;stroke-width:0.5;"/><text fill="#000000" font-family="sans-serif" font-size="11" lengthAdjust="spacing" textLength="118" x="240" y="577.0869">The user is an Admin?</text><text fill="#000000" font-family="sans-serif" font-size="11" lengthAdjust="spacing" textLength="19" x="209" y="570.6094">Yes</text><text fill="#000000" font-family="sans-serif" font-size="11" lengthAdjust="spacing" textLength="108" x="370" y="570.6094">The user is a Reader</text><rect fill="#F1F1F1" height="34.1328" rx="12.5" ry="12.5" style="stroke:#181818;stroke-width:0.5;" width="279" x="11" y="594.9297"/><text fill="#000000" font-family="sans-serif" font-size="12" lengthAdjust="spacing" textLength="259" x="21" y="616.5313">Show a welcome message with the username</text><rect fill="#F1F1F1" height="34.1328" rx="12.5" ry="12.5" style="stroke:#181818;stroke-width:0.5;" width="217" x="42" y="649.0625"/><text fill="#000000" font-family="sans-serif" font-size="12" lengthAdjust="spacing" textLength="197" x="52" y="670.6641">Take the user to the Admin's area</text><rect fill="#F1F1F1" height="34.1328" rx="12.5" ry="12.5" style="stroke:#181818;stroke-width:0.5;" width="275" x="310" y="594.9297"/><text fill="#000000" font-family="sans-serif" font-size="12" lengthAdjust="spacing" textLength="255" x="320" y="616.5313">Show a welcome message with the full name</text><rect fill="#F1F1F1" height="34.1328" rx="12.5" ry="12.5" style="stroke:#181818;stroke-width:0.5;" width="222" x="336.5" y="649.0625"/><text fill="#000000" font-family="sans-serif" font-size="12" lengthAdjust="spacing" textLength="202" x="346.5" y="670.6641">Take the user to the Reader's area</text><polygon fill="#F1F1F1" points="299,689.1953,311,701.1953,299,713.1953,287,701.1953,299,689.1953" style="stroke:#181818;stroke-width:0.5;"/><rect fill="#F1F1F1" height="34.1328" rx="12.5" ry="12.5" style="stroke:#181818;stroke-width:0.5;" width="366" x="615" y="506.7969"/><text fill="#000000" font-family="sans-serif" font-size="12" lengthAdjust="spacing" textLength="346" x="625" y="528.3984">Show a message saying the username or password is wrong</text><polygon fill="#F1F1F1" points="548.5,719.1953,560.5,731.1953,548.5,743.1953,536.5,731.1953,548.5,719.1953" style="stroke:#181818;stroke-width:0.5;"/><rect fill="#F1F1F1" height="34.1328" rx="12.5" ry="12.5" style="stroke:#181818;stroke-width:0.5;" width="366" x="1011" y="418.6641"/><text fill="#000000" font-family="sans-serif" font-size="12" lengthAdjust="spacing" textLength="346" x="1021" y="440.2656">Show a message saying the username or password is wrong</text><polygon fill="#F1F1F1" points="871.25,749.1953,883.25,761.1953,871.25,773.1953,859.25,761.1953,871.25,749.1953" style="stroke:#181818;stroke-width:0.5;"/><ellipse cx="871.25" cy="804.1953" fill="none" rx="11" ry="11" style="stroke:#222222;stroke-width:1.0;"/><ellipse cx="871.25" cy="804.1953" fill="#222222" rx="6" ry="6" style="stroke:#222222;stroke-width:1.0;"/><line style="stroke:#181818;stroke-width:1.0;" x1="871.25" x2="871.25" y1="30" y2="50"/><polygon fill="#181818" points="867.25,40,871.25,50,875.25,40,871.25,44" style="stroke:#181818;stroke-width:1.0;"/><line style="stroke:#181818;stroke-width:1.0;" x1="871.25" x2="871.25" y1="84.1328" y2="104.1328"/><polygon fill="#181818" points="867.25,94.1328,871.25,104.1328,875.25,94.1328,871.25,98.1328" style="stroke:#181818;stroke-width:1.0;"/><line style="stroke:#181818;stroke-width:1.0;" x1="774.25" x2="764.25" y1="170.2656" y2="170.2656"/><line style="stroke:#181818;stroke-width:1.0;" x1="764.25" x2="764.25" y1="170.2656" y2="192.2656"/><polygon fill="#181818" points="760.25,182.2656,764.25,192.2656,768.25,182.2656,764.25,186.2656" style="stroke:#181818;stroke-width:1.0;"/><line style="stroke:#181818;stroke-width:1.0;" x1="968.25" x2="978.25" y1="170.2656" y2="170.2656"/><line style="stroke:#181818;stroke-width:1.0;" x1="978.25" x2="978.25" y1="170.2656" y2="192.2656"/><polygon fill="#181818" points="974.25,182.2656,978.25,192.2656,982.25,182.2656,978.25,186.2656" style="stroke:#181818;stroke-width:1.0;"/><line style="stroke:#181818;stroke-width:1.0;" x1="764.25" x2="764.25" y1="226.3984" y2="244.3984"/><line style="stroke:#181818;stroke-width:1.0;" x1="764.25" x2="859.25" y1="244.3984" y2="244.3984"/><polygon fill="#181818" points="849.25,240.3984,859.25,244.3984,849.25,248.3984,853.25,244.3984" style="stroke:#181818;stroke-width:1.0;"/><line style="stroke:#181818;stroke-width:1.0;" x1="978.25" x2="978.25" y1="226.3984" y2="244.3984"/><line style="stroke:#181818;stroke-width:1.0;" x1="978.25" x2="883.25" y1="244.3984" y2="244.3984"/><polygon fill="#181818" points="893.25,240.3984,883.25,244.3984,893.25,248.3984,889.25,244.3984" style="stroke:#181818;stroke-width:1.0;"/><line style="stroke:#181818;stroke-width:1.0;" x1="871.25" x2="871.25" y1="138.2656" y2="158.2656"/><polygon fill="#181818" points="867.25,148.2656,871.25,158.2656,875.25,148.2656,871.25,152.2656" style="stroke:#181818;stroke-width:1.0;"/><line style="stroke:#181818;stroke-width:1.0;" x1="871.25" x2="871.25" y1="256.3984" y2="276.3984"/><polygon fill="#181818" points="867.25,266.3984,871.25,276.3984,875.25,266.3984,871.25,270.3984" style="stroke:#181818;stroke-width:1.0;"/><line style="stroke:#181818;stroke-width:1.0;" x1="871.25" x2="871.25" y1="310.5313" y2="330.5313"/><polygon fill="#181818" points="867.25,320.5313,871.25,330.5313,875.25,320.5313,871.25,324.5313" style="stroke:#181818;stroke-width:1.0;"/><line style="stroke:#181818;stroke-width:1.0;" x1="150.5" x2="150.5" y1="629.0625" y2="649.0625"/><polygon fill="#181818" points="146.5,639.0625,150.5,649.0625,154.5,639.0625,150.5,643.0625" style="stroke:#181818;stroke-width:1.0;"/><line style="stroke:#181818;stroke-width:1.0;" x1="447.5" x2="447.5" y1="629.0625" y2="649.0625"/><polygon fill="#181818" points="443.5,639.0625,447.5,649.0625,451.5,639.0625,447.5,643.0625" style="stroke:#181818;stroke-width:1.0;"/><line style="stroke:#181818;stroke-width:1.0;" x1="228" x2="150.5" y1="572.9297" y2="572.9297"/><line style="stroke:#181818;stroke-width:1.0;" x1="150.5" x2="150.5" y1="572.9297" y2="594.9297"/><polygon fill="#181818" points="146.5,584.9297,150.5,594.9297,154.5,584.9297,150.5,588.9297" style="stroke:#181818;stroke-width:1.0;"/><line style="stroke:#181818;stroke-width:1.0;" x1="370" x2="447.5" y1="572.9297" y2="572.9297"/><line style="stroke:#181818;stroke-width:1.0;" x1="447.5" x2="447.5" y1="572.9297" y2="594.9297"/><polygon fill="#181818" points="443.5,584.9297,447.5,594.9297,451.5,584.9297,447.5,588.9297" style="stroke:#181818;stroke-width:1.0;"/><line style="stroke:#181818;stroke-width:1.0;" x1="150.5" x2="150.5" y1="683.1953" y2="701.1953"/><line style="stroke:#181818;stroke-width:1.0;" x1="150.5" x2="287" y1="701.1953" y2="701.1953"/><polygon fill="#181818" points="277,697.1953,287,701.1953,277,705.1953,281,701.1953" style="stroke:#181818;stroke-width:1.0;"/><line style="stroke:#181818;stroke-width:1.0;" x1="447.5" x2="447.5" y1="683.1953" y2="701.1953"/><line style="stroke:#181818;stroke-width:1.0;" x1="447.5" x2="311" y1="701.1953" y2="701.1953"/><polygon fill="#181818" points="321,697.1953,311,701.1953,321,705.1953,317,701.1953" style="stroke:#181818;stroke-width:1.0;"/><line style="stroke:#181818;stroke-width:1.0;" x1="299" x2="299" y1="540.9297" y2="560.9297"/><polygon fill="#181818" points="295,550.9297,299,560.9297,303,550.9297,299,554.9297" style="stroke:#181818;stroke-width:1.0;"/><line style="stroke:#181818;stroke-width:1.0;" x1="410" x2="299" y1="484.7969" y2="484.7969"/><line style="stroke:#181818;stroke-width:1.0;" x1="299" x2="299" y1="484.7969" y2="506.7969"/><polygon fill="#181818" points="295,496.7969,299,506.7969,303,496.7969,299,500.7969" style="stroke:#181818;stroke-width:1.0;"/><line style="stroke:#181818;stroke-width:1.0;" x1="687" x2="798" y1="484.7969" y2="484.7969"/><line style="stroke:#181818;stroke-width:1.0;" x1="798" x2="798" y1="484.7969" y2="506.7969"/><polygon fill="#181818" points="794,496.7969,798,506.7969,802,496.7969,798,500.7969" style="stroke:#181818;stroke-width:1.0;"/><line style="stroke:#181818;stroke-width:1.0;" x1="299" x2="299" y1="713.1953" y2="731.1953"/><line style="stroke:#181818;stroke-width:1.0;" x1="299" x2="536.5" y1="731.1953" y2="731.1953"/><polygon fill="#181818" points="526.5,727.1953,536.5,731.1953,526.5,735.1953,530.5,731.1953" style="stroke:#181818;stroke-width:1.0;"/><line style="stroke:#181818;stroke-width:1.0;" x1="798" x2="798" y1="540.9297" y2="731.1953"/><line style="stroke:#181818;stroke-width:1.0;" x1="798" x2="560.5" y1="731.1953" y2="731.1953"/><polygon fill="#181818" points="570.5,727.1953,560.5,731.1953,570.5,735.1953,566.5,731.1953" style="stroke:#181818;stroke-width:1.0;"/><line style="stroke:#181818;stroke-width:1.0;" x1="548.5" x2="548.5" y1="452.7969" y2="472.7969"/><polygon fill="#181818" points="544.5,462.7969,548.5,472.7969,552.5,462.7969,548.5,466.7969" style="stroke:#181818;stroke-width:1.0;"/><line style="stroke:#181818;stroke-width:1.0;" x1="802.75" x2="548.5" y1="396.6641" y2="396.6641"/><line style="stroke:#181818;stroke-width:1.0;" x1="548.5" x2="548.5" y1="396.6641" y2="418.6641"/><polygon fill="#181818" points="544.5,408.6641,548.5,418.6641,552.5,408.6641,548.5,412.6641" style="stroke:#181818;stroke-width:1.0;"/><line style="stroke:#181818;stroke-width:1.0;" x1="939.75" x2="1194" y1="396.6641" y2="396.6641"/><line style="stroke:#181818;stroke-width:1.0;" x1="1194" x2="1194" y1="396.6641" y2="418.6641"/><polygon fill="#181818" points="1190,408.6641,1194,418.6641,1198,408.6641,1194,412.6641" style="stroke:#181818;stroke-width:1.0;"/><line style="stroke:#181818;stroke-width:1.0;" x1="548.5" x2="548.5" y1="743.1953" y2="761.1953"/><line style="stroke:#181818;stroke-width:1.0;" x1="548.5" x2="859.25" y1="761.1953" y2="761.1953"/><polygon fill="#181818" points="849.25,757.1953,859.25,761.1953,849.25,765.1953,853.25,761.1953" style="stroke:#181818;stroke-width:1.0;"/><line style="stroke:#181818;stroke-width:1.0;" x1="1194" x2="1194" y1="452.7969" y2="761.1953"/><line style="stroke:#181818;stroke-width:1.0;" x1="1194" x2="883.25" y1="761.1953" y2="761.1953"/><polygon fill="#181818" points="893.25,757.1953,883.25,761.1953,893.25,765.1953,889.25,761.1953" style="stroke:#181818;stroke-width:1.0;"/><line style="stroke:#181818;stroke-width:1.0;" x1="871.25" x2="871.25" y1="364.6641" y2="384.6641"/><polygon fill="#181818" points="867.25,374.6641,871.25,384.6641,875.25,374.6641,871.25,378.6641" style="stroke:#181818;stroke-width:1.0;"/><line style="stroke:#181818;stroke-width:1.0;" x1="871.25" x2="871.25" y1="773.1953" y2="793.1953"/><polygon fill="#181818" points="867.25,783.1953,871.25,793.1953,875.25,783.1953,871.25,787.1953" style="stroke:#181818;stroke-width:1.0;"/><!--SRC=[dLEnKiCm3Dtp5Tfe5pwW6RWUTx1nN2a3enehiG_7pbakeN-FuZIjqtO0CYMszDxJqmj73B5ORGWLH4smPmeEMv8FZASJY8UEL9dLTSZS-w3kuL5JzGccJiVQA4NkT0ix_mqQ6LeV22gD0Qj8WGTqbng-39kT9V2Eog8GbCNs1enXiDur51wMGvU3nGVniW1vLkzCjwZBWgpSB5xyHTt4c1KwPUgYMBq6wb1q8hJ4Z0qb-RKFO55Ko_XFnetZOrNvlOkZIot6IXFF_3iEitQdKfcXbXTrOuHd6gtcA3QfyzWeRC4FxjGvQvcw9g_8YRQyAvTpH1HthsaJzOPQQdV3XhK8JBiUzcLzqqYVSJB7L3iHfY8fbWskLMlSRUI4_gPzBtRsP2ilcPfixKtK5sxDshRuILdsV7fFN7T26mZFzUEIPx9W22c5FqgfzzR2RxMC3DTYKf3EigRivG8cOiQ3SStydvEavP7lWsH-H1-HBnBzRyHZu2KStGy0]--></g></svg>