<?xml version="1.0" encoding="us-ascii" standalone="no"?><svg xmlns="http://www.w3.org/2000/svg" xmlns:xlink="http://www.w3.org/1999/xlink" contentStyleType="text/css" height="791px" preserveAspectRatio="none" style="width:1065px;height:791px;background:#FFFFFF;" version="1.1" viewBox="0 0 1065 791" width="1065px" zoomAndPan="magnify"><defs/><g><rect fill="none" height="103.9316" style="stroke:#000000;stroke-width:1.5;" width="264" x="641.5" y="157.1094"/><rect fill="none" height="346.3711" style="stroke:#000000;stroke-width:1.5;" width="1048" x="10" y="346.6621"/><rect fill="none" height="254.4395" style="stroke:#000000;stroke-width:1.5;" width="895.5" x="20" y="400.2832"/><rect fill="none" height="149.5078" style="stroke:#000000;stroke-width:1.5;" width="693.5" x="30" y="466.9043"/><line style="stroke:#181818;stroke-width:0.5;stroke-dasharray:5.0,5.0;" x1="58" x2="58" y1="81.4883" y2="710.0332"/><line style="stroke:#181818;stroke-width:0.5;stroke-dasharray:5.0,5.0;" x1="682.5" x2="682.5" y1="81.4883" y2="710.0332"/><line style="stroke:#181818;stroke-width:0.5;stroke-dasharray:5.0,5.0;" x1="1009" x2="1009" y1="81.4883" y2="710.0332"/><text fill="#000000" font-family="sans-serif" font-size="14" lengthAdjust="spacing" textLength="31" x="40" y="78.5352">User</text><ellipse cx="58.5" cy="13.5" fill="#E2E2F0" rx="8" ry="8" style="stroke:#181818;stroke-width:0.5;"/><path d="M58.5,21.5 L58.5,48.5 M45.5,29.5 L71.5,29.5 M58.5,48.5 L45.5,63.5 M58.5,48.5 L71.5,63.5 " fill="none" style="stroke:#181818;stroke-width:0.5;"/><text fill="#000000" font-family="sans-serif" font-size="14" lengthAdjust="spacing" textLength="31" x="40" y="722.5684">User</text><ellipse cx="58.5" cy="734.0215" fill="#E2E2F0" rx="8" ry="8" style="stroke:#181818;stroke-width:0.5;"/><path d="M58.5,742.0215 L58.5,769.0215 M45.5,750.0215 L71.5,750.0215 M58.5,769.0215 L45.5,784.0215 M58.5,769.0215 L71.5,784.0215 " fill="none" style="stroke:#181818;stroke-width:0.5;"/><rect fill="#E2E2F0" height="30.4883" rx="2.5" ry="2.5" style="stroke:#181818;stroke-width:0.5;" width="62" x="651.5" y="50"/><text fill="#000000" font-family="sans-serif" font-size="14" lengthAdjust="spacing" textLength="48" x="658.5" y="70.5352">System</text><rect fill="#E2E2F0" height="30.4883" rx="2.5" ry="2.5" style="stroke:#181818;stroke-width:0.5;" width="62" x="651.5" y="709.0332"/><text fill="#000000" font-family="sans-serif" font-size="14" lengthAdjust="spacing" textLength="48" x="658.5" y="729.5684">System</text><rect fill="#E2E2F0" height="30.4883" rx="2.5" ry="2.5" style="stroke:#181818;stroke-width:0.5;" width="77" x="971" y="50"/><text fill="#000000" font-family="sans-serif" font-size="14" lengthAdjust="spacing" textLength="63" x="978" y="70.5352">Database</text><rect fill="#E2E2F0" height="30.4883" rx="2.5" ry="2.5" style="stroke:#181818;stroke-width:0.5;" width="77" x="971" y="709.0332"/><text fill="#000000" font-family="sans-serif" font-size="14" lengthAdjust="spacing" textLength="63" x="978" y="729.5684">Database</text><polygon fill="#181818" points="670.5,108.7988,680.5,112.7988,670.5,116.7988,674.5,112.7988" style="stroke:#181818;stroke-width:1.0;"/><line style="stroke:#181818;stroke-width:1.0;" x1="58.5" x2="676.5" y1="112.7988" y2="112.7988"/><text fill="#000000" font-family="sans-serif" font-size="13" lengthAdjust="spacing" textLength="242" x="65.5" y="108.0566">Read the username that the user typed</text><polygon fill="#181818" points="670.5,138.1094,680.5,142.1094,670.5,146.1094,674.5,142.1094" style="stroke:#181818;stroke-width:1.0;"/><line style="stroke:#181818;stroke-width:1.0;" x1="58.5" x2="676.5" y1="142.1094" y2="142.1094"/><text fill="#000000" font-family="sans-serif" font-size="13" lengthAdjust="spacing" textLength="600" x="65.5" y="137.3672">Read the password. Check if the hidden password box has more characters than the visible one</text><path d="M641.5,157.1094 L703.5,157.1094 L703.5,164.4199 L693.5,174.4199 L641.5,174.4199 L641.5,157.1094 " fill="#EEEEEE" style="stroke:#000000;stroke-width:1.5;"/><rect fill="none" height="103.9316" style="stroke:#000000;stroke-width:1.5;" width="264" x="641.5" y="157.1094"/><text fill="#000000" font-family="sans-serif" font-size="13" font-weight="bold" lengthAdjust="spacing" textLength="17" x="656.5" y="170.6777">alt</text><text fill="#000000" font-family="sans-serif" font-size="11" font-weight="bold" lengthAdjust="spacing" textLength="182" x="718.5" y="169.7441">[The hidden password is longer]</text><line style="stroke:#181818;stroke-width:1.0;" x1="682.5" x2="724.5" y1="195.7305" y2="195.7305"/><line style="stroke:#181818;stroke-width:1.0;" x1="724.5" x2="724.5" y1="195.7305" y2="208.7305"/><line style="stroke:#181818;stroke-width:1.0;" x1="683.5" x2="724.5" y1="208.7305" y2="208.7305"/><polygon fill="#181818" points="693.5,204.7305,683.5,208.7305,693.5,212.7305,689.5,208.7305" style="stroke:#181818;stroke-width:1.0;"/><text fill="#000000" font-family="sans-serif" font-size="13" lengthAdjust="spacing" textLength="158" x="689.5" y="190.9883">Use the hidden password</text><line style="stroke:#000000;stroke-width:1.0;stroke-dasharray:2.0,2.0;" x1="641.5" x2="905.5" y1="217.7305" y2="217.7305"/><line style="stroke:#181818;stroke-width:1.0;" x1="682.5" x2="724.5" y1="240.041" y2="240.041"/><line style="stroke:#181818;stroke-width:1.0;" x1="724.5" x2="724.5" y1="240.041" y2="253.041"/><line style="stroke:#181818;stroke-width:1.0;" x1="683.5" x2="724.5" y1="253.041" y2="253.041"/><polygon fill="#181818" points="693.5,249.041,683.5,253.041,693.5,257.041,689.5,253.041" style="stroke:#181818;stroke-width:1.0;"/><text fill="#000000" font-family="sans-serif" font-size="13" lengthAdjust="spacing" textLength="156" x="689.5" y="235.2988">Use the visible password</text><line style="stroke:#181818;stroke-width:1.0;" x1="682.5" x2="724.5" y1="289.3516" y2="289.3516"/><line style="stroke:#181818;stroke-width:1.0;" x1="724.5" x2="724.5" y1="289.3516" y2="302.3516"/><line style="stroke:#181818;stroke-width:1.0;" x1="683.5" x2="724.5" y1="302.3516" y2="302.3516"/><polygon fill="#181818" points="693.5,298.3516,683.5,302.3516,693.5,306.3516,689.5,302.3516" style="stroke:#181818;stroke-width:1.0;"/><text fill="#000000" font-family="sans-serif" font-size="13" lengthAdjust="spacing" textLength="198" x="689.5" y="284.6094">Prepare a message box for later</text><polygon fill="#181818" points="997.5,327.6621,1007.5,331.6621,997.5,335.6621,1001.5,331.6621" style="stroke:#181818;stroke-width:1.0;"/><line style="stroke:#181818;stroke-width:1.0;" x1="682.5" x2="1003.5" y1="331.6621" y2="331.6621"/><text fill="#000000" font-family="sans-serif" font-size="13" lengthAdjust="spacing" textLength="280" x="689.5" y="326.9199">Find the account that matches the username</text><path d="M10,346.6621 L72,346.6621 L72,353.9727 L62,363.9727 L10,363.9727 L10,346.6621 " fill="#EEEEEE" style="stroke:#000000;stroke-width:1.5;"/><rect fill="none" height="346.3711" style="stroke:#000000;stroke-width:1.5;" width="1048" x="10" y="346.6621"/><text fill="#000000" font-family="sans-serif" font-size="13" font-weight="bold" lengthAdjust="spacing" textLength="17" x="25" y="360.2305">alt</text><text fill="#000000" font-family="sans-serif" font-size="11" font-weight="bold" lengthAdjust="spacing" textLength="121" x="87" y="359.2969">[An account is found]</text><polygon fill="#181818" points="997.5,381.2832,1007.5,385.2832,997.5,389.2832,1001.5,385.2832" style="stroke:#181818;stroke-width:1.0;"/><line style="stroke:#181818;stroke-width:1.0;" x1="682.5" x2="1003.5" y1="385.2832" y2="385.2832"/><text fill="#000000" font-family="sans-serif" font-size="13" lengthAdjust="spacing" textLength="303" x="689.5" y="380.541">Get the stored password and role of the account</text><path d="M20,400.2832 L82,400.2832 L82,407.5938 L72,417.5938 L20,417.5938 L20,400.2832 " fill="#EEEEEE" style="stroke:#000000;stroke-width:1.5;"/><rect fill="none" height="254.4395" style="stroke:#000000;stroke-width:1.5;" width="895.5" x="20" y="400.2832"/><text fill="#000000" font-family="sans-serif" font-size="13" font-weight="bold" lengthAdjust="spacing" textLength="17" x="35" y="413.8516">alt</text><text fill="#000000" font-family="sans-serif" font-size="11" font-weight="bold" lengthAdjust="spacing" textLength="265" x="97" y="412.918">[The entered password matches the stored one]</text><line style="stroke:#181818;stroke-width:1.0;" x1="682.5" x2="724.5" y1="438.9043" y2="438.9043"/><line style="stroke:#181818;stroke-width:1.0;" x1="724.5" x2="724.5" y1="438.9043" y2="451.9043"/><line style="stroke:#181818;stroke-width:1.0;" x1="683.5" x2="724.5" y1="451.9043" y2="451.9043"/><polygon fill="#181818" points="693.5,447.9043,683.5,451.9043,693.5,455.9043,689.5,451.9043" style="stroke:#181818;stroke-width:1.0;"/><text fill="#000000" font-family="sans-serif" font-size="13" lengthAdjust="spacing" textLength="214" x="689.5" y="434.1621">Remember this user has logged in</text><path d="M30,466.9043 L92,466.9043 L92,474.2148 L82,484.2148 L30,484.2148 L30,466.9043 " fill="#EEEEEE" style="stroke:#000000;stroke-width:1.5;"/><rect fill="none" height="149.5078" style="stroke:#000000;stroke-width:1.5;" width="693.5" x="30" y="466.9043"/><text fill="#000000" font-family="sans-serif" font-size="13" font-weight="bold" lengthAdjust="spacing" textLength="17" x="45" y="480.4727">alt</text><text fill="#000000" font-family="sans-serif" font-size="11" font-weight="bold" lengthAdjust="spacing" textLength="129" x="107" y="479.5391">[The user is an Admin]</text><polygon fill="#181818" points="69.5,501.5254,59.5,505.5254,69.5,509.5254,65.5,505.5254" style="stroke:#181818;stroke-width:1.0;"/><line style="stroke:#181818;stroke-width:1.0;" x1="63.5" x2="681.5" y1="505.5254" y2="505.5254"/><text fill="#000000" font-family="sans-serif" font-size="13" lengthAdjust="spacing" textLength="282" x="75.5" y="500.7832">Show a welcome message with the username</text><polygon fill="#181818" points="69.5,530.8359,59.5,534.8359,69.5,538.8359,65.5,534.8359" style="stroke:#181818;stroke-width:1.0;"/><line style="stroke:#181818;stroke-width:1.0;" x1="63.5" x2="681.5" y1="534.8359" y2="534.8359"/><text fill="#000000" font-family="sans-serif" font-size="13" lengthAdjust="spacing" textLength="211" x="75.5" y="530.0938">Take the user to the Admin's area</text><line style="stroke:#000000;stroke-width:1.0;stroke-dasharray:2.0,2.0;" x1="30" x2="723.5" y1="543.8359" y2="543.8359"/><text fill="#000000" font-family="sans-serif" font-size="11" font-weight="bold" lengthAdjust="spacing" textLength="123" x="35" y="554.4707">[The user is a Reader]</text><polygon fill="#181818" points="69.5,575.1016,59.5,579.1016,69.5,583.1016,65.5,579.1016" style="stroke:#181818;stroke-width:1.0;"/><line style="stroke:#181818;stroke-width:1.0;" x1="63.5" x2="681.5" y1="579.1016" y2="579.1016"/><text fill="#000000" font-family="sans-serif" font-size="13" lengthAdjust="spacing" textLength="280" x="75.5" y="574.3594">Show a welcome message with the full name</text><polygon fill="#181818" points="69.5,604.4121,59.5,608.4121,69.5,612.4121,65.5,608.4121" style="stroke:#181818;stroke-width:1.0;"/><line style="stroke:#181818;stroke-width:1.0;" x1="63.5" x2="681.5" y1="608.4121" y2="608.4121"/><text fill="#000000" font-family="sans-serif" font-size="13" lengthAdjust="spacing" textLength="212" x="75.5" y="603.6699">Take the user to the Reader's area</text><line style="stroke:#000000;stroke-width:1.0;stroke-dasharray:2.0,2.0;" x1="20" x2="915.5" y1="624.4121" y2="624.4121"/><polygon fill="#181818" points="69.5,642.7227,59.5,646.7227,69.5,650.7227,65.5,646.7227" style="stroke:#181818;stroke-width:1.0;"/><line style="stroke:#181818;stroke-width:1.0;" x1="63.5" x2="681.5" y1="646.7227" y2="646.7227"/><text fill="#000000" font-family="sans-serif" font-size="13" lengthAdjust="spacing" textLength="376" x="75.5" y="641.9805">Show a message saying the username or password is wrong</text><line style="stroke:#000000;stroke-width:1.0;stroke-dasharray:2.0,2.0;" x1="10" x2="1058" y1="662.7227" y2="662.7227"/><polygon fill="#181818" points="69.5,681.0332,59.5,685.0332,69.5,689.0332,65.5,685.0332" style="stroke:#181818;stroke-width:1.0;"/><line style="stroke:#181818;stroke-width:1.0;" x1="63.5" x2="681.5" y1="685.0332" y2="685.0332"/><text fill="#000000" font-family="sans-serif" font-size="13" lengthAdjust="spacing" textLength="376" x="75.5" y="680.291">Show a message saying the username or password is wrong</text><!--SRC=[fLD1Ri8m4Bpx5IikFRKFu509Yjfh1VG1Yxs9BHmRsQOfl-_QII0HKAdjpSdkx8ndnoYJ3_0HAOW3XcIaEQ1BCDkSOg9c1XYXEqxBAqoumqYbORKK8a-0n-U-UGvhGWL94novuB0X_i1q_WFfT21r7tN065iVr1EyQ99xC5NvhOrIvCvLsFalqAoWyO50QWme4uMOkLm1V9feTfR0En82ROBjZIacWlMkPWkWLpBMn1flSGkoaNu43DmNX5D2NFU_1s9l2H0QYX5hAjUgU2qM-JOZn6evXrVZEejGIdzqgVErmIGrnOdZtOKNxjp9zwpue2QgyymtwZOJEGkaBiOWKmMVxQl6b8mVh2J72iUGiP1-NFOUu9PJQsgesUKqQDPMSf6tQNrTCywu0XkeIfdRUBCBrVJ5yTGSfZbij6_PofQiz9owmTBM93rrvpPyYtiQfTINS-5xOEf0M71vzrDH9RebGNyHLHsjXT-gwXWdiifk-s3ULJ6mHpmPLqyVAOTk_2pQmEz2T8Elylw_eJpo6m00]--></g></svg>