<?xml version="1.0" encoding="us-ascii" standalone="no"?><svg xmlns="http://www.w3.org/2000/svg" xmlns:xlink="http://www.w3.org/1999/xlink" contentStyleType="text/css" height="683px" preserveAspectRatio="none" style="width:773px;height:683px;background:#FFFFFF;" version="1.1" viewBox="0 0 773 683" width="773px" zoomAndPan="magnify"><defs/><g><ellipse cx="374.75" cy="20" fill="#222222" rx="10" ry="10" style="stroke:#222222;stroke-width:1.0;"/><rect fill="#F1F1F1" height="34.1328" rx="12.5" ry="12.5" style="stroke:#181818;stroke-width:0.5;" width="190" x="279.75" y="50"/><text fill="#000000" font-family="sans-serif" font-size="12" lengthAdjust="spacing" textLength="170" x="289.75" y="71.6016">Assign default role as Reader</text><rect fill="#F1F1F1" height="34.1328" rx="12.5" ry="12.5" style="stroke:#181818;stroke-width:0.5;" width="143" x="303.25" y="104.1328"/><text fill="#000000" font-family="sans-serif" font-size="12" lengthAdjust="spacing" textLength="123" x="313.25" y="125.7344">Generate a unique ID</text><rect fill="#F1F1F1" height="34.1328" rx="12.5" ry="12.5" style="stroke:#181818;stroke-width:0.5;" width="511" x="119.25" y="158.2656"/><text fill="#000000" font-family="sans-serif" font-size="12" lengthAdjust="spacing" textLength="491" x="129.25" y="179.8672">Read username, password (hidden or visible), fullname, gender, and mobile number</text><rect fill="#F1F1F1" height="34.1328" rx="12.5" ry="12.5" style="stroke:#181818;stroke-width:0.5;" width="256" x="246.75" y="212.3984"/><text fill="#000000" font-family="sans-serif" font-size="12" lengthAdjust="spacing" textLength="236" x="256.75" y="234">Choose the correct password field to use</text><rect fill="#F1F1F1" height="34.1328" rx="12.5" ry="12.5" style="stroke:#181818;stroke-width:0.5;" width="292" x="228.75" y="266.5313"/><text fill="#000000" font-family="sans-serif" font-size="12" lengthAdjust="spacing" textLength="272" x="238.75" y="288.1328">Create a new account object with all the details</text><rect fill="#F1F1F1" height="34.1328" rx="12.5" ry="12.5" style="stroke:#181818;stroke-width:0.5;" width="208" x="270.75" y="320.6641"/><text fill="#000000" font-family="sans-serif" font-size="12" lengthAdjust="spacing" textLength="188" x="280.75" y="342.2656">Prepare a message box for later</text><polygon fill="#F1F1F1" points="302.25,374.7969,447.25,374.7969,459.25,386.7969,447.25,398.7969,302.25,398.7969,290.25,386.7969,302.25,374.7969" style="stroke:#181818;stroke-width:0.5;"/><text fill="#000000" font-family="sans-serif" font-size="11" lengthAdjust="spacing" textLength="145" x="302.25" y="390.9541">Username is already taken?</text><text fill="#000000" font-family="sans-serif" font-size="11" lengthAdjust="spacing" textLength="19" x="271.25" y="384.4766">Yes</text><text fill="#000000" font-family="sans-serif" font-size="11" lengthAdjust="spacing" textLength="15" x="459.25" y="384.4766">No</text><rect fill="#F1F1F1" height="34.1328" rx="12.5" ry="12.5" style="stroke:#181818;stroke-width:0.5;" width="320" x="11" y="408.7969"/><text fill="#000000" font-family="sans-serif" font-size="12" lengthAdjust="spacing" textLength="300" x="21" y="430.3984">Show a message that the username is already taken</text><ellipse cx="171" cy="488.9297" fill="none" rx="11" ry="11" style="stroke:#222222;stroke-width:1.0;"/><ellipse cx="171" cy="488.9297" fill="#222222" rx="6" ry="6" style="stroke:#222222;stroke-width:1.0;"/><polygon fill="#F1F1F1" points="494,408.7969,663,408.7969,675,420.7969,663,432.7969,494,432.7969,482,420.7969,494,408.7969" style="stroke:#181818;stroke-width:0.5;"/><text fill="#000000" font-family="sans-serif" font-size="11" lengthAdjust="spacing" textLength="169" x="494" y="424.9541">Account creation is successful?</text><text fill="#000000" font-family="sans-serif" font-size="11" lengthAdjust="spacing" textLength="19" x="463" y="418.4766">Yes</text><text fill="#000000" font-family="sans-serif" font-size="11" lengthAdjust="spacing" textLength="15" x="675" y="418.4766">No</text><rect fill="#F1F1F1" height="34.1328" rx="12.5" ry="12.5" style="stroke:#181818;stroke-width:0.5;" width="222" x="361" y="442.7969"/><text fill="#000000" font-family="sans-serif" font-size="12" lengthAdjust="spacing" textLength="202" x="371" y="464.3984">Remember this user has signed up</text><rect fill="#F1F1F1" height="34.1328" rx="12.5" ry="12.5" style="stroke:#181818;stroke-width:0.5;" width="163" x="390.5" y="511.9297"/><text fill="#000000" font-family="sans-serif" font-size="12" lengthAdjust="spacing" textLength="143" x="400.5" y="533.5313">Show a success message</text><rect fill="#F1F1F1" height="34.1328" rx="12.5" ry="12.5" style="stroke:#181818;stroke-width:0.5;" width="210" x="367" y="566.0625"/><text fill="#000000" font-family="sans-serif" font-size="12" lengthAdjust="spacing" textLength="190" x="377" y="587.6641">Take the user to the login screen</text><rect fill="#F1F1F1" height="34.1328" rx="12.5" ry="12.5" style="stroke:#181818;stroke-width:0.5;" width="155" x="607.5" y="442.7969"/><text fill="#000000" font-family="sans-serif" font-size="12" lengthAdjust="spacing" textLength="135" x="617.5" y="464.3984">Show a failure message</text><polygon fill="#F1F1F1" points="578.5,606.1953,590.5,618.1953,578.5,630.1953,566.5,618.1953,578.5,606.1953" style="stroke:#181818;stroke-width:0.5;"/><ellipse cx="578.5" cy="661.1953" fill="none" rx="11" ry="11" style="stroke:#222222;stroke-width:1.0;"/><ellipse cx="578.5" cy="661.1953" fill="#222222" rx="6" ry="6" style="stroke:#222222;stroke-width:1.0;"/><line style="stroke:#181818;stroke-width:1.0;" x1="374.75" x2="374.75" y1="30" y2="50"/><polygon fill="#181818" points="370.75,40,374.75,50,378.75,40,374.75,44" style="stroke:#181818;stroke-width:1.0;"/><line style="stroke:#181818;stroke-width:1.0;" x1="374.75" x2="374.75" y1="84.1328" y2="104.1328"/><polygon fill="#181818" points="370.75,94.1328,374.75,104.1328,378.75,94.1328,374.75,98.1328" style="stroke:#181818;stroke-width:1.0;"/><line style="stroke:#181818;stroke-width:1.0;" x1="374.75" x2="374.75" y1="138.2656" y2="158.2656"/><polygon fill="#181818" points="370.75,148.2656,374.75,158.2656,378.75,148.2656,374.75,152.2656" style="stroke:#181818;stroke-width:1.0;"/><line style="stroke:#181818;stroke-width:1.0;" x1="374.75" x2="374.75" y1="192.3984" y2="212.3984"/><polygon fill="#181818" points="370.75,202.3984,374.75,212.3984,378.75,202.3984,374.75,206.3984" style="stroke:#181818;stroke-width:1.0;"/><line style="stroke:#181818;stroke-width:1.0;" x1="374.75" x2="374.75" y1="246.5313" y2="266.5313"/><polygon fill="#181818" points="370.75,256.5313,374.75,266.5313,378.75,256.5313,374.75,260.5313" style="stroke:#181818;stroke-width:1.0;"/><line style="stroke:#181818;stroke-width:1.0;" x1="374.75" x2="374.75" y1="300.6641" y2="320.6641"/><polygon fill="#181818" points="370.75,310.6641,374.75,320.6641,378.75,310.6641,374.75,314.6641" style="stroke:#181818;stroke-width:1.0;"/><line style="stroke:#181818;stroke-width:1.0;" x1="171" x2="171" y1="442.9297" y2="477.9297"/><polygon fill="#181818" points="167,467.9297,171,477.9297,175,467.9297,171,471.9297" style="stroke:#181818;stroke-width:1.0;"/><line style="stroke:#181818;stroke-width:1.0;" x1="472" x2="472" y1="476.9297" y2="511.9297"/><polygon fill="#181818" points="468,501.9297,472,511.9297,476,501.9297,472,505.9297" style="stroke:#181818;stroke-width:1.0;"/><line style="stroke:#181818;stroke-width:1.0;" x1="472" x2="472" y1="546.0625" y2="566.0625"/><polygon fill="#181818" points="468,556.0625,472,566.0625,476,556.0625,472,560.0625" style="stroke:#181818;stroke-width:1.0;"/><line style="stroke:#181818;stroke-width:1.0;" x1="482" x2="472" y1="420.7969" y2="420.7969"/><line style="stroke:#181818;stroke-width:1.0;" x1="472" x2="472" y1="420.7969" y2="442.7969"/><polygon fill="#181818" points="468,432.7969,472,442.7969,476,432.7969,472,436.7969" style="stroke:#181818;stroke-width:1.0;"/><line style="stroke:#181818;stroke-width:1.0;" x1="675" x2="685" y1="420.7969" y2="420.7969"/><line style="stroke:#181818;stroke-width:1.0;" x1="685" x2="685" y1="420.7969" y2="442.7969"/><polygon fill="#181818" points="681,432.7969,685,442.7969,689,432.7969,685,436.7969" style="stroke:#181818;stroke-width:1.0;"/><line style="stroke:#181818;stroke-width:1.0;" x1="472" x2="472" y1="600.1953" y2="618.1953"/><line style="stroke:#181818;stroke-width:1.0;" x1="472" x2="566.5" y1="618.1953" y2="618.1953"/><polygon fill="#181818" points="556.5,614.1953,566.5,618.1953,556.5,622.1953,560.5,618.1953" style="stroke:#181818;stroke-width:1.0;"/><line style="stroke:#181818;stroke-width:1.0;" x1="685" x2="685" y1="476.9297" y2="618.1953"/><line style="stroke:#181818;stroke-width:1.0;" x1="685" x2="590.5" y1="618.1953" y2="618.1953"/><polygon fill="#181818" points="600.5,614.1953,590.5,618.1953,600.5,622.1953,596.5,618.1953" style="stroke:#181818;stroke-width:1.0;"/><line style="stroke:#181818;stroke-width:1.0;" x1="578.5" x2="578.5" y1="630.1953" y2="650.1953"/><polygon fill="#181818" points="574.5,640.1953,578.5,650.1953,582.5,640.1953,578.5,644.1953" style="stroke:#181818;stroke-width:1.0;"/><line style="stroke:#181818;stroke-width:1.0;" x1="290.25" x2="171" y1="386.7969" y2="386.7969"/><line style="stroke:#181818;stroke-width:1.0;" x1="171" x2="171" y1="386.7969" y2="408.7969"/><polygon fill="#181818" points="167,398.7969,171,408.7969,175,398.7969,171,402.7969" style="stroke:#181818;stroke-width:1.0;"/><line style="stroke:#181818;stroke-width:1.0;" x1="459.25" x2="578.5" y1="386.7969" y2="386.7969"/><line style="stroke:#181818;stroke-width:1.0;" x1="578.5" x2="578.5" y1="386.7969" y2="408.7969"/><polygon fill="#181818" points="574.5,398.7969,578.5,408.7969,582.5,398.7969,578.5,402.7969" style="stroke:#181818;stroke-width:1.0;"/><line style="stroke:#181818;stroke-width:1.0;" x1="374.75" x2="374.75" y1="354.7969" y2="374.7969"/><polygon fill="#181818" points="370.75,364.7969,374.75,374.7969,378.75,364.7969,374.75,368.7969" style="stroke:#181818;stroke-width:1.0;"/><!--SRC=[TP71JiCm38RlVGeVEsbFi1xG11BYWj200qUtSPj06fSueV3sE5t7XX0vHOdz_Rz_IyAOgjrUn0q13FMOVOB8dW053eI6ObFjRYbGnAIFa8DxpmHtD_fS_Y4BnO0ZRM52aPcZWTewOoW0H_XmubfFcotqsVjZtK11iLl0O63argbOo6ExA5rRPY58bg3Z6AbBPsplo1j8N2IRIciZ7Jq5cW6xZdD8mErhQPfTie3UBoH32PqNnJz4cZ2Mdf54S21e-HDwDUeLfGOgrqFzl8u4JfIXAkOB4hvHkDeKNe3wXMHJWPxTe-Nv0fSifaKp_yTebZv9F5NaTTJwde-eehnVf-ZAQ8v3wPRSTKhN_FxABnOED5A9Jp-rl0Y3rUsLbPBkPshEfQlR5NboVL7mf1P__9Uioztpu0A8cZhP_-ty4jrhqbaJ_eNMXRk-AZD_0m00]--></g></svg>