<?xml version="1.0" encoding="us-ascii" standalone="no"?><svg xmlns="http://www.w3.org/2000/svg" xmlns:xlink="http://www.w3.org/1999/xlink" contentStyleType="text/css" height="695px" preserveAspectRatio="none" style="width:963px;height:695px;background:#FFFFFF;" version="1.1" viewBox="0 0 963 695" width="963px" zoomAndPan="magnify"><defs/><g><rect fill="none" height="241.4844" style="stroke:#000000;stroke-width:1.5;" width="946" x="10" y="355.6621"/><rect fill="none" height="149.5527" style="stroke:#000000;stroke-width:1.5;" width="812.5" x="20" y="440.5938"/><line style="stroke:#181818;stroke-width:0.5;stroke-dasharray:5.0,5.0;" x1="48" x2="48" y1="81.4883" y2="614.1465"/><line style="stroke:#181818;stroke-width:0.5;stroke-dasharray:5.0,5.0;" x1="596.5" x2="596.5" y1="81.4883" y2="614.1465"/><line style="stroke:#181818;stroke-width:0.5;stroke-dasharray:5.0,5.0;" x1="907" x2="907" y1="81.4883" y2="614.1465"/><text fill="#000000" font-family="sans-serif" font-size="14" lengthAdjust="spacing" textLength="31" x="30" y="78.5352">User</text><ellipse cx="48.5" cy="13.5" fill="#E2E2F0" rx="8" ry="8" style="stroke:#181818;stroke-width:0.5;"/><path d="M48.5,21.5 L48.5,48.5 M35.5,29.5 L61.5,29.5 M48.5,48.5 L35.5,63.5 M48.5,48.5 L61.5,63.5 " fill="none" style="stroke:#181818;stroke-width:0.5;"/><text fill="#000000" font-family="sans-serif" font-size="14" lengthAdjust="spacing" textLength="31" x="30" y="626.6816">User</text><ellipse cx="48.5" cy="638.1348" fill="#E2E2F0" rx="8" ry="8" style="stroke:#181818;stroke-width:0.5;"/><path d="M48.5,646.1348 L48.5,673.1348 M35.5,654.1348 L61.5,654.1348 M48.5,673.1348 L35.5,688.1348 M48.5,673.1348 L61.5,688.1348 " fill="none" style="stroke:#181818;stroke-width:0.5;"/><rect fill="#E2E2F0" height="30.4883" rx="2.5" ry="2.5" style="stroke:#181818;stroke-width:0.5;" width="62" x="565.5" y="50"/><text fill="#000000" font-family="sans-serif" font-size="14" lengthAdjust="spacing" textLength="48" x="572.5" y="70.5352">System</text><rect fill="#E2E2F0" height="30.4883" rx="2.5" ry="2.5" style="stroke:#181818;stroke-width:0.5;" width="62" x="565.5" y="613.1465"/><text fill="#000000" font-family="sans-serif" font-size="14" lengthAdjust="spacing" textLength="48" x="572.5" y="633.6816">System</text><rect fill="#E2E2F0" height="30.4883" rx="2.5" ry="2.5" style="stroke:#181818;stroke-width:0.5;" width="77" x="869" y="50"/><text fill="#000000" font-family="sans-serif" font-size="14" lengthAdjust="spacing" textLength="63" x="876" y="70.5352">Database</text><rect fill="#E2E2F0" height="30.4883" rx="2.5" ry="2.5" style="stroke:#181818;stroke-width:0.5;" width="77" x="869" y="613.1465"/><text fill="#000000" font-family="sans-serif" font-size="14" lengthAdjust="spacing" textLength="63" x="876" y="633.6816">Database</text><polygon fill="#181818" points="584.5,108.7988,594.5,112.7988,584.5,116.7988,588.5,112.7988" style="stroke:#181818;stroke-width:1.0;"/><line style="stroke:#181818;stroke-width:1.0;" x1="48.5" x2="590.5" y1="112.7988" y2="112.7988"/><text fill="#000000" font-family="sans-serif" font-size="13" lengthAdjust="spacing" textLength="183" x="55.5" y="108.0566">Assign default role as Reader</text><line style="stroke:#181818;stroke-width:1.0;" x1="596.5" x2="638.5" y1="142.1094" y2="142.1094"/><line style="stroke:#181818;stroke-width:1.0;" x1="638.5" x2="638.5" y1="142.1094" y2="155.1094"/><line style="stroke:#181818;stroke-width:1.0;" x1="597.5" x2="638.5" y1="155.1094" y2="155.1094"/><polygon fill="#181818" points="607.5,151.1094,597.5,155.1094,607.5,159.1094,603.5,155.1094" style="stroke:#181818;stroke-width:1.0;"/><text fill="#000000" font-family="sans-serif" font-size="13" lengthAdjust="spacing" textLength="131" x="603.5" y="137.3672">Generate a unique ID</text><polygon fill="#181818" points="584.5,180.4199,594.5,184.4199,584.5,188.4199,588.5,184.4199" style="stroke:#181818;stroke-width:1.0;"/><line style="stroke:#181818;stroke-width:1.0;" x1="48.5" x2="590.5" y1="184.4199" y2="184.4199"/><text fill="#000000" font-family="sans-serif" font-size="13" lengthAdjust="spacing" textLength="524" x="55.5" y="179.6777">Read username, password (hidden or visible), fullname, gender, and mobile number</text><line style="stroke:#181818;stroke-width:1.0;" x1="596.5" x2="638.5" y1="213.7305" y2="213.7305"/><line style="stroke:#181818;stroke-width:1.0;" x1="638.5" x2="638.5" y1="213.7305" y2="226.7305"/><line style="stroke:#181818;stroke-width:1.0;" x1="597.5" x2="638.5" y1="226.7305" y2="226.7305"/><polygon fill="#181818" points="607.5,222.7305,597.5,226.7305,607.5,230.7305,603.5,226.7305" style="stroke:#181818;stroke-width:1.0;"/><text fill="#000000" font-family="sans-serif" font-size="13" lengthAdjust="spacing" textLength="258" x="603.5" y="208.9883">Choose the correct password field to use</text><line style="stroke:#181818;stroke-width:1.0;" x1="596.5" x2="638.5" y1="256.041" y2="256.041"/><line style="stroke:#181818;stroke-width:1.0;" x1="638.5" x2="638.5" y1="256.041" y2="269.041"/><line style="stroke:#181818;stroke-width:1.0;" x1="597.5" x2="638.5" y1="269.041" y2="269.041"/><polygon fill="#181818" points="607.5,265.041,597.5,269.041,607.5,273.041,603.5,269.041" style="stroke:#181818;stroke-width:1.0;"/><text fill="#000000" font-family="sans-serif" font-size="13" lengthAdjust="spacing" textLength="297" x="603.5" y="251.2988">Create a new account object with all the details</text><line style="stroke:#181818;stroke-width:1.0;" x1="596.5" x2="638.5" y1="298.3516" y2="298.3516"/><line style="stroke:#181818;stroke-width:1.0;" x1="638.5" x2="638.5" y1="298.3516" y2="311.3516"/><line style="stroke:#181818;stroke-width:1.0;" x1="597.5" x2="638.5" y1="311.3516" y2="311.3516"/><polygon fill="#181818" points="607.5,307.3516,597.5,311.3516,607.5,315.3516,603.5,311.3516" style="stroke:#181818;stroke-width:1.0;"/><text fill="#000000" font-family="sans-serif" font-size="13" lengthAdjust="spacing" textLength="198" x="603.5" y="293.6094">Prepare a message box for later</text><polygon fill="#181818" points="895.5,336.6621,905.5,340.6621,895.5,344.6621,899.5,340.6621" style="stroke:#181818;stroke-width:1.0;"/><line style="stroke:#181818;stroke-width:1.0;" x1="596.5" x2="901.5" y1="340.6621" y2="340.6621"/><text fill="#000000" font-family="sans-serif" font-size="13" lengthAdjust="spacing" textLength="220" x="603.5" y="335.9199">Check if username is already taken</text><path d="M10,355.6621 L72,355.6621 L72,362.9727 L62,372.9727 L10,372.9727 L10,355.6621 " fill="#EEEEEE" style="stroke:#000000;stroke-width:1.5;"/><rect fill="none" height="241.4844" style="stroke:#000000;stroke-width:1.5;" width="946" x="10" y="355.6621"/><text fill="#000000" font-family="sans-serif" font-size="13" font-weight="bold" lengthAdjust="spacing" textLength="17" x="25" y="369.2305">alt</text><text fill="#000000" font-family="sans-serif" font-size="11" font-weight="bold" lengthAdjust="spacing" textLength="155" x="87" y="368.2969">[Username is already taken]</text><polygon fill="#181818" points="59.5,390.2832,49.5,394.2832,59.5,398.2832,55.5,394.2832" style="stroke:#181818;stroke-width:1.0;"/><line style="stroke:#181818;stroke-width:1.0;" x1="53.5" x2="595.5" y1="394.2832" y2="394.2832"/><text fill="#000000" font-family="sans-serif" font-size="13" lengthAdjust="spacing" textLength="324" x="65.5" y="389.541">Show a message that the username is already taken</text><line style="stroke:#000000;stroke-width:1.0;stroke-dasharray:2.0,2.0;" x1="10" x2="956" y1="403.2832" y2="403.2832"/><polygon fill="#181818" points="895.5,421.5938,905.5,425.5938,895.5,429.5938,899.5,425.5938" style="stroke:#181818;stroke-width:1.0;"/><line style="stroke:#181818;stroke-width:1.0;" x1="596.5" x2="901.5" y1="425.5938" y2="425.5938"/><text fill="#000000" font-family="sans-serif" font-size="13" lengthAdjust="spacing" textLength="134" x="603.5" y="420.8516">Create a new account</text><path d="M20,440.5938 L82,440.5938 L82,447.9043 L72,457.9043 L20,457.9043 L20,440.5938 " fill="#EEEEEE" style="stroke:#000000;stroke-width:1.5;"/><rect fill="none" height="149.5527" style="stroke:#000000;stroke-width:1.5;" width="812.5" x="20" y="440.5938"/><text fill="#000000" font-family="sans-serif" font-size="13" font-weight="bold" lengthAdjust="spacing" textLength="17" x="35" y="454.1621">alt</text><text fill="#000000" font-family="sans-serif" font-size="11" font-weight="bold" lengthAdjust="spacing" textLength="179" x="97" y="453.2285">[Account creation is successful]</text><line style="stroke:#181818;stroke-width:1.0;" x1="596.5" x2="638.5" y1="479.2148" y2="479.2148"/><line style="stroke:#181818;stroke-width:1.0;" x1="638.5" x2="638.5" y1="479.2148" y2="492.2148"/><line style="stroke:#181818;stroke-width:1.0;" x1="597.5" x2="638.5" y1="492.2148" y2="492.2148"/><polygon fill="#181818" points="607.5,488.2148,597.5,492.2148,607.5,496.2148,603.5,492.2148" style="stroke:#181818;stroke-width:1.0;"/><text fill="#000000" font-family="sans-serif" font-size="13" lengthAdjust="spacing" textLength="217" x="603.5" y="474.4727">Remember this user has signed up</text><polygon fill="#181818" points="59.5,517.5254,49.5,521.5254,59.5,525.5254,55.5,521.5254" style="stroke:#181818;stroke-width:1.0;"/><line style="stroke:#181818;stroke-width:1.0;" x1="53.5" x2="595.5" y1="521.5254" y2="521.5254"/><text fill="#000000" font-family="sans-serif" font-size="13" lengthAdjust="spacing" textLength="157" x="65.5" y="516.7832">Show a success message</text><polygon fill="#181818" points="59.5,546.8359,49.5,550.8359,59.5,554.8359,55.5,550.8359" style="stroke:#181818;stroke-width:1.0;"/><line style="stroke:#181818;stroke-width:1.0;" x1="53.5" x2="595.5" y1="550.8359" y2="550.8359"/><text fill="#000000" font-family="sans-serif" font-size="13" lengthAdjust="spacing" textLength="207" x="65.5" y="546.0938">Take the user to the login screen</text><line style="stroke:#000000;stroke-width:1.0;stroke-dasharray:2.0,2.0;" x1="20" x2="832.5" y1="559.8359" y2="559.8359"/><polygon fill="#181818" points="59.5,578.1465,49.5,582.1465,59.5,586.1465,55.5,582.1465" style="stroke:#181818;stroke-width:1.0;"/><line style="stroke:#181818;stroke-width:1.0;" x1="53.5" x2="595.5" y1="582.1465" y2="582.1465"/><text fill="#000000" font-family="sans-serif" font-size="13" lengthAdjust="spacing" textLength="147" x="65.5" y="577.4043">Show a failure message</text><!--SRC=[TL9BJiCm4Dtd5AEkG2eNw0AffH9YXoWzmCIUDAQENJmseRTdd8GcXNGHoOgVtsy6LVG1zaoXE668HfaJkWYBtPaZDGj0XlvuVRt5Y2KoTO3jfYWo0pmy3k0Lh9dDmO6c2fED4Bob37qZr2BLewRuPt8KC0e8aZEVYU1b-uyqluOaFnqsj8GJChS-QBYhZTRaG99y6JQbfVibLCdQ7dSW9w9BGAUXyQKHAourvQoFfzfx9eWrWV8Xa8gZJ6N8QeW-MoZctWRg4pXg0PNoIQhovKScQKsi0Qtjc3L5D9PdA5u3IS-Peo5cF12K_Xig2MQ5EanLjvlibjGHJ7Kf1GoBYlZGPuXu95UWjB-_UGim4cRK2dQrRoVoiSROURwjG5Rgc19rpcQw451sinwQKHbYlCkCd9GIHPcPWAPSu-WRoYCJBmBFPg2MVSfBHh8Jfp_Fhh8CvB-PPg7l4kMICyyudwq_60SiHhkgXg0tTIePQfBXZJgoU8LyFm00]--></g></svg>