<?xml version="1.0" encoding="us-ascii" standalone="no"?><svg xmlns="http://www.w3.org/2000/svg" xmlns:xlink="http://www.w3.org/1999/xlink" contentStyleType="text/css" height="624px" preserveAspectRatio="none" style="width:2269px;height:624px;background:#FFFFFF;" version="1.1" viewBox="0 0 2269 624" width="2269px" zoomAndPan="magnify"><defs/><g><ellipse cx="984.6563" cy="20" fill="#222222" rx="10" ry="10" style="stroke:#222222;stroke-width:1.0;"/><rect fill="#F1F1F1" height="34.1328" rx="12.5" ry="12.5" style="stroke:#181818;stroke-width:0.5;" width="265" x="852.1563" y="50"/><text fill="#000000" font-family="sans-serif" font-size="12" lengthAdjust="spacing" textLength="245" x="862.1563" y="71.6016">Retrieve inputs (id, name, signName, dob)</text><rect fill="#F1F1F1" height="34.1328" rx="12.5" ry="12.5" style="stroke:#181818;stroke-width:0.5;" width="270" x="849.6563" y="104.1328"/><text fill="#000000" font-family="sans-serif" font-size="12" lengthAdjust="spacing" textLength="250" x="859.6563" y="125.7344">Create an Author object with the input data</text><polygon fill="#F1F1F1" points="953.1563,158.2656,1016.1563,158.2656,1028.1563,170.2656,1016.1563,182.2656,953.1563,182.2656,941.1563,170.2656,953.1563,158.2656" style="stroke:#181818;stroke-width:0.5;"/><text fill="#000000" font-family="sans-serif" font-size="11" lengthAdjust="spacing" textLength="63" x="953.1563" y="174.4229">id is empty?</text><text fill="#000000" font-family="sans-serif" font-size="11" lengthAdjust="spacing" textLength="19" x="922.1563" y="167.9453">Yes</text><text fill="#000000" font-family="sans-serif" font-size="11" lengthAdjust="spacing" textLength="15" x="1028.1563" y="167.9453">No</text><polygon fill="#F1F1F1" points="384.625,192.2656,594.625,192.2656,606.625,204.2656,594.625,216.2656,384.625,216.2656,372.625,204.2656,384.625,192.2656" style="stroke:#181818;stroke-width:0.5;"/><text fill="#000000" font-family="sans-serif" font-size="11" lengthAdjust="spacing" textLength="210" x="384.625" y="208.4229">Author with the same signName exists?</text><text fill="#000000" font-family="sans-serif" font-size="11" lengthAdjust="spacing" textLength="15" x="357.625" y="201.9453">No</text><text fill="#000000" font-family="sans-serif" font-size="11" lengthAdjust="spacing" textLength="19" x="606.625" y="201.9453">Yes</text><polygon fill="#F1F1F1" points="205.25,226.2656,369.25,226.2656,381.25,238.2656,369.25,250.2656,205.25,250.2656,193.25,238.2656,205.25,226.2656" style="stroke:#181818;stroke-width:0.5;"/><text fill="#000000" font-family="sans-serif" font-size="11" lengthAdjust="spacing" textLength="164" x="205.25" y="242.4229">Add new Author is successful?</text><text fill="#000000" font-family="sans-serif" font-size="11" lengthAdjust="spacing" textLength="19" x="174.25" y="235.9453">Yes</text><text fill="#000000" font-family="sans-serif" font-size="11" lengthAdjust="spacing" textLength="15" x="381.25" y="235.9453">No</text><rect fill="#F1F1F1" height="34.1328" rx="12.5" ry="12.5" style="stroke:#181818;stroke-width:0.5;" width="282" x="11" y="260.2656"/><text fill="#000000" font-family="sans-serif" font-size="12" lengthAdjust="spacing" textLength="262" x="21" y="281.8672">Show success message: "Added Successfully!"</text><rect fill="#F1F1F1" height="34.1328" rx="12.5" ry="12.5" style="stroke:#181818;stroke-width:0.5;" width="219" x="313" y="260.2656"/><text fill="#000000" font-family="sans-serif" font-size="12" lengthAdjust="spacing" textLength="199" x="323" y="281.8672">Show error message: "Added Fail!"</text><polygon fill="#F1F1F1" points="287.25,300.3984,299.25,312.3984,287.25,324.3984,275.25,312.3984,287.25,300.3984" style="stroke:#181818;stroke-width:0.5;"/><rect fill="#F1F1F1" height="34.1328" rx="12.5" ry="12.5" style="stroke:#181818;stroke-width:0.5;" width="260" x="562" y="226.2656"/><text fill="#000000" font-family="sans-serif" font-size="12" lengthAdjust="spacing" textLength="240" x="572" y="247.8672">Show error message: "This Author exists!"</text><polygon fill="#F1F1F1" points="489.625,330.3984,501.625,342.3984,489.625,354.3984,477.625,342.3984,489.625,330.3984" style="stroke:#181818;stroke-width:0.5;"/><rect fill="#F1F1F1" height="34.1328" rx="12.5" ry="12.5" style="stroke:#181818;stroke-width:0.5;" width="95" x="1472.1875" y="192.2656"/><text fill="#000000" font-family="sans-serif" font-size="12" lengthAdjust="spacing" textLength="75" x="1482.1875" y="213.8672">Set Author ID</text><polygon fill="#F1F1F1" points="1404.6875,261.3984,1634.6875,261.3984,1646.6875,273.3984,1634.6875,285.3984,1404.6875,285.3984,1392.6875,273.3984,1404.6875,261.3984" style="stroke:#181818;stroke-width:0.5;"/><text fill="#000000" font-family="sans-serif" font-size="11" lengthAdjust="spacing" textLength="230" x="1404.6875" y="277.5557">Author's name matches the existing name?</text><text fill="#000000" font-family="sans-serif" font-size="11" lengthAdjust="spacing" textLength="19" x="1373.6875" y="271.0781">Yes</text><text fill="#000000" font-family="sans-serif" font-size="11" lengthAdjust="spacing" textLength="15" x="1646.6875" y="271.0781">No</text><polygon fill="#F1F1F1" points="1041.25,295.3984,1197.25,295.3984,1209.25,307.3984,1197.25,319.3984,1041.25,319.3984,1029.25,307.3984,1041.25,295.3984" style="stroke:#181818;stroke-width:0.5;"/><text fill="#000000" font-family="sans-serif" font-size="11" lengthAdjust="spacing" textLength="156" x="1041.25" y="311.5557">Update Author is successful?</text><text fill="#000000" font-family="sans-serif" font-size="11" lengthAdjust="spacing" textLength="19" x="1010.25" y="305.0781">Yes</text><text fill="#000000" font-family="sans-serif" font-size="11" lengthAdjust="spacing" textLength="15" x="1209.25" y="305.0781">No</text><rect fill="#F1F1F1" height="34.1328" rx="12.5" ry="12.5" style="stroke:#181818;stroke-width:0.5;" width="293" x="832" y="329.3984"/><text fill="#000000" font-family="sans-serif" font-size="12" lengthAdjust="spacing" textLength="273" x="842" y="351">Show success message: "Updated Successfully!"</text><rect fill="#F1F1F1" height="34.1328" rx="12.5" ry="12.5" style="stroke:#181818;stroke-width:0.5;" width="230" x="1145" y="329.3984"/><text fill="#000000" font-family="sans-serif" font-size="12" lengthAdjust="spacing" textLength="210" x="1155" y="351">Show error message: "Updated Fail!"</text><polygon fill="#F1F1F1" points="1119.25,369.5313,1131.25,381.5313,1119.25,393.5313,1107.25,381.5313,1119.25,369.5313" style="stroke:#181818;stroke-width:0.5;"/><polygon fill="#F1F1F1" points="1815.125,295.3984,2025.125,295.3984,2037.125,307.3984,2025.125,319.3984,1815.125,319.3984,1803.125,307.3984,1815.125,295.3984" style="stroke:#181818;stroke-width:0.5;"/><text fill="#000000" font-family="sans-serif" font-size="11" lengthAdjust="spacing" textLength="210" x="1815.125" y="311.5557">Author with the same signName exists?</text><text fill="#000000" font-family="sans-serif" font-size="11" lengthAdjust="spacing" textLength="15" x="1788.125" y="305.0781">No</text><text fill="#000000" font-family="sans-serif" font-size="11" lengthAdjust="spacing" textLength="19" x="2037.125" y="305.0781">Yes</text><polygon fill="#F1F1F1" points="1634.25,329.3984,1790.25,329.3984,1802.25,341.3984,1790.25,353.3984,1634.25,353.3984,1622.25,341.3984,1634.25,329.3984" style="stroke:#181818;stroke-width:0.5;"/><text fill="#000000" font-family="sans-serif" font-size="11" lengthAdjust="spacing" textLength="156" x="1634.25" y="345.5557">Update Author is successful?</text><text fill="#000000" font-family="sans-serif" font-size="11" lengthAdjust="spacing" textLength="19" x="1603.25" y="339.0781">Yes</text><text fill="#000000" font-family="sans-serif" font-size="11" lengthAdjust="spacing" textLength="15" x="1802.25" y="339.0781">No</text><rect fill="#F1F1F1" height="34.1328" rx="12.5" ry="12.5" style="stroke:#181818;stroke-width:0.5;" width="293" x="1425" y="363.3984"/><text fill="#000000" font-family="sans-serif" font-size="12" lengthAdjust="spacing" textLength="273" x="1435" y="385">Show success message: "Updated Successfully!"</text><rect fill="#F1F1F1" height="34.1328" rx="12.5" ry="12.5" style="stroke:#181818;stroke-width:0.5;" width="230" x="1738" y="363.3984"/><text fill="#000000" font-family="sans-serif" font-size="12" lengthAdjust="spacing" textLength="210" x="1748" y="385">Show error message: "Updated Fail!"</text><polygon fill="#F1F1F1" points="1712.25,403.5313,1724.25,415.5313,1712.25,427.5313,1700.25,415.5313,1712.25,403.5313" style="stroke:#181818;stroke-width:0.5;"/><rect fill="#F1F1F1" height="34.1328" rx="12.5" ry="12.5" style="stroke:#181818;stroke-width:0.5;" width="260" x="1998" y="329.3984"/><text fill="#000000" font-family="sans-serif" font-size="12" lengthAdjust="spacing" textLength="240" x="2008" y="351">Show error message: "This Author exists!"</text><polygon fill="#F1F1F1" points="1920.125,433.5313,1932.125,445.5313,1920.125,457.5313,1908.125,445.5313,1920.125,433.5313" style="stroke:#181818;stroke-width:0.5;"/><polygon fill="#F1F1F1" points="1519.6875,463.5313,1531.6875,475.5313,1519.6875,487.5313,1507.6875,475.5313,1519.6875,463.5313" style="stroke:#181818;stroke-width:0.5;"/><polygon fill="#F1F1F1" points="984.6563,493.5313,996.6563,505.5313,984.6563,517.5313,972.6563,505.5313,984.6563,493.5313" style="stroke:#181818;stroke-width:0.5;"/><rect fill="#F1F1F1" height="34.1328" rx="12.5" ry="12.5" style="stroke:#181818;stroke-width:0.5;" width="161" x="904.1563" y="537.5313"/><text fill="#000000" font-family="sans-serif" font-size="12" lengthAdjust="spacing" textLength="141" x="914.1563" y="559.1328">Refresh the data display</text><ellipse cx="984.6563" cy="602.6641" fill="none" rx="11" ry="11" style="stroke:#222222;stroke-width:1.0;"/><ellipse cx="984.6563" cy="602.6641" fill="#222222" rx="6" ry="6" style="stroke:#222222;stroke-width:1.0;"/><line style="stroke:#181818;stroke-width:1.0;" x1="984.6563" x2="984.6563" y1="30" y2="50"/><polygon fill="#181818" points="980.6563,40,984.6563,50,988.6563,40,984.6563,44" style="stroke:#181818;stroke-width:1.0;"/><line style="stroke:#181818;stroke-width:1.0;" x1="984.6563" x2="984.6563" y1="84.1328" y2="104.1328"/><polygon fill="#181818" points="980.6563,94.1328,984.6563,104.1328,988.6563,94.1328,984.6563,98.1328" style="stroke:#181818;stroke-width:1.0;"/><line style="stroke:#181818;stroke-width:1.0;" x1="193.25" x2="152" y1="238.2656" y2="238.2656"/><line style="stroke:#181818;stroke-width:1.0;" x1="152" x2="152" y1="238.2656" y2="260.2656"/><polygon fill="#181818" points="148,250.2656,152,260.2656,156,250.2656,152,254.2656" style="stroke:#181818;stroke-width:1.0;"/><line style="stroke:#181818;stroke-width:1.0;" x1="381.25" x2="422.5" y1="238.2656" y2="238.2656"/><line style="stroke:#181818;stroke-width:1.0;" x1="422.5" x2="422.5" y1="238.2656" y2="260.2656"/><polygon fill="#181818" points="418.5,250.2656,422.5,260.2656,426.5,250.2656,422.5,254.2656" style="stroke:#181818;stroke-width:1.0;"/><line style="stroke:#181818;stroke-width:1.0;" x1="152" x2="152" y1="294.3984" y2="312.3984"/><line style="stroke:#181818;stroke-width:1.0;" x1="152" x2="275.25" y1="312.3984" y2="312.3984"/><polygon fill="#181818" points="265.25,308.3984,275.25,312.3984,265.25,316.3984,269.25,312.3984" style="stroke:#181818;stroke-width:1.0;"/><line style="stroke:#181818;stroke-width:1.0;" x1="422.5" x2="422.5" y1="294.3984" y2="312.3984"/><line style="stroke:#181818;stroke-width:1.0;" x1="422.5" x2="299.25" y1="312.3984" y2="312.3984"/><polygon fill="#181818" points="309.25,308.3984,299.25,312.3984,309.25,316.3984,305.25,312.3984" style="stroke:#181818;stroke-width:1.0;"/><line style="stroke:#181818;stroke-width:1.0;" x1="372.625" x2="287.25" y1="204.2656" y2="204.2656"/><line style="stroke:#181818;stroke-width:1.0;" x1="287.25" x2="287.25" y1="204.2656" y2="226.2656"/><polygon fill="#181818" points="283.25,216.2656,287.25,226.2656,291.25,216.2656,287.25,220.2656" style="stroke:#181818;stroke-width:1.0;"/><line style="stroke:#181818;stroke-width:1.0;" x1="606.625" x2="692" y1="204.2656" y2="204.2656"/><line style="stroke:#181818;stroke-width:1.0;" x1="692" x2="692" y1="204.2656" y2="226.2656"/><polygon fill="#181818" points="688,216.2656,692,226.2656,696,216.2656,692,220.2656" style="stroke:#181818;stroke-width:1.0;"/><line style="stroke:#181818;stroke-width:1.0;" x1="287.25" x2="287.25" y1="324.3984" y2="342.3984"/><line style="stroke:#181818;stroke-width:1.0;" x1="287.25" x2="477.625" y1="342.3984" y2="342.3984"/><polygon fill="#181818" points="467.625,338.3984,477.625,342.3984,467.625,346.3984,471.625,342.3984" style="stroke:#181818;stroke-width:1.0;"/><line style="stroke:#181818;stroke-width:1.0;" x1="692" x2="692" y1="260.3984" y2="342.3984"/><line style="stroke:#181818;stroke-width:1.0;" x1="692" x2="501.625" y1="342.3984" y2="342.3984"/><polygon fill="#181818" points="511.625,338.3984,501.625,342.3984,511.625,346.3984,507.625,342.3984" style="stroke:#181818;stroke-width:1.0;"/><line style="stroke:#181818;stroke-width:1.0;" x1="1029.25" x2="978.5" y1="307.3984" y2="307.3984"/><line style="stroke:#181818;stroke-width:1.0;" x1="978.5" x2="978.5" y1="307.3984" y2="329.3984"/><polygon fill="#181818" points="974.5,319.3984,978.5,329.3984,982.5,319.3984,978.5,323.3984" style="stroke:#181818;stroke-width:1.0;"/><line style="stroke:#181818;stroke-width:1.0;" x1="1209.25" x2="1260" y1="307.3984" y2="307.3984"/><line style="stroke:#181818;stroke-width:1.0;" x1="1260" x2="1260" y1="307.3984" y2="329.3984"/><polygon fill="#181818" points="1256,319.3984,1260,329.3984,1264,319.3984,1260,323.3984" style="stroke:#181818;stroke-width:1.0;"/><line style="stroke:#181818;stroke-width:1.0;" x1="978.5" x2="978.5" y1="363.5313" y2="381.5313"/><line style="stroke:#181818;stroke-width:1.0;" x1="978.5" x2="1107.25" y1="381.5313" y2="381.5313"/><polygon fill="#181818" points="1097.25,377.5313,1107.25,381.5313,1097.25,385.5313,1101.25,381.5313" style="stroke:#181818;stroke-width:1.0;"/><line style="stroke:#181818;stroke-width:1.0;" x1="1260" x2="1260" y1="363.5313" y2="381.5313"/><line style="stroke:#181818;stroke-width:1.0;" x1="1260" x2="1131.25" y1="381.5313" y2="381.5313"/><polygon fill="#181818" points="1141.25,377.5313,1131.25,381.5313,1141.25,385.5313,1137.25,381.5313" style="stroke:#181818;stroke-width:1.0;"/><line style="stroke:#181818;stroke-width:1.0;" x1="1622.25" x2="1571.5" y1="341.3984" y2="341.3984"/><line style="stroke:#181818;stroke-width:1.0;" x1="1571.5" x2="1571.5" y1="341.3984" y2="363.3984"/><polygon fill="#181818" points="1567.5,353.3984,1571.5,363.3984,1575.5,353.3984,1571.5,357.3984" style="stroke:#181818;stroke-width:1.0;"/><line style="stroke:#181818;stroke-width:1.0;" x1="1802.25" x2="1853" y1="341.3984" y2="341.3984"/><line style="stroke:#181818;stroke-width:1.0;" x1="1853" x2="1853" y1="341.3984" y2="363.3984"/><polygon fill="#181818" points="1849,353.3984,1853,363.3984,1857,353.3984,1853,357.3984" style="stroke:#181818;stroke-width:1.0;"/><line style="stroke:#181818;stroke-width:1.0;" x1="1571.5" x2="1571.5" y1="397.5313" y2="415.5313"/><line style="stroke:#181818;stroke-width:1.0;" x1="1571.5" x2="1700.25" y1="415.5313" y2="415.5313"/><polygon fill="#181818" points="1690.25,411.5313,1700.25,415.5313,1690.25,419.5313,1694.25,415.5313" style="stroke:#181818;stroke-width:1.0;"/><line style="stroke:#181818;stroke-width:1.0;" x1="1853" x2="1853" y1="397.5313" y2="415.5313"/><line style="stroke:#181818;stroke-width:1.0;" x1="1853" x2="1724.25" y1="415.5313" y2="415.5313"/><polygon fill="#181818" points="1734.25,411.5313,1724.25,415.5313,1734.25,419.5313,1730.25,415.5313" style="stroke:#181818;stroke-width:1.0;"/><line style="stroke:#181818;stroke-width:1.0;" x1="1803.125" x2="1712.25" y1="307.3984" y2="307.3984"/><line style="stroke:#181818;stroke-width:1.0;" x1="1712.25" x2="1712.25" y1="307.3984" y2="329.3984"/><polygon fill="#181818" points="1708.25,319.3984,1712.25,329.3984,1716.25,319.3984,1712.25,323.3984" style="stroke:#181818;stroke-width:1.0;"/><line style="stroke:#181818;stroke-width:1.0;" x1="2037.125" x2="2128" y1="307.3984" y2="307.3984"/><line style="stroke:#181818;stroke-width:1.0;" x1="2128" x2="2128" y1="307.3984" y2="329.3984"/><polygon fill="#181818" points="2124,319.3984,2128,329.3984,2132,319.3984,2128,323.3984" style="stroke:#181818;stroke-width:1.0;"/><line style="stroke:#181818;stroke-width:1.0;" x1="1712.25" x2="1712.25" y1="427.5313" y2="445.5313"/><line style="stroke:#181818;stroke-width:1.0;" x1="1712.25" x2="1908.125" y1="445.5313" y2="445.5313"/><polygon fill="#181818" points="1898.125,441.5313,1908.125,445.5313,1898.125,449.5313,1902.125,445.5313" style="stroke:#181818;stroke-width:1.0;"/><line style="stroke:#181818;stroke-width:1.0;" x1="2128" x2="2128" y1="363.5313" y2="445.5313"/><line style="stroke:#181818;stroke-width:1.0;" x1="2128" x2="1932.125" y1="445.5313" y2="445.5313"/><polygon fill="#181818" points="1942.125,441.5313,1932.125,445.5313,1942.125,449.5313,1938.125,445.5313" style="stroke:#181818;stroke-width:1.0;"/><line style="stroke:#181818;stroke-width:1.0;" x1="1392.6875" x2="1119.25" y1="273.3984" y2="273.3984"/><line style="stroke:#181818;stroke-width:1.0;" x1="1119.25" x2="1119.25" y1="273.3984" y2="295.3984"/><polygon fill="#181818" points="1115.25,285.3984,1119.25,295.3984,1123.25,285.3984,1119.25,289.3984" style="stroke:#181818;stroke-width:1.0;"/><line style="stroke:#181818;stroke-width:1.0;" x1="1646.6875" x2="1920.125" y1="273.3984" y2="273.3984"/><line style="stroke:#181818;stroke-width:1.0;" x1="1920.125" x2="1920.125" y1="273.3984" y2="295.3984"/><polygon fill="#181818" points="1916.125,285.3984,1920.125,295.3984,1924.125,285.3984,1920.125,289.3984" style="stroke:#181818;stroke-width:1.0;"/><line style="stroke:#181818;stroke-width:1.0;" x1="1119.25" x2="1119.25" y1="393.5313" y2="475.5313"/><line style="stroke:#181818;stroke-width:1.0;" x1="1119.25" x2="1507.6875" y1="475.5313" y2="475.5313"/><polygon fill="#181818" points="1497.6875,471.5313,1507.6875,475.5313,1497.6875,479.5313,1501.6875,475.5313" style="stroke:#181818;stroke-width:1.0;"/><line style="stroke:#181818;stroke-width:1.0;" x1="1920.125" x2="1920.125" y1="457.5313" y2="475.5313"/><line style="stroke:#181818;stroke-width:1.0;" x1="1920.125" x2="1531.6875" y1="475.5313" y2="475.5313"/><polygon fill="#181818" points="1541.6875,471.5313,1531.6875,475.5313,1541.6875,479.5313,1537.6875,475.5313" style="stroke:#181818;stroke-width:1.0;"/><line style="stroke:#181818;stroke-width:1.0;" x1="1519.6875" x2="1519.6875" y1="226.3984" y2="261.3984"/><polygon fill="#181818" points="1515.6875,251.3984,1519.6875,261.3984,1523.6875,251.3984,1519.6875,255.3984" style="stroke:#181818;stroke-width:1.0;"/><line style="stroke:#181818;stroke-width:1.0;" x1="941.1563" x2="489.625" y1="170.2656" y2="170.2656"/><line style="stroke:#181818;stroke-width:1.0;" x1="489.625" x2="489.625" y1="170.2656" y2="192.2656"/><polygon fill="#181818" points="485.625,182.2656,489.625,192.2656,493.625,182.2656,489.625,186.2656" style="stroke:#181818;stroke-width:1.0;"/><line style="stroke:#181818;stroke-width:1.0;" x1="1028.1563" x2="1519.6875" y1="170.2656" y2="170.2656"/><line style="stroke:#181818;stroke-width:1.0;" x1="1519.6875" x2="1519.6875" y1="170.2656" y2="192.2656"/><polygon fill="#181818" points="1515.6875,182.2656,1519.6875,192.2656,1523.6875,182.2656,1519.6875,186.2656" style="stroke:#181818;stroke-width:1.0;"/><line style="stroke:#181818;stroke-width:1.0;" x1="489.625" x2="489.625" y1="354.3984" y2="505.5313"/><line style="stroke:#181818;stroke-width:1.0;" x1="489.625" x2="972.6563" y1="505.5313" y2="505.5313"/><polygon fill="#181818" points="962.6563,501.5313,972.6563,505.5313,962.6563,509.5313,966.6563,505.5313" style="stroke:#181818;stroke-width:1.0;"/><line style="stroke:#181818;stroke-width:1.0;" x1="1519.6875" x2="1519.6875" y1="487.5313" y2="505.5313"/><line style="stroke:#181818;stroke-width:1.0;" x1="1519.6875" x2="996.6563" y1="505.5313" y2="505.5313"/><polygon fill="#181818" points="1006.6563,501.5313,996.6563,505.5313,1006.6563,509.5313,1002.6563,505.5313" style="stroke:#181818;stroke-width:1.0;"/><line style="stroke:#181818;stroke-width:1.0;" x1="984.6563" x2="984.6563" y1="138.2656" y2="158.2656"/><polygon fill="#181818" points="980.6563,148.2656,984.6563,158.2656,988.6563,148.2656,984.6563,152.2656" style="stroke:#181818;stroke-width:1.0;"/><line style="stroke:#181818;stroke-width:1.0;" x1="984.6563" x2="984.6563" y1="517.5313" y2="537.5313"/><polygon fill="#181818" points="980.6563,527.5313,984.6563,537.5313,988.6563,527.5313,984.6563,531.5313" style="stroke:#181818;stroke-width:1.0;"/><line style="stroke:#181818;stroke-width:1.0;" x1="984.6563" x2="984.6563" y1="571.6641" y2="591.6641"/><polygon fill="#181818" points="980.6563,581.6641,984.6563,591.6641,988.6563,581.6641,984.6563,585.6641" style="stroke:#181818;stroke-width:1.0;"/><!--SRC=[hPJDReCm383lUGglbnMfJm27QTeqQPSUndROCIK6Ca50iHdZxPVmLz4VJMkRGuI4_TdvOeLOMXRX6xBL-8sWJTqmmLgh3HXPuWP8PsRRVwbg5qGYVB8e6K4QU6muhonKkozC65hDEN0-Ca19bf4GElKmq0HOrjmz13x4mFeJAH3WbWyOGJE1NBsvCE2F9gOvSriDYNEoKc2mdRfnbQX94YHAc-AutBJ2EA_QAH9AjyaCGrWv6Yg8PqBHtQsYEHCBmcK7UnPQwyeVabwaBXO4etGgzgn5OwT1xxaxqtYwmSK4763Bfi8OUOf-VNOti9HyJ_szGYavoP5wtJrKcwp_SrgP1tpKob_yRJmFiDkOdbX_kJwQd4l7xYeZrrWvR-R_TfQ6papa9LDve7wOqNxt3qrgaGRT_eK0fQakP1S9ugh-1G00]--></g></svg>