<?xml version="1.0" encoding="us-ascii" standalone="no"?><svg xmlns="http://www.w3.org/2000/svg" xmlns:xlink="http://www.w3.org/1999/xlink" contentStyleType="text/css" height="969px" preserveAspectRatio="none" style="width:815px;height:969px;background:#FFFFFF;" version="1.1" viewBox="0 0 815 969" width="815px" zoomAndPan="magnify"><defs/><g><rect fill="none" height="671.832" style="stroke:#000000;stroke-width:1.5;" width="798" x="10" y="170.1094"/><rect fill="none" height="169.8633" style="stroke:#000000;stroke-width:1.5;" width="758" x="30" y="223.7305"/><rect fill="none" height="77.9316" style="stroke:#000000;stroke-width:1.5;" width="395.5" x="40" y="308.6621"/><rect fill="none" height="353.7266" style="stroke:#000000;stroke-width:1.5;" width="778" x="20" y="481.2148"/><rect fill="none" height="77.9316" style="stroke:#000000;stroke-width:1.5;" width="395.5" x="40" y="534.8359"/><rect fill="none" height="169.8633" style="stroke:#000000;stroke-width:1.5;" width="758" x="30" y="658.0781"/><rect fill="none" height="77.9316" style="stroke:#000000;stroke-width:1.5;" width="395.5" x="40" y="743.0098"/><line style="stroke:#181818;stroke-width:0.5;stroke-dasharray:5.0,5.0;" x1="68" x2="68" y1="81.4883" y2="888.252"/><line style="stroke:#181818;stroke-width:0.5;stroke-dasharray:5.0,5.0;" x1="394.5" x2="394.5" y1="81.4883" y2="888.252"/><line style="stroke:#181818;stroke-width:0.5;stroke-dasharray:5.0,5.0;" x1="739" x2="739" y1="81.4883" y2="888.252"/><text fill="#000000" font-family="sans-serif" font-size="14" lengthAdjust="spacing" textLength="31" x="50" y="78.5352">User</text><ellipse cx="68.5" cy="13.5" fill="#E2E2F0" rx="8" ry="8" style="stroke:#181818;stroke-width:0.5;"/><path d="M68.5,21.5 L68.5,48.5 M55.5,29.5 L81.5,29.5 M68.5,48.5 L55.5,63.5 M68.5,48.5 L81.5,63.5 " fill="none" style="stroke:#181818;stroke-width:0.5;"/><text fill="#000000" font-family="sans-serif" font-size="14" lengthAdjust="spacing" textLength="31" x="50" y="900.7871">User</text><ellipse cx="68.5" cy="912.2402" fill="#E2E2F0" rx="8" ry="8" style="stroke:#181818;stroke-width:0.5;"/><path d="M68.5,920.2402 L68.5,947.2402 M55.5,928.2402 L81.5,928.2402 M68.5,947.2402 L55.5,962.2402 M68.5,947.2402 L81.5,962.2402 " fill="none" style="stroke:#181818;stroke-width:0.5;"/><rect fill="#E2E2F0" height="30.4883" rx="2.5" ry="2.5" style="stroke:#181818;stroke-width:0.5;" width="62" x="363.5" y="50"/><text fill="#000000" font-family="sans-serif" font-size="14" lengthAdjust="spacing" textLength="48" x="370.5" y="70.5352">System</text><rect fill="#E2E2F0" height="30.4883" rx="2.5" ry="2.5" style="stroke:#181818;stroke-width:0.5;" width="62" x="363.5" y="887.252"/><text fill="#000000" font-family="sans-serif" font-size="14" lengthAdjust="spacing" textLength="48" x="370.5" y="907.7871">System</text><rect fill="#E2E2F0" height="30.4883" rx="2.5" ry="2.5" style="stroke:#181818;stroke-width:0.5;" width="77" x="701" y="50"/><text fill="#000000" font-family="sans-serif" font-size="14" lengthAdjust="spacing" textLength="63" x="708" y="70.5352">Database</text><rect fill="#E2E2F0" height="30.4883" rx="2.5" ry="2.5" style="stroke:#181818;stroke-width:0.5;" width="77" x="701" y="887.252"/><text fill="#000000" font-family="sans-serif" font-size="14" lengthAdjust="spacing" textLength="63" x="708" y="907.7871">Database</text><polygon fill="#181818" points="382.5,108.7988,392.5,112.7988,382.5,116.7988,386.5,112.7988" style="stroke:#181818;stroke-width:1.0;"/><line style="stroke:#181818;stroke-width:1.0;" x1="68.5" x2="388.5" y1="112.7988" y2="112.7988"/><text fill="#000000" font-family="sans-serif" font-size="13" lengthAdjust="spacing" textLength="263" x="75.5" y="108.0566">Retrieve inputs (id, name, signName, dob)</text><line style="stroke:#181818;stroke-width:1.0;" x1="394.5" x2="436.5" y1="142.1094" y2="142.1094"/><line style="stroke:#181818;stroke-width:1.0;" x1="436.5" x2="436.5" y1="142.1094" y2="155.1094"/><line style="stroke:#181818;stroke-width:1.0;" x1="395.5" x2="436.5" y1="155.1094" y2="155.1094"/><polygon fill="#181818" points="405.5,151.1094,395.5,155.1094,405.5,159.1094,401.5,155.1094" style="stroke:#181818;stroke-width:1.0;"/><text fill="#000000" font-family="sans-serif" font-size="13" lengthAdjust="spacing" textLength="272" x="401.5" y="137.3672">Create an Author object with the input data</text><path d="M10,170.1094 L72,170.1094 L72,177.4199 L62,187.4199 L10,187.4199 L10,170.1094 " fill="#EEEEEE" style="stroke:#000000;stroke-width:1.5;"/><rect fill="none" height="671.832" style="stroke:#000000;stroke-width:1.5;" width="798" x="10" y="170.1094"/><text fill="#000000" font-family="sans-serif" font-size="13" font-weight="bold" lengthAdjust="spacing" textLength="17" x="25" y="183.6777">alt</text><text fill="#000000" font-family="sans-serif" font-size="11" font-weight="bold" lengthAdjust="spacing" textLength="71" x="87" y="182.7441">[id is empty]</text><polygon fill="#181818" points="727.5,204.7305,737.5,208.7305,727.5,212.7305,731.5,208.7305" style="stroke:#181818;stroke-width:1.0;"/><line style="stroke:#181818;stroke-width:1.0;" x1="394.5" x2="733.5" y1="208.7305" y2="208.7305"/><text fill="#000000" font-family="sans-serif" font-size="13" lengthAdjust="spacing" textLength="300" x="401.5" y="203.9883">Check if Author with the same signName exists</text><path d="M30,223.7305 L92,223.7305 L92,231.041 L82,241.041 L30,241.041 L30,223.7305 " fill="#EEEEEE" style="stroke:#000000;stroke-width:1.5;"/><rect fill="none" height="169.8633" style="stroke:#000000;stroke-width:1.5;" width="758" x="30" y="223.7305"/><text fill="#000000" font-family="sans-serif" font-size="13" font-weight="bold" lengthAdjust="spacing" textLength="17" x="45" y="237.2988">alt</text><text fill="#000000" font-family="sans-serif" font-size="11" font-weight="bold" lengthAdjust="spacing" textLength="82" x="107" y="236.3652">[Author exists]</text><polygon fill="#181818" points="79.5,258.3516,69.5,262.3516,79.5,266.3516,75.5,262.3516" style="stroke:#181818;stroke-width:1.0;"/><line style="stroke:#181818;stroke-width:1.0;" x1="73.5" x2="393.5" y1="262.3516" y2="262.3516"/><text fill="#000000" font-family="sans-serif" font-size="13" lengthAdjust="spacing" textLength="264" x="85.5" y="257.6094">Show error message: "This Author exists!"</text><line style="stroke:#000000;stroke-width:1.0;stroke-dasharray:2.0,2.0;" x1="30" x2="788" y1="271.3516" y2="271.3516"/><polygon fill="#181818" points="727.5,289.6621,737.5,293.6621,727.5,297.6621,731.5,293.6621" style="stroke:#181818;stroke-width:1.0;"/><line style="stroke:#181818;stroke-width:1.0;" x1="394.5" x2="733.5" y1="293.6621" y2="293.6621"/><text fill="#000000" font-family="sans-serif" font-size="13" lengthAdjust="spacing" textLength="101" x="401.5" y="288.9199">Add new Author</text><path d="M40,308.6621 L102,308.6621 L102,315.9727 L92,325.9727 L40,325.9727 L40,308.6621 " fill="#EEEEEE" style="stroke:#000000;stroke-width:1.5;"/><rect fill="none" height="77.9316" style="stroke:#000000;stroke-width:1.5;" width="395.5" x="40" y="308.6621"/><text fill="#000000" font-family="sans-serif" font-size="13" font-weight="bold" lengthAdjust="spacing" textLength="17" x="55" y="322.2305">alt</text><text fill="#000000" font-family="sans-serif" font-size="11" font-weight="bold" lengthAdjust="spacing" textLength="93" x="117" y="321.2969">[Add successful]</text><polygon fill="#181818" points="79.5,343.2832,69.5,347.2832,79.5,351.2832,75.5,347.2832" style="stroke:#181818;stroke-width:1.0;"/><line style="stroke:#181818;stroke-width:1.0;" x1="73.5" x2="393.5" y1="347.2832" y2="347.2832"/><text fill="#000000" font-family="sans-serif" font-size="13" lengthAdjust="spacing" textLength="290" x="85.5" y="342.541">Show success message: "Added Successfully!"</text><line style="stroke:#000000;stroke-width:1.0;stroke-dasharray:2.0,2.0;" x1="40" x2="435.5" y1="356.2832" y2="356.2832"/><polygon fill="#181818" points="79.5,374.5938,69.5,378.5938,79.5,382.5938,75.5,378.5938" style="stroke:#181818;stroke-width:1.0;"/><line style="stroke:#181818;stroke-width:1.0;" x1="73.5" x2="393.5" y1="378.5938" y2="378.5938"/><text fill="#000000" font-family="sans-serif" font-size="13" lengthAdjust="spacing" textLength="214" x="85.5" y="373.8516">Show error message: "Added Fail!"</text><line style="stroke:#000000;stroke-width:1.0;stroke-dasharray:2.0,2.0;" x1="10" x2="808" y1="401.5938" y2="401.5938"/><line style="stroke:#181818;stroke-width:1.0;" x1="394.5" x2="436.5" y1="423.9043" y2="423.9043"/><line style="stroke:#181818;stroke-width:1.0;" x1="436.5" x2="436.5" y1="423.9043" y2="436.9043"/><line style="stroke:#181818;stroke-width:1.0;" x1="395.5" x2="436.5" y1="436.9043" y2="436.9043"/><polygon fill="#181818" points="405.5,432.9043,395.5,436.9043,405.5,440.9043,401.5,436.9043" style="stroke:#181818;stroke-width:1.0;"/><text fill="#000000" font-family="sans-serif" font-size="13" lengthAdjust="spacing" textLength="84" x="401.5" y="419.1621">Set Author ID</text><polygon fill="#181818" points="727.5,462.2148,737.5,466.2148,727.5,470.2148,731.5,466.2148" style="stroke:#181818;stroke-width:1.0;"/><line style="stroke:#181818;stroke-width:1.0;" x1="394.5" x2="733.5" y1="466.2148" y2="466.2148"/><text fill="#000000" font-family="sans-serif" font-size="13" lengthAdjust="spacing" textLength="321" x="401.5" y="461.4727">Check if Author's name matches the existing name</text><path d="M20,481.2148 L82,481.2148 L82,488.5254 L72,498.5254 L20,498.5254 L20,481.2148 " fill="#EEEEEE" style="stroke:#000000;stroke-width:1.5;"/><rect fill="none" height="353.7266" style="stroke:#000000;stroke-width:1.5;" width="778" x="20" y="481.2148"/><text fill="#000000" font-family="sans-serif" font-size="13" font-weight="bold" lengthAdjust="spacing" textLength="17" x="35" y="494.7832">alt</text><text fill="#000000" font-family="sans-serif" font-size="11" font-weight="bold" lengthAdjust="spacing" textLength="89" x="97" y="493.8496">[Name matches]</text><polygon fill="#181818" points="727.5,515.8359,737.5,519.8359,727.5,523.8359,731.5,519.8359" style="stroke:#181818;stroke-width:1.0;"/><line style="stroke:#181818;stroke-width:1.0;" x1="394.5" x2="733.5" y1="519.8359" y2="519.8359"/><text fill="#000000" font-family="sans-serif" font-size="13" lengthAdjust="spacing" textLength="91" x="401.5" y="515.0938">Update Author</text><path d="M40,534.8359 L102,534.8359 L102,542.1465 L92,552.1465 L40,552.1465 L40,534.8359 " fill="#EEEEEE" style="stroke:#000000;stroke-width:1.5;"/><rect fill="none" height="77.9316" style="stroke:#000000;stroke-width:1.5;" width="395.5" x="40" y="534.8359"/><text fill="#000000" font-family="sans-serif" font-size="13" font-weight="bold" lengthAdjust="spacing" textLength="17" x="55" y="548.4043">alt</text><text fill="#000000" font-family="sans-serif" font-size="11" font-weight="bold" lengthAdjust="spacing" textLength="109" x="117" y="547.4707">[Update successful]</text><polygon fill="#181818" points="79.5,569.457,69.5,573.457,79.5,577.457,75.5,573.457" style="stroke:#181818;stroke-width:1.0;"/><line style="stroke:#181818;stroke-width:1.0;" x1="73.5" x2="393.5" y1="573.457" y2="573.457"/><text fill="#000000" font-family="sans-serif" font-size="13" lengthAdjust="spacing" textLength="302" x="85.5" y="568.7148">Show success message: "Updated Successfully!"</text><line style="stroke:#000000;stroke-width:1.0;stroke-dasharray:2.0,2.0;" x1="40" x2="435.5" y1="582.457" y2="582.457"/><polygon fill="#181818" points="79.5,600.7676,69.5,604.7676,79.5,608.7676,75.5,604.7676" style="stroke:#181818;stroke-width:1.0;"/><line style="stroke:#181818;stroke-width:1.0;" x1="73.5" x2="393.5" y1="604.7676" y2="604.7676"/><text fill="#000000" font-family="sans-serif" font-size="13" lengthAdjust="spacing" textLength="226" x="85.5" y="600.0254">Show error message: "Updated Fail!"</text><line style="stroke:#000000;stroke-width:1.0;stroke-dasharray:2.0,2.0;" x1="20" x2="798" y1="620.7676" y2="620.7676"/><polygon fill="#181818" points="727.5,639.0781,737.5,643.0781,727.5,647.0781,731.5,643.0781" style="stroke:#181818;stroke-width:1.0;"/><line style="stroke:#181818;stroke-width:1.0;" x1="394.5" x2="733.5" y1="643.0781" y2="643.0781"/><text fill="#000000" font-family="sans-serif" font-size="13" lengthAdjust="spacing" textLength="300" x="401.5" y="638.3359">Check if Author with the same signName exists</text><path d="M30,658.0781 L92,658.0781 L92,665.3887 L82,675.3887 L30,675.3887 L30,658.0781 " fill="#EEEEEE" style="stroke:#000000;stroke-width:1.5;"/><rect fill="none" height="169.8633" style="stroke:#000000;stroke-width:1.5;" width="758" x="30" y="658.0781"/><text fill="#000000" font-family="sans-serif" font-size="13" font-weight="bold" lengthAdjust="spacing" textLength="17" x="45" y="671.6465">alt</text><text fill="#000000" font-family="sans-serif" font-size="11" font-weight="bold" lengthAdjust="spacing" textLength="82" x="107" y="670.7129">[Author exists]</text><polygon fill="#181818" points="79.5,692.6992,69.5,696.6992,79.5,700.6992,75.5,696.6992" style="stroke:#181818;stroke-width:1.0;"/><line style="stroke:#181818;stroke-width:1.0;" x1="73.5" x2="393.5" y1="696.6992" y2="696.6992"/><text fill="#000000" font-family="sans-serif" font-size="13" lengthAdjust="spacing" textLength="264" x="85.5" y="691.957">Show error message: "This Author exists!"</text><line style="stroke:#000000;stroke-width:1.0;stroke-dasharray:2.0,2.0;" x1="30" x2="788" y1="705.6992" y2="705.6992"/><polygon fill="#181818" points="727.5,724.0098,737.5,728.0098,727.5,732.0098,731.5,728.0098" style="stroke:#181818;stroke-width:1.0;"/><line style="stroke:#181818;stroke-width:1.0;" x1="394.5" x2="733.5" y1="728.0098" y2="728.0098"/><text fill="#000000" font-family="sans-serif" font-size="13" lengthAdjust="spacing" textLength="91" x="401.5" y="723.2676">Update Author</text><path d="M40,743.0098 L102,743.0098 L102,750.3203 L92,760.3203 L40,760.3203 L40,743.0098 " fill="#EEEEEE" style="stroke:#000000;stroke-width:1.5;"/><rect fill="none" height="77.9316" style="stroke:#000000;stroke-width:1.5;" width="395.5" x="40" y="743.0098"/><text fill="#000000" font-family="sans-serif" font-size="13" font-weight="bold" lengthAdjust="spacing" textLength="17" x="55" y="756.5781">alt</text><text fill="#000000" font-family="sans-serif" font-size="11" font-weight="bold" lengthAdjust="spacing" textLength="109" x="117" y="755.6445">[Update successful]</text><polygon fill="#181818" points="79.5,777.6309,69.5,781.6309,79.5,785.6309,75.5,781.6309" style="stroke:#181818;stroke-width:1.0;"/><line style="stroke:#181818;stroke-width:1.0;" x1="73.5" x2="393.5" y1="781.6309" y2="781.6309"/><text fill="#000000" font-family="sans-serif" font-size="13" lengthAdjust="spacing" textLength="302" x="85.5" y="776.8887">Show success message: "Updated Successfully!"</text><line style="stroke:#000000;stroke-width:1.0;stroke-dasharray:2.0,2.0;" x1="40" x2="435.5" y1="790.6309" y2="790.6309"/><polygon fill="#181818" points="79.5,808.9414,69.5,812.9414,79.5,816.9414,75.5,812.9414" style="stroke:#181818;stroke-width:1.0;"/><line style="stroke:#181818;stroke-width:1.0;" x1="73.5" x2="393.5" y1="812.9414" y2="812.9414"/><text fill="#000000" font-family="sans-serif" font-size="13" lengthAdjust="spacing" textLength="226" x="85.5" y="808.1992">Show error message: "Updated Fail!"</text><polygon fill="#181818" points="79.5,866.252,69.5,870.252,79.5,874.252,75.5,870.252" style="stroke:#181818;stroke-width:1.0;"/><line style="stroke:#181818;stroke-width:1.0;" x1="73.5" x2="393.5" y1="870.252" y2="870.252"/><text fill="#000000" font-family="sans-serif" font-size="13" lengthAdjust="spacing" textLength="151" x="85.5" y="865.5098">Refresh the data display</text><!--SRC=[hPHDReCm48NtFiMKJLiflK0MbP96bRh98ZG7SF0ak0M3F4DJRbzZ38KqwK-Q1GYDvtr-VXuX4ouih0cjAALbdUXI6eOeheanZq0Ij9_ZvOLakP64lc4n5w8XmDrzQ9x22jbgV4FGfgoOu4Qh2HYPumH8xypIVwbYSojQnL3xO54oWZGmgpXrzehD2oOCUyqfS1gOe9m78MJ6e1Le0inBhWN09t0nTx0KarVGsuxLGyXPwBq0lcjYSkg65rhxsf3P77GASLhi0QrrNJaIoHrE8NfEdOkHzYfoQim83o2DiPbIO70V1Bx1x-tAL2M9eswhp9TFR1-w1WQS5XN4lJghlO61XL-Uf0KzIfrr0AD4-mwehxSMOn_Sq-AdQxWcFmoGIqvI97yXFZ9jTdubtCHoq7GamtMfcaavY31KpqsnbLyanmxrDSdZC_7NOJqrhlyRs1FdF1xuzv5V8lIHdVE3xw8V3RDxn25mXLkBrERU_6D0QIepMNy0]--></g></svg>