<?xml version="1.0" encoding="us-ascii" standalone="no"?><svg xmlns="http://www.w3.org/2000/svg" xmlns:xlink="http://www.w3.org/1999/xlink" contentStyleType="text/css" height="454px" preserveAspectRatio="none" style="width:772px;height:454px;background:#FFFFFF;" version="1.1" viewBox="0 0 772 454" width="772px" zoomAndPan="magnify"><defs/><g><rect fill="none" height="169.8633" style="stroke:#000000;stroke-width:1.5;" width="755" x="10" y="157.1094"/><rect fill="none" height="77.9316" style="stroke:#000000;stroke-width:1.5;" width="469.5" x="20" y="210.7305"/><line style="stroke:#181818;stroke-width:0.5;stroke-dasharray:5.0,5.0;" x1="48" x2="48" y1="81.4883" y2="373.2832"/><line style="stroke:#181818;stroke-width:0.5;stroke-dasharray:5.0,5.0;" x1="448.5" x2="448.5" y1="81.4883" y2="373.2832"/><line style="stroke:#181818;stroke-width:0.5;stroke-dasharray:5.0,5.0;" x1="716" x2="716" y1="81.4883" y2="373.2832"/><text fill="#000000" font-family="sans-serif" font-size="14" lengthAdjust="spacing" textLength="31" x="30" y="78.5352">User</text><ellipse cx="48.5" cy="13.5" fill="#E2E2F0" rx="8" ry="8" style="stroke:#181818;stroke-width:0.5;"/><path d="M48.5,21.5 L48.5,48.5 M35.5,29.5 L61.5,29.5 M48.5,48.5 L35.5,63.5 M48.5,48.5 L61.5,63.5 " fill="none" style="stroke:#181818;stroke-width:0.5;"/><text fill="#000000" font-family="sans-serif" font-size="14" lengthAdjust="spacing" textLength="31" x="30" y="385.8184">User</text><ellipse cx="48.5" cy="397.2715" fill="#E2E2F0" rx="8" ry="8" style="stroke:#181818;stroke-width:0.5;"/><path d="M48.5,405.2715 L48.5,432.2715 M35.5,413.2715 L61.5,413.2715 M48.5,432.2715 L35.5,447.2715 M48.5,432.2715 L61.5,447.2715 " fill="none" style="stroke:#181818;stroke-width:0.5;"/><rect fill="#E2E2F0" height="30.4883" rx="2.5" ry="2.5" style="stroke:#181818;stroke-width:0.5;" width="62" x="417.5" y="50"/><text fill="#000000" font-family="sans-serif" font-size="14" lengthAdjust="spacing" textLength="48" x="424.5" y="70.5352">System</text><rect fill="#E2E2F0" height="30.4883" rx="2.5" ry="2.5" style="stroke:#181818;stroke-width:0.5;" width="62" x="417.5" y="372.2832"/><text fill="#000000" font-family="sans-serif" font-size="14" lengthAdjust="spacing" textLength="48" x="424.5" y="392.8184">System</text><rect fill="#E2E2F0" height="30.4883" rx="2.5" ry="2.5" style="stroke:#181818;stroke-width:0.5;" width="77" x="678" y="50"/><text fill="#000000" font-family="sans-serif" font-size="14" lengthAdjust="spacing" textLength="63" x="685" y="70.5352">Database</text><rect fill="#E2E2F0" height="30.4883" rx="2.5" ry="2.5" style="stroke:#181818;stroke-width:0.5;" width="77" x="678" y="372.2832"/><text fill="#000000" font-family="sans-serif" font-size="14" lengthAdjust="spacing" textLength="63" x="685" y="392.8184">Database</text><polygon fill="#181818" points="436.5,108.7988,446.5,112.7988,436.5,116.7988,440.5,112.7988" style="stroke:#181818;stroke-width:1.0;"/><line style="stroke:#181818;stroke-width:1.0;" x1="48.5" x2="442.5" y1="112.7988" y2="112.7988"/><text fill="#000000" font-family="sans-serif" font-size="13" lengthAdjust="spacing" textLength="186" x="55.5" y="108.0566">Retrieve Author ID from input</text><polygon fill="#181818" points="704.5,138.1094,714.5,142.1094,704.5,146.1094,708.5,142.1094" style="stroke:#181818;stroke-width:1.0;"/><line style="stroke:#181818;stroke-width:1.0;" x1="448.5" x2="710.5" y1="142.1094" y2="142.1094"/><text fill="#000000" font-family="sans-serif" font-size="13" lengthAdjust="spacing" textLength="244" x="455.5" y="137.3672">Fetch books associated with Author ID</text><path d="M10,157.1094 L72,157.1094 L72,164.4199 L62,174.4199 L10,174.4199 L10,157.1094 " fill="#EEEEEE" style="stroke:#000000;stroke-width:1.5;"/><rect fill="none" height="169.8633" style="stroke:#000000;stroke-width:1.5;" width="755" x="10" y="157.1094"/><text fill="#000000" font-family="sans-serif" font-size="13" font-weight="bold" lengthAdjust="spacing" textLength="17" x="25" y="170.6777">alt</text><text fill="#000000" font-family="sans-serif" font-size="11" font-weight="bold" lengthAdjust="spacing" textLength="125" x="87" y="169.7441">[Author has no books]</text><polygon fill="#181818" points="704.5,191.7305,714.5,195.7305,704.5,199.7305,708.5,195.7305" style="stroke:#181818;stroke-width:1.0;"/><line style="stroke:#181818;stroke-width:1.0;" x1="448.5" x2="710.5" y1="195.7305" y2="195.7305"/><text fill="#000000" font-family="sans-serif" font-size="13" lengthAdjust="spacing" textLength="87" x="455.5" y="190.9883">Delete Author</text><path d="M20,210.7305 L82,210.7305 L82,218.041 L72,228.041 L20,228.041 L20,210.7305 " fill="#EEEEEE" style="stroke:#000000;stroke-width:1.5;"/><rect fill="none" height="77.9316" style="stroke:#000000;stroke-width:1.5;" width="469.5" x="20" y="210.7305"/><text fill="#000000" font-family="sans-serif" font-size="13" font-weight="bold" lengthAdjust="spacing" textLength="17" x="35" y="224.2988">alt</text><text fill="#000000" font-family="sans-serif" font-size="11" font-weight="bold" lengthAdjust="spacing" textLength="106" x="97" y="223.3652">[Delete successful]</text><polygon fill="#181818" points="59.5,245.3516,49.5,249.3516,59.5,253.3516,55.5,249.3516" style="stroke:#181818;stroke-width:1.0;"/><line style="stroke:#181818;stroke-width:1.0;" x1="53.5" x2="447.5" y1="249.3516" y2="249.3516"/><text fill="#000000" font-family="sans-serif" font-size="13" lengthAdjust="spacing" textLength="298" x="65.5" y="244.6094">Show success message: "Deleted Successfully!"</text><line style="stroke:#000000;stroke-width:1.0;stroke-dasharray:2.0,2.0;" x1="20" x2="489.5" y1="258.3516" y2="258.3516"/><polygon fill="#181818" points="59.5,276.6621,49.5,280.6621,59.5,284.6621,55.5,280.6621" style="stroke:#181818;stroke-width:1.0;"/><line style="stroke:#181818;stroke-width:1.0;" x1="53.5" x2="447.5" y1="280.6621" y2="280.6621"/><text fill="#000000" font-family="sans-serif" font-size="13" lengthAdjust="spacing" textLength="222" x="65.5" y="275.9199">Show error message: "Deleted Fail!"</text><line style="stroke:#000000;stroke-width:1.0;stroke-dasharray:2.0,2.0;" x1="10" x2="765" y1="296.6621" y2="296.6621"/><polygon fill="#181818" points="59.5,314.9727,49.5,318.9727,59.5,322.9727,55.5,318.9727" style="stroke:#181818;stroke-width:1.0;"/><line style="stroke:#181818;stroke-width:1.0;" x1="53.5" x2="447.5" y1="318.9727" y2="318.9727"/><text fill="#000000" font-family="sans-serif" font-size="13" lengthAdjust="spacing" textLength="376" x="65.5" y="314.2305">Show message: "This author has books! Delete books first."</text><polygon fill="#181818" points="59.5,351.2832,49.5,355.2832,59.5,359.2832,55.5,355.2832" style="stroke:#181818;stroke-width:1.0;"/><line style="stroke:#181818;stroke-width:1.0;" x1="53.5" x2="447.5" y1="355.2832" y2="355.2832"/><text fill="#000000" font-family="sans-serif" font-size="13" lengthAdjust="spacing" textLength="127" x="65.5" y="350.541">Refresh data display</text><!--SRC=[TP59RiCm34NtEWNZVNi0Bmeq409q6wS7O6Iw4YfRXaWtyErBJtNJOID8vF-FWz19ol3Ab4sFMO8BFNO2HJMoK5i0CYpN-xH5mIiopG9xD6OYmCFJAYxXJ983VH0y3-Armek59gSMGjSFOXRLfBV74auapiCrfNTM72SNKAY6Mn2_sut1ADlJQzKkBHO3S8-p54csmfgTV6kC1-U8kHcYnh_xflPBg7owRHfezS0tAdNOsLn3zUMEuw5G0aMc_q6KixRw6tF241TxLviLyITWjrvyqDNiiy-37xQfbiqr8RCy5cQYcf-yCpMPs4Ej_mPru3xY-0a0]--></g></svg>