<?xml version="1.0" encoding="us-ascii" standalone="no"?><svg xmlns="http://www.w3.org/2000/svg" xmlns:xlink="http://www.w3.org/1999/xlink" contentStyleType="text/css" height="427px" preserveAspectRatio="none" style="width:947px;height:427px;background:#FFFFFF;" version="1.1" viewBox="0 0 947 427" width="947px" zoomAndPan="magnify"><defs/><g><ellipse cx="524.125" cy="20" fill="#222222" rx="10" ry="10" style="stroke:#222222;stroke-width:1.0;"/><rect fill="#F1F1F1" height="34.1328" rx="12.5" ry="12.5" style="stroke:#181818;stroke-width:0.5;" width="189" x="429.625" y="50"/><text fill="#000000" font-family="sans-serif" font-size="12" lengthAdjust="spacing" textLength="169" x="439.625" y="71.6016">Retrieve Author ID from input</text><rect fill="#F1F1F1" height="34.1328" rx="12.5" ry="12.5" style="stroke:#181818;stroke-width:0.5;" width="239" x="404.625" y="104.1328"/><text fill="#000000" font-family="sans-serif" font-size="12" lengthAdjust="spacing" textLength="219" x="414.625" y="125.7344">Fetch books associated with Author ID</text><polygon fill="#F1F1F1" points="465.125,158.2656,583.125,158.2656,595.125,170.2656,583.125,182.2656,465.125,182.2656,453.125,170.2656,465.125,158.2656" style="stroke:#181818;stroke-width:0.5;"/><text fill="#000000" font-family="sans-serif" font-size="11" lengthAdjust="spacing" textLength="118" x="465.125" y="174.4229">Author has no books?</text><text fill="#000000" font-family="sans-serif" font-size="11" lengthAdjust="spacing" textLength="19" x="434.125" y="167.9453">Yes</text><text fill="#000000" font-family="sans-serif" font-size="11" lengthAdjust="spacing" textLength="15" x="595.125" y="167.9453">No</text><polygon fill="#F1F1F1" points="223.75,192.2656,362.75,192.2656,374.75,204.2656,362.75,216.2656,223.75,216.2656,211.75,204.2656,223.75,192.2656" style="stroke:#181818;stroke-width:0.5;"/><text fill="#000000" font-family="sans-serif" font-size="11" lengthAdjust="spacing" textLength="139" x="223.75" y="208.4229">Delete Author successful?</text><text fill="#000000" font-family="sans-serif" font-size="11" lengthAdjust="spacing" textLength="19" x="192.75" y="201.9453">Yes</text><text fill="#000000" font-family="sans-serif" font-size="11" lengthAdjust="spacing" textLength="15" x="374.75" y="201.9453">No</text><rect fill="#F1F1F1" height="34.1328" rx="12.5" ry="12.5" style="stroke:#181818;stroke-width:0.5;" width="288" x="11" y="226.2656"/><text fill="#000000" font-family="sans-serif" font-size="12" lengthAdjust="spacing" textLength="268" x="21" y="247.8672">Show success message: "Deleted Successfully!"</text><rect fill="#F1F1F1" height="34.1328" rx="12.5" ry="12.5" style="stroke:#181818;stroke-width:0.5;" width="225" x="319" y="226.2656"/><text fill="#000000" font-family="sans-serif" font-size="12" lengthAdjust="spacing" textLength="205" x="329" y="247.8672">Show error message: "Deleted Fail!"</text><polygon fill="#F1F1F1" points="293.25,266.3984,305.25,278.3984,293.25,290.3984,281.25,278.3984,293.25,266.3984" style="stroke:#181818;stroke-width:0.5;"/><rect fill="#F1F1F1" height="34.1328" rx="12.5" ry="12.5" style="stroke:#181818;stroke-width:0.5;" width="362" x="574" y="192.2656"/><text fill="#000000" font-family="sans-serif" font-size="12" lengthAdjust="spacing" textLength="342" x="584" y="213.8672">Show message: "This author has books! Delete books first."</text><polygon fill="#F1F1F1" points="524.125,296.3984,536.125,308.3984,524.125,320.3984,512.125,308.3984,524.125,296.3984" style="stroke:#181818;stroke-width:0.5;"/><rect fill="#F1F1F1" height="34.1328" rx="12.5" ry="12.5" style="stroke:#181818;stroke-width:0.5;" width="139" x="454.625" y="340.3984"/><text fill="#000000" font-family="sans-serif" font-size="12" lengthAdjust="spacing" textLength="119" x="464.625" y="362">Refresh data display</text><ellipse cx="524.125" cy="405.5313" fill="none" rx="11" ry="11" style="stroke:#222222;stroke-width:1.0;"/><ellipse cx="524.125" cy="405.5313" fill="#222222" rx="6" ry="6" style="stroke:#222222;stroke-width:1.0;"/><line style="stroke:#181818;stroke-width:1.0;" x1="524.125" x2="524.125" y1="30" y2="50"/><polygon fill="#181818" points="520.125,40,524.125,50,528.125,40,524.125,44" style="stroke:#181818;stroke-width:1.0;"/><line style="stroke:#181818;stroke-width:1.0;" x1="524.125" x2="524.125" y1="84.1328" y2="104.1328"/><polygon fill="#181818" points="520.125,94.1328,524.125,104.1328,528.125,94.1328,524.125,98.1328" style="stroke:#181818;stroke-width:1.0;"/><line style="stroke:#181818;stroke-width:1.0;" x1="211.75" x2="155" y1="204.2656" y2="204.2656"/><line style="stroke:#181818;stroke-width:1.0;" x1="155" x2="155" y1="204.2656" y2="226.2656"/><polygon fill="#181818" points="151,216.2656,155,226.2656,159,216.2656,155,220.2656" style="stroke:#181818;stroke-width:1.0;"/><line style="stroke:#181818;stroke-width:1.0;" x1="374.75" x2="431.5" y1="204.2656" y2="204.2656"/><line style="stroke:#181818;stroke-width:1.0;" x1="431.5" x2="431.5" y1="204.2656" y2="226.2656"/><polygon fill="#181818" points="427.5,216.2656,431.5,226.2656,435.5,216.2656,431.5,220.2656" style="stroke:#181818;stroke-width:1.0;"/><line style="stroke:#181818;stroke-width:1.0;" x1="155" x2="155" y1="260.3984" y2="278.3984"/><line style="stroke:#181818;stroke-width:1.0;" x1="155" x2="281.25" y1="278.3984" y2="278.3984"/><polygon fill="#181818" points="271.25,274.3984,281.25,278.3984,271.25,282.3984,275.25,278.3984" style="stroke:#181818;stroke-width:1.0;"/><line style="stroke:#181818;stroke-width:1.0;" x1="431.5" x2="431.5" y1="260.3984" y2="278.3984"/><line style="stroke:#181818;stroke-width:1.0;" x1="431.5" x2="305.25" y1="278.3984" y2="278.3984"/><polygon fill="#181818" points="315.25,274.3984,305.25,278.3984,315.25,282.3984,311.25,278.3984" style="stroke:#181818;stroke-width:1.0;"/><line style="stroke:#181818;stroke-width:1.0;" x1="453.125" x2="293.25" y1="170.2656" y2="170.2656"/><line style="stroke:#181818;stroke-width:1.0;" x1="293.25" x2="293.25" y1="170.2656" y2="192.2656"/><polygon fill="#181818" points="289.25,182.2656,293.25,192.2656,297.25,182.2656,293.25,186.2656" style="stroke:#181818;stroke-width:1.0;"/><line style="stroke:#181818;stroke-width:1.0;" x1="595.125" x2="755" y1="170.2656" y2="170.2656"/><line style="stroke:#181818;stroke-width:1.0;" x1="755" x2="755" y1="170.2656" y2="192.2656"/><polygon fill="#181818" points="751,182.2656,755,192.2656,759,182.2656,755,186.2656" style="stroke:#181818;stroke-width:1.0;"/><line style="stroke:#181818;stroke-width:1.0;" x1="293.25" x2="293.25" y1="290.3984" y2="308.3984"/><line style="stroke:#181818;stroke-width:1.0;" x1="293.25" x2="512.125" y1="308.3984" y2="308.3984"/><polygon fill="#181818" points="502.125,304.3984,512.125,308.3984,502.125,312.3984,506.125,308.3984" style="stroke:#181818;stroke-width:1.0;"/><line style="stroke:#181818;stroke-width:1.0;" x1="755" x2="755" y1="226.3984" y2="308.3984"/><line style="stroke:#181818;stroke-width:1.0;" x1="755" x2="536.125" y1="308.3984" y2="308.3984"/><polygon fill="#181818" points="546.125,304.3984,536.125,308.3984,546.125,312.3984,542.125,308.3984" style="stroke:#181818;stroke-width:1.0;"/><line style="stroke:#181818;stroke-width:1.0;" x1="524.125" x2="524.125" y1="138.2656" y2="158.2656"/><polygon fill="#181818" points="520.125,148.2656,524.125,158.2656,528.125,148.2656,524.125,152.2656" style="stroke:#181818;stroke-width:1.0;"/><line style="stroke:#181818;stroke-width:1.0;" x1="524.125" x2="524.125" y1="320.3984" y2="340.3984"/><polygon fill="#181818" points="520.125,330.3984,524.125,340.3984,528.125,330.3984,524.125,334.3984" style="stroke:#181818;stroke-width:1.0;"/><line style="stroke:#181818;stroke-width:1.0;" x1="524.125" x2="524.125" y1="374.5313" y2="394.5313"/><polygon fill="#181818" points="520.125,384.5313,524.125,394.5313,528.125,384.5313,524.125,388.5313" style="stroke:#181818;stroke-width:1.0;"/><!--SRC=[PP2nJiCm48PtFyNVJkd20oG3GgegiJ1G5aOJd_49Duvy5wg-FKvT4a5li6Jf_xxJ_Q8sgsbVIJFJD-5fqf0odlVmEPt0mpXfPze3QH_maTANm8gadgsImvarh4Xd37iqjt-mWY5Lvd473JIWUIVP6PIPWtkAfCjAcVgUHFmKxzFpjCUGphyfdCfZFwd5jbeSZWiVBvjjT-Ke2g5vIVyjb7FPUEyuM8uBEpZsvg-XqYlt5hZqiTvxFNQ3ss6rBizPzA58gt3kscUI06VLmh6CqLuw8vh67m00]--></g></svg>