<?xml version="1.0" encoding="us-ascii" standalone="no"?><svg xmlns="http://www.w3.org/2000/svg" xmlns:xlink="http://www.w3.org/1999/xlink" contentStyleType="text/css" height="454px" preserveAspectRatio="none" style="width:703px;height:454px;background:#FFFFFF;" version="1.1" viewBox="0 0 703 454" width="703px" zoomAndPan="magnify"><defs/><g><rect fill="none" height="169.8633" style="stroke:#000000;stroke-width:1.5;" width="686" x="10" y="157.1094"/><rect fill="none" height="77.9316" style="stroke:#000000;stroke-width:1.5;" width="452.5" x="20" y="242.041"/><line style="stroke:#181818;stroke-width:0.5;stroke-dasharray:5.0,5.0;" x1="48" x2="48" y1="81.4883" y2="373.2832"/><line style="stroke:#181818;stroke-width:0.5;stroke-dasharray:5.0,5.0;" x1="431.5" x2="431.5" y1="81.4883" y2="373.2832"/><line style="stroke:#181818;stroke-width:0.5;stroke-dasharray:5.0,5.0;" x1="647" x2="647" y1="81.4883" y2="373.2832"/><text fill="#000000" font-family="sans-serif" font-size="14" lengthAdjust="spacing" textLength="31" x="30" y="78.5352">User</text><ellipse cx="48.5" cy="13.5" fill="#E2E2F0" rx="8" ry="8" style="stroke:#181818;stroke-width:0.5;"/><path d="M48.5,21.5 L48.5,48.5 M35.5,29.5 L61.5,29.5 M48.5,48.5 L35.5,63.5 M48.5,48.5 L61.5,63.5 " fill="none" style="stroke:#181818;stroke-width:0.5;"/><text fill="#000000" font-family="sans-serif" font-size="14" lengthAdjust="spacing" textLength="31" x="30" y="385.8184">User</text><ellipse cx="48.5" cy="397.2715" fill="#E2E2F0" rx="8" ry="8" style="stroke:#181818;stroke-width:0.5;"/><path d="M48.5,405.2715 L48.5,432.2715 M35.5,413.2715 L61.5,413.2715 M48.5,432.2715 L35.5,447.2715 M48.5,432.2715 L61.5,447.2715 " fill="none" style="stroke:#181818;stroke-width:0.5;"/><rect fill="#E2E2F0" height="30.4883" rx="2.5" ry="2.5" style="stroke:#181818;stroke-width:0.5;" width="62" x="400.5" y="50"/><text fill="#000000" font-family="sans-serif" font-size="14" lengthAdjust="spacing" textLength="48" x="407.5" y="70.5352">System</text><rect fill="#E2E2F0" height="30.4883" rx="2.5" ry="2.5" style="stroke:#181818;stroke-width:0.5;" width="62" x="400.5" y="372.2832"/><text fill="#000000" font-family="sans-serif" font-size="14" lengthAdjust="spacing" textLength="48" x="407.5" y="392.8184">System</text><rect fill="#E2E2F0" height="30.4883" rx="2.5" ry="2.5" style="stroke:#181818;stroke-width:0.5;" width="77" x="609" y="50"/><text fill="#000000" font-family="sans-serif" font-size="14" lengthAdjust="spacing" textLength="63" x="616" y="70.5352">Database</text><rect fill="#E2E2F0" height="30.4883" rx="2.5" ry="2.5" style="stroke:#181818;stroke-width:0.5;" width="77" x="609" y="372.2832"/><text fill="#000000" font-family="sans-serif" font-size="14" lengthAdjust="spacing" textLength="63" x="616" y="392.8184">Database</text><polygon fill="#181818" points="419.5,108.7988,429.5,112.7988,419.5,116.7988,423.5,112.7988" style="stroke:#181818;stroke-width:1.0;"/><line style="stroke:#181818;stroke-width:1.0;" x1="48.5" x2="425.5" y1="112.7988" y2="112.7988"/><text fill="#000000" font-family="sans-serif" font-size="13" lengthAdjust="spacing" textLength="121" x="55.5" y="108.0566">Click Delete Button</text><polygon fill="#181818" points="635.5,138.1094,645.5,142.1094,635.5,146.1094,639.5,142.1094" style="stroke:#181818;stroke-width:1.0;"/><line style="stroke:#181818;stroke-width:1.0;" x1="431.5" x2="641.5" y1="142.1094" y2="142.1094"/><text fill="#000000" font-family="sans-serif" font-size="13" lengthAdjust="spacing" textLength="192" x="438.5" y="137.3672">Retrieve books by Publisher ID</text><path d="M10,157.1094 L72,157.1094 L72,164.4199 L62,174.4199 L10,174.4199 L10,157.1094 " fill="#EEEEEE" style="stroke:#000000;stroke-width:1.5;"/><rect fill="none" height="169.8633" style="stroke:#000000;stroke-width:1.5;" width="686" x="10" y="157.1094"/><text fill="#000000" font-family="sans-serif" font-size="13" font-weight="bold" lengthAdjust="spacing" textLength="17" x="25" y="170.6777">alt</text><text fill="#000000" font-family="sans-serif" font-size="11" font-weight="bold" lengthAdjust="spacing" textLength="73" x="87" y="169.7441">[Books Exist]</text><polygon fill="#181818" points="59.5,191.7305,49.5,195.7305,59.5,199.7305,55.5,195.7305" style="stroke:#181818;stroke-width:1.0;"/><line style="stroke:#181818;stroke-width:1.0;" x1="53.5" x2="430.5" y1="195.7305" y2="195.7305"/><text fill="#000000" font-family="sans-serif" font-size="13" lengthAdjust="spacing" textLength="359" x="65.5" y="190.9883">Show alert "This publisher has books! Delete books first"</text><line style="stroke:#000000;stroke-width:1.0;stroke-dasharray:2.0,2.0;" x1="10" x2="696" y1="204.7305" y2="204.7305"/><polygon fill="#181818" points="635.5,223.041,645.5,227.041,635.5,231.041,639.5,227.041" style="stroke:#181818;stroke-width:1.0;"/><line style="stroke:#181818;stroke-width:1.0;" x1="431.5" x2="641.5" y1="227.041" y2="227.041"/><text fill="#000000" font-family="sans-serif" font-size="13" lengthAdjust="spacing" textLength="172" x="438.5" y="222.2988">Attempt to delete Publisher</text><path d="M20,242.041 L82,242.041 L82,249.3516 L72,259.3516 L20,259.3516 L20,242.041 " fill="#EEEEEE" style="stroke:#000000;stroke-width:1.5;"/><rect fill="none" height="77.9316" style="stroke:#000000;stroke-width:1.5;" width="452.5" x="20" y="242.041"/><text fill="#000000" font-family="sans-serif" font-size="13" font-weight="bold" lengthAdjust="spacing" textLength="17" x="35" y="255.6094">alt</text><text fill="#000000" font-family="sans-serif" font-size="11" font-weight="bold" lengthAdjust="spacing" textLength="90" x="97" y="254.6758">[Delete Success]</text><polygon fill="#181818" points="59.5,276.6621,49.5,280.6621,59.5,284.6621,55.5,280.6621" style="stroke:#181818;stroke-width:1.0;"/><line style="stroke:#181818;stroke-width:1.0;" x1="53.5" x2="430.5" y1="280.6621" y2="280.6621"/><text fill="#000000" font-family="sans-serif" font-size="13" lengthAdjust="spacing" textLength="213" x="65.5" y="275.9199">Show alert "Deleted Successfully!"</text><line style="stroke:#000000;stroke-width:1.0;stroke-dasharray:2.0,2.0;" x1="20" x2="472.5" y1="289.6621" y2="289.6621"/><polygon fill="#181818" points="59.5,307.9727,49.5,311.9727,59.5,315.9727,55.5,311.9727" style="stroke:#181818;stroke-width:1.0;"/><line style="stroke:#181818;stroke-width:1.0;" x1="53.5" x2="430.5" y1="311.9727" y2="311.9727"/><text fill="#000000" font-family="sans-serif" font-size="13" lengthAdjust="spacing" textLength="164" x="65.5" y="307.2305">Show alert "Delete Failed!"</text><polygon fill="#181818" points="59.5,351.2832,49.5,355.2832,59.5,359.2832,55.5,355.2832" style="stroke:#181818;stroke-width:1.0;"/><line style="stroke:#181818;stroke-width:1.0;" x1="53.5" x2="430.5" y1="355.2832" y2="355.2832"/><text fill="#000000" font-family="sans-serif" font-size="13" lengthAdjust="spacing" textLength="64" x="65.5" y="350.541">Refresh UI</text><!--SRC=[ZOvDReCm48NtFiKB-rw0HQLGMYcxAZG7C338LboCF4CJRbyRarJfekh2akttz-bEVC29AQX91x6TdVGeA9g5XJuBQ4Q-Figr5jrgfjLGLqgb1ZmzR-OIByvsPzJaI0ZLBE97bRNaggiIHv9WwOlGUdzcj0lUvzPPDh7eK2kbdQ1QfTUhPL70JpwjbMYClq0x2X7emrZ6T2ym4MljtTqOyifW0qkXo34z52QWlSJ7912FFcVkGD6RSBQgPkuwOewVVpDbUt_p3xDpoww8iMt-FscyQUkepx6nL-cetx4Z3O7Ou7Ju1W00]--></g></svg>