<?xml version="1.0" encoding="us-ascii" standalone="no"?><svg xmlns="http://www.w3.org/2000/svg" xmlns:xlink="http://www.w3.org/1999/xlink" contentStyleType="text/css" height="451px" preserveAspectRatio="none" style="width:799px;height:451px;background:#FFFFFF;" version="1.1" viewBox="0 0 799 451" width="799px" zoomAndPan="magnify"><defs/><g><ellipse cx="390.875" cy="20" fill="#222222" rx="10" ry="10" style="stroke:#222222;stroke-width:1.0;"/><rect fill="#F1F1F1" height="34.1328" rx="12.5" ry="12.5" style="stroke:#181818;stroke-width:0.5;" width="128" x="326.875" y="50"/><text fill="#000000" font-family="sans-serif" font-size="12" lengthAdjust="spacing" textLength="108" x="336.875" y="71.6016">Click Delete Button</text><rect fill="#F1F1F1" height="34.1328" rx="12.5" ry="12.5" style="stroke:#181818;stroke-width:0.5;" width="197" x="292.375" y="104.1328"/><text fill="#000000" font-family="sans-serif" font-size="12" lengthAdjust="spacing" textLength="177" x="302.375" y="125.7344">Retrieve books by Publisher ID</text><polygon fill="#F1F1F1" points="357.875,158.2656,423.875,158.2656,435.875,170.2656,423.875,182.2656,357.875,182.2656,345.875,170.2656,357.875,158.2656" style="stroke:#181818;stroke-width:0.5;"/><text fill="#000000" font-family="sans-serif" font-size="11" lengthAdjust="spacing" textLength="66" x="357.875" y="174.4229">Books Exist?</text><text fill="#000000" font-family="sans-serif" font-size="11" lengthAdjust="spacing" textLength="18" x="327.875" y="167.9453">yes</text><text fill="#000000" font-family="sans-serif" font-size="11" lengthAdjust="spacing" textLength="14" x="435.875" y="167.9453">no</text><rect fill="#F1F1F1" height="34.1328" rx="12.5" ry="12.5" style="stroke:#181818;stroke-width:0.5;" width="346" x="11" y="192.2656"/><text fill="#000000" font-family="sans-serif" font-size="12" lengthAdjust="spacing" textLength="326" x="21" y="213.8672">Show alert "This publisher has books! Delete books first"</text><ellipse cx="184" cy="257.3984" fill="none" rx="11" ry="11" style="stroke:#222222;stroke-width:1.0;"/><ellipse cx="184" cy="257.3984" fill="#222222" rx="6" ry="6" style="stroke:#222222;stroke-width:1.0;"/><rect fill="#F1F1F1" height="34.1328" rx="12.5" ry="12.5" style="stroke:#181818;stroke-width:0.5;" width="178" x="508.75" y="192.2656"/><text fill="#000000" font-family="sans-serif" font-size="12" lengthAdjust="spacing" textLength="158" x="518.75" y="213.8672">Attempt to delete Publisher</text><polygon fill="#F1F1F1" points="555.75,246.3984,639.75,246.3984,651.75,258.3984,639.75,270.3984,555.75,270.3984,543.75,258.3984,555.75,246.3984" style="stroke:#181818;stroke-width:0.5;"/><text fill="#000000" font-family="sans-serif" font-size="11" lengthAdjust="spacing" textLength="84" x="555.75" y="262.5557">Delete Success?</text><text fill="#000000" font-family="sans-serif" font-size="11" lengthAdjust="spacing" textLength="18" x="525.75" y="256.0781">yes</text><text fill="#000000" font-family="sans-serif" font-size="11" lengthAdjust="spacing" textLength="14" x="651.75" y="256.0781">no</text><rect fill="#F1F1F1" height="34.1328" rx="12.5" ry="12.5" style="stroke:#181818;stroke-width:0.5;" width="211" x="387" y="280.3984"/><text fill="#000000" font-family="sans-serif" font-size="12" lengthAdjust="spacing" textLength="191" x="397" y="302">Show alert "Deleted Successfully!"</text><rect fill="#F1F1F1" height="34.1328" rx="12.5" ry="12.5" style="stroke:#181818;stroke-width:0.5;" width="170" x="618" y="280.3984"/><text fill="#000000" font-family="sans-serif" font-size="12" lengthAdjust="spacing" textLength="150" x="628" y="302">Show alert "Delete Failed!"</text><polygon fill="#F1F1F1" points="597.75,320.5313,609.75,332.5313,597.75,344.5313,585.75,332.5313,597.75,320.5313" style="stroke:#181818;stroke-width:0.5;"/><rect fill="#F1F1F1" height="34.1328" rx="12.5" ry="12.5" style="stroke:#181818;stroke-width:0.5;" width="79" x="351.375" y="364.5313"/><text fill="#000000" font-family="sans-serif" font-size="12" lengthAdjust="spacing" textLength="59" x="361.375" y="386.1328">Refresh UI</text><ellipse cx="390.875" cy="429.6641" fill="none" rx="11" ry="11" style="stroke:#222222;stroke-width:1.0;"/><ellipse cx="390.875" cy="429.6641" fill="#222222" rx="6" ry="6" style="stroke:#222222;stroke-width:1.0;"/><line style="stroke:#181818;stroke-width:1.0;" x1="390.875" x2="390.875" y1="30" y2="50"/><polygon fill="#181818" points="386.875,40,390.875,50,394.875,40,390.875,44" style="stroke:#181818;stroke-width:1.0;"/><line style="stroke:#181818;stroke-width:1.0;" x1="390.875" x2="390.875" y1="84.1328" y2="104.1328"/><polygon fill="#181818" points="386.875,94.1328,390.875,104.1328,394.875,94.1328,390.875,98.1328" style="stroke:#181818;stroke-width:1.0;"/><line style="stroke:#181818;stroke-width:1.0;" x1="184" x2="184" y1="226.3984" y2="246.3984"/><polygon fill="#181818" points="180,236.3984,184,246.3984,188,236.3984,184,240.3984" style="stroke:#181818;stroke-width:1.0;"/><line style="stroke:#181818;stroke-width:1.0;" x1="543.75" x2="492.5" y1="258.3984" y2="258.3984"/><line style="stroke:#181818;stroke-width:1.0;" x1="492.5" x2="492.5" y1="258.3984" y2="280.3984"/><polygon fill="#181818" points="488.5,270.3984,492.5,280.3984,496.5,270.3984,492.5,274.3984" style="stroke:#181818;stroke-width:1.0;"/><line style="stroke:#181818;stroke-width:1.0;" x1="651.75" x2="703" y1="258.3984" y2="258.3984"/><line style="stroke:#181818;stroke-width:1.0;" x1="703" x2="703" y1="258.3984" y2="280.3984"/><polygon fill="#181818" points="699,270.3984,703,280.3984,707,270.3984,703,274.3984" style="stroke:#181818;stroke-width:1.0;"/><line style="stroke:#181818;stroke-width:1.0;" x1="492.5" x2="492.5" y1="314.5313" y2="332.5313"/><line style="stroke:#181818;stroke-width:1.0;" x1="492.5" x2="585.75" y1="332.5313" y2="332.5313"/><polygon fill="#181818" points="575.75,328.5313,585.75,332.5313,575.75,336.5313,579.75,332.5313" style="stroke:#181818;stroke-width:1.0;"/><line style="stroke:#181818;stroke-width:1.0;" x1="703" x2="703" y1="314.5313" y2="332.5313"/><line style="stroke:#181818;stroke-width:1.0;" x1="703" x2="609.75" y1="332.5313" y2="332.5313"/><polygon fill="#181818" points="619.75,328.5313,609.75,332.5313,619.75,336.5313,615.75,332.5313" style="stroke:#181818;stroke-width:1.0;"/><line style="stroke:#181818;stroke-width:1.0;" x1="597.75" x2="597.75" y1="226.3984" y2="246.3984"/><polygon fill="#181818" points="593.75,236.3984,597.75,246.3984,601.75,236.3984,597.75,240.3984" style="stroke:#181818;stroke-width:1.0;"/><line style="stroke:#181818;stroke-width:1.0;" x1="345.875" x2="184" y1="170.2656" y2="170.2656"/><line style="stroke:#181818;stroke-width:1.0;" x1="184" x2="184" y1="170.2656" y2="192.2656"/><polygon fill="#181818" points="180,182.2656,184,192.2656,188,182.2656,184,186.2656" style="stroke:#181818;stroke-width:1.0;"/><line style="stroke:#181818;stroke-width:1.0;" x1="435.875" x2="597.75" y1="170.2656" y2="170.2656"/><line style="stroke:#181818;stroke-width:1.0;" x1="597.75" x2="597.75" y1="170.2656" y2="192.2656"/><polygon fill="#181818" points="593.75,182.2656,597.75,192.2656,601.75,182.2656,597.75,186.2656" style="stroke:#181818;stroke-width:1.0;"/><line style="stroke:#181818;stroke-width:1.0;" x1="597.75" x2="597.75" y1="344.5313" y2="349.5313"/><line style="stroke:#181818;stroke-width:1.0;" x1="597.75" x2="390.875" y1="349.5313" y2="349.5313"/><line style="stroke:#181818;stroke-width:1.0;" x1="390.875" x2="390.875" y1="349.5313" y2="364.5313"/><polygon fill="#181818" points="386.875,354.5313,390.875,364.5313,394.875,354.5313,390.875,358.5313" style="stroke:#181818;stroke-width:1.0;"/><line style="stroke:#181818;stroke-width:1.0;" x1="390.875" x2="390.875" y1="138.2656" y2="158.2656"/><polygon fill="#181818" points="386.875,148.2656,390.875,158.2656,394.875,148.2656,390.875,152.2656" style="stroke:#181818;stroke-width:1.0;"/><line style="stroke:#181818;stroke-width:1.0;" x1="390.875" x2="390.875" y1="398.6641" y2="418.6641"/><polygon fill="#181818" points="386.875,408.6641,390.875,418.6641,394.875,408.6641,390.875,412.6641" style="stroke:#181818;stroke-width:1.0;"/><!--SRC=[RP3DRi9038Jl-nG3f_0AoG510Ictgj07o8zNQx5aexK3pTlJP05Lg1TVFD_CsA9LL6Fo3y_D6Jlof8Jje1gwmkHVf97fIgX3E0lg4Pz3xLaSHPIxmh15jfrN-nyMNQ-WZZfa8ydA0FdHXHigJr6nF3aMz2_SLP9S5y_Kb64vYYwBNreqz8Qy4B8kp7ORLRhq2Wre4_EgCm5JcuVNSMWQ4dalz5OfYTkdsWxUZuiv-s_iln0E5Njg7-gkPMlId9vc8ud3TrcO-OOx]--></g></svg>