<?xml version="1.0" encoding="us-ascii" standalone="no"?><svg xmlns="http://www.w3.org/2000/svg" xmlns:xlink="http://www.w3.org/1999/xlink" contentStyleType="text/css" height="956px" preserveAspectRatio="none" style="width:680px;height:956px;background:#FFFFFF;" version="1.1" viewBox="0 0 680 956" width="680px" zoomAndPan="magnify"><defs/><g><rect fill="none" height="671.832" style="stroke:#000000;stroke-width:1.5;" width="663" x="10" y="157.1094"/><rect fill="none" height="169.8633" style="stroke:#000000;stroke-width:1.5;" width="623" x="30" y="210.7305"/><rect fill="none" height="77.9316" style="stroke:#000000;stroke-width:1.5;" width="317.5" x="40" y="295.6621"/><rect fill="none" height="353.7266" style="stroke:#000000;stroke-width:1.5;" width="643" x="20" y="468.2148"/><rect fill="none" height="77.9316" style="stroke:#000000;stroke-width:1.5;" width="317.5" x="40" y="521.8359"/><rect fill="none" height="169.8633" style="stroke:#000000;stroke-width:1.5;" width="623" x="30" y="645.0781"/><rect fill="none" height="77.9316" style="stroke:#000000;stroke-width:1.5;" width="317.5" x="40" y="730.0098"/><line style="stroke:#181818;stroke-width:0.5;stroke-dasharray:5.0,5.0;" x1="68" x2="68" y1="81.4883" y2="875.252"/><line style="stroke:#181818;stroke-width:0.5;stroke-dasharray:5.0,5.0;" x1="316.5" x2="316.5" y1="81.4883" y2="875.252"/><line style="stroke:#181818;stroke-width:0.5;stroke-dasharray:5.0,5.0;" x1="604" x2="604" y1="81.4883" y2="875.252"/><text fill="#000000" font-family="sans-serif" font-size="14" lengthAdjust="spacing" textLength="31" x="50" y="78.5352">User</text><ellipse cx="68.5" cy="13.5" fill="#E2E2F0" rx="8" ry="8" style="stroke:#181818;stroke-width:0.5;"/><path d="M68.5,21.5 L68.5,48.5 M55.5,29.5 L81.5,29.5 M68.5,48.5 L55.5,63.5 M68.5,48.5 L81.5,63.5 " fill="none" style="stroke:#181818;stroke-width:0.5;"/><text fill="#000000" font-family="sans-serif" font-size="14" lengthAdjust="spacing" textLength="31" x="50" y="887.7871">User</text><ellipse cx="68.5" cy="899.2402" fill="#E2E2F0" rx="8" ry="8" style="stroke:#181818;stroke-width:0.5;"/><path d="M68.5,907.2402 L68.5,934.2402 M55.5,915.2402 L81.5,915.2402 M68.5,934.2402 L55.5,949.2402 M68.5,934.2402 L81.5,949.2402 " fill="none" style="stroke:#181818;stroke-width:0.5;"/><rect fill="#E2E2F0" height="30.4883" rx="2.5" ry="2.5" style="stroke:#181818;stroke-width:0.5;" width="62" x="285.5" y="50"/><text fill="#000000" font-family="sans-serif" font-size="14" lengthAdjust="spacing" textLength="48" x="292.5" y="70.5352">System</text><rect fill="#E2E2F0" height="30.4883" rx="2.5" ry="2.5" style="stroke:#181818;stroke-width:0.5;" width="62" x="285.5" y="874.252"/><text fill="#000000" font-family="sans-serif" font-size="14" lengthAdjust="spacing" textLength="48" x="292.5" y="894.7871">System</text><rect fill="#E2E2F0" height="30.4883" rx="2.5" ry="2.5" style="stroke:#181818;stroke-width:0.5;" width="77" x="566" y="50"/><text fill="#000000" font-family="sans-serif" font-size="14" lengthAdjust="spacing" textLength="63" x="573" y="70.5352">Database</text><rect fill="#E2E2F0" height="30.4883" rx="2.5" ry="2.5" style="stroke:#181818;stroke-width:0.5;" width="77" x="566" y="874.252"/><text fill="#000000" font-family="sans-serif" font-size="14" lengthAdjust="spacing" textLength="63" x="573" y="894.7871">Database</text><polygon fill="#181818" points="304.5,108.7988,314.5,112.7988,304.5,116.7988,308.5,112.7988" style="stroke:#181818;stroke-width:1.0;"/><line style="stroke:#181818;stroke-width:1.0;" x1="68.5" x2="310.5" y1="112.7988" y2="112.7988"/><text fill="#000000" font-family="sans-serif" font-size="13" lengthAdjust="spacing" textLength="87" x="75.5" y="108.0566">Validate input</text><polygon fill="#181818" points="592.5,138.1094,602.5,142.1094,592.5,146.1094,596.5,142.1094" style="stroke:#181818;stroke-width:1.0;"/><line style="stroke:#181818;stroke-width:1.0;" x1="316.5" x2="598.5" y1="142.1094" y2="142.1094"/><text fill="#000000" font-family="sans-serif" font-size="13" lengthAdjust="spacing" textLength="159" x="323.5" y="137.3672">Retrieve publisher details</text><path d="M10,157.1094 L72,157.1094 L72,164.4199 L62,174.4199 L10,174.4199 L10,157.1094 " fill="#EEEEEE" style="stroke:#000000;stroke-width:1.5;"/><rect fill="none" height="671.832" style="stroke:#000000;stroke-width:1.5;" width="663" x="10" y="157.1094"/><text fill="#000000" font-family="sans-serif" font-size="13" font-weight="bold" lengthAdjust="spacing" textLength="17" x="25" y="170.6777">alt</text><text fill="#000000" font-family="sans-serif" font-size="11" font-weight="bold" lengthAdjust="spacing" textLength="71" x="87" y="169.7441">[id is empty]</text><polygon fill="#181818" points="592.5,191.7305,602.5,195.7305,592.5,199.7305,596.5,195.7305" style="stroke:#181818;stroke-width:1.0;"/><line style="stroke:#181818;stroke-width:1.0;" x1="316.5" x2="598.5" y1="195.7305" y2="195.7305"/><text fill="#000000" font-family="sans-serif" font-size="13" lengthAdjust="spacing" textLength="233" x="323.5" y="190.9883">Check if Publishing with name exists</text><path d="M30,210.7305 L92,210.7305 L92,218.041 L82,228.041 L30,228.041 L30,210.7305 " fill="#EEEEEE" style="stroke:#000000;stroke-width:1.5;"/><rect fill="none" height="169.8633" style="stroke:#000000;stroke-width:1.5;" width="623" x="30" y="210.7305"/><text fill="#000000" font-family="sans-serif" font-size="13" font-weight="bold" lengthAdjust="spacing" textLength="17" x="45" y="224.2988">alt</text><text fill="#000000" font-family="sans-serif" font-size="11" font-weight="bold" lengthAdjust="spacing" textLength="104" x="107" y="223.3652">[Publishing exists]</text><polygon fill="#181818" points="79.5,245.3516,69.5,249.3516,79.5,253.3516,75.5,249.3516" style="stroke:#181818;stroke-width:1.0;"/><line style="stroke:#181818;stroke-width:1.0;" x1="73.5" x2="315.5" y1="249.3516" y2="249.3516"/><text fill="#000000" font-family="sans-serif" font-size="13" lengthAdjust="spacing" textLength="224" x="85.5" y="244.6094">Show error "This Publishing exists!"</text><line style="stroke:#000000;stroke-width:1.0;stroke-dasharray:2.0,2.0;" x1="30" x2="653" y1="258.3516" y2="258.3516"/><polygon fill="#181818" points="592.5,276.6621,602.5,280.6621,592.5,284.6621,596.5,280.6621" style="stroke:#181818;stroke-width:1.0;"/><line style="stroke:#181818;stroke-width:1.0;" x1="316.5" x2="598.5" y1="280.6621" y2="280.6621"/><text fill="#000000" font-family="sans-serif" font-size="13" lengthAdjust="spacing" textLength="124" x="323.5" y="275.9199">Add new Publishing</text><path d="M40,295.6621 L102,295.6621 L102,302.9727 L92,312.9727 L40,312.9727 L40,295.6621 " fill="#EEEEEE" style="stroke:#000000;stroke-width:1.5;"/><rect fill="none" height="77.9316" style="stroke:#000000;stroke-width:1.5;" width="317.5" x="40" y="295.6621"/><text fill="#000000" font-family="sans-serif" font-size="13" font-weight="bold" lengthAdjust="spacing" textLength="17" x="55" y="309.2305">alt</text><text fill="#000000" font-family="sans-serif" font-size="11" font-weight="bold" lengthAdjust="spacing" textLength="77" x="117" y="308.2969">[Add success]</text><polygon fill="#181818" points="79.5,330.2832,69.5,334.2832,79.5,338.2832,75.5,334.2832" style="stroke:#181818;stroke-width:1.0;"/><line style="stroke:#181818;stroke-width:1.0;" x1="73.5" x2="315.5" y1="334.2832" y2="334.2832"/><text fill="#000000" font-family="sans-serif" font-size="13" lengthAdjust="spacing" textLength="119" x="85.5" y="329.541">Show success alert</text><line style="stroke:#000000;stroke-width:1.0;stroke-dasharray:2.0,2.0;" x1="40" x2="357.5" y1="343.2832" y2="343.2832"/><polygon fill="#181818" points="79.5,361.5938,69.5,365.5938,79.5,369.5938,75.5,365.5938" style="stroke:#181818;stroke-width:1.0;"/><line style="stroke:#181818;stroke-width:1.0;" x1="73.5" x2="315.5" y1="365.5938" y2="365.5938"/><text fill="#000000" font-family="sans-serif" font-size="13" lengthAdjust="spacing" textLength="149" x="85.5" y="360.8516">Show error "Add failed!"</text><line style="stroke:#000000;stroke-width:1.0;stroke-dasharray:2.0,2.0;" x1="10" x2="673" y1="388.5938" y2="388.5938"/><line style="stroke:#181818;stroke-width:1.0;" x1="316.5" x2="358.5" y1="410.9043" y2="410.9043"/><line style="stroke:#181818;stroke-width:1.0;" x1="358.5" x2="358.5" y1="410.9043" y2="423.9043"/><line style="stroke:#181818;stroke-width:1.0;" x1="317.5" x2="358.5" y1="423.9043" y2="423.9043"/><polygon fill="#181818" points="327.5,419.9043,317.5,423.9043,327.5,427.9043,323.5,423.9043" style="stroke:#181818;stroke-width:1.0;"/><text fill="#000000" font-family="sans-serif" font-size="13" lengthAdjust="spacing" textLength="100" x="323.5" y="406.1621">Set publisher ID</text><polygon fill="#181818" points="592.5,449.2148,602.5,453.2148,592.5,457.2148,596.5,453.2148" style="stroke:#181818;stroke-width:1.0;"/><line style="stroke:#181818;stroke-width:1.0;" x1="316.5" x2="598.5" y1="453.2148" y2="453.2148"/><text fill="#000000" font-family="sans-serif" font-size="13" lengthAdjust="spacing" textLength="264" x="323.5" y="448.4727">Check if Publisher name matches existing</text><path d="M20,468.2148 L82,468.2148 L82,475.5254 L72,485.5254 L20,485.5254 L20,468.2148 " fill="#EEEEEE" style="stroke:#000000;stroke-width:1.5;"/><rect fill="none" height="353.7266" style="stroke:#000000;stroke-width:1.5;" width="643" x="20" y="468.2148"/><text fill="#000000" font-family="sans-serif" font-size="13" font-weight="bold" lengthAdjust="spacing" textLength="17" x="35" y="481.7832">alt</text><text fill="#000000" font-family="sans-serif" font-size="11" font-weight="bold" lengthAdjust="spacing" textLength="89" x="97" y="480.8496">[Name matches]</text><polygon fill="#181818" points="592.5,502.8359,602.5,506.8359,592.5,510.8359,596.5,506.8359" style="stroke:#181818;stroke-width:1.0;"/><line style="stroke:#181818;stroke-width:1.0;" x1="316.5" x2="598.5" y1="506.8359" y2="506.8359"/><text fill="#000000" font-family="sans-serif" font-size="13" lengthAdjust="spacing" textLength="169" x="323.5" y="502.0938">Update existing Publishing</text><path d="M40,521.8359 L102,521.8359 L102,529.1465 L92,539.1465 L40,539.1465 L40,521.8359 " fill="#EEEEEE" style="stroke:#000000;stroke-width:1.5;"/><rect fill="none" height="77.9316" style="stroke:#000000;stroke-width:1.5;" width="317.5" x="40" y="521.8359"/><text fill="#000000" font-family="sans-serif" font-size="13" font-weight="bold" lengthAdjust="spacing" textLength="17" x="55" y="535.4043">alt</text><text fill="#000000" font-family="sans-serif" font-size="11" font-weight="bold" lengthAdjust="spacing" textLength="93" x="117" y="534.4707">[Update success]</text><polygon fill="#181818" points="79.5,556.457,69.5,560.457,79.5,564.457,75.5,560.457" style="stroke:#181818;stroke-width:1.0;"/><line style="stroke:#181818;stroke-width:1.0;" x1="73.5" x2="315.5" y1="560.457" y2="560.457"/><text fill="#000000" font-family="sans-serif" font-size="13" lengthAdjust="spacing" textLength="119" x="85.5" y="555.7148">Show success alert</text><line style="stroke:#000000;stroke-width:1.0;stroke-dasharray:2.0,2.0;" x1="40" x2="357.5" y1="569.457" y2="569.457"/><polygon fill="#181818" points="79.5,587.7676,69.5,591.7676,79.5,595.7676,75.5,591.7676" style="stroke:#181818;stroke-width:1.0;"/><line style="stroke:#181818;stroke-width:1.0;" x1="73.5" x2="315.5" y1="591.7676" y2="591.7676"/><text fill="#000000" font-family="sans-serif" font-size="13" lengthAdjust="spacing" textLength="168" x="85.5" y="587.0254">Show error "Update failed!"</text><line style="stroke:#000000;stroke-width:1.0;stroke-dasharray:2.0,2.0;" x1="20" x2="663" y1="607.7676" y2="607.7676"/><polygon fill="#181818" points="592.5,626.0781,602.5,630.0781,592.5,634.0781,596.5,630.0781" style="stroke:#181818;stroke-width:1.0;"/><line style="stroke:#181818;stroke-width:1.0;" x1="316.5" x2="598.5" y1="630.0781" y2="630.0781"/><text fill="#000000" font-family="sans-serif" font-size="13" lengthAdjust="spacing" textLength="233" x="323.5" y="625.3359">Check if Publishing with name exists</text><path d="M30,645.0781 L92,645.0781 L92,652.3887 L82,662.3887 L30,662.3887 L30,645.0781 " fill="#EEEEEE" style="stroke:#000000;stroke-width:1.5;"/><rect fill="none" height="169.8633" style="stroke:#000000;stroke-width:1.5;" width="623" x="30" y="645.0781"/><text fill="#000000" font-family="sans-serif" font-size="13" font-weight="bold" lengthAdjust="spacing" textLength="17" x="45" y="658.6465">alt</text><text fill="#000000" font-family="sans-serif" font-size="11" font-weight="bold" lengthAdjust="spacing" textLength="104" x="107" y="657.7129">[Publishing exists]</text><polygon fill="#181818" points="79.5,679.6992,69.5,683.6992,79.5,687.6992,75.5,683.6992" style="stroke:#181818;stroke-width:1.0;"/><line style="stroke:#181818;stroke-width:1.0;" x1="73.5" x2="315.5" y1="683.6992" y2="683.6992"/><text fill="#000000" font-family="sans-serif" font-size="13" lengthAdjust="spacing" textLength="224" x="85.5" y="678.957">Show error "This Publishing exists!"</text><line style="stroke:#000000;stroke-width:1.0;stroke-dasharray:2.0,2.0;" x1="30" x2="653" y1="692.6992" y2="692.6992"/><polygon fill="#181818" points="592.5,711.0098,602.5,715.0098,592.5,719.0098,596.5,715.0098" style="stroke:#181818;stroke-width:1.0;"/><line style="stroke:#181818;stroke-width:1.0;" x1="316.5" x2="598.5" y1="715.0098" y2="715.0098"/><text fill="#000000" font-family="sans-serif" font-size="13" lengthAdjust="spacing" textLength="114" x="323.5" y="710.2676">Update Publishing</text><path d="M40,730.0098 L102,730.0098 L102,737.3203 L92,747.3203 L40,747.3203 L40,730.0098 " fill="#EEEEEE" style="stroke:#000000;stroke-width:1.5;"/><rect fill="none" height="77.9316" style="stroke:#000000;stroke-width:1.5;" width="317.5" x="40" y="730.0098"/><text fill="#000000" font-family="sans-serif" font-size="13" font-weight="bold" lengthAdjust="spacing" textLength="17" x="55" y="743.5781">alt</text><text fill="#000000" font-family="sans-serif" font-size="11" font-weight="bold" lengthAdjust="spacing" textLength="93" x="117" y="742.6445">[Update success]</text><polygon fill="#181818" points="79.5,764.6309,69.5,768.6309,79.5,772.6309,75.5,768.6309" style="stroke:#181818;stroke-width:1.0;"/><line style="stroke:#181818;stroke-width:1.0;" x1="73.5" x2="315.5" y1="768.6309" y2="768.6309"/><text fill="#000000" font-family="sans-serif" font-size="13" lengthAdjust="spacing" textLength="119" x="85.5" y="763.8887">Show success alert</text><line style="stroke:#000000;stroke-width:1.0;stroke-dasharray:2.0,2.0;" x1="40" x2="357.5" y1="777.6309" y2="777.6309"/><polygon fill="#181818" points="79.5,795.9414,69.5,799.9414,79.5,803.9414,75.5,799.9414" style="stroke:#181818;stroke-width:1.0;"/><line style="stroke:#181818;stroke-width:1.0;" x1="73.5" x2="315.5" y1="799.9414" y2="799.9414"/><text fill="#000000" font-family="sans-serif" font-size="13" lengthAdjust="spacing" textLength="168" x="85.5" y="795.1992">Show error "Update failed!"</text><polygon fill="#181818" points="79.5,853.252,69.5,857.252,79.5,861.252,75.5,857.252" style="stroke:#181818;stroke-width:1.0;"/><line style="stroke:#181818;stroke-width:1.0;" x1="73.5" x2="315.5" y1="857.252" y2="857.252"/><text fill="#000000" font-family="sans-serif" font-size="13" lengthAdjust="spacing" textLength="95" x="85.5" y="852.5098">Refresh UI data</text><!--SRC=[jPB1JiCm38RlUGhJEo-m0nAZbrqGsXXth_68HTjLiSVOsvCqtMX7DmOIXqPLyl-_dI_6GZSUbaBUDEYL2swmLiWMUr6gCa21z3iypb5nXKAj89yQ4nFWzguJJ-05IxQe15mtMpLfEmhowGJcf9xfdQ3PhaeM5woM5BaKOx1KO0iiG5MZUmCmz3uuAjw0r_2Kl5o_mexLGOqL0Nsmg0HJZEafZllzkDZp11PkimFoFc38dbse-yrsamKZbK8d_jZElRLGqwvdQaMnV3oIRL6GfC9dIdUIO26lhV1OwdApCNyTe95j6mo-sfgqTWbVxiEpB4Xxq6VvZtY3gWLReHQE9159juntVEoTZT1PDkqC74nZb3h9VuBgIeon6d_KAsViqfJzUSxEtAf7ymJY1OnNWnmK_JtC0yx128RFd0RDQUr972nd45Bm4m00]--></g></svg>