<?xml version="1.0" encoding="us-ascii" standalone="no"?><svg xmlns="http://www.w3.org/2000/svg" xmlns:xlink="http://www.w3.org/1999/xlink" contentStyleType="text/css" height="693px" preserveAspectRatio="none" style="width:1575px;height:693px;background:#FFFFFF;" version="1.1" viewBox="0 0 1575 693" width="1575px" zoomAndPan="magnify"><defs/><g><ellipse cx="637.4688" cy="20" fill="#222222" rx="10" ry="10" style="stroke:#222222;stroke-width:1.0;"/><rect fill="#F1F1F1" height="34.1328" rx="12.5" ry="12.5" style="stroke:#181818;stroke-width:0.5;" width="100" x="587.4688" y="50"/><text fill="#000000" font-family="sans-serif" font-size="12" lengthAdjust="spacing" textLength="80" x="597.4688" y="71.6016">Validate input</text><rect fill="#F1F1F1" height="34.1328" rx="12.5" ry="12.5" style="stroke:#181818;stroke-width:0.5;" width="167" x="553.9688" y="104.1328"/><text fill="#000000" font-family="sans-serif" font-size="12" lengthAdjust="spacing" textLength="147" x="563.9688" y="125.7344">Retrieve publisher details</text><polygon fill="#F1F1F1" points="605.9688,158.2656,668.9688,158.2656,680.9688,170.2656,668.9688,182.2656,605.9688,182.2656,593.9688,170.2656,605.9688,158.2656" style="stroke:#181818;stroke-width:0.5;"/><text fill="#000000" font-family="sans-serif" font-size="11" lengthAdjust="spacing" textLength="63" x="605.9688" y="174.4229">id is empty?</text><text fill="#000000" font-family="sans-serif" font-size="11" lengthAdjust="spacing" textLength="19" x="574.9688" y="167.9453">Yes</text><text fill="#000000" font-family="sans-serif" font-size="11" lengthAdjust="spacing" textLength="15" x="680.9688" y="167.9453">No</text><polygon fill="#F1F1F1" points="187.625,192.2656,340.625,192.2656,352.625,204.2656,340.625,216.2656,187.625,216.2656,175.625,204.2656,187.625,192.2656" style="stroke:#181818;stroke-width:0.5;"/><text fill="#000000" font-family="sans-serif" font-size="11" lengthAdjust="spacing" textLength="153" x="187.625" y="208.4229">Publishing with name exists?</text><text fill="#000000" font-family="sans-serif" font-size="11" lengthAdjust="spacing" textLength="19" x="156.625" y="201.9453">Yes</text><text fill="#000000" font-family="sans-serif" font-size="11" lengthAdjust="spacing" textLength="15" x="352.625" y="201.9453">No</text><rect fill="#F1F1F1" height="34.1328" rx="12.5" ry="12.5" style="stroke:#181818;stroke-width:0.5;" width="221" x="11" y="226.2656"/><text fill="#000000" font-family="sans-serif" font-size="12" lengthAdjust="spacing" textLength="201" x="21" y="247.8672">Show error "This Publishing exists!"</text><rect fill="#F1F1F1" height="34.1328" rx="12.5" ry="12.5" style="stroke:#181818;stroke-width:0.5;" width="133" x="340.25" y="226.2656"/><text fill="#000000" font-family="sans-serif" font-size="12" lengthAdjust="spacing" textLength="113" x="350.25" y="247.8672">Add new Publishing</text><polygon fill="#F1F1F1" points="370.25,295.3984,443.25,295.3984,455.25,307.3984,443.25,319.3984,370.25,319.3984,358.25,307.3984,370.25,295.3984" style="stroke:#181818;stroke-width:0.5;"/><text fill="#000000" font-family="sans-serif" font-size="11" lengthAdjust="spacing" textLength="73" x="370.25" y="311.5557">Add success?</text><text fill="#000000" font-family="sans-serif" font-size="11" lengthAdjust="spacing" textLength="19" x="339.25" y="305.0781">Yes</text><text fill="#000000" font-family="sans-serif" font-size="11" lengthAdjust="spacing" textLength="15" x="455.25" y="305.0781">No</text><rect fill="#F1F1F1" height="34.1328" rx="12.5" ry="12.5" style="stroke:#181818;stroke-width:0.5;" width="127" x="262" y="329.3984"/><text fill="#000000" font-family="sans-serif" font-size="12" lengthAdjust="spacing" textLength="107" x="272" y="351">Show success alert</text><rect fill="#F1F1F1" height="34.1328" rx="12.5" ry="12.5" style="stroke:#181818;stroke-width:0.5;" width="158" x="409" y="329.3984"/><text fill="#000000" font-family="sans-serif" font-size="12" lengthAdjust="spacing" textLength="138" x="419" y="351">Show error "Add failed!"</text><polygon fill="#F1F1F1" points="406.75,369.5313,418.75,381.5313,406.75,393.5313,394.75,381.5313,406.75,369.5313" style="stroke:#181818;stroke-width:0.5;"/><polygon fill="#F1F1F1" points="264.125,399.5313,276.125,411.5313,264.125,423.5313,252.125,411.5313,264.125,399.5313" style="stroke:#181818;stroke-width:0.5;"/><rect fill="#F1F1F1" height="34.1328" rx="12.5" ry="12.5" style="stroke:#181818;stroke-width:0.5;" width="111" x="955.3125" y="192.2656"/><text fill="#000000" font-family="sans-serif" font-size="12" lengthAdjust="spacing" textLength="91" x="965.3125" y="213.8672">Set publisher ID</text><polygon fill="#F1F1F1" points="920.3125,261.3984,1101.3125,261.3984,1113.3125,273.3984,1101.3125,285.3984,920.3125,285.3984,908.3125,273.3984,920.3125,261.3984" style="stroke:#181818;stroke-width:0.5;"/><text fill="#000000" font-family="sans-serif" font-size="11" lengthAdjust="spacing" textLength="181" x="920.3125" y="277.5557">Publisher name matches existing?</text><text fill="#000000" font-family="sans-serif" font-size="11" lengthAdjust="spacing" textLength="19" x="889.3125" y="271.0781">Yes</text><text fill="#000000" font-family="sans-serif" font-size="11" lengthAdjust="spacing" textLength="15" x="1113.3125" y="271.0781">No</text><rect fill="#F1F1F1" height="34.1328" rx="12.5" ry="12.5" style="stroke:#181818;stroke-width:0.5;" width="172" x="690.25" y="295.3984"/><text fill="#000000" font-family="sans-serif" font-size="12" lengthAdjust="spacing" textLength="152" x="700.25" y="317">Update existing Publishing</text><polygon fill="#F1F1F1" points="731.75,364.5313,820.75,364.5313,832.75,376.5313,820.75,388.5313,731.75,388.5313,719.75,376.5313,731.75,364.5313" style="stroke:#181818;stroke-width:0.5;"/><text fill="#000000" font-family="sans-serif" font-size="11" lengthAdjust="spacing" textLength="89" x="731.75" y="380.6885">Update success?</text><text fill="#000000" font-family="sans-serif" font-size="11" lengthAdjust="spacing" textLength="19" x="700.75" y="374.2109">Yes</text><text fill="#000000" font-family="sans-serif" font-size="11" lengthAdjust="spacing" textLength="15" x="832.75" y="374.2109">No</text><rect fill="#F1F1F1" height="34.1328" rx="12.5" ry="12.5" style="stroke:#181818;stroke-width:0.5;" width="127" x="627" y="398.5313"/><text fill="#000000" font-family="sans-serif" font-size="12" lengthAdjust="spacing" textLength="107" x="637" y="420.1328">Show success alert</text><rect fill="#F1F1F1" height="34.1328" rx="12.5" ry="12.5" style="stroke:#181818;stroke-width:0.5;" width="176" x="774" y="398.5313"/><text fill="#000000" font-family="sans-serif" font-size="12" lengthAdjust="spacing" textLength="156" x="784" y="420.1328">Show error "Update failed!"</text><polygon fill="#F1F1F1" points="776.25,438.6641,788.25,450.6641,776.25,462.6641,764.25,450.6641,776.25,438.6641" style="stroke:#181818;stroke-width:0.5;"/><polygon fill="#F1F1F1" points="1168.875,295.3984,1321.875,295.3984,1333.875,307.3984,1321.875,319.3984,1168.875,319.3984,1156.875,307.3984,1168.875,295.3984" style="stroke:#181818;stroke-width:0.5;"/><text fill="#000000" font-family="sans-serif" font-size="11" lengthAdjust="spacing" textLength="153" x="1168.875" y="311.5557">Publishing with name exists?</text><text fill="#000000" font-family="sans-serif" font-size="11" lengthAdjust="spacing" textLength="19" x="1137.875" y="305.0781">Yes</text><text fill="#000000" font-family="sans-serif" font-size="11" lengthAdjust="spacing" textLength="15" x="1333.875" y="305.0781">No</text><rect fill="#F1F1F1" height="34.1328" rx="12.5" ry="12.5" style="stroke:#181818;stroke-width:0.5;" width="221" x="990" y="329.3984"/><text fill="#000000" font-family="sans-serif" font-size="12" lengthAdjust="spacing" textLength="201" x="1000" y="351">Show error "This Publishing exists!"</text><rect fill="#F1F1F1" height="34.1328" rx="12.5" ry="12.5" style="stroke:#181818;stroke-width:0.5;" width="124" x="1328.25" y="329.3984"/><text fill="#000000" font-family="sans-serif" font-size="12" lengthAdjust="spacing" textLength="104" x="1338.25" y="351">Update Publishing</text><polygon fill="#F1F1F1" points="1345.75,398.5313,1434.75,398.5313,1446.75,410.5313,1434.75,422.5313,1345.75,422.5313,1333.75,410.5313,1345.75,398.5313" style="stroke:#181818;stroke-width:0.5;"/><text fill="#000000" font-family="sans-serif" font-size="11" lengthAdjust="spacing" textLength="89" x="1345.75" y="414.6885">Update success?</text><text fill="#000000" font-family="sans-serif" font-size="11" lengthAdjust="spacing" textLength="19" x="1314.75" y="408.2109">Yes</text><text fill="#000000" font-family="sans-serif" font-size="11" lengthAdjust="spacing" textLength="15" x="1446.75" y="408.2109">No</text><rect fill="#F1F1F1" height="34.1328" rx="12.5" ry="12.5" style="stroke:#181818;stroke-width:0.5;" width="127" x="1241" y="432.5313"/><text fill="#000000" font-family="sans-serif" font-size="12" lengthAdjust="spacing" textLength="107" x="1251" y="454.1328">Show success alert</text><rect fill="#F1F1F1" height="34.1328" rx="12.5" ry="12.5" style="stroke:#181818;stroke-width:0.5;" width="176" x="1388" y="432.5313"/><text fill="#000000" font-family="sans-serif" font-size="12" lengthAdjust="spacing" textLength="156" x="1398" y="454.1328">Show error "Update failed!"</text><polygon fill="#F1F1F1" points="1390.25,472.6641,1402.25,484.6641,1390.25,496.6641,1378.25,484.6641,1390.25,472.6641" style="stroke:#181818;stroke-width:0.5;"/><polygon fill="#F1F1F1" points="1245.375,502.6641,1257.375,514.6641,1245.375,526.6641,1233.375,514.6641,1245.375,502.6641" style="stroke:#181818;stroke-width:0.5;"/><polygon fill="#F1F1F1" points="1010.8125,532.6641,1022.8125,544.6641,1010.8125,556.6641,998.8125,544.6641,1010.8125,532.6641" style="stroke:#181818;stroke-width:0.5;"/><polygon fill="#F1F1F1" points="637.4688,562.6641,649.4688,574.6641,637.4688,586.6641,625.4688,574.6641,637.4688,562.6641" style="stroke:#181818;stroke-width:0.5;"/><rect fill="#F1F1F1" height="34.1328" rx="12.5" ry="12.5" style="stroke:#181818;stroke-width:0.5;" width="109" x="582.9688" y="606.6641"/><text fill="#000000" font-family="sans-serif" font-size="12" lengthAdjust="spacing" textLength="89" x="592.9688" y="628.2656">Refresh UI data</text><ellipse cx="637.4688" cy="671.7969" fill="none" rx="11" ry="11" style="stroke:#222222;stroke-width:1.0;"/><ellipse cx="637.4688" cy="671.7969" fill="#222222" rx="6" ry="6" style="stroke:#222222;stroke-width:1.0;"/><line style="stroke:#181818;stroke-width:1.0;" x1="637.4688" x2="637.4688" y1="30" y2="50"/><polygon fill="#181818" points="633.4688,40,637.4688,50,641.4688,40,637.4688,44" style="stroke:#181818;stroke-width:1.0;"/><line style="stroke:#181818;stroke-width:1.0;" x1="637.4688" x2="637.4688" y1="84.1328" y2="104.1328"/><polygon fill="#181818" points="633.4688,94.1328,637.4688,104.1328,641.4688,94.1328,637.4688,98.1328" style="stroke:#181818;stroke-width:1.0;"/><line style="stroke:#181818;stroke-width:1.0;" x1="358.25" x2="325.5" y1="307.3984" y2="307.3984"/><line style="stroke:#181818;stroke-width:1.0;" x1="325.5" x2="325.5" y1="307.3984" y2="329.3984"/><polygon fill="#181818" points="321.5,319.3984,325.5,329.3984,329.5,319.3984,325.5,323.3984" style="stroke:#181818;stroke-width:1.0;"/><line style="stroke:#181818;stroke-width:1.0;" x1="455.25" x2="488" y1="307.3984" y2="307.3984"/><line style="stroke:#181818;stroke-width:1.0;" x1="488" x2="488" y1="307.3984" y2="329.3984"/><polygon fill="#181818" points="484,319.3984,488,329.3984,492,319.3984,488,323.3984" style="stroke:#181818;stroke-width:1.0;"/><line style="stroke:#181818;stroke-width:1.0;" x1="325.5" x2="325.5" y1="363.5313" y2="381.5313"/><line style="stroke:#181818;stroke-width:1.0;" x1="325.5" x2="394.75" y1="381.5313" y2="381.5313"/><polygon fill="#181818" points="384.75,377.5313,394.75,381.5313,384.75,385.5313,388.75,381.5313" style="stroke:#181818;stroke-width:1.0;"/><line style="stroke:#181818;stroke-width:1.0;" x1="488" x2="488" y1="363.5313" y2="381.5313"/><line style="stroke:#181818;stroke-width:1.0;" x1="488" x2="418.75" y1="381.5313" y2="381.5313"/><polygon fill="#181818" points="428.75,377.5313,418.75,381.5313,428.75,385.5313,424.75,381.5313" style="stroke:#181818;stroke-width:1.0;"/><line style="stroke:#181818;stroke-width:1.0;" x1="406.75" x2="406.75" y1="260.3984" y2="295.3984"/><polygon fill="#181818" points="402.75,285.3984,406.75,295.3984,410.75,285.3984,406.75,289.3984" style="stroke:#181818;stroke-width:1.0;"/><line style="stroke:#181818;stroke-width:1.0;" x1="175.625" x2="121.5" y1="204.2656" y2="204.2656"/><line style="stroke:#181818;stroke-width:1.0;" x1="121.5" x2="121.5" y1="204.2656" y2="226.2656"/><polygon fill="#181818" points="117.5,216.2656,121.5,226.2656,125.5,216.2656,121.5,220.2656" style="stroke:#181818;stroke-width:1.0;"/><line style="stroke:#181818;stroke-width:1.0;" x1="352.625" x2="406.75" y1="204.2656" y2="204.2656"/><line style="stroke:#181818;stroke-width:1.0;" x1="406.75" x2="406.75" y1="204.2656" y2="226.2656"/><polygon fill="#181818" points="402.75,216.2656,406.75,226.2656,410.75,216.2656,406.75,220.2656" style="stroke:#181818;stroke-width:1.0;"/><line style="stroke:#181818;stroke-width:1.0;" x1="121.5" x2="121.5" y1="260.3984" y2="411.5313"/><line style="stroke:#181818;stroke-width:1.0;" x1="121.5" x2="252.125" y1="411.5313" y2="411.5313"/><polygon fill="#181818" points="242.125,407.5313,252.125,411.5313,242.125,415.5313,246.125,411.5313" style="stroke:#181818;stroke-width:1.0;"/><line style="stroke:#181818;stroke-width:1.0;" x1="406.75" x2="406.75" y1="393.5313" y2="411.5313"/><line style="stroke:#181818;stroke-width:1.0;" x1="406.75" x2="276.125" y1="411.5313" y2="411.5313"/><polygon fill="#181818" points="286.125,407.5313,276.125,411.5313,286.125,415.5313,282.125,411.5313" style="stroke:#181818;stroke-width:1.0;"/><line style="stroke:#181818;stroke-width:1.0;" x1="719.75" x2="690.5" y1="376.5313" y2="376.5313"/><line style="stroke:#181818;stroke-width:1.0;" x1="690.5" x2="690.5" y1="376.5313" y2="398.5313"/><polygon fill="#181818" points="686.5,388.5313,690.5,398.5313,694.5,388.5313,690.5,392.5313" style="stroke:#181818;stroke-width:1.0;"/><line style="stroke:#181818;stroke-width:1.0;" x1="832.75" x2="862" y1="376.5313" y2="376.5313"/><line style="stroke:#181818;stroke-width:1.0;" x1="862" x2="862" y1="376.5313" y2="398.5313"/><polygon fill="#181818" points="858,388.5313,862,398.5313,866,388.5313,862,392.5313" style="stroke:#181818;stroke-width:1.0;"/><line style="stroke:#181818;stroke-width:1.0;" x1="690.5" x2="690.5" y1="432.6641" y2="450.6641"/><line style="stroke:#181818;stroke-width:1.0;" x1="690.5" x2="764.25" y1="450.6641" y2="450.6641"/><polygon fill="#181818" points="754.25,446.6641,764.25,450.6641,754.25,454.6641,758.25,450.6641" style="stroke:#181818;stroke-width:1.0;"/><line style="stroke:#181818;stroke-width:1.0;" x1="862" x2="862" y1="432.6641" y2="450.6641"/><line style="stroke:#181818;stroke-width:1.0;" x1="862" x2="788.25" y1="450.6641" y2="450.6641"/><polygon fill="#181818" points="798.25,446.6641,788.25,450.6641,798.25,454.6641,794.25,450.6641" style="stroke:#181818;stroke-width:1.0;"/><line style="stroke:#181818;stroke-width:1.0;" x1="776.25" x2="776.25" y1="329.5313" y2="364.5313"/><polygon fill="#181818" points="772.25,354.5313,776.25,364.5313,780.25,354.5313,776.25,358.5313" style="stroke:#181818;stroke-width:1.0;"/><line style="stroke:#181818;stroke-width:1.0;" x1="1333.75" x2="1304.5" y1="410.5313" y2="410.5313"/><line style="stroke:#181818;stroke-width:1.0;" x1="1304.5" x2="1304.5" y1="410.5313" y2="432.5313"/><polygon fill="#181818" points="1300.5,422.5313,1304.5,432.5313,1308.5,422.5313,1304.5,426.5313" style="stroke:#181818;stroke-width:1.0;"/><line style="stroke:#181818;stroke-width:1.0;" x1="1446.75" x2="1476" y1="410.5313" y2="410.5313"/><line style="stroke:#181818;stroke-width:1.0;" x1="1476" x2="1476" y1="410.5313" y2="432.5313"/><polygon fill="#181818" points="1472,422.5313,1476,432.5313,1480,422.5313,1476,426.5313" style="stroke:#181818;stroke-width:1.0;"/><line style="stroke:#181818;stroke-width:1.0;" x1="1304.5" x2="1304.5" y1="466.6641" y2="484.6641"/><line style="stroke:#181818;stroke-width:1.0;" x1="1304.5" x2="1378.25" y1="484.6641" y2="484.6641"/><polygon fill="#181818" points="1368.25,480.6641,1378.25,484.6641,1368.25,488.6641,1372.25,484.6641" style="stroke:#181818;stroke-width:1.0;"/><line style="stroke:#181818;stroke-width:1.0;" x1="1476" x2="1476" y1="466.6641" y2="484.6641"/><line style="stroke:#181818;stroke-width:1.0;" x1="1476" x2="1402.25" y1="484.6641" y2="484.6641"/><polygon fill="#181818" points="1412.25,480.6641,1402.25,484.6641,1412.25,488.6641,1408.25,484.6641" style="stroke:#181818;stroke-width:1.0;"/><line style="stroke:#181818;stroke-width:1.0;" x1="1390.25" x2="1390.25" y1="363.5313" y2="398.5313"/><polygon fill="#181818" points="1386.25,388.5313,1390.25,398.5313,1394.25,388.5313,1390.25,392.5313" style="stroke:#181818;stroke-width:1.0;"/><line style="stroke:#181818;stroke-width:1.0;" x1="1156.875" x2="1100.5" y1="307.3984" y2="307.3984"/><line style="stroke:#181818;stroke-width:1.0;" x1="1100.5" x2="1100.5" y1="307.3984" y2="329.3984"/><polygon fill="#181818" points="1096.5,319.3984,1100.5,329.3984,1104.5,319.3984,1100.5,323.3984" style="stroke:#181818;stroke-width:1.0;"/><line style="stroke:#181818;stroke-width:1.0;" x1="1333.875" x2="1390.25" y1="307.3984" y2="307.3984"/><line style="stroke:#181818;stroke-width:1.0;" x1="1390.25" x2="1390.25" y1="307.3984" y2="329.3984"/><polygon fill="#181818" points="1386.25,319.3984,1390.25,329.3984,1394.25,319.3984,1390.25,323.3984" style="stroke:#181818;stroke-width:1.0;"/><line style="stroke:#181818;stroke-width:1.0;" x1="1100.5" x2="1100.5" y1="363.5313" y2="514.6641"/><line style="stroke:#181818;stroke-width:1.0;" x1="1100.5" x2="1233.375" y1="514.6641" y2="514.6641"/><polygon fill="#181818" points="1223.375,510.6641,1233.375,514.6641,1223.375,518.6641,1227.375,514.6641" style="stroke:#181818;stroke-width:1.0;"/><line style="stroke:#181818;stroke-width:1.0;" x1="1390.25" x2="1390.25" y1="496.6641" y2="514.6641"/><line style="stroke:#181818;stroke-width:1.0;" x1="1390.25" x2="1257.375" y1="514.6641" y2="514.6641"/><polygon fill="#181818" points="1267.375,510.6641,1257.375,514.6641,1267.375,518.6641,1263.375,514.6641" style="stroke:#181818;stroke-width:1.0;"/><line style="stroke:#181818;stroke-width:1.0;" x1="908.3125" x2="776.25" y1="273.3984" y2="273.3984"/><line style="stroke:#181818;stroke-width:1.0;" x1="776.25" x2="776.25" y1="273.3984" y2="295.3984"/><polygon fill="#181818" points="772.25,285.3984,776.25,295.3984,780.25,285.3984,776.25,289.3984" style="stroke:#181818;stroke-width:1.0;"/><line style="stroke:#181818;stroke-width:1.0;" x1="1113.3125" x2="1245.375" y1="273.3984" y2="273.3984"/><line style="stroke:#181818;stroke-width:1.0;" x1="1245.375" x2="1245.375" y1="273.3984" y2="295.3984"/><polygon fill="#181818" points="1241.375,285.3984,1245.375,295.3984,1249.375,285.3984,1245.375,289.3984" style="stroke:#181818;stroke-width:1.0;"/><line style="stroke:#181818;stroke-width:1.0;" x1="776.25" x2="776.25" y1="462.6641" y2="544.6641"/><line style="stroke:#181818;stroke-width:1.0;" x1="776.25" x2="998.8125" y1="544.6641" y2="544.6641"/><polygon fill="#181818" points="988.8125,540.6641,998.8125,544.6641,988.8125,548.6641,992.8125,544.6641" style="stroke:#181818;stroke-width:1.0;"/><line style="stroke:#181818;stroke-width:1.0;" x1="1245.375" x2="1245.375" y1="526.6641" y2="544.6641"/><line style="stroke:#181818;stroke-width:1.0;" x1="1245.375" x2="1022.8125" y1="544.6641" y2="544.6641"/><polygon fill="#181818" points="1032.8125,540.6641,1022.8125,544.6641,1032.8125,548.6641,1028.8125,544.6641" style="stroke:#181818;stroke-width:1.0;"/><line style="stroke:#181818;stroke-width:1.0;" x1="1010.8125" x2="1010.8125" y1="226.3984" y2="261.3984"/><polygon fill="#181818" points="1006.8125,251.3984,1010.8125,261.3984,1014.8125,251.3984,1010.8125,255.3984" style="stroke:#181818;stroke-width:1.0;"/><line style="stroke:#181818;stroke-width:1.0;" x1="593.9688" x2="264.125" y1="170.2656" y2="170.2656"/><line style="stroke:#181818;stroke-width:1.0;" x1="264.125" x2="264.125" y1="170.2656" y2="192.2656"/><polygon fill="#181818" points="260.125,182.2656,264.125,192.2656,268.125,182.2656,264.125,186.2656" style="stroke:#181818;stroke-width:1.0;"/><line style="stroke:#181818;stroke-width:1.0;" x1="680.9688" x2="1010.8125" y1="170.2656" y2="170.2656"/><line style="stroke:#181818;stroke-width:1.0;" x1="1010.8125" x2="1010.8125" y1="170.2656" y2="192.2656"/><polygon fill="#181818" points="1006.8125,182.2656,1010.8125,192.2656,1014.8125,182.2656,1010.8125,186.2656" style="stroke:#181818;stroke-width:1.0;"/><line style="stroke:#181818;stroke-width:1.0;" x1="264.125" x2="264.125" y1="423.5313" y2="574.6641"/><line style="stroke:#181818;stroke-width:1.0;" x1="264.125" x2="625.4688" y1="574.6641" y2="574.6641"/><polygon fill="#181818" points="615.4688,570.6641,625.4688,574.6641,615.4688,578.6641,619.4688,574.6641" style="stroke:#181818;stroke-width:1.0;"/><line style="stroke:#181818;stroke-width:1.0;" x1="1010.8125" x2="1010.8125" y1="556.6641" y2="574.6641"/><line style="stroke:#181818;stroke-width:1.0;" x1="1010.8125" x2="649.4688" y1="574.6641" y2="574.6641"/><polygon fill="#181818" points="659.4688,570.6641,649.4688,574.6641,659.4688,578.6641,655.4688,574.6641" style="stroke:#181818;stroke-width:1.0;"/><line style="stroke:#181818;stroke-width:1.0;" x1="637.4688" x2="637.4688" y1="138.2656" y2="158.2656"/><polygon fill="#181818" points="633.4688,148.2656,637.4688,158.2656,641.4688,148.2656,637.4688,152.2656" style="stroke:#181818;stroke-width:1.0;"/><line style="stroke:#181818;stroke-width:1.0;" x1="637.4688" x2="637.4688" y1="586.6641" y2="606.6641"/><polygon fill="#181818" points="633.4688,596.6641,637.4688,606.6641,641.4688,596.6641,637.4688,600.6641" style="stroke:#181818;stroke-width:1.0;"/><line style="stroke:#181818;stroke-width:1.0;" x1="637.4688" x2="637.4688" y1="640.7969" y2="660.7969"/><polygon fill="#181818" points="633.4688,650.7969,637.4688,660.7969,641.4688,650.7969,637.4688,654.7969" style="stroke:#181818;stroke-width:1.0;"/><!--SRC=[jPDDJiCm48NtFiNGLNg5U86Gs7I34AL8B4qymIEbJkIP4BWzpaz9Iff2aV32Yk9vRru-JrXC49K-cOAi4GJoLIrQfGyeWV0DeQfV2cA70IoAeOAreXmIia0CkA_auteDuj13yeoyLX1NMt3VwyY_GaFYm9iz0huJ2yy5xKgthcm0GoW3h1vTT9zOzCAhbUxAiM24vAwSY6-i1O_DHAE_3jiuxJdNMOQyq7wCC9I1AJ38w39lEalTDiaZ8xI7f9tGMyhL-7Hib6vH9f0tj_exmlYsWxStaZdadaNym0MCkwgxo4FL8f6Xxj-X37tESfcv_6c2BfoYC_c7pAVGNOhlHuJBCNwFyXZdoQ7hzlXRvm7PmMu3qSfenL9Mdm00]--></g></svg>