<?xml version="1.0" encoding="us-ascii" standalone="no"?><svg xmlns="http://www.w3.org/2000/svg" xmlns:xlink="http://www.w3.org/1999/xlink" contentStyleType="text/css" height="404px" preserveAspectRatio="none" style="width:520px;height:404px;background:#FFFFFF;" version="1.1" viewBox="0 0 520 404" width="520px" zoomAndPan="magnify"><defs/><g><rect fill="none" height="77.9316" style="stroke:#000000;stroke-width:1.5;" width="306.5" x="10" y="199.4199"/><line style="stroke:#181818;stroke-width:0.5;stroke-dasharray:5.0,5.0;" x1="38" x2="38" y1="81.4883" y2="323.6621"/><line style="stroke:#181818;stroke-width:0.5;stroke-dasharray:5.0,5.0;" x1="275.5" x2="275.5" y1="81.4883" y2="323.6621"/><line style="stroke:#181818;stroke-width:0.5;stroke-dasharray:5.0,5.0;" x1="475" x2="475" y1="81.4883" y2="323.6621"/><text fill="#000000" font-family="sans-serif" font-size="14" lengthAdjust="spacing" textLength="31" x="20" y="78.5352">User</text><ellipse cx="38.5" cy="13.5" fill="#E2E2F0" rx="8" ry="8" style="stroke:#181818;stroke-width:0.5;"/><path d="M38.5,21.5 L38.5,48.5 M25.5,29.5 L51.5,29.5 M38.5,48.5 L25.5,63.5 M38.5,48.5 L51.5,63.5 " fill="none" style="stroke:#181818;stroke-width:0.5;"/><text fill="#000000" font-family="sans-serif" font-size="14" lengthAdjust="spacing" textLength="31" x="20" y="336.1973">User</text><ellipse cx="38.5" cy="347.6504" fill="#E2E2F0" rx="8" ry="8" style="stroke:#181818;stroke-width:0.5;"/><path d="M38.5,355.6504 L38.5,382.6504 M25.5,363.6504 L51.5,363.6504 M38.5,382.6504 L25.5,397.6504 M38.5,382.6504 L51.5,397.6504 " fill="none" style="stroke:#181818;stroke-width:0.5;"/><rect fill="#E2E2F0" height="30.4883" rx="2.5" ry="2.5" style="stroke:#181818;stroke-width:0.5;" width="62" x="244.5" y="50"/><text fill="#000000" font-family="sans-serif" font-size="14" lengthAdjust="spacing" textLength="48" x="251.5" y="70.5352">System</text><rect fill="#E2E2F0" height="30.4883" rx="2.5" ry="2.5" style="stroke:#181818;stroke-width:0.5;" width="62" x="244.5" y="322.6621"/><text fill="#000000" font-family="sans-serif" font-size="14" lengthAdjust="spacing" textLength="48" x="251.5" y="343.1973">System</text><rect fill="#E2E2F0" height="30.4883" rx="2.5" ry="2.5" style="stroke:#181818;stroke-width:0.5;" width="77" x="437" y="50"/><text fill="#000000" font-family="sans-serif" font-size="14" lengthAdjust="spacing" textLength="63" x="444" y="70.5352">Database</text><rect fill="#E2E2F0" height="30.4883" rx="2.5" ry="2.5" style="stroke:#181818;stroke-width:0.5;" width="77" x="437" y="322.6621"/><text fill="#000000" font-family="sans-serif" font-size="14" lengthAdjust="spacing" textLength="63" x="444" y="343.1973">Database</text><polygon fill="#181818" points="263.5,108.7988,273.5,112.7988,263.5,116.7988,267.5,112.7988" style="stroke:#181818;stroke-width:1.0;"/><line style="stroke:#181818;stroke-width:1.0;" x1="38.5" x2="269.5" y1="112.7988" y2="112.7988"/><text fill="#000000" font-family="sans-serif" font-size="13" lengthAdjust="spacing" textLength="138" x="45.5" y="108.0566">Retrieve ID from txtID</text><line style="stroke:#181818;stroke-width:1.0;" x1="275.5" x2="317.5" y1="142.1094" y2="142.1094"/><line style="stroke:#181818;stroke-width:1.0;" x1="317.5" x2="317.5" y1="142.1094" y2="155.1094"/><line style="stroke:#181818;stroke-width:1.0;" x1="276.5" x2="317.5" y1="155.1094" y2="155.1094"/><polygon fill="#181818" points="286.5,151.1094,276.5,155.1094,286.5,159.1094,282.5,155.1094" style="stroke:#181818;stroke-width:1.0;"/><text fill="#000000" font-family="sans-serif" font-size="13" lengthAdjust="spacing" textLength="119" x="282.5" y="137.3672">Create Alert Object</text><polygon fill="#181818" points="463.5,180.4199,473.5,184.4199,463.5,188.4199,467.5,184.4199" style="stroke:#181818;stroke-width:1.0;"/><line style="stroke:#181818;stroke-width:1.0;" x1="275.5" x2="469.5" y1="184.4199" y2="184.4199"/><text fill="#000000" font-family="sans-serif" font-size="13" lengthAdjust="spacing" textLength="176" x="282.5" y="179.6777">Delete Borrow Entity with ID</text><path d="M10,199.4199 L72,199.4199 L72,206.7305 L62,216.7305 L10,216.7305 L10,199.4199 " fill="#EEEEEE" style="stroke:#000000;stroke-width:1.5;"/><rect fill="none" height="77.9316" style="stroke:#000000;stroke-width:1.5;" width="306.5" x="10" y="199.4199"/><text fill="#000000" font-family="sans-serif" font-size="13" font-weight="bold" lengthAdjust="spacing" textLength="17" x="25" y="212.9883">alt</text><text fill="#000000" font-family="sans-serif" font-size="11" font-weight="bold" lengthAdjust="spacing" textLength="90" x="87" y="212.0547">[Delete Success]</text><polygon fill="#181818" points="49.5,234.041,39.5,238.041,49.5,242.041,45.5,238.041" style="stroke:#181818;stroke-width:1.0;"/><line style="stroke:#181818;stroke-width:1.0;" x1="43.5" x2="274.5" y1="238.041" y2="238.041"/><text fill="#000000" font-family="sans-serif" font-size="13" lengthAdjust="spacing" textLength="213" x="55.5" y="233.2988">Show alert "Deleted Successfully!"</text><line style="stroke:#000000;stroke-width:1.0;stroke-dasharray:2.0,2.0;" x1="10" x2="316.5" y1="247.041" y2="247.041"/><polygon fill="#181818" points="49.5,265.3516,39.5,269.3516,49.5,273.3516,45.5,269.3516" style="stroke:#181818;stroke-width:1.0;"/><line style="stroke:#181818;stroke-width:1.0;" x1="43.5" x2="274.5" y1="269.3516" y2="269.3516"/><text fill="#000000" font-family="sans-serif" font-size="13" lengthAdjust="spacing" textLength="157" x="55.5" y="264.6094">Show alert "Deleted Fail!"</text><polygon fill="#181818" points="49.5,301.6621,39.5,305.6621,49.5,309.6621,45.5,305.6621" style="stroke:#181818;stroke-width:1.0;"/><line style="stroke:#181818;stroke-width:1.0;" x1="43.5" x2="274.5" y1="305.6621" y2="305.6621"/><text fill="#000000" font-family="sans-serif" font-size="13" lengthAdjust="spacing" textLength="64" x="55.5" y="300.9199">Refresh UI</text><!--SRC=[ZSuzZi9030NWtgTufES2AP08iokbMec80vZ1KGOD2VAOdzoUX820hUWi-NlFPc-TOfD4wSXgmOSZjuQiwfF98GCdJEFdsh7nbfFSWIk8nWRC5m-SOoscGSw2qg7MxW2xMkbeMh_3bGgRO1b53N_RlNXxKwx8uIJA88fEjRlWfxLWFIx1cg6RYACzHNNoNb8Yu5Km_fMZQeOatqza4zuzTNsAiPzb9379bybV3d5Cj3kY_tujjKfgi2bl]--></g></svg>