<?xml version="1.0" encoding="us-ascii" standalone="no"?><svg xmlns="http://www.w3.org/2000/svg" xmlns:xlink="http://www.w3.org/1999/xlink" contentStyleType="text/css" height="933px" preserveAspectRatio="none" style="width:895px;height:933px;background:#FFFFFF;" version="1.1" viewBox="0 0 895 933" width="895px" zoomAndPan="magnify"><defs/><g><rect fill="none" height="636.2109" style="stroke:#000000;stroke-width:1.5;" width="878" x="10" y="170.1094"/><rect fill="none" height="77.9316" style="stroke:#000000;stroke-width:1.5;" width="310.5" x="20" y="396.2832"/><rect fill="none" height="77.9316" style="stroke:#000000;stroke-width:1.5;" width="310.5" x="20" y="721.3887"/><line style="stroke:#181818;stroke-width:0.5;stroke-dasharray:5.0,5.0;" x1="48" x2="48" y1="81.4883" y2="852.6309"/><line style="stroke:#181818;stroke-width:0.5;stroke-dasharray:5.0,5.0;" x1="289.5" x2="289.5" y1="81.4883" y2="852.6309"/><line style="stroke:#181818;stroke-width:0.5;stroke-dasharray:5.0,5.0;" x1="839" x2="839" y1="81.4883" y2="852.6309"/><text fill="#000000" font-family="sans-serif" font-size="14" lengthAdjust="spacing" textLength="31" x="30" y="78.5352">User</text><ellipse cx="48.5" cy="13.5" fill="#E2E2F0" rx="8" ry="8" style="stroke:#181818;stroke-width:0.5;"/><path d="M48.5,21.5 L48.5,48.5 M35.5,29.5 L61.5,29.5 M48.5,48.5 L35.5,63.5 M48.5,48.5 L61.5,63.5 " fill="none" style="stroke:#181818;stroke-width:0.5;"/><text fill="#000000" font-family="sans-serif" font-size="14" lengthAdjust="spacing" textLength="31" x="30" y="865.166">User</text><ellipse cx="48.5" cy="876.6191" fill="#E2E2F0" rx="8" ry="8" style="stroke:#181818;stroke-width:0.5;"/><path d="M48.5,884.6191 L48.5,911.6191 M35.5,892.6191 L61.5,892.6191 M48.5,911.6191 L35.5,926.6191 M48.5,911.6191 L61.5,926.6191 " fill="none" style="stroke:#181818;stroke-width:0.5;"/><rect fill="#E2E2F0" height="30.4883" rx="2.5" ry="2.5" style="stroke:#181818;stroke-width:0.5;" width="62" x="258.5" y="50"/><text fill="#000000" font-family="sans-serif" font-size="14" lengthAdjust="spacing" textLength="48" x="265.5" y="70.5352">System</text><rect fill="#E2E2F0" height="30.4883" rx="2.5" ry="2.5" style="stroke:#181818;stroke-width:0.5;" width="62" x="258.5" y="851.6309"/><text fill="#000000" font-family="sans-serif" font-size="14" lengthAdjust="spacing" textLength="48" x="265.5" y="872.166">System</text><rect fill="#E2E2F0" height="30.4883" rx="2.5" ry="2.5" style="stroke:#181818;stroke-width:0.5;" width="77" x="801" y="50"/><text fill="#000000" font-family="sans-serif" font-size="14" lengthAdjust="spacing" textLength="63" x="808" y="70.5352">Database</text><rect fill="#E2E2F0" height="30.4883" rx="2.5" ry="2.5" style="stroke:#181818;stroke-width:0.5;" width="77" x="801" y="851.6309"/><text fill="#000000" font-family="sans-serif" font-size="14" lengthAdjust="spacing" textLength="63" x="808" y="872.166">Database</text><polygon fill="#181818" points="277.5,108.7988,287.5,112.7988,277.5,116.7988,281.5,112.7988" style="stroke:#181818;stroke-width:1.0;"/><line style="stroke:#181818;stroke-width:1.0;" x1="48.5" x2="283.5" y1="112.7988" y2="112.7988"/><text fill="#000000" font-family="sans-serif" font-size="13" lengthAdjust="spacing" textLength="66" x="55.5" y="108.0566">Validated()</text><line style="stroke:#181818;stroke-width:1.0;" x1="289.5" x2="331.5" y1="142.1094" y2="142.1094"/><line style="stroke:#181818;stroke-width:1.0;" x1="331.5" x2="331.5" y1="142.1094" y2="155.1094"/><line style="stroke:#181818;stroke-width:1.0;" x1="290.5" x2="331.5" y1="155.1094" y2="155.1094"/><polygon fill="#181818" points="300.5,151.1094,290.5,155.1094,300.5,159.1094,296.5,155.1094" style="stroke:#181818;stroke-width:1.0;"/><text fill="#000000" font-family="sans-serif" font-size="13" lengthAdjust="spacing" textLength="146" x="296.5" y="137.3672">Check if txtID is Empty</text><path d="M10,170.1094 L72,170.1094 L72,177.4199 L62,187.4199 L10,187.4199 L10,170.1094 " fill="#EEEEEE" style="stroke:#000000;stroke-width:1.5;"/><rect fill="none" height="636.2109" style="stroke:#000000;stroke-width:1.5;" width="878" x="10" y="170.1094"/><text fill="#000000" font-family="sans-serif" font-size="13" font-weight="bold" lengthAdjust="spacing" textLength="17" x="25" y="183.6777">alt</text><text fill="#000000" font-family="sans-serif" font-size="11" font-weight="bold" lengthAdjust="spacing" textLength="88" x="87" y="182.7441">[txtID is Empty]</text><polygon fill="#181818" points="827.5,204.7305,837.5,208.7305,827.5,212.7305,831.5,208.7305" style="stroke:#181818;stroke-width:1.0;"/><line style="stroke:#181818;stroke-width:1.0;" x1="289.5" x2="833.5" y1="208.7305" y2="208.7305"/><text fill="#000000" font-family="sans-serif" font-size="13" lengthAdjust="spacing" textLength="124" x="296.5" y="203.9883">Retrieve Account ID</text><polygon fill="#181818" points="827.5,234.041,837.5,238.041,827.5,242.041,831.5,238.041" style="stroke:#181818;stroke-width:1.0;"/><line style="stroke:#181818;stroke-width:1.0;" x1="289.5" x2="833.5" y1="238.041" y2="238.041"/><text fill="#000000" font-family="sans-serif" font-size="13" lengthAdjust="spacing" textLength="103" x="296.5" y="233.2988">Retrieve Book ID</text><polygon fill="#181818" points="827.5,263.3516,837.5,267.3516,827.5,271.3516,831.5,267.3516" style="stroke:#181818;stroke-width:1.0;"/><line style="stroke:#181818;stroke-width:1.0;" x1="289.5" x2="833.5" y1="267.3516" y2="267.3516"/><text fill="#000000" font-family="sans-serif" font-size="13" lengthAdjust="spacing" textLength="111" x="296.5" y="262.6094">Retrieve Status ID</text><line style="stroke:#181818;stroke-width:1.0;" x1="289.5" x2="331.5" y1="296.6621" y2="296.6621"/><line style="stroke:#181818;stroke-width:1.0;" x1="331.5" x2="331.5" y1="296.6621" y2="309.6621"/><line style="stroke:#181818;stroke-width:1.0;" x1="290.5" x2="331.5" y1="309.6621" y2="309.6621"/><polygon fill="#181818" points="300.5,305.6621,290.5,309.6621,300.5,313.6621,296.5,309.6621" style="stroke:#181818;stroke-width:1.0;"/><text fill="#000000" font-family="sans-serif" font-size="13" lengthAdjust="spacing" textLength="132" x="296.5" y="291.9199">Create Borrow Object</text><line style="stroke:#181818;stroke-width:1.0;" x1="289.5" x2="331.5" y1="338.9727" y2="338.9727"/><line style="stroke:#181818;stroke-width:1.0;" x1="331.5" x2="331.5" y1="338.9727" y2="351.9727"/><line style="stroke:#181818;stroke-width:1.0;" x1="290.5" x2="331.5" y1="351.9727" y2="351.9727"/><polygon fill="#181818" points="300.5,347.9727,290.5,351.9727,300.5,355.9727,296.5,351.9727" style="stroke:#181818;stroke-width:1.0;"/><text fill="#000000" font-family="sans-serif" font-size="13" lengthAdjust="spacing" textLength="283" x="296.5" y="334.2305">Set RefundAt and BorrowAt for Borrow Object</text><polygon fill="#181818" points="827.5,377.2832,837.5,381.2832,827.5,385.2832,831.5,381.2832" style="stroke:#181818;stroke-width:1.0;"/><line style="stroke:#181818;stroke-width:1.0;" x1="289.5" x2="833.5" y1="381.2832" y2="381.2832"/><text fill="#000000" font-family="sans-serif" font-size="13" lengthAdjust="spacing" textLength="172" x="296.5" y="376.541">Add Borrow to BorrowEntity</text><path d="M20,396.2832 L82,396.2832 L82,403.5938 L72,413.5938 L20,413.5938 L20,396.2832 " fill="#EEEEEE" style="stroke:#000000;stroke-width:1.5;"/><rect fill="none" height="77.9316" style="stroke:#000000;stroke-width:1.5;" width="310.5" x="20" y="396.2832"/><text fill="#000000" font-family="sans-serif" font-size="13" font-weight="bold" lengthAdjust="spacing" textLength="17" x="35" y="409.8516">alt</text><text fill="#000000" font-family="sans-serif" font-size="11" font-weight="bold" lengthAdjust="spacing" textLength="77" x="97" y="408.918">[Add Success]</text><polygon fill="#181818" points="59.5,430.9043,49.5,434.9043,59.5,438.9043,55.5,434.9043" style="stroke:#181818;stroke-width:1.0;"/><line style="stroke:#181818;stroke-width:1.0;" x1="53.5" x2="288.5" y1="434.9043" y2="434.9043"/><text fill="#000000" font-family="sans-serif" font-size="13" lengthAdjust="spacing" textLength="205" x="65.5" y="430.1621">Show alert "Added Successfully!"</text><line style="stroke:#000000;stroke-width:1.0;stroke-dasharray:2.0,2.0;" x1="20" x2="330.5" y1="443.9043" y2="443.9043"/><polygon fill="#181818" points="59.5,462.2148,49.5,466.2148,59.5,470.2148,55.5,466.2148" style="stroke:#181818;stroke-width:1.0;"/><line style="stroke:#181818;stroke-width:1.0;" x1="53.5" x2="288.5" y1="466.2148" y2="466.2148"/><text fill="#000000" font-family="sans-serif" font-size="13" lengthAdjust="spacing" textLength="149" x="65.5" y="461.4727">Show alert "Added Fail!"</text><line style="stroke:#000000;stroke-width:1.0;stroke-dasharray:2.0,2.0;" x1="10" x2="888" y1="482.2148" y2="482.2148"/><polygon fill="#181818" points="827.5,500.5254,837.5,504.5254,827.5,508.5254,831.5,504.5254" style="stroke:#181818;stroke-width:1.0;"/><line style="stroke:#181818;stroke-width:1.0;" x1="289.5" x2="833.5" y1="504.5254" y2="504.5254"/><text fill="#000000" font-family="sans-serif" font-size="13" lengthAdjust="spacing" textLength="124" x="296.5" y="499.7832">Retrieve Account ID</text><polygon fill="#181818" points="827.5,529.8359,837.5,533.8359,827.5,537.8359,831.5,533.8359" style="stroke:#181818;stroke-width:1.0;"/><line style="stroke:#181818;stroke-width:1.0;" x1="289.5" x2="833.5" y1="533.8359" y2="533.8359"/><text fill="#000000" font-family="sans-serif" font-size="13" lengthAdjust="spacing" textLength="103" x="296.5" y="529.0938">Retrieve Book ID</text><polygon fill="#181818" points="827.5,559.1465,837.5,563.1465,827.5,567.1465,831.5,563.1465" style="stroke:#181818;stroke-width:1.0;"/><line style="stroke:#181818;stroke-width:1.0;" x1="289.5" x2="833.5" y1="563.1465" y2="563.1465"/><text fill="#000000" font-family="sans-serif" font-size="13" lengthAdjust="spacing" textLength="111" x="296.5" y="558.4043">Retrieve Status ID</text><polygon fill="#181818" points="827.5,588.457,837.5,592.457,827.5,596.457,831.5,592.457" style="stroke:#181818;stroke-width:1.0;"/><line style="stroke:#181818;stroke-width:1.0;" x1="289.5" x2="833.5" y1="592.457" y2="592.457"/><text fill="#000000" font-family="sans-serif" font-size="13" lengthAdjust="spacing" textLength="237" x="296.5" y="587.7148">Retrieve Manage ID and ID from Table</text><line style="stroke:#181818;stroke-width:1.0;" x1="289.5" x2="331.5" y1="621.7676" y2="621.7676"/><line style="stroke:#181818;stroke-width:1.0;" x1="331.5" x2="331.5" y1="621.7676" y2="634.7676"/><line style="stroke:#181818;stroke-width:1.0;" x1="290.5" x2="331.5" y1="634.7676" y2="634.7676"/><polygon fill="#181818" points="300.5,630.7676,290.5,634.7676,300.5,638.7676,296.5,634.7676" style="stroke:#181818;stroke-width:1.0;"/><text fill="#000000" font-family="sans-serif" font-size="13" lengthAdjust="spacing" textLength="132" x="296.5" y="617.0254">Create Borrow Object</text><line style="stroke:#181818;stroke-width:1.0;" x1="289.5" x2="331.5" y1="664.0781" y2="664.0781"/><line style="stroke:#181818;stroke-width:1.0;" x1="331.5" x2="331.5" y1="664.0781" y2="677.0781"/><line style="stroke:#181818;stroke-width:1.0;" x1="290.5" x2="331.5" y1="677.0781" y2="677.0781"/><polygon fill="#181818" points="300.5,673.0781,290.5,677.0781,300.5,681.0781,296.5,677.0781" style="stroke:#181818;stroke-width:1.0;"/><text fill="#000000" font-family="sans-serif" font-size="13" lengthAdjust="spacing" textLength="536" x="296.5" y="659.3359">Set ID, RefundAt, BorrowAt, StatusId, ManageId, AccountID, BookID for Borrow Object</text><polygon fill="#181818" points="827.5,702.3887,837.5,706.3887,827.5,710.3887,831.5,706.3887" style="stroke:#181818;stroke-width:1.0;"/><line style="stroke:#181818;stroke-width:1.0;" x1="289.5" x2="833.5" y1="706.3887" y2="706.3887"/><text fill="#000000" font-family="sans-serif" font-size="13" lengthAdjust="spacing" textLength="190" x="296.5" y="701.6465">Update Borrow in BorrowEntity</text><path d="M20,721.3887 L82,721.3887 L82,728.6992 L72,738.6992 L20,738.6992 L20,721.3887 " fill="#EEEEEE" style="stroke:#000000;stroke-width:1.5;"/><rect fill="none" height="77.9316" style="stroke:#000000;stroke-width:1.5;" width="310.5" x="20" y="721.3887"/><text fill="#000000" font-family="sans-serif" font-size="13" font-weight="bold" lengthAdjust="spacing" textLength="17" x="35" y="734.957">alt</text><text fill="#000000" font-family="sans-serif" font-size="11" font-weight="bold" lengthAdjust="spacing" textLength="93" x="97" y="734.0234">[Update Success]</text><polygon fill="#181818" points="59.5,756.0098,49.5,760.0098,59.5,764.0098,55.5,760.0098" style="stroke:#181818;stroke-width:1.0;"/><line style="stroke:#181818;stroke-width:1.0;" x1="53.5" x2="288.5" y1="760.0098" y2="760.0098"/><text fill="#000000" font-family="sans-serif" font-size="13" lengthAdjust="spacing" textLength="217" x="65.5" y="755.2676">Show alert "Updated Successfully!"</text><line style="stroke:#000000;stroke-width:1.0;stroke-dasharray:2.0,2.0;" x1="20" x2="330.5" y1="769.0098" y2="769.0098"/><polygon fill="#181818" points="59.5,787.3203,49.5,791.3203,59.5,795.3203,55.5,791.3203" style="stroke:#181818;stroke-width:1.0;"/><line style="stroke:#181818;stroke-width:1.0;" x1="53.5" x2="288.5" y1="791.3203" y2="791.3203"/><text fill="#000000" font-family="sans-serif" font-size="13" lengthAdjust="spacing" textLength="161" x="65.5" y="786.5781">Show alert "Updated Fail!"</text><polygon fill="#181818" points="59.5,830.6309,49.5,834.6309,59.5,838.6309,55.5,834.6309" style="stroke:#181818;stroke-width:1.0;"/><line style="stroke:#181818;stroke-width:1.0;" x1="53.5" x2="288.5" y1="834.6309" y2="834.6309"/><text fill="#000000" font-family="sans-serif" font-size="13" lengthAdjust="spacing" textLength="64" x="65.5" y="829.8887">Refresh UI</text><!--SRC=[lP71JiCm38RlUGgp4qZb1NP0skYGUa18b77t4fU5PMsLkC3U7cVBoZPjC874eQhZVBzZ-qVDZOTf8AzQz6orRR5c69IhmBGS00ROXFlNEJBECD0QoCTAnGfmVPFW8JoZimQPpEMLskHsRs_df1TWA-0FBdAm0IRBbbTAeUF37C2NFXyFuP7OMteZ66dTTD9CaPzcnasp-1Oe6RaBXqZVfoUPGQfutxp3m-oLD1y5IsAfMNMr6J5WRP943fMizxG-zZ8oMnouIT6aPhkUFIua0cMdDOKWcLrvtBeyFXSfEl9YZB3KqrNdtEfY829oWSxKtg5r6qrjLDBzlmDxo3tM-4A2h5ShlyetItZ2cQE_srRaMMzTrlkMfRuAawNdOvG6Zf8uL-paHtkdhTbfnjR774xCkIPlyD_Ql5Nl6osVEbJ9MZo5EKoBJm00]--></g></svg>