<?xml version="1.0" encoding="us-ascii" standalone="no"?><svg xmlns="http://www.w3.org/2000/svg" xmlns:xlink="http://www.w3.org/1999/xlink" contentStyleType="text/css" height="821px" preserveAspectRatio="none" style="width:944px;height:821px;background:#FFFFFF;" version="1.1" viewBox="0 0 944 821" width="944px" zoomAndPan="magnify"><defs/><g><ellipse cx="446" cy="20" fill="#222222" rx="10" ry="10" style="stroke:#222222;stroke-width:1.0;"/><rect fill="#F1F1F1" height="34.1328" rx="12.5" ry="12.5" style="stroke:#181818;stroke-width:0.5;" width="83" x="404.5" y="50"/><text fill="#000000" font-family="sans-serif" font-size="12" lengthAdjust="spacing" textLength="63" x="414.5" y="71.6016">Validated()</text><rect fill="#F1F1F1" height="34.1328" rx="12.5" ry="12.5" style="stroke:#181818;stroke-width:0.5;" width="150" x="371" y="104.1328"/><text fill="#000000" font-family="sans-serif" font-size="12" lengthAdjust="spacing" textLength="130" x="381" y="125.7344">Check if txtID is Empty</text><polygon fill="#F1F1F1" points="406.5,158.2656,485.5,158.2656,497.5,170.2656,485.5,182.2656,406.5,182.2656,394.5,170.2656,406.5,158.2656" style="stroke:#181818;stroke-width:0.5;"/><text fill="#000000" font-family="sans-serif" font-size="11" lengthAdjust="spacing" textLength="79" x="406.5" y="174.4229">txtID is Empty?</text><text fill="#000000" font-family="sans-serif" font-size="11" lengthAdjust="spacing" textLength="18" x="376.5" y="167.9453">yes</text><text fill="#000000" font-family="sans-serif" font-size="11" lengthAdjust="spacing" textLength="14" x="497.5" y="167.9453">no</text><rect fill="#F1F1F1" height="34.1328" rx="12.5" ry="12.5" style="stroke:#181818;stroke-width:0.5;" width="132" x="148" y="192.2656"/><text fill="#000000" font-family="sans-serif" font-size="12" lengthAdjust="spacing" textLength="112" x="158" y="213.8672">Retrieve Account ID</text><rect fill="#F1F1F1" height="34.1328" rx="12.5" ry="12.5" style="stroke:#181818;stroke-width:0.5;" width="115" x="156.5" y="246.3984"/><text fill="#000000" font-family="sans-serif" font-size="12" lengthAdjust="spacing" textLength="95" x="166.5" y="268">Retrieve Book ID</text><rect fill="#F1F1F1" height="34.1328" rx="12.5" ry="12.5" style="stroke:#181818;stroke-width:0.5;" width="121" x="153.5" y="300.5313"/><text fill="#000000" font-family="sans-serif" font-size="12" lengthAdjust="spacing" textLength="101" x="163.5" y="322.1328">Retrieve Status ID</text><rect fill="#F1F1F1" height="34.1328" rx="12.5" ry="12.5" style="stroke:#181818;stroke-width:0.5;" width="144" x="142" y="354.6641"/><text fill="#000000" font-family="sans-serif" font-size="12" lengthAdjust="spacing" textLength="124" x="152" y="376.2656">Create Borrow Object</text><rect fill="#F1F1F1" height="34.1328" rx="12.5" ry="12.5" style="stroke:#181818;stroke-width:0.5;" width="282" x="73" y="408.7969"/><text fill="#000000" font-family="sans-serif" font-size="12" lengthAdjust="spacing" textLength="262" x="83" y="430.3984">Set RefundAt and BorrowAt for Borrow Object</text><rect fill="#F1F1F1" height="34.1328" rx="12.5" ry="12.5" style="stroke:#181818;stroke-width:0.5;" width="178" x="125" y="462.9297"/><text fill="#000000" font-family="sans-serif" font-size="12" lengthAdjust="spacing" textLength="158" x="135" y="484.5313">Add Borrow to BorrowEntity</text><polygon fill="#F1F1F1" points="177.5,517.0625,250.5,517.0625,262.5,529.0625,250.5,541.0625,177.5,541.0625,165.5,529.0625,177.5,517.0625" style="stroke:#181818;stroke-width:0.5;"/><text fill="#000000" font-family="sans-serif" font-size="11" lengthAdjust="spacing" textLength="73" x="177.5" y="533.2197">Add Success?</text><text fill="#000000" font-family="sans-serif" font-size="11" lengthAdjust="spacing" textLength="18" x="147.5" y="526.7422">yes</text><text fill="#000000" font-family="sans-serif" font-size="11" lengthAdjust="spacing" textLength="14" x="262.5" y="526.7422">no</text><rect fill="#F1F1F1" height="34.1328" rx="12.5" ry="12.5" style="stroke:#181818;stroke-width:0.5;" width="205" x="11" y="551.0625"/><text fill="#000000" font-family="sans-serif" font-size="12" lengthAdjust="spacing" textLength="185" x="21" y="572.6641">Show alert "Added Successfully!"</text><rect fill="#F1F1F1" height="34.1328" rx="12.5" ry="12.5" style="stroke:#181818;stroke-width:0.5;" width="157" x="236" y="551.0625"/><text fill="#000000" font-family="sans-serif" font-size="12" lengthAdjust="spacing" textLength="137" x="246" y="572.6641">Show alert "Added Fail!"</text><polygon fill="#F1F1F1" points="214,591.1953,226,603.1953,214,615.1953,202,603.1953,214,591.1953" style="stroke:#181818;stroke-width:0.5;"/><rect fill="#F1F1F1" height="34.1328" rx="12.5" ry="12.5" style="stroke:#181818;stroke-width:0.5;" width="132" x="612" y="192.2656"/><text fill="#000000" font-family="sans-serif" font-size="12" lengthAdjust="spacing" textLength="112" x="622" y="213.8672">Retrieve Account ID</text><rect fill="#F1F1F1" height="34.1328" rx="12.5" ry="12.5" style="stroke:#181818;stroke-width:0.5;" width="115" x="620.5" y="246.3984"/><text fill="#000000" font-family="sans-serif" font-size="12" lengthAdjust="spacing" textLength="95" x="630.5" y="268">Retrieve Book ID</text><rect fill="#F1F1F1" height="34.1328" rx="12.5" ry="12.5" style="stroke:#181818;stroke-width:0.5;" width="121" x="617.5" y="300.5313"/><text fill="#000000" font-family="sans-serif" font-size="12" lengthAdjust="spacing" textLength="101" x="627.5" y="322.1328">Retrieve Status ID</text><rect fill="#F1F1F1" height="34.1328" rx="12.5" ry="12.5" style="stroke:#181818;stroke-width:0.5;" width="242" x="557" y="354.6641"/><text fill="#000000" font-family="sans-serif" font-size="12" lengthAdjust="spacing" textLength="222" x="567" y="376.2656">Retrieve Manage ID and ID from Table</text><rect fill="#F1F1F1" height="34.1328" rx="12.5" ry="12.5" style="stroke:#181818;stroke-width:0.5;" width="144" x="606" y="408.7969"/><text fill="#000000" font-family="sans-serif" font-size="12" lengthAdjust="spacing" textLength="124" x="616" y="430.3984">Create Borrow Object</text><rect fill="#F1F1F1" height="34.1328" rx="12.5" ry="12.5" style="stroke:#181818;stroke-width:0.5;" width="510" x="423" y="462.9297"/><text fill="#000000" font-family="sans-serif" font-size="12" lengthAdjust="spacing" textLength="490" x="433" y="484.5313">Set ID, RefundAt, BorrowAt, StatusId, ManageId, AccountID, BookID for Borrow Object</text><rect fill="#F1F1F1" height="34.1328" rx="12.5" ry="12.5" style="stroke:#181818;stroke-width:0.5;" width="195" x="580.5" y="517.0625"/><text fill="#000000" font-family="sans-serif" font-size="12" lengthAdjust="spacing" textLength="175" x="590.5" y="538.6641">Update Borrow in BorrowEntity</text><polygon fill="#F1F1F1" points="633.5,586.1953,722.5,586.1953,734.5,598.1953,722.5,610.1953,633.5,610.1953,621.5,598.1953,633.5,586.1953" style="stroke:#181818;stroke-width:0.5;"/><text fill="#000000" font-family="sans-serif" font-size="11" lengthAdjust="spacing" textLength="89" x="633.5" y="602.3525">Update Success?</text><text fill="#000000" font-family="sans-serif" font-size="11" lengthAdjust="spacing" textLength="18" x="603.5" y="595.875">yes</text><text fill="#000000" font-family="sans-serif" font-size="11" lengthAdjust="spacing" textLength="14" x="734.5" y="595.875">no</text><rect fill="#F1F1F1" height="34.1328" rx="12.5" ry="12.5" style="stroke:#181818;stroke-width:0.5;" width="216" x="464" y="620.1953"/><text fill="#000000" font-family="sans-serif" font-size="12" lengthAdjust="spacing" textLength="196" x="474" y="641.7969">Show alert "Updated Successfully!"</text><rect fill="#F1F1F1" height="34.1328" rx="12.5" ry="12.5" style="stroke:#181818;stroke-width:0.5;" width="168" x="700" y="620.1953"/><text fill="#000000" font-family="sans-serif" font-size="12" lengthAdjust="spacing" textLength="148" x="710" y="641.7969">Show alert "Updated Fail!"</text><polygon fill="#F1F1F1" points="678,660.3281,690,672.3281,678,684.3281,666,672.3281,678,660.3281" style="stroke:#181818;stroke-width:0.5;"/><polygon fill="#F1F1F1" points="446,690.3281,458,702.3281,446,714.3281,434,702.3281,446,690.3281" style="stroke:#181818;stroke-width:0.5;"/><rect fill="#F1F1F1" height="34.1328" rx="12.5" ry="12.5" style="stroke:#181818;stroke-width:0.5;" width="79" x="406.5" y="734.3281"/><text fill="#000000" font-family="sans-serif" font-size="12" lengthAdjust="spacing" textLength="59" x="416.5" y="755.9297">Refresh UI</text><ellipse cx="446" cy="799.4609" fill="none" rx="11" ry="11" style="stroke:#222222;stroke-width:1.0;"/><ellipse cx="446" cy="799.4609" fill="#222222" rx="6" ry="6" style="stroke:#222222;stroke-width:1.0;"/><line style="stroke:#181818;stroke-width:1.0;" x1="446" x2="446" y1="30" y2="50"/><polygon fill="#181818" points="442,40,446,50,450,40,446,44" style="stroke:#181818;stroke-width:1.0;"/><line style="stroke:#181818;stroke-width:1.0;" x1="446" x2="446" y1="84.1328" y2="104.1328"/><polygon fill="#181818" points="442,94.1328,446,104.1328,450,94.1328,446,98.1328" style="stroke:#181818;stroke-width:1.0;"/><line style="stroke:#181818;stroke-width:1.0;" x1="214" x2="214" y1="226.3984" y2="246.3984"/><polygon fill="#181818" points="210,236.3984,214,246.3984,218,236.3984,214,240.3984" style="stroke:#181818;stroke-width:1.0;"/><line style="stroke:#181818;stroke-width:1.0;" x1="214" x2="214" y1="280.5313" y2="300.5313"/><polygon fill="#181818" points="210,290.5313,214,300.5313,218,290.5313,214,294.5313" style="stroke:#181818;stroke-width:1.0;"/><line style="stroke:#181818;stroke-width:1.0;" x1="214" x2="214" y1="334.6641" y2="354.6641"/><polygon fill="#181818" points="210,344.6641,214,354.6641,218,344.6641,214,348.6641" style="stroke:#181818;stroke-width:1.0;"/><line style="stroke:#181818;stroke-width:1.0;" x1="214" x2="214" y1="388.7969" y2="408.7969"/><polygon fill="#181818" points="210,398.7969,214,408.7969,218,398.7969,214,402.7969" style="stroke:#181818;stroke-width:1.0;"/><line style="stroke:#181818;stroke-width:1.0;" x1="214" x2="214" y1="442.9297" y2="462.9297"/><polygon fill="#181818" points="210,452.9297,214,462.9297,218,452.9297,214,456.9297" style="stroke:#181818;stroke-width:1.0;"/><line style="stroke:#181818;stroke-width:1.0;" x1="165.5" x2="113.5" y1="529.0625" y2="529.0625"/><line style="stroke:#181818;stroke-width:1.0;" x1="113.5" x2="113.5" y1="529.0625" y2="551.0625"/><polygon fill="#181818" points="109.5,541.0625,113.5,551.0625,117.5,541.0625,113.5,545.0625" style="stroke:#181818;stroke-width:1.0;"/><line style="stroke:#181818;stroke-width:1.0;" x1="262.5" x2="314.5" y1="529.0625" y2="529.0625"/><line style="stroke:#181818;stroke-width:1.0;" x1="314.5" x2="314.5" y1="529.0625" y2="551.0625"/><polygon fill="#181818" points="310.5,541.0625,314.5,551.0625,318.5,541.0625,314.5,545.0625" style="stroke:#181818;stroke-width:1.0;"/><line style="stroke:#181818;stroke-width:1.0;" x1="113.5" x2="113.5" y1="585.1953" y2="603.1953"/><line style="stroke:#181818;stroke-width:1.0;" x1="113.5" x2="202" y1="603.1953" y2="603.1953"/><polygon fill="#181818" points="192,599.1953,202,603.1953,192,607.1953,196,603.1953" style="stroke:#181818;stroke-width:1.0;"/><line style="stroke:#181818;stroke-width:1.0;" x1="314.5" x2="314.5" y1="585.1953" y2="603.1953"/><line style="stroke:#181818;stroke-width:1.0;" x1="314.5" x2="226" y1="603.1953" y2="603.1953"/><polygon fill="#181818" points="236,599.1953,226,603.1953,236,607.1953,232,603.1953" style="stroke:#181818;stroke-width:1.0;"/><line style="stroke:#181818;stroke-width:1.0;" x1="214" x2="214" y1="497.0625" y2="517.0625"/><polygon fill="#181818" points="210,507.0625,214,517.0625,218,507.0625,214,511.0625" style="stroke:#181818;stroke-width:1.0;"/><line style="stroke:#181818;stroke-width:1.0;" x1="678" x2="678" y1="226.3984" y2="246.3984"/><polygon fill="#181818" points="674,236.3984,678,246.3984,682,236.3984,678,240.3984" style="stroke:#181818;stroke-width:1.0;"/><line style="stroke:#181818;stroke-width:1.0;" x1="678" x2="678" y1="280.5313" y2="300.5313"/><polygon fill="#181818" points="674,290.5313,678,300.5313,682,290.5313,678,294.5313" style="stroke:#181818;stroke-width:1.0;"/><line style="stroke:#181818;stroke-width:1.0;" x1="678" x2="678" y1="334.6641" y2="354.6641"/><polygon fill="#181818" points="674,344.6641,678,354.6641,682,344.6641,678,348.6641" style="stroke:#181818;stroke-width:1.0;"/><line style="stroke:#181818;stroke-width:1.0;" x1="678" x2="678" y1="388.7969" y2="408.7969"/><polygon fill="#181818" points="674,398.7969,678,408.7969,682,398.7969,678,402.7969" style="stroke:#181818;stroke-width:1.0;"/><line style="stroke:#181818;stroke-width:1.0;" x1="678" x2="678" y1="442.9297" y2="462.9297"/><polygon fill="#181818" points="674,452.9297,678,462.9297,682,452.9297,678,456.9297" style="stroke:#181818;stroke-width:1.0;"/><line style="stroke:#181818;stroke-width:1.0;" x1="678" x2="678" y1="497.0625" y2="517.0625"/><polygon fill="#181818" points="674,507.0625,678,517.0625,682,507.0625,678,511.0625" style="stroke:#181818;stroke-width:1.0;"/><line style="stroke:#181818;stroke-width:1.0;" x1="621.5" x2="572" y1="598.1953" y2="598.1953"/><line style="stroke:#181818;stroke-width:1.0;" x1="572" x2="572" y1="598.1953" y2="620.1953"/><polygon fill="#181818" points="568,610.1953,572,620.1953,576,610.1953,572,614.1953" style="stroke:#181818;stroke-width:1.0;"/><line style="stroke:#181818;stroke-width:1.0;" x1="734.5" x2="784" y1="598.1953" y2="598.1953"/><line style="stroke:#181818;stroke-width:1.0;" x1="784" x2="784" y1="598.1953" y2="620.1953"/><polygon fill="#181818" points="780,610.1953,784,620.1953,788,610.1953,784,614.1953" style="stroke:#181818;stroke-width:1.0;"/><line style="stroke:#181818;stroke-width:1.0;" x1="572" x2="572" y1="654.3281" y2="672.3281"/><line style="stroke:#181818;stroke-width:1.0;" x1="572" x2="666" y1="672.3281" y2="672.3281"/><polygon fill="#181818" points="656,668.3281,666,672.3281,656,676.3281,660,672.3281" style="stroke:#181818;stroke-width:1.0;"/><line style="stroke:#181818;stroke-width:1.0;" x1="784" x2="784" y1="654.3281" y2="672.3281"/><line style="stroke:#181818;stroke-width:1.0;" x1="784" x2="690" y1="672.3281" y2="672.3281"/><polygon fill="#181818" points="700,668.3281,690,672.3281,700,676.3281,696,672.3281" style="stroke:#181818;stroke-width:1.0;"/><line style="stroke:#181818;stroke-width:1.0;" x1="678" x2="678" y1="551.1953" y2="586.1953"/><polygon fill="#181818" points="674,576.1953,678,586.1953,682,576.1953,678,580.1953" style="stroke:#181818;stroke-width:1.0;"/><line style="stroke:#181818;stroke-width:1.0;" x1="394.5" x2="214" y1="170.2656" y2="170.2656"/><line style="stroke:#181818;stroke-width:1.0;" x1="214" x2="214" y1="170.2656" y2="192.2656"/><polygon fill="#181818" points="210,182.2656,214,192.2656,218,182.2656,214,186.2656" style="stroke:#181818;stroke-width:1.0;"/><line style="stroke:#181818;stroke-width:1.0;" x1="497.5" x2="678" y1="170.2656" y2="170.2656"/><line style="stroke:#181818;stroke-width:1.0;" x1="678" x2="678" y1="170.2656" y2="192.2656"/><polygon fill="#181818" points="674,182.2656,678,192.2656,682,182.2656,678,186.2656" style="stroke:#181818;stroke-width:1.0;"/><line style="stroke:#181818;stroke-width:1.0;" x1="214" x2="214" y1="615.1953" y2="702.3281"/><line style="stroke:#181818;stroke-width:1.0;" x1="214" x2="434" y1="702.3281" y2="702.3281"/><polygon fill="#181818" points="424,698.3281,434,702.3281,424,706.3281,428,702.3281" style="stroke:#181818;stroke-width:1.0;"/><line style="stroke:#181818;stroke-width:1.0;" x1="678" x2="678" y1="684.3281" y2="702.3281"/><line style="stroke:#181818;stroke-width:1.0;" x1="678" x2="458" y1="702.3281" y2="702.3281"/><polygon fill="#181818" points="468,698.3281,458,702.3281,468,706.3281,464,702.3281" style="stroke:#181818;stroke-width:1.0;"/><line style="stroke:#181818;stroke-width:1.0;" x1="446" x2="446" y1="138.2656" y2="158.2656"/><polygon fill="#181818" points="442,148.2656,446,158.2656,450,148.2656,446,152.2656" style="stroke:#181818;stroke-width:1.0;"/><line style="stroke:#181818;stroke-width:1.0;" x1="446" x2="446" y1="714.3281" y2="734.3281"/><polygon fill="#181818" points="442,724.3281,446,734.3281,450,724.3281,446,728.3281" style="stroke:#181818;stroke-width:1.0;"/><line style="stroke:#181818;stroke-width:1.0;" x1="446" x2="446" y1="768.4609" y2="788.4609"/><polygon fill="#181818" points="442,778.4609,446,788.4609,450,778.4609,446,782.4609" style="stroke:#181818;stroke-width:1.0;"/><!--SRC=[hP51JiCm44NtFiNGLIhb1Ca2bQP8MI2abh9txJ4nTUtAdW2zFNPnevOMGIKsYVFplcVcJo3kYR7gcHijEQ4inZMhfXsADMW5z45j0ph0RBEbNSrOr8fJyNOCrA65OeTXp02gEPBN-8Om4SBrbg1jwXFzphdrcRWWJdquo5EFiPb8Uk_UuN7rYeBsFnP8C4VLMpaXu5Pc97uevo_m4tb0W5m-pIpfD0oa2Oj4B7eXC8JlewHwNNHoWvvW54aSMDKRixiPfLlG18J2kXyjzroRZ5gf5Jis_4jSW_p0BN_1AE-pYI_btGQU-ChWxxcsJJbaMmx1bhbMAyjyVJhbPfCbzPSgNSn_kPL71RMzk88C_MqBN_2LUpYOpZQnVx8OeF8OEbYsDGlajkmJ]--></g></svg>