<?xml version="1.0" encoding="us-ascii" standalone="no"?><svg xmlns="http://www.w3.org/2000/svg" xmlns:xlink="http://www.w3.org/1999/xlink" contentStyleType="text/css" height="454px" preserveAspectRatio="none" style="width:762px;height:454px;background:#FFFFFF;" version="1.1" viewBox="0 0 762 454" width="762px" zoomAndPan="magnify"><defs/><g><rect fill="none" height="169.8633" style="stroke:#000000;stroke-width:1.5;" width="745" x="10" y="157.1094"/><rect fill="none" height="77.9316" style="stroke:#000000;stroke-width:1.5;" width="492.5" x="20" y="242.041"/><line style="stroke:#181818;stroke-width:0.5;stroke-dasharray:5.0,5.0;" x1="48" x2="48" y1="81.4883" y2="373.2832"/><line style="stroke:#181818;stroke-width:0.5;stroke-dasharray:5.0,5.0;" x1="471.5" x2="471.5" y1="81.4883" y2="373.2832"/><line style="stroke:#181818;stroke-width:0.5;stroke-dasharray:5.0,5.0;" x1="706" x2="706" y1="81.4883" y2="373.2832"/><text fill="#000000" font-family="sans-serif" font-size="14" lengthAdjust="spacing" textLength="31" x="30" y="78.5352">User</text><ellipse cx="48.5" cy="13.5" fill="#E2E2F0" rx="8" ry="8" style="stroke:#181818;stroke-width:0.5;"/><path d="M48.5,21.5 L48.5,48.5 M35.5,29.5 L61.5,29.5 M48.5,48.5 L35.5,63.5 M48.5,48.5 L61.5,63.5 " fill="none" style="stroke:#181818;stroke-width:0.5;"/><text fill="#000000" font-family="sans-serif" font-size="14" lengthAdjust="spacing" textLength="31" x="30" y="385.8184">User</text><ellipse cx="48.5" cy="397.2715" fill="#E2E2F0" rx="8" ry="8" style="stroke:#181818;stroke-width:0.5;"/><path d="M48.5,405.2715 L48.5,432.2715 M35.5,413.2715 L61.5,413.2715 M48.5,432.2715 L35.5,447.2715 M48.5,432.2715 L61.5,447.2715 " fill="none" style="stroke:#181818;stroke-width:0.5;"/><rect fill="#E2E2F0" height="30.4883" rx="2.5" ry="2.5" style="stroke:#181818;stroke-width:0.5;" width="62" x="440.5" y="50"/><text fill="#000000" font-family="sans-serif" font-size="14" lengthAdjust="spacing" textLength="48" x="447.5" y="70.5352">System</text><rect fill="#E2E2F0" height="30.4883" rx="2.5" ry="2.5" style="stroke:#181818;stroke-width:0.5;" width="62" x="440.5" y="372.2832"/><text fill="#000000" font-family="sans-serif" font-size="14" lengthAdjust="spacing" textLength="48" x="447.5" y="392.8184">System</text><rect fill="#E2E2F0" height="30.4883" rx="2.5" ry="2.5" style="stroke:#181818;stroke-width:0.5;" width="77" x="668" y="50"/><text fill="#000000" font-family="sans-serif" font-size="14" lengthAdjust="spacing" textLength="63" x="675" y="70.5352">Database</text><rect fill="#E2E2F0" height="30.4883" rx="2.5" ry="2.5" style="stroke:#181818;stroke-width:0.5;" width="77" x="668" y="372.2832"/><text fill="#000000" font-family="sans-serif" font-size="14" lengthAdjust="spacing" textLength="63" x="675" y="392.8184">Database</text><polygon fill="#181818" points="459.5,108.7988,469.5,112.7988,459.5,116.7988,463.5,112.7988" style="stroke:#181818;stroke-width:1.0;"/><line style="stroke:#181818;stroke-width:1.0;" x1="48.5" x2="465.5" y1="112.7988" y2="112.7988"/><text fill="#000000" font-family="sans-serif" font-size="13" lengthAdjust="spacing" textLength="128" x="55.5" y="108.0566">Retrieve Category ID</text><polygon fill="#181818" points="694.5,138.1094,704.5,142.1094,694.5,146.1094,698.5,142.1094" style="stroke:#181818;stroke-width:1.0;"/><line style="stroke:#181818;stroke-width:1.0;" x1="471.5" x2="700.5" y1="142.1094" y2="142.1094"/><text fill="#000000" font-family="sans-serif" font-size="13" lengthAdjust="spacing" textLength="211" x="478.5" y="137.3672">Check if Books Exist for Category</text><path d="M10,157.1094 L72,157.1094 L72,164.4199 L62,174.4199 L10,174.4199 L10,157.1094 " fill="#EEEEEE" style="stroke:#000000;stroke-width:1.5;"/><rect fill="none" height="169.8633" style="stroke:#000000;stroke-width:1.5;" width="745" x="10" y="157.1094"/><text fill="#000000" font-family="sans-serif" font-size="13" font-weight="bold" lengthAdjust="spacing" textLength="17" x="25" y="170.6777">alt</text><text fill="#000000" font-family="sans-serif" font-size="11" font-weight="bold" lengthAdjust="spacing" textLength="73" x="87" y="169.7441">[Books Exist]</text><polygon fill="#181818" points="59.5,191.7305,49.5,195.7305,59.5,199.7305,55.5,195.7305" style="stroke:#181818;stroke-width:1.0;"/><line style="stroke:#181818;stroke-width:1.0;" x1="53.5" x2="470.5" y1="195.7305" y2="195.7305"/><text fill="#000000" font-family="sans-serif" font-size="13" lengthAdjust="spacing" textLength="399" x="65.5" y="190.9883">Show alert "This category has books! Delete books of category"</text><line style="stroke:#000000;stroke-width:1.0;stroke-dasharray:2.0,2.0;" x1="10" x2="755" y1="204.7305" y2="204.7305"/><polygon fill="#181818" points="694.5,223.041,704.5,227.041,694.5,231.041,698.5,227.041" style="stroke:#181818;stroke-width:1.0;"/><line style="stroke:#181818;stroke-width:1.0;" x1="471.5" x2="700.5" y1="227.041" y2="227.041"/><text fill="#000000" font-family="sans-serif" font-size="13" lengthAdjust="spacing" textLength="172" x="478.5" y="222.2988">Attempt to Delete Category</text><path d="M20,242.041 L82,242.041 L82,249.3516 L72,259.3516 L20,259.3516 L20,242.041 " fill="#EEEEEE" style="stroke:#000000;stroke-width:1.5;"/><rect fill="none" height="77.9316" style="stroke:#000000;stroke-width:1.5;" width="492.5" x="20" y="242.041"/><text fill="#000000" font-family="sans-serif" font-size="13" font-weight="bold" lengthAdjust="spacing" textLength="17" x="35" y="255.6094">alt</text><text fill="#000000" font-family="sans-serif" font-size="11" font-weight="bold" lengthAdjust="spacing" textLength="90" x="97" y="254.6758">[Delete Success]</text><polygon fill="#181818" points="59.5,276.6621,49.5,280.6621,59.5,284.6621,55.5,280.6621" style="stroke:#181818;stroke-width:1.0;"/><line style="stroke:#181818;stroke-width:1.0;" x1="53.5" x2="470.5" y1="280.6621" y2="280.6621"/><text fill="#000000" font-family="sans-serif" font-size="13" lengthAdjust="spacing" textLength="213" x="65.5" y="275.9199">Show alert "Deleted Successfully!"</text><line style="stroke:#000000;stroke-width:1.0;stroke-dasharray:2.0,2.0;" x1="20" x2="512.5" y1="289.6621" y2="289.6621"/><polygon fill="#181818" points="59.5,307.9727,49.5,311.9727,59.5,315.9727,55.5,311.9727" style="stroke:#181818;stroke-width:1.0;"/><line style="stroke:#181818;stroke-width:1.0;" x1="53.5" x2="470.5" y1="311.9727" y2="311.9727"/><text fill="#000000" font-family="sans-serif" font-size="13" lengthAdjust="spacing" textLength="157" x="65.5" y="307.2305">Show alert "Deleted Fail!"</text><polygon fill="#181818" points="59.5,351.2832,49.5,355.2832,59.5,359.2832,55.5,355.2832" style="stroke:#181818;stroke-width:1.0;"/><line style="stroke:#181818;stroke-width:1.0;" x1="53.5" x2="470.5" y1="355.2832" y2="355.2832"/><text fill="#000000" font-family="sans-serif" font-size="13" lengthAdjust="spacing" textLength="64" x="65.5" y="350.541">Refresh UI</text><!--SRC=[ZOx1JiCm38RlUOf_lVC2FI3H5QHTL_O0NkRGQ66fOW_Mjrz2sy4u80wHOll_x8-ineITS3839VNM3tHILDqeokyLI31zxySjAUr9-2lGDiQK3NXudCCrjgp9ymTZJSflCOtOj6OQbbZRr5ZtR8_m3asCHy7pnOl2PPi5COQ2_fmQu7j5kLYZw-CdA73AKg-z5zZbNf_DzeLTeUN0obE5w6wPod0GljjQn9uq5uD2uqBUZ82YD7UxixKiafj_Uqtnmv9tvn36LPMn-Vh_w1VoOQ9E1rEU-KrjsIMM7hlD5G00]--></g></svg>