<?xml version="1.0" encoding="us-ascii" standalone="no"?><svg xmlns="http://www.w3.org/2000/svg" xmlns:xlink="http://www.w3.org/1999/xlink" contentStyleType="text/css" height="451px" preserveAspectRatio="none" style="width:836px;height:451px;background:#FFFFFF;" version="1.1" viewBox="0 0 836 451" width="836px" zoomAndPan="magnify"><defs/><g><ellipse cx="423" cy="20" fill="#222222" rx="10" ry="10" style="stroke:#222222;stroke-width:1.0;"/><rect fill="#F1F1F1" height="34.1328" rx="12.5" ry="12.5" style="stroke:#181818;stroke-width:0.5;" width="138" x="354" y="50"/><text fill="#000000" font-family="sans-serif" font-size="12" lengthAdjust="spacing" textLength="118" x="364" y="71.6016">Retrieve Category ID</text><rect fill="#F1F1F1" height="34.1328" rx="12.5" ry="12.5" style="stroke:#181818;stroke-width:0.5;" width="210" x="318" y="104.1328"/><text fill="#000000" font-family="sans-serif" font-size="12" lengthAdjust="spacing" textLength="190" x="328" y="125.7344">Check if Books Exist for Category</text><polygon fill="#F1F1F1" points="390,158.2656,456,158.2656,468,170.2656,456,182.2656,390,182.2656,378,170.2656,390,158.2656" style="stroke:#181818;stroke-width:0.5;"/><text fill="#000000" font-family="sans-serif" font-size="11" lengthAdjust="spacing" textLength="66" x="390" y="174.4229">Books Exist?</text><text fill="#000000" font-family="sans-serif" font-size="11" lengthAdjust="spacing" textLength="18" x="360" y="167.9453">yes</text><text fill="#000000" font-family="sans-serif" font-size="11" lengthAdjust="spacing" textLength="14" x="468" y="167.9453">no</text><rect fill="#F1F1F1" height="34.1328" rx="12.5" ry="12.5" style="stroke:#181818;stroke-width:0.5;" width="390" x="11" y="192.2656"/><text fill="#000000" font-family="sans-serif" font-size="12" lengthAdjust="spacing" textLength="370" x="21" y="213.8672">Show alert "This category have books! Delete books of category"</text><ellipse cx="206" cy="257.3984" fill="none" rx="11" ry="11" style="stroke:#222222;stroke-width:1.0;"/><ellipse cx="206" cy="257.3984" fill="#222222" rx="6" ry="6" style="stroke:#222222;stroke-width:1.0;"/><rect fill="#F1F1F1" height="34.1328" rx="12.5" ry="12.5" style="stroke:#181818;stroke-width:0.5;" width="177" x="551.5" y="192.2656"/><text fill="#000000" font-family="sans-serif" font-size="12" lengthAdjust="spacing" textLength="157" x="561.5" y="213.8672">Attempt to Delete Category</text><polygon fill="#F1F1F1" points="598,246.3984,682,246.3984,694,258.3984,682,270.3984,598,270.3984,586,258.3984,598,246.3984" style="stroke:#181818;stroke-width:0.5;"/><text fill="#000000" font-family="sans-serif" font-size="11" lengthAdjust="spacing" textLength="84" x="598" y="262.5557">Delete Success?</text><text fill="#000000" font-family="sans-serif" font-size="11" lengthAdjust="spacing" textLength="18" x="568" y="256.0781">yes</text><text fill="#000000" font-family="sans-serif" font-size="11" lengthAdjust="spacing" textLength="14" x="694" y="256.0781">no</text><rect fill="#F1F1F1" height="34.1328" rx="12.5" ry="12.5" style="stroke:#181818;stroke-width:0.5;" width="211" x="431" y="280.3984"/><text fill="#000000" font-family="sans-serif" font-size="12" lengthAdjust="spacing" textLength="191" x="441" y="302">Show alert "Deleted Successfully!"</text><rect fill="#F1F1F1" height="34.1328" rx="12.5" ry="12.5" style="stroke:#181818;stroke-width:0.5;" width="163" x="662" y="280.3984"/><text fill="#000000" font-family="sans-serif" font-size="12" lengthAdjust="spacing" textLength="143" x="672" y="302">Show alert "Deleted Fail!"</text><polygon fill="#F1F1F1" points="640,320.5313,652,332.5313,640,344.5313,628,332.5313,640,320.5313" style="stroke:#181818;stroke-width:0.5;"/><rect fill="#F1F1F1" height="34.1328" rx="12.5" ry="12.5" style="stroke:#181818;stroke-width:0.5;" width="79" x="383.5" y="364.5313"/><text fill="#000000" font-family="sans-serif" font-size="12" lengthAdjust="spacing" textLength="59" x="393.5" y="386.1328">Refresh UI</text><ellipse cx="423" cy="429.6641" fill="none" rx="11" ry="11" style="stroke:#222222;stroke-width:1.0;"/><ellipse cx="423" cy="429.6641" fill="#222222" rx="6" ry="6" style="stroke:#222222;stroke-width:1.0;"/><line style="stroke:#181818;stroke-width:1.0;" x1="423" x2="423" y1="30" y2="50"/><polygon fill="#181818" points="419,40,423,50,427,40,423,44" style="stroke:#181818;stroke-width:1.0;"/><line style="stroke:#181818;stroke-width:1.0;" x1="423" x2="423" y1="84.1328" y2="104.1328"/><polygon fill="#181818" points="419,94.1328,423,104.1328,427,94.1328,423,98.1328" style="stroke:#181818;stroke-width:1.0;"/><line style="stroke:#181818;stroke-width:1.0;" x1="206" x2="206" y1="226.3984" y2="246.3984"/><polygon fill="#181818" points="202,236.3984,206,246.3984,210,236.3984,206,240.3984" style="stroke:#181818;stroke-width:1.0;"/><line style="stroke:#181818;stroke-width:1.0;" x1="586" x2="536.5" y1="258.3984" y2="258.3984"/><line style="stroke:#181818;stroke-width:1.0;" x1="536.5" x2="536.5" y1="258.3984" y2="280.3984"/><polygon fill="#181818" points="532.5,270.3984,536.5,280.3984,540.5,270.3984,536.5,274.3984" style="stroke:#181818;stroke-width:1.0;"/><line style="stroke:#181818;stroke-width:1.0;" x1="694" x2="743.5" y1="258.3984" y2="258.3984"/><line style="stroke:#181818;stroke-width:1.0;" x1="743.5" x2="743.5" y1="258.3984" y2="280.3984"/><polygon fill="#181818" points="739.5,270.3984,743.5,280.3984,747.5,270.3984,743.5,274.3984" style="stroke:#181818;stroke-width:1.0;"/><line style="stroke:#181818;stroke-width:1.0;" x1="536.5" x2="536.5" y1="314.5313" y2="332.5313"/><line style="stroke:#181818;stroke-width:1.0;" x1="536.5" x2="628" y1="332.5313" y2="332.5313"/><polygon fill="#181818" points="618,328.5313,628,332.5313,618,336.5313,622,332.5313" style="stroke:#181818;stroke-width:1.0;"/><line style="stroke:#181818;stroke-width:1.0;" x1="743.5" x2="743.5" y1="314.5313" y2="332.5313"/><line style="stroke:#181818;stroke-width:1.0;" x1="743.5" x2="652" y1="332.5313" y2="332.5313"/><polygon fill="#181818" points="662,328.5313,652,332.5313,662,336.5313,658,332.5313" style="stroke:#181818;stroke-width:1.0;"/><line style="stroke:#181818;stroke-width:1.0;" x1="640" x2="640" y1="226.3984" y2="246.3984"/><polygon fill="#181818" points="636,236.3984,640,246.3984,644,236.3984,640,240.3984" style="stroke:#181818;stroke-width:1.0;"/><line style="stroke:#181818;stroke-width:1.0;" x1="378" x2="206" y1="170.2656" y2="170.2656"/><line style="stroke:#181818;stroke-width:1.0;" x1="206" x2="206" y1="170.2656" y2="192.2656"/><polygon fill="#181818" points="202,182.2656,206,192.2656,210,182.2656,206,186.2656" style="stroke:#181818;stroke-width:1.0;"/><line style="stroke:#181818;stroke-width:1.0;" x1="468" x2="640" y1="170.2656" y2="170.2656"/><line style="stroke:#181818;stroke-width:1.0;" x1="640" x2="640" y1="170.2656" y2="192.2656"/><polygon fill="#181818" points="636,182.2656,640,192.2656,644,182.2656,640,186.2656" style="stroke:#181818;stroke-width:1.0;"/><line style="stroke:#181818;stroke-width:1.0;" x1="640" x2="640" y1="344.5313" y2="349.5313"/><line style="stroke:#181818;stroke-width:1.0;" x1="640" x2="423" y1="349.5313" y2="349.5313"/><line style="stroke:#181818;stroke-width:1.0;" x1="423" x2="423" y1="349.5313" y2="364.5313"/><polygon fill="#181818" points="419,354.5313,423,364.5313,427,354.5313,423,358.5313" style="stroke:#181818;stroke-width:1.0;"/><line style="stroke:#181818;stroke-width:1.0;" x1="423" x2="423" y1="138.2656" y2="158.2656"/><polygon fill="#181818" points="419,148.2656,423,158.2656,427,148.2656,423,152.2656" style="stroke:#181818;stroke-width:1.0;"/><line style="stroke:#181818;stroke-width:1.0;" x1="423" x2="423" y1="398.6641" y2="418.6641"/><polygon fill="#181818" points="419,408.6641,423,418.6641,427,408.6641,423,412.6641" style="stroke:#181818;stroke-width:1.0;"/><!--SRC=[TP11Ri9034NtFiM7LRX2igWAj1BRqXvW29xEY256OzCsjoS92I2aRaRo-7t_RwkvR4Jb1rkE_CDOEUDloIqswuhALU3wWEYn53aetlwY6hpa6rOHTTtYeVsoW0LkKBIi2mBARP1VkCJPCFyCKL5F5i5rXhjUEiEQ4zjOGVmDcbVT33Kv4ITb58qCGr_D-7Woc4pAUoBqWOlnUtkkQrPzJlMKwmhl9zgVKsfdW_MZwp-YTnVJ23VxwEdwzZVrcJNWQrFHiC45]--></g></svg>