<?xml version="1.0" encoding="us-ascii" standalone="no"?><svg xmlns="http://www.w3.org/2000/svg" xmlns:xlink="http://www.w3.org/1999/xlink" contentStyleType="text/css" height="998px" preserveAspectRatio="none" style="width:634px;height:998px;background:#FFFFFF;" version="1.1" viewBox="0 0 634 998" width="634px" zoomAndPan="magnify"><defs/><g><rect fill="none" height="684.832" style="stroke:#000000;stroke-width:1.5;" width="617" x="10" y="186.4199"/><rect fill="none" height="169.8633" style="stroke:#000000;stroke-width:1.5;" width="577" x="30" y="240.041"/><rect fill="none" height="77.9316" style="stroke:#000000;stroke-width:1.5;" width="310.5" x="40" y="324.9727"/><rect fill="none" height="353.7266" style="stroke:#000000;stroke-width:1.5;" width="597" x="20" y="510.5254"/><rect fill="none" height="169.8633" style="stroke:#000000;stroke-width:1.5;" width="577" x="30" y="564.1465"/><rect fill="none" height="77.9316" style="stroke:#000000;stroke-width:1.5;" width="310.5" x="40" y="649.0781"/><rect fill="none" height="77.9316" style="stroke:#000000;stroke-width:1.5;" width="310.5" x="40" y="779.3203"/><line style="stroke:#181818;stroke-width:0.5;stroke-dasharray:5.0,5.0;" x1="68" x2="68" y1="81.4883" y2="917.5625"/><line style="stroke:#181818;stroke-width:0.5;stroke-dasharray:5.0,5.0;" x1="309.5" x2="309.5" y1="81.4883" y2="917.5625"/><line style="stroke:#181818;stroke-width:0.5;stroke-dasharray:5.0,5.0;" x1="558" x2="558" y1="81.4883" y2="917.5625"/><text fill="#000000" font-family="sans-serif" font-size="14" lengthAdjust="spacing" textLength="31" x="50" y="78.5352">User</text><ellipse cx="68.5" cy="13.5" fill="#E2E2F0" rx="8" ry="8" style="stroke:#181818;stroke-width:0.5;"/><path d="M68.5,21.5 L68.5,48.5 M55.5,29.5 L81.5,29.5 M68.5,48.5 L55.5,63.5 M68.5,48.5 L81.5,63.5 " fill="none" style="stroke:#181818;stroke-width:0.5;"/><text fill="#000000" font-family="sans-serif" font-size="14" lengthAdjust="spacing" textLength="31" x="50" y="930.0977">User</text><ellipse cx="68.5" cy="941.5508" fill="#E2E2F0" rx="8" ry="8" style="stroke:#181818;stroke-width:0.5;"/><path d="M68.5,949.5508 L68.5,976.5508 M55.5,957.5508 L81.5,957.5508 M68.5,976.5508 L55.5,991.5508 M68.5,976.5508 L81.5,991.5508 " fill="none" style="stroke:#181818;stroke-width:0.5;"/><rect fill="#E2E2F0" height="30.4883" rx="2.5" ry="2.5" style="stroke:#181818;stroke-width:0.5;" width="62" x="278.5" y="50"/><text fill="#000000" font-family="sans-serif" font-size="14" lengthAdjust="spacing" textLength="48" x="285.5" y="70.5352">System</text><rect fill="#E2E2F0" height="30.4883" rx="2.5" ry="2.5" style="stroke:#181818;stroke-width:0.5;" width="62" x="278.5" y="916.5625"/><text fill="#000000" font-family="sans-serif" font-size="14" lengthAdjust="spacing" textLength="48" x="285.5" y="937.0977">System</text><rect fill="#E2E2F0" height="30.4883" rx="2.5" ry="2.5" style="stroke:#181818;stroke-width:0.5;" width="77" x="520" y="50"/><text fill="#000000" font-family="sans-serif" font-size="14" lengthAdjust="spacing" textLength="63" x="527" y="70.5352">Database</text><rect fill="#E2E2F0" height="30.4883" rx="2.5" ry="2.5" style="stroke:#181818;stroke-width:0.5;" width="77" x="520" y="916.5625"/><text fill="#000000" font-family="sans-serif" font-size="14" lengthAdjust="spacing" textLength="63" x="527" y="937.0977">Database</text><polygon fill="#181818" points="297.5,108.7988,307.5,112.7988,297.5,116.7988,301.5,112.7988" style="stroke:#181818;stroke-width:1.0;"/><line style="stroke:#181818;stroke-width:1.0;" x1="68.5" x2="303.5" y1="112.7988" y2="112.7988"/><text fill="#000000" font-family="sans-serif" font-size="13" lengthAdjust="spacing" textLength="121" x="75.5" y="108.0566">Format Input Name</text><polygon fill="#181818" points="297.5,138.1094,307.5,142.1094,297.5,146.1094,301.5,142.1094" style="stroke:#181818;stroke-width:1.0;"/><line style="stroke:#181818;stroke-width:1.0;" x1="68.5" x2="303.5" y1="142.1094" y2="142.1094"/><text fill="#000000" font-family="sans-serif" font-size="13" lengthAdjust="spacing" textLength="172" x="75.5" y="137.3672">Retrieve Input ID and Name</text><polygon fill="#181818" points="297.5,167.4199,307.5,171.4199,297.5,175.4199,301.5,171.4199" style="stroke:#181818;stroke-width:1.0;"/><line style="stroke:#181818;stroke-width:1.0;" x1="68.5" x2="303.5" y1="171.4199" y2="171.4199"/><text fill="#000000" font-family="sans-serif" font-size="13" lengthAdjust="spacing" textLength="171" x="75.5" y="166.6777">Create Category with Name</text><path d="M10,186.4199 L72,186.4199 L72,193.7305 L62,203.7305 L10,203.7305 L10,186.4199 " fill="#EEEEEE" style="stroke:#000000;stroke-width:1.5;"/><rect fill="none" height="684.832" style="stroke:#000000;stroke-width:1.5;" width="617" x="10" y="186.4199"/><text fill="#000000" font-family="sans-serif" font-size="13" font-weight="bold" lengthAdjust="spacing" textLength="17" x="25" y="199.9883">alt</text><text fill="#000000" font-family="sans-serif" font-size="11" font-weight="bold" lengthAdjust="spacing" textLength="73" x="87" y="199.0547">[ID is empty]</text><polygon fill="#181818" points="546.5,221.041,556.5,225.041,546.5,229.041,550.5,225.041" style="stroke:#181818;stroke-width:1.0;"/><line style="stroke:#181818;stroke-width:1.0;" x1="309.5" x2="552.5" y1="225.041" y2="225.041"/><text fill="#000000" font-family="sans-serif" font-size="13" lengthAdjust="spacing" textLength="194" x="316.5" y="220.2988">Check if Category Name exists</text><path d="M30,240.041 L92,240.041 L92,247.3516 L82,257.3516 L30,257.3516 L30,240.041 " fill="#EEEEEE" style="stroke:#000000;stroke-width:1.5;"/><rect fill="none" height="169.8633" style="stroke:#000000;stroke-width:1.5;" width="577" x="30" y="240.041"/><text fill="#000000" font-family="sans-serif" font-size="13" font-weight="bold" lengthAdjust="spacing" textLength="17" x="45" y="253.6094">alt</text><text fill="#000000" font-family="sans-serif" font-size="11" font-weight="bold" lengthAdjust="spacing" textLength="94" x="107" y="252.6758">[Category Exists]</text><polygon fill="#181818" points="79.5,274.6621,69.5,278.6621,79.5,282.6621,75.5,278.6621" style="stroke:#181818;stroke-width:1.0;"/><line style="stroke:#181818;stroke-width:1.0;" x1="73.5" x2="308.5" y1="278.6621" y2="278.6621"/><text fill="#000000" font-family="sans-serif" font-size="13" lengthAdjust="spacing" textLength="212" x="85.5" y="273.9199">Show alert "This Category exists!"</text><line style="stroke:#000000;stroke-width:1.0;stroke-dasharray:2.0,2.0;" x1="30" x2="607" y1="287.6621" y2="287.6621"/><polygon fill="#181818" points="546.5,305.9727,556.5,309.9727,546.5,313.9727,550.5,309.9727" style="stroke:#181818;stroke-width:1.0;"/><line style="stroke:#181818;stroke-width:1.0;" x1="309.5" x2="552.5" y1="309.9727" y2="309.9727"/><text fill="#000000" font-family="sans-serif" font-size="13" lengthAdjust="spacing" textLength="157" x="316.5" y="305.2305">Attempt to Add Category</text><path d="M40,324.9727 L102,324.9727 L102,332.2832 L92,342.2832 L40,342.2832 L40,324.9727 " fill="#EEEEEE" style="stroke:#000000;stroke-width:1.5;"/><rect fill="none" height="77.9316" style="stroke:#000000;stroke-width:1.5;" width="310.5" x="40" y="324.9727"/><text fill="#000000" font-family="sans-serif" font-size="13" font-weight="bold" lengthAdjust="spacing" textLength="17" x="55" y="338.541">alt</text><text fill="#000000" font-family="sans-serif" font-size="11" font-weight="bold" lengthAdjust="spacing" textLength="77" x="117" y="337.6074">[Add Success]</text><polygon fill="#181818" points="79.5,359.5938,69.5,363.5938,79.5,367.5938,75.5,363.5938" style="stroke:#181818;stroke-width:1.0;"/><line style="stroke:#181818;stroke-width:1.0;" x1="73.5" x2="308.5" y1="363.5938" y2="363.5938"/><text fill="#000000" font-family="sans-serif" font-size="13" lengthAdjust="spacing" textLength="205" x="85.5" y="358.8516">Show alert "Added Successfully!"</text><line style="stroke:#000000;stroke-width:1.0;stroke-dasharray:2.0,2.0;" x1="40" x2="350.5" y1="372.5938" y2="372.5938"/><polygon fill="#181818" points="79.5,390.9043,69.5,394.9043,79.5,398.9043,75.5,394.9043" style="stroke:#181818;stroke-width:1.0;"/><line style="stroke:#181818;stroke-width:1.0;" x1="73.5" x2="308.5" y1="394.9043" y2="394.9043"/><text fill="#000000" font-family="sans-serif" font-size="13" lengthAdjust="spacing" textLength="149" x="85.5" y="390.1621">Show alert "Added Fail!"</text><line style="stroke:#000000;stroke-width:1.0;stroke-dasharray:2.0,2.0;" x1="10" x2="627" y1="417.9043" y2="417.9043"/><line style="stroke:#181818;stroke-width:1.0;" x1="309.5" x2="351.5" y1="440.2148" y2="440.2148"/><line style="stroke:#181818;stroke-width:1.0;" x1="351.5" x2="351.5" y1="440.2148" y2="453.2148"/><line style="stroke:#181818;stroke-width:1.0;" x1="310.5" x2="351.5" y1="453.2148" y2="453.2148"/><polygon fill="#181818" points="320.5,449.2148,310.5,453.2148,320.5,457.2148,316.5,453.2148" style="stroke:#181818;stroke-width:1.0;"/><text fill="#000000" font-family="sans-serif" font-size="13" lengthAdjust="spacing" textLength="97" x="316.5" y="435.4727">Set Category ID</text><line style="stroke:#181818;stroke-width:1.0;" x1="309.5" x2="351.5" y1="482.5254" y2="482.5254"/><line style="stroke:#181818;stroke-width:1.0;" x1="351.5" x2="351.5" y1="482.5254" y2="495.5254"/><line style="stroke:#181818;stroke-width:1.0;" x1="310.5" x2="351.5" y1="495.5254" y2="495.5254"/><polygon fill="#181818" points="320.5,491.5254,310.5,495.5254,320.5,499.5254,316.5,495.5254" style="stroke:#181818;stroke-width:1.0;"/><text fill="#000000" font-family="sans-serif" font-size="13" lengthAdjust="spacing" textLength="235" x="316.5" y="477.7832">Check if Category Name has changed</text><path d="M20,510.5254 L82,510.5254 L82,517.8359 L72,527.8359 L20,527.8359 L20,510.5254 " fill="#EEEEEE" style="stroke:#000000;stroke-width:1.5;"/><rect fill="none" height="353.7266" style="stroke:#000000;stroke-width:1.5;" width="597" x="20" y="510.5254"/><text fill="#000000" font-family="sans-serif" font-size="13" font-weight="bold" lengthAdjust="spacing" textLength="17" x="35" y="524.0938">alt</text><text fill="#000000" font-family="sans-serif" font-size="11" font-weight="bold" lengthAdjust="spacing" textLength="91" x="97" y="523.1602">[Name Changed]</text><polygon fill="#181818" points="546.5,545.1465,556.5,549.1465,546.5,553.1465,550.5,549.1465" style="stroke:#181818;stroke-width:1.0;"/><line style="stroke:#181818;stroke-width:1.0;" x1="309.5" x2="552.5" y1="549.1465" y2="549.1465"/><text fill="#000000" font-family="sans-serif" font-size="13" lengthAdjust="spacing" textLength="194" x="316.5" y="544.4043">Check if Category Name exists</text><path d="M30,564.1465 L92,564.1465 L92,571.457 L82,581.457 L30,581.457 L30,564.1465 " fill="#EEEEEE" style="stroke:#000000;stroke-width:1.5;"/><rect fill="none" height="169.8633" style="stroke:#000000;stroke-width:1.5;" width="577" x="30" y="564.1465"/><text fill="#000000" font-family="sans-serif" font-size="13" font-weight="bold" lengthAdjust="spacing" textLength="17" x="45" y="577.7148">alt</text><text fill="#000000" font-family="sans-serif" font-size="11" font-weight="bold" lengthAdjust="spacing" textLength="94" x="107" y="576.7813">[Category Exists]</text><polygon fill="#181818" points="79.5,598.7676,69.5,602.7676,79.5,606.7676,75.5,602.7676" style="stroke:#181818;stroke-width:1.0;"/><line style="stroke:#181818;stroke-width:1.0;" x1="73.5" x2="308.5" y1="602.7676" y2="602.7676"/><text fill="#000000" font-family="sans-serif" font-size="13" lengthAdjust="spacing" textLength="212" x="85.5" y="598.0254">Show alert "This Category exists!"</text><line style="stroke:#000000;stroke-width:1.0;stroke-dasharray:2.0,2.0;" x1="30" x2="607" y1="611.7676" y2="611.7676"/><polygon fill="#181818" points="546.5,630.0781,556.5,634.0781,546.5,638.0781,550.5,634.0781" style="stroke:#181818;stroke-width:1.0;"/><line style="stroke:#181818;stroke-width:1.0;" x1="309.5" x2="552.5" y1="634.0781" y2="634.0781"/><text fill="#000000" font-family="sans-serif" font-size="13" lengthAdjust="spacing" textLength="176" x="316.5" y="629.3359">Attempt to Update Category</text><path d="M40,649.0781 L102,649.0781 L102,656.3887 L92,666.3887 L40,666.3887 L40,649.0781 " fill="#EEEEEE" style="stroke:#000000;stroke-width:1.5;"/><rect fill="none" height="77.9316" style="stroke:#000000;stroke-width:1.5;" width="310.5" x="40" y="649.0781"/><text fill="#000000" font-family="sans-serif" font-size="13" font-weight="bold" lengthAdjust="spacing" textLength="17" x="55" y="662.6465">alt</text><text fill="#000000" font-family="sans-serif" font-size="11" font-weight="bold" lengthAdjust="spacing" textLength="93" x="117" y="661.7129">[Update Success]</text><polygon fill="#181818" points="79.5,683.6992,69.5,687.6992,79.5,691.6992,75.5,687.6992" style="stroke:#181818;stroke-width:1.0;"/><line style="stroke:#181818;stroke-width:1.0;" x1="73.5" x2="308.5" y1="687.6992" y2="687.6992"/><text fill="#000000" font-family="sans-serif" font-size="13" lengthAdjust="spacing" textLength="217" x="85.5" y="682.957">Show alert "Updated Successfully!"</text><line style="stroke:#000000;stroke-width:1.0;stroke-dasharray:2.0,2.0;" x1="40" x2="350.5" y1="696.6992" y2="696.6992"/><polygon fill="#181818" points="79.5,715.0098,69.5,719.0098,79.5,723.0098,75.5,719.0098" style="stroke:#181818;stroke-width:1.0;"/><line style="stroke:#181818;stroke-width:1.0;" x1="73.5" x2="308.5" y1="719.0098" y2="719.0098"/><text fill="#000000" font-family="sans-serif" font-size="13" lengthAdjust="spacing" textLength="161" x="85.5" y="714.2676">Show alert "Updated Fail!"</text><line style="stroke:#000000;stroke-width:1.0;stroke-dasharray:2.0,2.0;" x1="20" x2="617" y1="742.0098" y2="742.0098"/><polygon fill="#181818" points="546.5,760.3203,556.5,764.3203,546.5,768.3203,550.5,764.3203" style="stroke:#181818;stroke-width:1.0;"/><line style="stroke:#181818;stroke-width:1.0;" x1="309.5" x2="552.5" y1="764.3203" y2="764.3203"/><text fill="#000000" font-family="sans-serif" font-size="13" lengthAdjust="spacing" textLength="176" x="316.5" y="759.5781">Attempt to Update Category</text><path d="M40,779.3203 L102,779.3203 L102,786.6309 L92,796.6309 L40,796.6309 L40,779.3203 " fill="#EEEEEE" style="stroke:#000000;stroke-width:1.5;"/><rect fill="none" height="77.9316" style="stroke:#000000;stroke-width:1.5;" width="310.5" x="40" y="779.3203"/><text fill="#000000" font-family="sans-serif" font-size="13" font-weight="bold" lengthAdjust="spacing" textLength="17" x="55" y="792.8887">alt</text><text fill="#000000" font-family="sans-serif" font-size="11" font-weight="bold" lengthAdjust="spacing" textLength="93" x="117" y="791.9551">[Update Success]</text><polygon fill="#181818" points="79.5,813.9414,69.5,817.9414,79.5,821.9414,75.5,817.9414" style="stroke:#181818;stroke-width:1.0;"/><line style="stroke:#181818;stroke-width:1.0;" x1="73.5" x2="308.5" y1="817.9414" y2="817.9414"/><text fill="#000000" font-family="sans-serif" font-size="13" lengthAdjust="spacing" textLength="217" x="85.5" y="813.1992">Show alert "Updated Successfully!"</text><line style="stroke:#000000;stroke-width:1.0;stroke-dasharray:2.0,2.0;" x1="40" x2="350.5" y1="826.9414" y2="826.9414"/><polygon fill="#181818" points="79.5,845.252,69.5,849.252,79.5,853.252,75.5,849.252" style="stroke:#181818;stroke-width:1.0;"/><line style="stroke:#181818;stroke-width:1.0;" x1="73.5" x2="308.5" y1="849.252" y2="849.252"/><text fill="#000000" font-family="sans-serif" font-size="13" lengthAdjust="spacing" textLength="161" x="85.5" y="844.5098">Show alert "Updated Fail!"</text><polygon fill="#181818" points="79.5,895.5625,69.5,899.5625,79.5,903.5625,75.5,899.5625" style="stroke:#181818;stroke-width:1.0;"/><line style="stroke:#181818;stroke-width:1.0;" x1="73.5" x2="308.5" y1="899.5625" y2="899.5625"/><text fill="#000000" font-family="sans-serif" font-size="13" lengthAdjust="spacing" textLength="64" x="85.5" y="894.8203">Refresh UI</text><!--SRC=[dP9BReCm48RtFiMKVI-GHQK46ebD5w4vm1I6s2elsPEctBus649IIDCiiD3u_-RXVp3bMiFUa1ODQbQfQh1Y29BMC9K1e87-z_8wGiOFDDG9eeqGBWCyltZn2hQrBf4XhfeZmnkMz4kn8zQAliXhuWYmokQbeIPaWj0UXrgtS58iUwN0eaEL0IeRRWLuoE7HngAIqazG-Hbs7D2tCcoisl7ZrUiGdMPnpQmWaVN9YadRuT-bBJT2VQgdm69K6BgYNGzhPjSSS0thB1l9Jkdgks1oJ5CoVUtRrQsQHdr-B8gsgpsfVW-_HLKCN9M9_lGPplHWG4AJLugZMSt2Iqkx8Ad4wa2PV-uk78wX_pgsxDc3hYsyt9Lp-oQRxg2NkrRypQM3jtlfaLaNBxgvByl4oy7DqTK_Dt9khiMf7fpfpisScMUoc_OJr_IESar6mZx-0G00]--></g></svg>