<?xml version="1.0" encoding="us-ascii" standalone="no"?><svg xmlns="http://www.w3.org/2000/svg" xmlns:xlink="http://www.w3.org/1999/xlink" contentStyleType="text/css" height="845px" preserveAspectRatio="none" style="width:1754px;height:845px;background:#FFFFFF;" version="1.1" viewBox="0 0 1754 845" width="1754px" zoomAndPan="magnify"><defs/><g><ellipse cx="737.1875" cy="20" fill="#222222" rx="10" ry="10" style="stroke:#222222;stroke-width:1.0;"/><rect fill="#F1F1F1" height="34.1328" rx="12.5" ry="12.5" style="stroke:#181818;stroke-width:0.5;" width="131" x="671.6875" y="50"/><text fill="#000000" font-family="sans-serif" font-size="12" lengthAdjust="spacing" textLength="111" x="681.6875" y="71.6016">Format Input Name</text><rect fill="#F1F1F1" height="34.1328" rx="12.5" ry="12.5" style="stroke:#181818;stroke-width:0.5;" width="180" x="647.1875" y="104.1328"/><text fill="#000000" font-family="sans-serif" font-size="12" lengthAdjust="spacing" textLength="160" x="657.1875" y="125.7344">Retrieve Input ID and Name</text><rect fill="#F1F1F1" height="34.1328" rx="12.5" ry="12.5" style="stroke:#181818;stroke-width:0.5;" width="178" x="648.1875" y="158.2656"/><text fill="#000000" font-family="sans-serif" font-size="12" lengthAdjust="spacing" textLength="158" x="658.1875" y="179.8672">Create Category with Name</text><polygon fill="#F1F1F1" points="705.1875,212.3984,769.1875,212.3984,781.1875,224.3984,769.1875,236.3984,705.1875,236.3984,693.1875,224.3984,705.1875,212.3984" style="stroke:#181818;stroke-width:0.5;"/><text fill="#000000" font-family="sans-serif" font-size="11" lengthAdjust="spacing" textLength="64" x="705.1875" y="228.5557">ID is empty?</text><text fill="#000000" font-family="sans-serif" font-size="11" lengthAdjust="spacing" textLength="18" x="675.1875" y="222.0781">yes</text><text fill="#000000" font-family="sans-serif" font-size="11" lengthAdjust="spacing" textLength="14" x="781.1875" y="222.0781">no</text><rect fill="#F1F1F1" height="34.1328" rx="12.5" ry="12.5" style="stroke:#181818;stroke-width:0.5;" width="196" x="187.75" y="246.3984"/><text fill="#000000" font-family="sans-serif" font-size="12" lengthAdjust="spacing" textLength="176" x="197.75" y="268">Check if Category Name exists</text><polygon fill="#F1F1F1" points="241.25,300.5313,330.25,300.5313,342.25,312.5313,330.25,324.5313,241.25,324.5313,229.25,312.5313,241.25,300.5313" style="stroke:#181818;stroke-width:0.5;"/><text fill="#000000" font-family="sans-serif" font-size="11" lengthAdjust="spacing" textLength="89" x="241.25" y="316.6885">Category Exists?</text><text fill="#000000" font-family="sans-serif" font-size="11" lengthAdjust="spacing" textLength="18" x="211.25" y="310.2109">yes</text><text fill="#000000" font-family="sans-serif" font-size="11" lengthAdjust="spacing" textLength="14" x="342.25" y="310.2109">no</text><rect fill="#F1F1F1" height="34.1328" rx="12.5" ry="12.5" style="stroke:#181818;stroke-width:0.5;" width="211" x="11" y="334.5313"/><text fill="#000000" font-family="sans-serif" font-size="12" lengthAdjust="spacing" textLength="191" x="21" y="356.1328">Show alert "This Category exists!"</text><ellipse cx="116.5" cy="414.6641" fill="none" rx="11" ry="11" style="stroke:#222222;stroke-width:1.0;"/><ellipse cx="116.5" cy="414.6641" fill="#222222" rx="6" ry="6" style="stroke:#222222;stroke-width:1.0;"/><rect fill="#F1F1F1" height="34.1328" rx="12.5" ry="12.5" style="stroke:#181818;stroke-width:0.5;" width="164" x="373" y="334.5313"/><text fill="#000000" font-family="sans-serif" font-size="12" lengthAdjust="spacing" textLength="144" x="383" y="356.1328">Attempt to Add Category</text><polygon fill="#F1F1F1" points="418.5,403.6641,491.5,403.6641,503.5,415.6641,491.5,427.6641,418.5,427.6641,406.5,415.6641,418.5,403.6641" style="stroke:#181818;stroke-width:0.5;"/><text fill="#000000" font-family="sans-serif" font-size="11" lengthAdjust="spacing" textLength="73" x="418.5" y="419.8213">Add Success?</text><text fill="#000000" font-family="sans-serif" font-size="11" lengthAdjust="spacing" textLength="18" x="388.5" y="413.3438">yes</text><text fill="#000000" font-family="sans-serif" font-size="11" lengthAdjust="spacing" textLength="14" x="503.5" y="413.3438">no</text><rect fill="#F1F1F1" height="34.1328" rx="12.5" ry="12.5" style="stroke:#181818;stroke-width:0.5;" width="205" x="252" y="437.6641"/><text fill="#000000" font-family="sans-serif" font-size="12" lengthAdjust="spacing" textLength="185" x="262" y="459.2656">Show alert "Added Successfully!"</text><rect fill="#F1F1F1" height="34.1328" rx="12.5" ry="12.5" style="stroke:#181818;stroke-width:0.5;" width="157" x="477" y="437.6641"/><text fill="#000000" font-family="sans-serif" font-size="12" lengthAdjust="spacing" textLength="137" x="487" y="459.2656">Show alert "Added Fail!"</text><polygon fill="#F1F1F1" points="455,477.7969,467,489.7969,455,501.7969,443,489.7969,455,477.7969" style="stroke:#181818;stroke-width:0.5;"/><rect fill="#F1F1F1" height="34.1328" rx="12.5" ry="12.5" style="stroke:#181818;stroke-width:0.5;" width="108" x="1184.625" y="246.3984"/><text fill="#000000" font-family="sans-serif" font-size="12" lengthAdjust="spacing" textLength="88" x="1194.625" y="268">Set Category ID</text><rect fill="#F1F1F1" height="34.1328" rx="12.5" ry="12.5" style="stroke:#181818;stroke-width:0.5;" width="236" x="1120.625" y="300.5313"/><text fill="#000000" font-family="sans-serif" font-size="12" lengthAdjust="spacing" textLength="216" x="1130.625" y="322.1328">Check if Category Name has changed</text><polygon fill="#F1F1F1" points="1195.625,369.6641,1281.625,369.6641,1293.625,381.6641,1281.625,393.6641,1195.625,393.6641,1183.625,381.6641,1195.625,369.6641" style="stroke:#181818;stroke-width:0.5;"/><text fill="#000000" font-family="sans-serif" font-size="11" lengthAdjust="spacing" textLength="86" x="1195.625" y="385.8213">Name Changed?</text><text fill="#000000" font-family="sans-serif" font-size="11" lengthAdjust="spacing" textLength="18" x="1165.625" y="379.3438">yes</text><text fill="#000000" font-family="sans-serif" font-size="11" lengthAdjust="spacing" textLength="14" x="1293.625" y="379.3438">no</text><rect fill="#F1F1F1" height="34.1328" rx="12.5" ry="12.5" style="stroke:#181818;stroke-width:0.5;" width="196" x="826.25" y="403.6641"/><text fill="#000000" font-family="sans-serif" font-size="12" lengthAdjust="spacing" textLength="176" x="836.25" y="425.2656">Check if Category Name exists</text><polygon fill="#F1F1F1" points="879.75,472.7969,968.75,472.7969,980.75,484.7969,968.75,496.7969,879.75,496.7969,867.75,484.7969,879.75,472.7969" style="stroke:#181818;stroke-width:0.5;"/><text fill="#000000" font-family="sans-serif" font-size="11" lengthAdjust="spacing" textLength="89" x="879.75" y="488.9541">Category Exists?</text><text fill="#000000" font-family="sans-serif" font-size="11" lengthAdjust="spacing" textLength="18" x="849.75" y="482.4766">yes</text><text fill="#000000" font-family="sans-serif" font-size="11" lengthAdjust="spacing" textLength="14" x="980.75" y="482.4766">no</text><rect fill="#F1F1F1" height="34.1328" rx="12.5" ry="12.5" style="stroke:#181818;stroke-width:0.5;" width="211" x="644" y="506.7969"/><text fill="#000000" font-family="sans-serif" font-size="12" lengthAdjust="spacing" textLength="191" x="654" y="528.3984">Show alert "This Category exists!"</text><ellipse cx="749.5" cy="586.9297" fill="none" rx="11" ry="11" style="stroke:#222222;stroke-width:1.0;"/><ellipse cx="749.5" cy="586.9297" fill="#222222" rx="6" ry="6" style="stroke:#222222;stroke-width:1.0;"/><rect fill="#F1F1F1" height="34.1328" rx="12.5" ry="12.5" style="stroke:#181818;stroke-width:0.5;" width="182" x="1008" y="506.7969"/><text fill="#000000" font-family="sans-serif" font-size="12" lengthAdjust="spacing" textLength="162" x="1018" y="528.3984">Attempt to Update Category</text><polygon fill="#F1F1F1" points="1054.5,575.9297,1143.5,575.9297,1155.5,587.9297,1143.5,599.9297,1054.5,599.9297,1042.5,587.9297,1054.5,575.9297" style="stroke:#181818;stroke-width:0.5;"/><text fill="#000000" font-family="sans-serif" font-size="11" lengthAdjust="spacing" textLength="89" x="1054.5" y="592.0869">Update Success?</text><text fill="#000000" font-family="sans-serif" font-size="11" lengthAdjust="spacing" textLength="18" x="1024.5" y="585.6094">yes</text><text fill="#000000" font-family="sans-serif" font-size="11" lengthAdjust="spacing" textLength="14" x="1155.5" y="585.6094">no</text><rect fill="#F1F1F1" height="34.1328" rx="12.5" ry="12.5" style="stroke:#181818;stroke-width:0.5;" width="216" x="885" y="609.9297"/><text fill="#000000" font-family="sans-serif" font-size="12" lengthAdjust="spacing" textLength="196" x="895" y="631.5313">Show alert "Updated Successfully!"</text><rect fill="#F1F1F1" height="34.1328" rx="12.5" ry="12.5" style="stroke:#181818;stroke-width:0.5;" width="168" x="1121" y="609.9297"/><text fill="#000000" font-family="sans-serif" font-size="12" lengthAdjust="spacing" textLength="148" x="1131" y="631.5313">Show alert "Updated Fail!"</text><polygon fill="#F1F1F1" points="1099,650.0625,1111,662.0625,1099,674.0625,1087,662.0625,1099,650.0625" style="stroke:#181818;stroke-width:0.5;"/><rect fill="#F1F1F1" height="34.1328" rx="12.5" ry="12.5" style="stroke:#181818;stroke-width:0.5;" width="182" x="1462" y="403.6641"/><text fill="#000000" font-family="sans-serif" font-size="12" lengthAdjust="spacing" textLength="162" x="1472" y="425.2656">Attempt to Update Category</text><polygon fill="#F1F1F1" points="1508.5,472.7969,1597.5,472.7969,1609.5,484.7969,1597.5,496.7969,1508.5,496.7969,1496.5,484.7969,1508.5,472.7969" style="stroke:#181818;stroke-width:0.5;"/><text fill="#000000" font-family="sans-serif" font-size="11" lengthAdjust="spacing" textLength="89" x="1508.5" y="488.9541">Update Success?</text><text fill="#000000" font-family="sans-serif" font-size="11" lengthAdjust="spacing" textLength="18" x="1478.5" y="482.4766">yes</text><text fill="#000000" font-family="sans-serif" font-size="11" lengthAdjust="spacing" textLength="14" x="1609.5" y="482.4766">no</text><rect fill="#F1F1F1" height="34.1328" rx="12.5" ry="12.5" style="stroke:#181818;stroke-width:0.5;" width="216" x="1339" y="506.7969"/><text fill="#000000" font-family="sans-serif" font-size="12" lengthAdjust="spacing" textLength="196" x="1349" y="528.3984">Show alert "Updated Successfully!"</text><rect fill="#F1F1F1" height="34.1328" rx="12.5" ry="12.5" style="stroke:#181818;stroke-width:0.5;" width="168" x="1575" y="506.7969"/><text fill="#000000" font-family="sans-serif" font-size="12" lengthAdjust="spacing" textLength="148" x="1585" y="528.3984">Show alert "Updated Fail!"</text><polygon fill="#F1F1F1" points="1553,546.9297,1565,558.9297,1553,570.9297,1541,558.9297,1553,546.9297" style="stroke:#181818;stroke-width:0.5;"/><polygon fill="#F1F1F1" points="1238.625,684.0625,1250.625,696.0625,1238.625,708.0625,1226.625,696.0625,1238.625,684.0625" style="stroke:#181818;stroke-width:0.5;"/><polygon fill="#F1F1F1" points="737.1875,714.0625,749.1875,726.0625,737.1875,738.0625,725.1875,726.0625,737.1875,714.0625" style="stroke:#181818;stroke-width:0.5;"/><rect fill="#F1F1F1" height="34.1328" rx="12.5" ry="12.5" style="stroke:#181818;stroke-width:0.5;" width="79" x="697.6875" y="758.0625"/><text fill="#000000" font-family="sans-serif" font-size="12" lengthAdjust="spacing" textLength="59" x="707.6875" y="779.6641">Refresh UI</text><ellipse cx="737.1875" cy="823.1953" fill="none" rx="11" ry="11" style="stroke:#222222;stroke-width:1.0;"/><ellipse cx="737.1875" cy="823.1953" fill="#222222" rx="6" ry="6" style="stroke:#222222;stroke-width:1.0;"/><line style="stroke:#181818;stroke-width:1.0;" x1="737.1875" x2="737.1875" y1="30" y2="50"/><polygon fill="#181818" points="733.1875,40,737.1875,50,741.1875,40,737.1875,44" style="stroke:#181818;stroke-width:1.0;"/><line style="stroke:#181818;stroke-width:1.0;" x1="737.1875" x2="737.1875" y1="84.1328" y2="104.1328"/><polygon fill="#181818" points="733.1875,94.1328,737.1875,104.1328,741.1875,94.1328,737.1875,98.1328" style="stroke:#181818;stroke-width:1.0;"/><line style="stroke:#181818;stroke-width:1.0;" x1="737.1875" x2="737.1875" y1="138.2656" y2="158.2656"/><polygon fill="#181818" points="733.1875,148.2656,737.1875,158.2656,741.1875,148.2656,737.1875,152.2656" style="stroke:#181818;stroke-width:1.0;"/><line style="stroke:#181818;stroke-width:1.0;" x1="116.5" x2="116.5" y1="368.6641" y2="403.6641"/><polygon fill="#181818" points="112.5,393.6641,116.5,403.6641,120.5,393.6641,116.5,397.6641" style="stroke:#181818;stroke-width:1.0;"/><line style="stroke:#181818;stroke-width:1.0;" x1="406.5" x2="354.5" y1="415.6641" y2="415.6641"/><line style="stroke:#181818;stroke-width:1.0;" x1="354.5" x2="354.5" y1="415.6641" y2="437.6641"/><polygon fill="#181818" points="350.5,427.6641,354.5,437.6641,358.5,427.6641,354.5,431.6641" style="stroke:#181818;stroke-width:1.0;"/><line style="stroke:#181818;stroke-width:1.0;" x1="503.5" x2="555.5" y1="415.6641" y2="415.6641"/><line style="stroke:#181818;stroke-width:1.0;" x1="555.5" x2="555.5" y1="415.6641" y2="437.6641"/><polygon fill="#181818" points="551.5,427.6641,555.5,437.6641,559.5,427.6641,555.5,431.6641" style="stroke:#181818;stroke-width:1.0;"/><line style="stroke:#181818;stroke-width:1.0;" x1="354.5" x2="354.5" y1="471.7969" y2="489.7969"/><line style="stroke:#181818;stroke-width:1.0;" x1="354.5" x2="443" y1="489.7969" y2="489.7969"/><polygon fill="#181818" points="433,485.7969,443,489.7969,433,493.7969,437,489.7969" style="stroke:#181818;stroke-width:1.0;"/><line style="stroke:#181818;stroke-width:1.0;" x1="555.5" x2="555.5" y1="471.7969" y2="489.7969"/><line style="stroke:#181818;stroke-width:1.0;" x1="555.5" x2="467" y1="489.7969" y2="489.7969"/><polygon fill="#181818" points="477,485.7969,467,489.7969,477,493.7969,473,489.7969" style="stroke:#181818;stroke-width:1.0;"/><line style="stroke:#181818;stroke-width:1.0;" x1="455" x2="455" y1="368.6641" y2="403.6641"/><polygon fill="#181818" points="451,393.6641,455,403.6641,459,393.6641,455,397.6641" style="stroke:#181818;stroke-width:1.0;"/><line style="stroke:#181818;stroke-width:1.0;" x1="229.25" x2="116.5" y1="312.5313" y2="312.5313"/><line style="stroke:#181818;stroke-width:1.0;" x1="116.5" x2="116.5" y1="312.5313" y2="334.5313"/><polygon fill="#181818" points="112.5,324.5313,116.5,334.5313,120.5,324.5313,116.5,328.5313" style="stroke:#181818;stroke-width:1.0;"/><line style="stroke:#181818;stroke-width:1.0;" x1="342.25" x2="455" y1="312.5313" y2="312.5313"/><line style="stroke:#181818;stroke-width:1.0;" x1="455" x2="455" y1="312.5313" y2="334.5313"/><polygon fill="#181818" points="451,324.5313,455,334.5313,459,324.5313,455,328.5313" style="stroke:#181818;stroke-width:1.0;"/><line style="stroke:#181818;stroke-width:1.0;" x1="455" x2="455" y1="501.7969" y2="726.0625"/><line style="stroke:#181818;stroke-width:1.0;" x1="455" x2="725.1875" y1="726.0625" y2="726.0625"/><polygon fill="#181818" points="715.1875,722.0625,725.1875,726.0625,715.1875,730.0625,719.1875,726.0625" style="stroke:#181818;stroke-width:1.0;"/><line style="stroke:#181818;stroke-width:1.0;" x1="285.75" x2="285.75" y1="280.5313" y2="300.5313"/><polygon fill="#181818" points="281.75,290.5313,285.75,300.5313,289.75,290.5313,285.75,294.5313" style="stroke:#181818;stroke-width:1.0;"/><line style="stroke:#181818;stroke-width:1.0;" x1="1238.625" x2="1238.625" y1="280.5313" y2="300.5313"/><polygon fill="#181818" points="1234.625,290.5313,1238.625,300.5313,1242.625,290.5313,1238.625,294.5313" style="stroke:#181818;stroke-width:1.0;"/><line style="stroke:#181818;stroke-width:1.0;" x1="749.5" x2="749.5" y1="540.9297" y2="575.9297"/><polygon fill="#181818" points="745.5,565.9297,749.5,575.9297,753.5,565.9297,749.5,569.9297" style="stroke:#181818;stroke-width:1.0;"/><line style="stroke:#181818;stroke-width:1.0;" x1="1042.5" x2="993" y1="587.9297" y2="587.9297"/><line style="stroke:#181818;stroke-width:1.0;" x1="993" x2="993" y1="587.9297" y2="609.9297"/><polygon fill="#181818" points="989,599.9297,993,609.9297,997,599.9297,993,603.9297" style="stroke:#181818;stroke-width:1.0;"/><line style="stroke:#181818;stroke-width:1.0;" x1="1155.5" x2="1205" y1="587.9297" y2="587.9297"/><line style="stroke:#181818;stroke-width:1.0;" x1="1205" x2="1205" y1="587.9297" y2="609.9297"/><polygon fill="#181818" points="1201,599.9297,1205,609.9297,1209,599.9297,1205,603.9297" style="stroke:#181818;stroke-width:1.0;"/><line style="stroke:#181818;stroke-width:1.0;" x1="993" x2="993" y1="644.0625" y2="662.0625"/><line style="stroke:#181818;stroke-width:1.0;" x1="993" x2="1087" y1="662.0625" y2="662.0625"/><polygon fill="#181818" points="1077,658.0625,1087,662.0625,1077,666.0625,1081,662.0625" style="stroke:#181818;stroke-width:1.0;"/><line style="stroke:#181818;stroke-width:1.0;" x1="1205" x2="1205" y1="644.0625" y2="662.0625"/><line style="stroke:#181818;stroke-width:1.0;" x1="1205" x2="1111" y1="662.0625" y2="662.0625"/><polygon fill="#181818" points="1121,658.0625,1111,662.0625,1121,666.0625,1117,662.0625" style="stroke:#181818;stroke-width:1.0;"/><line style="stroke:#181818;stroke-width:1.0;" x1="1099" x2="1099" y1="540.9297" y2="575.9297"/><polygon fill="#181818" points="1095,565.9297,1099,575.9297,1103,565.9297,1099,569.9297" style="stroke:#181818;stroke-width:1.0;"/><line style="stroke:#181818;stroke-width:1.0;" x1="867.75" x2="749.5" y1="484.7969" y2="484.7969"/><line style="stroke:#181818;stroke-width:1.0;" x1="749.5" x2="749.5" y1="484.7969" y2="506.7969"/><polygon fill="#181818" points="745.5,496.7969,749.5,506.7969,753.5,496.7969,749.5,500.7969" style="stroke:#181818;stroke-width:1.0;"/><line style="stroke:#181818;stroke-width:1.0;" x1="980.75" x2="1099" y1="484.7969" y2="484.7969"/><line style="stroke:#181818;stroke-width:1.0;" x1="1099" x2="1099" y1="484.7969" y2="506.7969"/><polygon fill="#181818" points="1095,496.7969,1099,506.7969,1103,496.7969,1099,500.7969" style="stroke:#181818;stroke-width:1.0;"/><line style="stroke:#181818;stroke-width:1.0;" x1="1099" x2="1099" y1="674.0625" y2="696.0625"/><line style="stroke:#181818;stroke-width:1.0;" x1="1099" x2="1226.625" y1="696.0625" y2="696.0625"/><polygon fill="#181818" points="1216.625,692.0625,1226.625,696.0625,1216.625,700.0625,1220.625,696.0625" style="stroke:#181818;stroke-width:1.0;"/><line style="stroke:#181818;stroke-width:1.0;" x1="924.25" x2="924.25" y1="437.7969" y2="472.7969"/><polygon fill="#181818" points="920.25,462.7969,924.25,472.7969,928.25,462.7969,924.25,466.7969" style="stroke:#181818;stroke-width:1.0;"/><line style="stroke:#181818;stroke-width:1.0;" x1="1496.5" x2="1447" y1="484.7969" y2="484.7969"/><line style="stroke:#181818;stroke-width:1.0;" x1="1447" x2="1447" y1="484.7969" y2="506.7969"/><polygon fill="#181818" points="1443,496.7969,1447,506.7969,1451,496.7969,1447,500.7969" style="stroke:#181818;stroke-width:1.0;"/><line style="stroke:#181818;stroke-width:1.0;" x1="1609.5" x2="1659" y1="484.7969" y2="484.7969"/><line style="stroke:#181818;stroke-width:1.0;" x1="1659" x2="1659" y1="484.7969" y2="506.7969"/><polygon fill="#181818" points="1655,496.7969,1659,506.7969,1663,496.7969,1659,500.7969" style="stroke:#181818;stroke-width:1.0;"/><line style="stroke:#181818;stroke-width:1.0;" x1="1447" x2="1447" y1="540.9297" y2="558.9297"/><line style="stroke:#181818;stroke-width:1.0;" x1="1447" x2="1541" y1="558.9297" y2="558.9297"/><polygon fill="#181818" points="1531,554.9297,1541,558.9297,1531,562.9297,1535,558.9297" style="stroke:#181818;stroke-width:1.0;"/><line style="stroke:#181818;stroke-width:1.0;" x1="1659" x2="1659" y1="540.9297" y2="558.9297"/><line style="stroke:#181818;stroke-width:1.0;" x1="1659" x2="1565" y1="558.9297" y2="558.9297"/><polygon fill="#181818" points="1575,554.9297,1565,558.9297,1575,562.9297,1571,558.9297" style="stroke:#181818;stroke-width:1.0;"/><line style="stroke:#181818;stroke-width:1.0;" x1="1553" x2="1553" y1="437.7969" y2="472.7969"/><polygon fill="#181818" points="1549,462.7969,1553,472.7969,1557,462.7969,1553,466.7969" style="stroke:#181818;stroke-width:1.0;"/><line style="stroke:#181818;stroke-width:1.0;" x1="1183.625" x2="924.25" y1="381.6641" y2="381.6641"/><line style="stroke:#181818;stroke-width:1.0;" x1="924.25" x2="924.25" y1="381.6641" y2="403.6641"/><polygon fill="#181818" points="920.25,393.6641,924.25,403.6641,928.25,393.6641,924.25,397.6641" style="stroke:#181818;stroke-width:1.0;"/><line style="stroke:#181818;stroke-width:1.0;" x1="1293.625" x2="1553" y1="381.6641" y2="381.6641"/><line style="stroke:#181818;stroke-width:1.0;" x1="1553" x2="1553" y1="381.6641" y2="403.6641"/><polygon fill="#181818" points="1549,393.6641,1553,403.6641,1557,393.6641,1553,397.6641" style="stroke:#181818;stroke-width:1.0;"/><line style="stroke:#181818;stroke-width:1.0;" x1="1553" x2="1553" y1="570.9297" y2="696.0625"/><line style="stroke:#181818;stroke-width:1.0;" x1="1553" x2="1250.625" y1="696.0625" y2="696.0625"/><polygon fill="#181818" points="1260.625,692.0625,1250.625,696.0625,1260.625,700.0625,1256.625,696.0625" style="stroke:#181818;stroke-width:1.0;"/><line style="stroke:#181818;stroke-width:1.0;" x1="1238.625" x2="1238.625" y1="334.6641" y2="369.6641"/><polygon fill="#181818" points="1234.625,359.6641,1238.625,369.6641,1242.625,359.6641,1238.625,363.6641" style="stroke:#181818;stroke-width:1.0;"/><line style="stroke:#181818;stroke-width:1.0;" x1="693.1875" x2="285.75" y1="224.3984" y2="224.3984"/><line style="stroke:#181818;stroke-width:1.0;" x1="285.75" x2="285.75" y1="224.3984" y2="246.3984"/><polygon fill="#181818" points="281.75,236.3984,285.75,246.3984,289.75,236.3984,285.75,240.3984" style="stroke:#181818;stroke-width:1.0;"/><line style="stroke:#181818;stroke-width:1.0;" x1="781.1875" x2="1238.625" y1="224.3984" y2="224.3984"/><line style="stroke:#181818;stroke-width:1.0;" x1="1238.625" x2="1238.625" y1="224.3984" y2="246.3984"/><polygon fill="#181818" points="1234.625,236.3984,1238.625,246.3984,1242.625,236.3984,1238.625,240.3984" style="stroke:#181818;stroke-width:1.0;"/><line style="stroke:#181818;stroke-width:1.0;" x1="1238.625" x2="1238.625" y1="708.0625" y2="726.0625"/><line style="stroke:#181818;stroke-width:1.0;" x1="1238.625" x2="749.1875" y1="726.0625" y2="726.0625"/><polygon fill="#181818" points="759.1875,722.0625,749.1875,726.0625,759.1875,730.0625,755.1875,726.0625" style="stroke:#181818;stroke-width:1.0;"/><line style="stroke:#181818;stroke-width:1.0;" x1="737.1875" x2="737.1875" y1="192.3984" y2="212.3984"/><polygon fill="#181818" points="733.1875,202.3984,737.1875,212.3984,741.1875,202.3984,737.1875,206.3984" style="stroke:#181818;stroke-width:1.0;"/><line style="stroke:#181818;stroke-width:1.0;" x1="737.1875" x2="737.1875" y1="738.0625" y2="758.0625"/><polygon fill="#181818" points="733.1875,748.0625,737.1875,758.0625,741.1875,748.0625,737.1875,752.0625" style="stroke:#181818;stroke-width:1.0;"/><line style="stroke:#181818;stroke-width:1.0;" x1="737.1875" x2="737.1875" y1="792.1953" y2="812.1953"/><polygon fill="#181818" points="733.1875,802.1953,737.1875,812.1953,741.1875,802.1953,737.1875,806.1953" style="stroke:#181818;stroke-width:1.0;"/><!--SRC=[bLDBReCm4Dtx5DEio1LWKKMaaTXqKPe3M334LWaWUsZAxMlpSIXrADtOrinxytjZJLmHO-6fLbTEa5HDI_3AhnYny0r9IVp4qPeSWLVvv8mLSaA8pN6fLGStIMBqCLb0OD1I0ruRwfxtG08h23hKUmOGnWAp3p0enxP4m2-fIKS6OGCutqjlNWOnOL9Htu2Ng0Xsxy9aSvGXqjCkwe6QwiOyiDG8GLMFx0EHhGweXaEUE-v0iGLOQzfc6MfFyaLwWqM7BjgoxARaFxDwQISkImUlSbcmwPwJmnJftc5oZ5OcARY6JF3gWlaqpjuU3pRFBF-KPACe_v352UCPqaoSSvFF5stYscf6ruf8Yt86Wb-etrKy8C_bkWisa-xXddbRsTR8vZPMzytNmcBZ-jF-_KAX5d1E8jRBz0q0]--></g></svg>